<?xml version="1.0" encoding="UTF-8" standalone="no"?>
<svg
   version="1.1"
   width="95.897797mm"
   height="80.897797mm"
   viewBox="0 0 95.897798 80.897796"
   id="svg453"
   xmlns="http://www.w3.org/2000/svg"
   xmlns:svg="http://www.w3.org/2000/svg">
  <defs
     id="defs453" />
  <title
     id="title1">SVG Image created as thruster-pcb-User_Drawings.svg date 2025/02/19 11:36:14 </title>
  <desc
     id="desc1">Image generated by PCBNEW </desc>
  <g
     style="fill:#000000;fill-opacity:1;stroke:#000000;stroke-linecap:round;stroke-linejoin:round;stroke-opacity:1"
     id="g1"
     transform="translate(-109.2992,-62.4992)" />
  <g
     style="fill:#000000;fill-opacity:0;stroke:#000000;stroke-width:0;stroke-linecap:round;stroke-linejoin:round;stroke-opacity:1"
     id="g2"
     transform="translate(-109.2992,-62.4992)" />
  <g
     style="fill:#c2c2c2;fill-opacity:0;stroke:#c2c2c2;stroke-width:0;stroke-linecap:round;stroke-linejoin:round;stroke-opacity:1"
     id="g3"
     transform="translate(-109.2992,-62.4992)" />
  <g
     style="fill:#c2c2c2;fill-opacity:0;stroke:#c2c2c2;stroke-width:0.4;stroke-linecap:round;stroke-linejoin:round;stroke-opacity:1"
     id="g10"
     transform="translate(-109.2992,-62.4992)">
    <path
       d="m 118.15,126.35 a 5,5 0 0 0 5,5"
       id="path3" />
    <path
       d="m 123.15,71.35 h 70"
       id="path4" />
    <path
       d="m 193.15,131.35 a 5,5 0 0 0 5,-5"
       id="path5" />
    <path
       d="m 118.15,126.35 v -50"
       id="path6" />
    <path
       d="m 193.15,131.35 h -70"
       id="path7" />
    <path
       d="m 198.15,76.35 v 50"
       id="path8" />
    <path
       d="m 123.15,71.35 a 5,5 0 0 0 -5,5"
       id="path9" />
    <path
       d="m 198.15,76.35 a 5,5 0 0 0 -5,-5"
       id="path10" />
  </g>
  <g
     style="fill:#c2c2c2;fill-opacity:0;stroke:#c2c2c2;stroke-width:0.5;stroke-linecap:round;stroke-linejoin:round;stroke-opacity:1"
     id="g59"
     transform="translate(-109.2992,-62.4992)">
    <text
       x="158.14999"
       y="64.849998"
       textLength="11.7667"
       font-size="2.6667px"
       lengthAdjust="spacingAndGlyphs"
       text-anchor="middle"
       opacity="0"
       id="text10">70 mm</text>
    <g
       class="stroked-text"
       id="g58">
      <desc
         id="desc10">70 mm</desc>
      <path
         d="m 153.1024,62.7492 h 1.3333"
         id="path11" />
      <path
         d="m 154.4357,62.7492 -0.8571,2"
         id="path12" />
      <path
         d="m 155.5786,62.7492 h 0.1904"
         id="path13" />
      <path
         d="m 155.769,62.7492 0.1905,0.0953"
         id="path14" />
      <path
         d="m 155.9595,62.8445 0.0953,0.0952"
         id="path15" />
      <path
         d="m 156.0548,62.9397 0.0952,0.1905"
         id="path16" />
      <path
         d="m 156.15,63.1302 0.0952,0.3809"
         id="path17" />
      <path
         d="m 156.2452,63.5111 v 0.4762"
         id="path18" />
      <path
         d="m 156.2452,63.9873 -0.0952,0.381"
         id="path19" />
      <path
         d="m 156.15,64.3683 -0.0952,0.1905"
         id="path20" />
      <path
         d="m 156.0548,64.5588 -0.0953,0.0952"
         id="path21" />
      <path
         d="m 155.9595,64.654 -0.1905,0.0952"
         id="path22" />
      <path
         d="m 155.769,64.7492 h -0.1904"
         id="path23" />
      <path
         d="M 155.5786,64.7492 155.3881,64.654"
         id="path24" />
      <path
         d="m 155.3881,64.654 -0.0952,-0.0952"
         id="path25" />
      <path
         d="m 155.2929,64.5588 -0.0953,-0.1905"
         id="path26" />
      <path
         d="m 155.1976,64.3683 -0.0952,-0.381"
         id="path27" />
      <path
         d="M 155.1024,63.9873 V 63.5111"
         id="path28" />
      <path
         d="m 155.1024,63.5111 0.0952,-0.3809"
         id="path29" />
      <path
         d="m 155.1976,63.1302 0.0953,-0.1905"
         id="path30" />
      <path
         d="m 155.2929,62.9397 0.0952,-0.0952"
         id="path31" />
      <path
         d="m 155.3881,62.8445 0.1905,-0.0953"
         id="path32" />
      <path
         d="M 158.6262,64.7492 V 63.4159"
         id="path33" />
      <path
         d="m 158.6262,63.6064 0.0952,-0.0953"
         id="path34" />
      <path
         d="m 158.7214,63.5111 0.1905,-0.0952"
         id="path35" />
      <path
         d="m 158.9119,63.4159 h 0.2857"
         id="path36" />
      <path
         d="m 159.1976,63.4159 0.1905,0.0952"
         id="path37" />
      <path
         d="m 159.3881,63.5111 0.0952,0.1905"
         id="path38" />
      <path
         d="m 159.4833,63.7016 v 1.0476"
         id="path39" />
      <path
         d="m 159.4833,63.7016 0.0953,-0.1905"
         id="path40" />
      <path
         d="m 159.5786,63.5111 0.1904,-0.0952"
         id="path41" />
      <path
         d="m 159.769,63.4159 h 0.2858"
         id="path42" />
      <path
         d="m 160.0548,63.4159 0.1904,0.0952"
         id="path43" />
      <path
         d="m 160.2452,63.5111 0.0953,0.1905"
         id="path44" />
      <path
         d="m 160.3405,63.7016 v 1.0476"
         id="path45" />
      <path
         d="M 161.2929,64.7492 V 63.4159"
         id="path46" />
      <path
         d="m 161.2929,63.6064 0.0952,-0.0953"
         id="path47" />
      <path
         d="m 161.3881,63.5111 0.1905,-0.0952"
         id="path48" />
      <path
         d="m 161.5786,63.4159 h 0.2857"
         id="path49" />
      <path
         d="m 161.8643,63.4159 0.1905,0.0952"
         id="path50" />
      <path
         d="m 162.0548,63.5111 0.0952,0.1905"
         id="path51" />
      <path
         d="m 162.15,63.7016 v 1.0476"
         id="path52" />
      <path
         d="m 162.15,63.7016 0.0952,-0.1905"
         id="path53" />
      <path
         d="m 162.2452,63.5111 0.1905,-0.0952"
         id="path54" />
      <path
         d="m 162.4357,63.4159 h 0.2857"
         id="path55" />
      <path
         d="m 162.7214,63.4159 0.1905,0.0952"
         id="path56" />
      <path
         d="m 162.9119,63.5111 0.0952,0.1905"
         id="path57" />
      <path
         d="m 163.0071,63.7016 v 1.0476"
         id="path58" />
    </g>
  </g>
  <g
     style="fill:#c2c2c2;fill-opacity:0;stroke:#c2c2c2;stroke-width:0.4;stroke-linecap:round;stroke-linejoin:round;stroke-opacity:1"
     id="g66"
     transform="translate(-109.2992,-62.4992)">
    <path
       d="M 123.15,75.85 V 65.7636"
       id="path59" />
    <path
       d="M 193.15,75.85 V 65.7636"
       id="path60" />
    <path
       d="m 123.15,66.35 h 70"
       id="path61" />
    <path
       d="m 123.15,66.35 h 70"
       id="path62" />
    <path
       d="m 123.15,66.35 3.548,-1.847"
       id="path63" />
    <path
       d="m 123.15,66.35 3.548,1.847"
       id="path64" />
    <path
       d="m 193.15,66.35 -3.548,1.847"
       id="path65" />
    <path
       d="m 193.15,66.35 -3.548,-1.847"
       id="path66" />
  </g>
  <g
     style="fill:#c2c2c2;fill-opacity:0;stroke:#c2c2c2;stroke-width:0.5;stroke-linecap:round;stroke-linejoin:round;stroke-opacity:1"
     id="g128"
     transform="translate(-109.2992,-62.4992)">
    <g
       transform="rotate(-90,200.65,101.35)"
       id="g67">
      <text
         x="200.64999"
         y="102.35"
         textLength="11.7667"
         font-size="2.6667px"
         lengthAdjust="spacingAndGlyphs"
         text-anchor="middle"
         opacity="0"
         id="text66">50 mm</text>
    </g>
    <g
       class="stroked-text"
       id="g127">
      <desc
         id="desc67">50 mm</desc>
      <path
         d="m 199.5492,105.2548 v 0.9523"
         id="path67" />
      <path
         d="m 199.5492,106.2071 0.9524,0.0953"
         id="path68" />
      <path
         d="m 200.5016,106.3024 -0.0952,-0.0953"
         id="path69" />
      <path
         d="m 200.4064,106.2071 -0.0953,-0.1904"
         id="path70" />
      <path
         d="m 200.3111,106.0167 v -0.4762"
         id="path71" />
      <path
         d="m 200.3111,105.5405 0.0953,-0.1905"
         id="path72" />
      <path
         d="m 200.4064,105.35 0.0952,-0.0952"
         id="path73" />
      <path
         d="m 200.5016,105.2548 0.1905,-0.0953"
         id="path74" />
      <path
         d="m 200.6921,105.1595 h 0.4762"
         id="path75" />
      <path
         d="m 201.1683,105.1595 0.1905,0.0953"
         id="path76" />
      <path
         d="m 201.3588,105.2548 0.0952,0.0952"
         id="path77" />
      <path
         d="m 201.454,105.35 0.0952,0.1905"
         id="path78" />
      <path
         d="m 201.5492,105.5405 v 0.4762"
         id="path79" />
      <path
         d="m 201.5492,106.0167 -0.0952,0.1904"
         id="path80" />
      <path
         d="m 201.454,106.2071 -0.0952,0.0953"
         id="path81" />
      <path
         d="M 199.5492,103.9214 V 103.731"
         id="path82" />
      <path
         d="m 199.5492,103.731 0.0953,-0.1905"
         id="path83" />
      <path
         d="m 199.6445,103.5405 0.0952,-0.0953"
         id="path84" />
      <path
         d="m 199.7397,103.4452 0.1905,-0.0952"
         id="path85" />
      <path
         d="m 199.9302,103.35 0.3809,-0.0952"
         id="path86" />
      <path
         d="m 200.3111,103.2548 h 0.4762"
         id="path87" />
      <path
         d="m 200.7873,103.2548 0.381,0.0952"
         id="path88" />
      <path
         d="m 201.1683,103.35 0.1905,0.0952"
         id="path89" />
      <path
         d="m 201.3588,103.4452 0.0952,0.0953"
         id="path90" />
      <path
         d="m 201.454,103.5405 0.0952,0.1905"
         id="path91" />
      <path
         d="m 201.5492,103.731 v 0.1904"
         id="path92" />
      <path
         d="m 201.5492,103.9214 -0.0952,0.1905"
         id="path93" />
      <path
         d="m 201.454,104.1119 -0.0952,0.0952"
         id="path94" />
      <path
         d="m 201.3588,104.2071 -0.1905,0.0953"
         id="path95" />
      <path
         d="m 201.1683,104.3024 -0.381,0.0952"
         id="path96" />
      <path
         d="m 200.7873,104.3976 h -0.4762"
         id="path97" />
      <path
         d="m 200.3111,104.3976 -0.3809,-0.0952"
         id="path98" />
      <path
         d="m 199.9302,104.3024 -0.1905,-0.0953"
         id="path99" />
      <path
         d="m 199.7397,104.2071 -0.0952,-0.0952"
         id="path100" />
      <path
         d="m 199.6445,104.1119 -0.0953,-0.1905"
         id="path101" />
      <path
         d="m 201.5492,100.8738 h -1.3333"
         id="path102" />
      <path
         d="m 200.4064,100.8738 -0.0953,-0.0952"
         id="path103" />
      <path
         d="m 200.3111,100.7786 -0.0952,-0.1905"
         id="path104" />
      <path
         d="m 200.2159,100.5881 v -0.2857"
         id="path105" />
      <path
         d="m 200.2159,100.3024 0.0952,-0.1905"
         id="path106" />
      <path
         d="m 200.3111,100.1119 0.1905,-0.0952"
         id="path107" />
      <path
         d="m 200.5016,100.0167 h 1.0476"
         id="path108" />
      <path
         d="m 200.5016,100.0167 -0.1905,-0.0953"
         id="path109" />
      <path
         d="M 200.3111,99.9214 200.2159,99.731"
         id="path110" />
      <path
         d="M 200.2159,99.731 V 99.4452"
         id="path111" />
      <path
         d="m 200.2159,99.4452 0.0952,-0.1904"
         id="path112" />
      <path
         d="m 200.3111,99.2548 0.1905,-0.0953"
         id="path113" />
      <path
         d="m 200.5016,99.1595 h 1.0476"
         id="path114" />
      <path
         d="m 201.5492,98.2071 h -1.3333"
         id="path115" />
      <path
         d="m 200.4064,98.2071 -0.0953,-0.0952"
         id="path116" />
      <path
         d="m 200.3111,98.1119 -0.0952,-0.1905"
         id="path117" />
      <path
         d="M 200.2159,97.9214 V 97.6357"
         id="path118" />
      <path
         d="m 200.2159,97.6357 0.0952,-0.1905"
         id="path119" />
      <path
         d="M 200.3111,97.4452 200.5016,97.35"
         id="path120" />
      <path
         d="m 200.5016,97.35 h 1.0476"
         id="path121" />
      <path
         d="m 200.5016,97.35 -0.1905,-0.0952"
         id="path122" />
      <path
         d="m 200.3111,97.2548 -0.0952,-0.1905"
         id="path123" />
      <path
         d="M 200.2159,97.0643 V 96.7786"
         id="path124" />
      <path
         d="m 200.2159,96.7786 0.0952,-0.1905"
         id="path125" />
      <path
         d="m 200.3111,96.5881 0.1905,-0.0952"
         id="path126" />
      <path
         d="m 200.5016,96.4929 h 1.0476"
         id="path127" />
    </g>
  </g>
  <g
     style="fill:#c2c2c2;fill-opacity:0;stroke:#c2c2c2;stroke-width:0.4;stroke-linecap:round;stroke-linejoin:round;stroke-opacity:1"
     id="g135"
     transform="translate(-109.2992,-62.4992)">
    <path
       d="m 193.65,76.35 h 10.0864"
       id="path128" />
    <path
       d="m 193.65,126.35 h 10.0864"
       id="path129" />
    <path
       d="m 203.15,76.35 v 50"
       id="path130" />
    <path
       d="m 203.15,76.35 v 50"
       id="path131" />
    <path
       d="m 203.15,76.35 1.847,3.548"
       id="path132" />
    <path
       d="m 203.15,76.35 -1.847,3.548"
       id="path133" />
    <path
       d="m 203.15,126.35 -1.847,-3.548"
       id="path134" />
    <path
       d="m 203.15,126.35 1.847,-3.548"
       id="path135" />
  </g>
  <g
     style="fill:#c2c2c2;fill-opacity:0;stroke:#c2c2c2;stroke-width:0.5;stroke-linecap:round;stroke-linejoin:round;stroke-opacity:1"
     id="g213"
     transform="translate(-109.2992,-62.4992)">
    <text
       x="158.14999"
       y="139.85001"
       textLength="11.7667"
       font-size="2.6667px"
       lengthAdjust="spacingAndGlyphs"
       text-anchor="middle"
       opacity="0"
       id="text135">80 mm</text>
    <g
       class="stroked-text"
       id="g212">
      <desc
         id="desc135">80 mm</desc>
      <path
         d="m 153.5786,138.6064 -0.1905,-0.0953"
         id="path136" />
      <path
         d="m 153.3881,138.5111 -0.0952,-0.0952"
         id="path137" />
      <path
         d="m 153.2929,138.4159 -0.0953,-0.1905"
         id="path138" />
      <path
         d="m 153.1976,138.2254 v -0.0952"
         id="path139" />
      <path
         d="m 153.1976,138.1302 0.0953,-0.1905"
         id="path140" />
      <path
         d="m 153.2929,137.9397 0.0952,-0.0952"
         id="path141" />
      <path
         d="m 153.3881,137.8445 0.1905,-0.0953"
         id="path142" />
      <path
         d="m 153.5786,137.7492 h 0.3809"
         id="path143" />
      <path
         d="m 153.9595,137.7492 0.1905,0.0953"
         id="path144" />
      <path
         d="m 154.15,137.8445 0.0952,0.0952"
         id="path145" />
      <path
         d="m 154.2452,137.9397 0.0953,0.1905"
         id="path146" />
      <path
         d="m 154.3405,138.1302 v 0.0952"
         id="path147" />
      <path
         d="m 154.3405,138.2254 -0.0953,0.1905"
         id="path148" />
      <path
         d="m 154.2452,138.4159 -0.0952,0.0952"
         id="path149" />
      <path
         d="m 154.15,138.5111 -0.1905,0.0953"
         id="path150" />
      <path
         d="m 153.9595,138.6064 h -0.3809"
         id="path151" />
      <path
         d="m 153.5786,138.6064 -0.1905,0.0952"
         id="path152" />
      <path
         d="m 153.3881,138.7016 -0.0952,0.0953"
         id="path153" />
      <path
         d="m 153.2929,138.7969 -0.0953,0.1904"
         id="path154" />
      <path
         d="m 153.1976,138.9873 v 0.381"
         id="path155" />
      <path
         d="m 153.1976,139.3683 0.0953,0.1905"
         id="path156" />
      <path
         d="m 153.2929,139.5588 0.0952,0.0952"
         id="path157" />
      <path
         d="m 153.3881,139.654 0.1905,0.0952"
         id="path158" />
      <path
         d="m 153.5786,139.7492 h 0.3809"
         id="path159" />
      <path
         d="M 153.9595,139.7492 154.15,139.654"
         id="path160" />
      <path
         d="m 154.15,139.654 0.0952,-0.0952"
         id="path161" />
      <path
         d="m 154.2452,139.5588 0.0953,-0.1905"
         id="path162" />
      <path
         d="m 154.3405,139.3683 v -0.381"
         id="path163" />
      <path
         d="m 154.3405,138.9873 -0.0953,-0.1904"
         id="path164" />
      <path
         d="M 154.2452,138.7969 154.15,138.7016"
         id="path165" />
      <path
         d="m 154.15,138.7016 -0.1905,-0.0952"
         id="path166" />
      <path
         d="m 155.5786,137.7492 h 0.1904"
         id="path167" />
      <path
         d="m 155.769,137.7492 0.1905,0.0953"
         id="path168" />
      <path
         d="m 155.9595,137.8445 0.0953,0.0952"
         id="path169" />
      <path
         d="m 156.0548,137.9397 0.0952,0.1905"
         id="path170" />
      <path
         d="m 156.15,138.1302 0.0952,0.3809"
         id="path171" />
      <path
         d="m 156.2452,138.5111 v 0.4762"
         id="path172" />
      <path
         d="m 156.2452,138.9873 -0.0952,0.381"
         id="path173" />
      <path
         d="m 156.15,139.3683 -0.0952,0.1905"
         id="path174" />
      <path
         d="m 156.0548,139.5588 -0.0953,0.0952"
         id="path175" />
      <path
         d="m 155.9595,139.654 -0.1905,0.0952"
         id="path176" />
      <path
         d="m 155.769,139.7492 h -0.1904"
         id="path177" />
      <path
         d="m 155.5786,139.7492 -0.1905,-0.0952"
         id="path178" />
      <path
         d="m 155.3881,139.654 -0.0952,-0.0952"
         id="path179" />
      <path
         d="m 155.2929,139.5588 -0.0953,-0.1905"
         id="path180" />
      <path
         d="m 155.1976,139.3683 -0.0952,-0.381"
         id="path181" />
      <path
         d="m 155.1024,138.9873 v -0.4762"
         id="path182" />
      <path
         d="m 155.1024,138.5111 0.0952,-0.3809"
         id="path183" />
      <path
         d="m 155.1976,138.1302 0.0953,-0.1905"
         id="path184" />
      <path
         d="m 155.2929,137.9397 0.0952,-0.0952"
         id="path185" />
      <path
         d="m 155.3881,137.8445 0.1905,-0.0953"
         id="path186" />
      <path
         d="m 158.6262,139.7492 v -1.3333"
         id="path187" />
      <path
         d="m 158.6262,138.6064 0.0952,-0.0953"
         id="path188" />
      <path
         d="m 158.7214,138.5111 0.1905,-0.0952"
         id="path189" />
      <path
         d="m 158.9119,138.4159 h 0.2857"
         id="path190" />
      <path
         d="m 159.1976,138.4159 0.1905,0.0952"
         id="path191" />
      <path
         d="m 159.3881,138.5111 0.0952,0.1905"
         id="path192" />
      <path
         d="m 159.4833,138.7016 v 1.0476"
         id="path193" />
      <path
         d="m 159.4833,138.7016 0.0953,-0.1905"
         id="path194" />
      <path
         d="m 159.5786,138.5111 0.1904,-0.0952"
         id="path195" />
      <path
         d="m 159.769,138.4159 h 0.2858"
         id="path196" />
      <path
         d="m 160.0548,138.4159 0.1904,0.0952"
         id="path197" />
      <path
         d="m 160.2452,138.5111 0.0953,0.1905"
         id="path198" />
      <path
         d="m 160.3405,138.7016 v 1.0476"
         id="path199" />
      <path
         d="m 161.2929,139.7492 v -1.3333"
         id="path200" />
      <path
         d="m 161.2929,138.6064 0.0952,-0.0953"
         id="path201" />
      <path
         d="m 161.3881,138.5111 0.1905,-0.0952"
         id="path202" />
      <path
         d="m 161.5786,138.4159 h 0.2857"
         id="path203" />
      <path
         d="m 161.8643,138.4159 0.1905,0.0952"
         id="path204" />
      <path
         d="m 162.0548,138.5111 0.0952,0.1905"
         id="path205" />
      <path
         d="m 162.15,138.7016 v 1.0476"
         id="path206" />
      <path
         d="m 162.15,138.7016 0.0952,-0.1905"
         id="path207" />
      <path
         d="m 162.2452,138.5111 0.1905,-0.0952"
         id="path208" />
      <path
         d="m 162.4357,138.4159 h 0.2857"
         id="path209" />
      <path
         d="m 162.7214,138.4159 0.1905,0.0952"
         id="path210" />
      <path
         d="m 162.9119,138.5111 0.0952,0.1905"
         id="path211" />
      <path
         d="m 163.0071,138.7016 v 1.0476"
         id="path212" />
    </g>
  </g>
  <g
     style="fill:#c2c2c2;fill-opacity:0;stroke:#c2c2c2;stroke-width:0.4;stroke-linecap:round;stroke-linejoin:round;stroke-opacity:1"
     id="g220"
     transform="translate(-109.2992,-62.4992)">
    <path
       d="m 118.15,116.85 v 25.0864"
       id="path213" />
    <path
       d="m 198.15,116.85 v 25.0864"
       id="path214" />
    <path
       d="m 118.15,141.35 h 80"
       id="path215" />
    <path
       d="m 118.15,141.35 h 80"
       id="path216" />
    <path
       d="m 118.15,141.35 3.548,-1.847"
       id="path217" />
    <path
       d="m 118.15,141.35 3.548,1.847"
       id="path218" />
    <path
       d="m 198.15,141.35 -3.548,1.847"
       id="path219" />
    <path
       d="m 198.15,141.35 -3.548,-1.847"
       id="path220" />
  </g>
  <g
     style="fill:#c2c2c2;fill-opacity:0;stroke:#c2c2c2;stroke-width:0.5;stroke-linecap:round;stroke-linejoin:round;stroke-opacity:1"
     id="g288"
     transform="translate(-109.2992,-62.4992)">
    <g
       transform="rotate(-90,110.65,101.35)"
       id="g221">
      <text
         x="110.65"
         y="102.35"
         textLength="11.7667"
         font-size="2.6667px"
         lengthAdjust="spacingAndGlyphs"
         text-anchor="middle"
         opacity="0"
         id="text220">60 mm</text>
    </g>
    <g
       class="stroked-text"
       id="g287">
      <desc
         id="desc221">60 mm</desc>
      <path
         d="m 109.5492,105.35 v 0.381"
         id="path221" />
      <path
         d="m 109.5492,105.731 0.0953,0.1904"
         id="path222" />
      <path
         d="m 109.6445,105.9214 0.0952,0.0953"
         id="path223" />
      <path
         d="m 109.7397,106.0167 0.2857,0.1904"
         id="path224" />
      <path
         d="m 110.0254,106.2071 0.381,0.0953"
         id="path225" />
      <path
         d="m 110.4064,106.3024 h 0.7619"
         id="path226" />
      <path
         d="m 111.1683,106.3024 0.1905,-0.0953"
         id="path227" />
      <path
         d="m 111.3588,106.2071 0.0952,-0.0952"
         id="path228" />
      <path
         d="m 111.454,106.1119 0.0952,-0.1905"
         id="path229" />
      <path
         d="m 111.5492,105.9214 v -0.3809"
         id="path230" />
      <path
         d="M 111.5492,105.5405 111.454,105.35"
         id="path231" />
      <path
         d="m 111.454,105.35 -0.0952,-0.0952"
         id="path232" />
      <path
         d="m 111.3588,105.2548 -0.1905,-0.0953"
         id="path233" />
      <path
         d="m 111.1683,105.1595 h -0.4762"
         id="path234" />
      <path
         d="m 110.6921,105.1595 -0.1905,0.0953"
         id="path235" />
      <path
         d="m 110.5016,105.2548 -0.0952,0.0952"
         id="path236" />
      <path
         d="m 110.4064,105.35 -0.0953,0.1905"
         id="path237" />
      <path
         d="m 110.3111,105.5405 v 0.3809"
         id="path238" />
      <path
         d="m 110.3111,105.9214 0.0953,0.1905"
         id="path239" />
      <path
         d="m 110.4064,106.1119 0.0952,0.0952"
         id="path240" />
      <path
         d="m 110.5016,106.2071 0.1905,0.0953"
         id="path241" />
      <path
         d="M 109.5492,103.9214 V 103.731"
         id="path242" />
      <path
         d="m 109.5492,103.731 0.0953,-0.1905"
         id="path243" />
      <path
         d="m 109.6445,103.5405 0.0952,-0.0953"
         id="path244" />
      <path
         d="m 109.7397,103.4452 0.1905,-0.0952"
         id="path245" />
      <path
         d="m 109.9302,103.35 0.3809,-0.0952"
         id="path246" />
      <path
         d="m 110.3111,103.2548 h 0.4762"
         id="path247" />
      <path
         d="m 110.7873,103.2548 0.381,0.0952"
         id="path248" />
      <path
         d="m 111.1683,103.35 0.1905,0.0952"
         id="path249" />
      <path
         d="m 111.3588,103.4452 0.0952,0.0953"
         id="path250" />
      <path
         d="m 111.454,103.5405 0.0952,0.1905"
         id="path251" />
      <path
         d="m 111.5492,103.731 v 0.1904"
         id="path252" />
      <path
         d="m 111.5492,103.9214 -0.0952,0.1905"
         id="path253" />
      <path
         d="m 111.454,104.1119 -0.0952,0.0952"
         id="path254" />
      <path
         d="m 111.3588,104.2071 -0.1905,0.0953"
         id="path255" />
      <path
         d="m 111.1683,104.3024 -0.381,0.0952"
         id="path256" />
      <path
         d="m 110.7873,104.3976 h -0.4762"
         id="path257" />
      <path
         d="m 110.3111,104.3976 -0.3809,-0.0952"
         id="path258" />
      <path
         d="m 109.9302,104.3024 -0.1905,-0.0953"
         id="path259" />
      <path
         d="m 109.7397,104.2071 -0.0952,-0.0952"
         id="path260" />
      <path
         d="m 109.6445,104.1119 -0.0953,-0.1905"
         id="path261" />
      <path
         d="m 111.5492,100.8738 h -1.3333"
         id="path262" />
      <path
         d="m 110.4064,100.8738 -0.0953,-0.0952"
         id="path263" />
      <path
         d="m 110.3111,100.7786 -0.0952,-0.1905"
         id="path264" />
      <path
         d="m 110.2159,100.5881 v -0.2857"
         id="path265" />
      <path
         d="m 110.2159,100.3024 0.0952,-0.1905"
         id="path266" />
      <path
         d="m 110.3111,100.1119 0.1905,-0.0952"
         id="path267" />
      <path
         d="m 110.5016,100.0167 h 1.0476"
         id="path268" />
      <path
         d="m 110.5016,100.0167 -0.1905,-0.0953"
         id="path269" />
      <path
         d="M 110.3111,99.9214 110.2159,99.731"
         id="path270" />
      <path
         d="M 110.2159,99.731 V 99.4452"
         id="path271" />
      <path
         d="m 110.2159,99.4452 0.0952,-0.1904"
         id="path272" />
      <path
         d="m 110.3111,99.2548 0.1905,-0.0953"
         id="path273" />
      <path
         d="m 110.5016,99.1595 h 1.0476"
         id="path274" />
      <path
         d="m 111.5492,98.2071 h -1.3333"
         id="path275" />
      <path
         d="m 110.4064,98.2071 -0.0953,-0.0952"
         id="path276" />
      <path
         d="m 110.3111,98.1119 -0.0952,-0.1905"
         id="path277" />
      <path
         d="M 110.2159,97.9214 V 97.6357"
         id="path278" />
      <path
         d="m 110.2159,97.6357 0.0952,-0.1905"
         id="path279" />
      <path
         d="M 110.3111,97.4452 110.5016,97.35"
         id="path280" />
      <path
         d="m 110.5016,97.35 h 1.0476"
         id="path281" />
      <path
         d="m 110.5016,97.35 -0.1905,-0.0952"
         id="path282" />
      <path
         d="m 110.3111,97.2548 -0.0952,-0.1905"
         id="path283" />
      <path
         d="M 110.2159,97.0643 V 96.7786"
         id="path284" />
      <path
         d="m 110.2159,96.7786 0.0952,-0.1905"
         id="path285" />
      <path
         d="m 110.3111,96.5881 0.1905,-0.0952"
         id="path286" />
      <path
         d="m 110.5016,96.4929 h 1.0476"
         id="path287" />
    </g>
  </g>
  <g
     style="fill:#c2c2c2;fill-opacity:0;stroke:#c2c2c2;stroke-width:0.4;stroke-linecap:round;stroke-linejoin:round;stroke-opacity:1"
     id="g295"
     transform="translate(-109.2992,-62.4992)">
    <path
       d="M 122.65,131.35 H 112.5636"
       id="path288" />
    <path
       d="M 122.65,71.35 H 112.5636"
       id="path289" />
    <path
       d="m 113.15,131.35 v -60"
       id="path290" />
    <path
       d="m 113.15,131.35 v -60"
       id="path291" />
    <path
       d="m 113.15,131.35 -1.847,-3.548"
       id="path292" />
    <path
       d="m 113.15,131.35 1.847,-3.548"
       id="path293" />
    <path
       d="m 113.15,71.35 1.847,3.548"
       id="path294" />
    <path
       d="m 113.15,71.35 -1.847,3.548"
       id="path295" />
  </g>
  <g
     style="fill:#c2c2c2;fill-opacity:0;stroke:#c2c2c2;stroke-width:0.5;stroke-linecap:round;stroke-linejoin:round;stroke-opacity:1"
     id="g350"
     transform="translate(-109.2992,-62.4992)">
    <text
       x="185.14999"
       y="82.349998"
       textLength="12.719"
       font-size="2.6667px"
       lengthAdjust="spacingAndGlyphs"
       text-anchor="middle"
       opacity="0"
       id="text295">3.2 mm</text>
    <g
       class="stroked-text"
       id="g349">
      <desc
         id="desc295">3.2 mm</desc>
      <path
         d="m 179.6262,80.2492 h 1.2381"
         id="path296" />
      <path
         d="m 180.8643,80.2492 -0.6667,0.7619"
         id="path297" />
      <path
         d="m 180.1976,81.0111 h 0.2857"
         id="path298" />
      <path
         d="m 180.4833,81.0111 0.1905,0.0953"
         id="path299" />
      <path
         d="m 180.6738,81.1064 0.0952,0.0952"
         id="path300" />
      <path
         d="m 180.769,81.2016 0.0953,0.1905"
         id="path301" />
      <path
         d="m 180.8643,81.3921 v 0.4762"
         id="path302" />
      <path
         d="m 180.8643,81.8683 -0.0953,0.1905"
         id="path303" />
      <path
         d="m 180.769,82.0588 -0.0952,0.0952"
         id="path304" />
      <path
         d="m 180.6738,82.154 -0.1905,0.0952"
         id="path305" />
      <path
         d="m 180.4833,82.2492 h -0.5714"
         id="path306" />
      <path
         d="M 179.9119,82.2492 179.7214,82.154"
         id="path307" />
      <path
         d="m 179.7214,82.154 -0.0952,-0.0952"
         id="path308" />
      <path
         d="m 181.7214,82.0588 0.0953,0.0952"
         id="path309" />
      <path
         d="m 181.8167,82.154 -0.0953,0.0952"
         id="path310" />
      <path
         d="M 181.7214,82.2492 181.6262,82.154"
         id="path311" />
      <path
         d="m 181.6262,82.154 0.0952,-0.0952"
         id="path312" />
      <path
         d="m 181.7214,82.0588 v 0.1904"
         id="path313" />
      <path
         d="m 182.5786,80.4397 0.0952,-0.0952"
         id="path314" />
      <path
         d="m 182.6738,80.3445 0.1905,-0.0953"
         id="path315" />
      <path
         d="m 182.8643,80.2492 h 0.4762"
         id="path316" />
      <path
         d="m 183.3405,80.2492 0.1905,0.0953"
         id="path317" />
      <path
         d="m 183.531,80.3445 0.0952,0.0952"
         id="path318" />
      <path
         d="m 183.6262,80.4397 0.0952,0.1905"
         id="path319" />
      <path
         d="m 183.7214,80.6302 v 0.1905"
         id="path320" />
      <path
         d="m 183.7214,80.8207 -0.0952,0.2857"
         id="path321" />
      <path
         d="m 183.6262,81.1064 -1.1429,1.1428"
         id="path322" />
      <path
         d="m 182.4833,82.2492 h 1.2381"
         id="path323" />
      <path
         d="M 186.1024,82.2492 V 80.9159"
         id="path324" />
      <path
         d="m 186.1024,81.1064 0.0952,-0.0953"
         id="path325" />
      <path
         d="m 186.1976,81.0111 0.1905,-0.0952"
         id="path326" />
      <path
         d="m 186.3881,80.9159 h 0.2857"
         id="path327" />
      <path
         d="m 186.6738,80.9159 0.1905,0.0952"
         id="path328" />
      <path
         d="m 186.8643,81.0111 0.0952,0.1905"
         id="path329" />
      <path
         d="m 186.9595,81.2016 v 1.0476"
         id="path330" />
      <path
         d="m 186.9595,81.2016 0.0953,-0.1905"
         id="path331" />
      <path
         d="m 187.0548,81.0111 0.1904,-0.0952"
         id="path332" />
      <path
         d="m 187.2452,80.9159 h 0.2858"
         id="path333" />
      <path
         d="m 187.531,80.9159 0.1904,0.0952"
         id="path334" />
      <path
         d="m 187.7214,81.0111 0.0953,0.1905"
         id="path335" />
      <path
         d="m 187.8167,81.2016 v 1.0476"
         id="path336" />
      <path
         d="M 188.769,82.2492 V 80.9159"
         id="path337" />
      <path
         d="m 188.769,81.1064 0.0953,-0.0953"
         id="path338" />
      <path
         d="m 188.8643,81.0111 0.1905,-0.0952"
         id="path339" />
      <path
         d="m 189.0548,80.9159 h 0.2857"
         id="path340" />
      <path
         d="m 189.3405,80.9159 0.1905,0.0952"
         id="path341" />
      <path
         d="m 189.531,81.0111 0.0952,0.1905"
         id="path342" />
      <path
         d="m 189.6262,81.2016 v 1.0476"
         id="path343" />
      <path
         d="m 189.6262,81.2016 0.0952,-0.1905"
         id="path344" />
      <path
         d="m 189.7214,81.0111 0.1905,-0.0952"
         id="path345" />
      <path
         d="m 189.9119,80.9159 h 0.2857"
         id="path346" />
      <path
         d="m 190.1976,80.9159 0.1905,0.0952"
         id="path347" />
      <path
         d="m 190.3881,81.0111 0.0952,0.1905"
         id="path348" />
      <path
         d="m 190.4833,81.2016 v 1.0476"
         id="path349" />
    </g>
  </g>
  <g
     style="fill:#c2c2c2;fill-opacity:0;stroke:#c2c2c2;stroke-width:0.4;stroke-linecap:round;stroke-linejoin:round;stroke-opacity:1"
     id="g402"
     transform="translate(-109.2992,-62.4992)">
    <path
       d="m 191.55,76.45 v 5.4864"
       id="path350" />
    <path
       d="m 194.75,76.45 v 5.4864"
       id="path351" />
    <path
       d="M 192.5095,81.35 H 194.75"
       id="path352" />
    <path
       d="m 191.55,81.35 0.887,-0.4617"
       id="path353" />
    <path
       d="m 191.55,81.35 0.887,0.4617"
       id="path354" />
    <path
       d="m 194.75,81.35 -0.887,0.4617"
       id="path355" />
    <path
       d="m 194.75,81.35 -0.887,-0.4617"
       id="path356" />
    <circle
       cx="123.15"
       cy="76.349998"
       r="1.6"
       id="circle356" />
    <circle
       cx="193.14999"
       cy="76.349998"
       r="1.6"
       id="circle357" />
    <circle
       cx="193.14999"
       cy="126.35"
       r="1.6"
       id="circle358" />
    <circle
       cx="123.15"
       cy="126.35"
       r="1.6"
       id="circle359" />
    <g
       id="g359" />
    <g
       id="g360" />
    <g
       id="g361" />
    <g
       id="g362" />
    <g
       id="g363" />
    <g
       id="g364" />
    <g
       id="g365" />
    <g
       id="g366" />
    <g
       id="g367" />
    <g
       id="g368" />
    <g
       id="g369" />
    <g
       id="g370" />
    <g
       id="g371" />
    <g
       id="g372" />
    <g
       id="g373" />
    <g
       id="g374" />
    <g
       id="g375" />
    <g
       id="g376" />
    <g
       id="g377" />
    <g
       id="g378" />
    <g
       id="g379" />
    <g
       id="g380" />
    <g
       id="g381" />
    <g
       id="g382" />
    <g
       id="g383" />
    <g
       id="g384" />
    <g
       id="g385" />
    <g
       id="g386" />
    <g
       id="g387" />
    <g
       id="g388" />
    <g
       id="g389" />
    <g
       id="g390" />
    <g
       id="g391" />
    <g
       id="g392" />
    <g
       id="g393" />
    <g
       id="g394" />
    <g
       id="g395" />
    <g
       id="g396" />
    <g
       id="g397" />
    <g
       id="g398" />
    <g
       id="g399" />
    <g
       id="g400" />
    <g
       id="g401" />
  </g>
  <g
     style="fill:#000000;fill-opacity:0;stroke:#000000;stroke-width:0.4;stroke-linecap:round;stroke-linejoin:round;stroke-opacity:1"
     id="g403"
     transform="translate(-109.2992,-62.4992)" />
  <g
     style="fill:#d0d2cd;fill-opacity:0;stroke:#d0d2cd;stroke-width:0.4;stroke-linecap:round;stroke-linejoin:round;stroke-opacity:1"
     id="g453"
     transform="translate(-109.2992,-62.4992)">
    <path
       d="m 118.15,126.35 v -50"
       id="path403" />
    <path
       d="m 193.15,131.35 h -70"
       id="path404" />
    <path
       d="m 198.15,76.35 v 50"
       id="path405" />
    <path
       d="m 123.15,71.35 a 5,5 0 0 0 -5,5"
       id="path406" />
    <path
       d="m 198.15,76.35 a 5,5 0 0 0 -5,-5"
       id="path407" />
    <path
       d="m 193.15,131.35 a 5,5 0 0 0 5,-5"
       id="path408" />
    <path
       d="m 123.15,71.35 h 70"
       id="path409" />
    <path
       d="m 118.15,126.35 a 5,5 0 0 0 5,5"
       id="path410" />
    <g
       id="g410" />
    <g
       id="g411" />
    <g
       id="g412" />
    <g
       id="g413" />
    <g
       id="g414" />
    <g
       id="g415" />
    <g
       id="g416" />
    <g
       id="g417" />
    <g
       id="g418" />
    <g
       id="g419" />
    <g
       id="g420" />
    <g
       id="g421" />
    <g
       id="g422" />
    <g
       id="g423" />
    <g
       id="g424" />
    <g
       id="g425" />
    <g
       id="g426" />
    <g
       id="g427" />
    <g
       id="g428" />
    <g
       id="g429" />
    <g
       id="g430" />
    <g
       id="g431" />
    <g
       id="g432" />
    <g
       id="g433" />
    <g
       id="g434" />
    <g
       id="g435" />
    <g
       id="g436" />
    <g
       id="g437" />
    <g
       id="g438" />
    <g
       id="g439" />
    <g
       id="g440" />
    <g
       id="g441" />
    <g
       id="g442" />
    <g
       id="g443" />
    <g
       id="g444" />
    <g
       id="g445" />
    <g
       id="g446" />
    <g
       id="g447" />
    <g
       id="g448" />
    <g
       id="g449" />
    <g
       id="g450" />
    <g
       id="g451" />
    <g
       id="g452" />
  </g>
</svg>
