M48
; DRILL file {KiCad 7.0.11} date Wed 19 Feb 2025 11:42:57 AM EST
; FORMAT={-:-/ absolute / metric / decimal}
; #@! TF.CreationDate,2025-02-19T11:42:57-05:00
; #@! TF.GenerationSoftware,Kicad,Pcbnew,7.0.11
; #@! TF.FileFunction,Plated,1,2,PTH
FMAT,2
METRIC
; #@! TA.AperFunction,Plated,PTH,ViaDrill
T1C0.250
; #@! TA.AperFunction,Plated,PTH,ComponentDrill
T2C1.016
; #@! TA.AperFunction,Plated,PTH,ComponentDrill
T3C3.200
%
G90
G05
T1
X132.15Y-116.35
X135.61Y-78.89
X135.61Y-123.81
X138.15Y-78.89
X138.15Y-123.81
X140.69Y-78.89
X140.69Y-123.81
X143.651Y-88.241
X145.584Y-96.179
X155.61Y-78.89
X155.61Y-123.81
X158.15Y-78.89
X158.15Y-123.81
X160.69Y-78.89
X160.69Y-123.81
X163.9Y-104.1
X165.2Y-100.7
X165.2Y-102.0
X165.2Y-103.3
X165.85Y-101.35
X165.85Y-102.65
X168.65Y-93.1
X168.9Y-97.494
X168.9Y-99.35
X173.086Y-97.283
X174.556Y-95.069
X175.15Y-99.35
X175.15Y-102.35
X175.61Y-78.89
X175.61Y-123.81
X176.15Y-99.35
X176.15Y-102.85
X177.15Y-101.35
X178.15Y-78.89
X178.15Y-123.81
X178.4Y-94.85
X178.9Y-92.1
X180.69Y-78.89
X180.69Y-123.81
X190.61Y-101.35
X190.61Y-103.89
T2
X124.1Y-111.51
X126.64Y-111.51
X129.18Y-111.51
X131.72Y-111.51
X134.26Y-91.19
X134.26Y-111.51
X136.8Y-91.19
X136.8Y-111.51
X139.34Y-91.19
X139.34Y-111.51
X141.88Y-91.19
X141.88Y-111.51
X144.42Y-91.19
X144.42Y-111.51
X146.96Y-91.19
X146.96Y-111.51
X149.5Y-91.19
X149.5Y-111.51
X152.04Y-91.19
X152.04Y-111.51
X154.58Y-91.19
X154.58Y-111.51
X157.12Y-91.19
X157.12Y-111.51
X159.66Y-91.19
X159.66Y-111.51
X162.2Y-91.19
X162.2Y-111.51
T3
X123.15Y-76.35
X123.15Y-126.35
X193.15Y-76.35
X193.15Y-126.35
M30
