G04 #@! TF.GenerationSoftware,KiCad,Pcbnew,7.0.11*
G04 #@! TF.CreationDate,2025-02-19T11:42:19-05:00*
G04 #@! TF.ProjectId,thruster-pcb,74687275-7374-4657-922d-7063622e6b69,1.0*
G04 #@! TF.SameCoordinates,Original*
G04 #@! TF.FileFunction,Soldermask,Top*
G04 #@! TF.FilePolarity,Negative*
%FSLAX46Y46*%
G04 Gerber Fmt 4.6, Leading zero omitted, Abs format (unit mm)*
G04 Created by KiCad (PCBNEW 7.0.11) date 2025-02-19 11:42:19*
%MOMM*%
%LPD*%
G01*
G04 APERTURE LIST*
G04 Aperture macros list*
%AMRoundRect*
0 Rectangle with rounded corners*
0 $1 Rounding radius*
0 $2 $3 $4 $5 $6 $7 $8 $9 X,Y pos of 4 corners*
0 Add a 4 corners polygon primitive as box body*
4,1,4,$2,$3,$4,$5,$6,$7,$8,$9,$2,$3,0*
0 Add four circle primitives for the rounded corners*
1,1,$1+$1,$2,$3*
1,1,$1+$1,$4,$5*
1,1,$1+$1,$6,$7*
1,1,$1+$1,$8,$9*
0 Add four rect primitives between the rounded corners*
20,1,$1+$1,$2,$3,$4,$5,0*
20,1,$1+$1,$4,$5,$6,$7,0*
20,1,$1+$1,$6,$7,$8,$9,0*
20,1,$1+$1,$8,$9,$2,$3,0*%
G04 Aperture macros list end*
%ADD10RoundRect,0.048000X-0.072000X-0.252000X0.072000X-0.252000X0.072000X0.252000X-0.072000X0.252000X0*%
%ADD11RoundRect,0.048000X-0.252000X-0.072000X0.252000X-0.072000X0.252000X0.072000X-0.252000X0.072000X0*%
%ADD12R,2.050000X3.050000*%
%ADD13RoundRect,0.487500X0.487500X0.862500X-0.487500X0.862500X-0.487500X-0.862500X0.487500X-0.862500X0*%
%ADD14C,1.600000*%
%ADD15RoundRect,0.255000X0.255000X1.345000X-0.255000X1.345000X-0.255000X-1.345000X0.255000X-1.345000X0*%
%ADD16C,1.879600*%
%ADD17C,6.400000*%
%ADD18C,1.000000*%
%ADD19RoundRect,0.140000X-0.140000X-0.170000X0.140000X-0.170000X0.140000X0.170000X-0.140000X0.170000X0*%
%ADD20RoundRect,0.487500X-0.487500X-0.862500X0.487500X-0.862500X0.487500X0.862500X-0.487500X0.862500X0*%
%ADD21RoundRect,0.255000X-0.255000X-1.345000X0.255000X-1.345000X0.255000X1.345000X-0.255000X1.345000X0*%
%ADD22RoundRect,0.140000X0.140000X0.170000X-0.140000X0.170000X-0.140000X-0.170000X0.140000X-0.170000X0*%
%ADD23RoundRect,0.487500X-0.862500X0.487500X-0.862500X-0.487500X0.862500X-0.487500X0.862500X0.487500X0*%
%ADD24RoundRect,0.255000X-1.345000X0.255000X-1.345000X-0.255000X1.345000X-0.255000X1.345000X0.255000X0*%
%ADD25R,2.200000X1.000000*%
G04 APERTURE END LIST*
D10*
X171610000Y-99200000D03*
D11*
X170710000Y-99600000D03*
X170710000Y-100100000D03*
X170710000Y-100600000D03*
X170710000Y-101100000D03*
X170710000Y-101600000D03*
X170710000Y-102100000D03*
X170710000Y-102600000D03*
X170710000Y-103100000D03*
D10*
X171610000Y-103500000D03*
X173110000Y-103500000D03*
D11*
X174010000Y-103100000D03*
X174010000Y-102600000D03*
X174010000Y-102100000D03*
X174010000Y-101600000D03*
X174010000Y-101100000D03*
X174010000Y-100600000D03*
X174010000Y-100100000D03*
X174010000Y-99600000D03*
D10*
X173110000Y-99200000D03*
D12*
X172360000Y-101350000D03*
D13*
X184415000Y-128800000D03*
X184415000Y-123900000D03*
D14*
X183840000Y-126350000D03*
X172460000Y-126350000D03*
D13*
X171885000Y-128800000D03*
X171885000Y-123900000D03*
D15*
X175610000Y-120450000D03*
X178150000Y-120450000D03*
X180690000Y-120450000D03*
D16*
X124100000Y-111510000D03*
X126640000Y-111510000D03*
X129180000Y-111510000D03*
X131720000Y-111510000D03*
X134260000Y-111510000D03*
X136800000Y-111510000D03*
X139340000Y-111510000D03*
X141880000Y-111510000D03*
X144420000Y-111510000D03*
X146960000Y-111510000D03*
X149500000Y-111510000D03*
X152040000Y-111510000D03*
X154580000Y-111510000D03*
X157120000Y-111510000D03*
X159660000Y-111510000D03*
X162200000Y-111510000D03*
X162200000Y-91190000D03*
X159660000Y-91190000D03*
X157120000Y-91190000D03*
X154580000Y-91190000D03*
X152040000Y-91190000D03*
X149500000Y-91190000D03*
X146960000Y-91190000D03*
X144420000Y-91190000D03*
X141880000Y-91190000D03*
X139340000Y-91190000D03*
X136800000Y-91190000D03*
X134260000Y-91190000D03*
D17*
X123150000Y-76350000D03*
D18*
X120050000Y-81030000D03*
D17*
X193150000Y-76350000D03*
D19*
X174420000Y-98100000D03*
X175380000Y-98100000D03*
D20*
X131885000Y-73900000D03*
X131885000Y-78800000D03*
D14*
X132460000Y-76350000D03*
X143840000Y-76350000D03*
D20*
X144415000Y-73900000D03*
X144415000Y-78800000D03*
D21*
X140690000Y-82250000D03*
X138150000Y-82250000D03*
X135610000Y-82250000D03*
D18*
X196250000Y-121670000D03*
D17*
X193150000Y-126350000D03*
X123150000Y-126350000D03*
D20*
X171885000Y-73900000D03*
X171885000Y-78800000D03*
D14*
X172460000Y-76350000D03*
X183840000Y-76350000D03*
D20*
X184415000Y-73900000D03*
X184415000Y-78800000D03*
D21*
X180690000Y-82250000D03*
X178150000Y-82250000D03*
X175610000Y-82250000D03*
D13*
X144415000Y-128800000D03*
X144415000Y-123900000D03*
D14*
X143840000Y-126350000D03*
X132460000Y-126350000D03*
D13*
X131885000Y-128800000D03*
X131885000Y-123900000D03*
D15*
X135610000Y-120450000D03*
X138150000Y-120450000D03*
X140690000Y-120450000D03*
D22*
X170630000Y-104600000D03*
X169670000Y-104600000D03*
D13*
X164415000Y-128800000D03*
X164415000Y-123900000D03*
D14*
X163840000Y-126350000D03*
X152460000Y-126350000D03*
D13*
X151885000Y-128800000D03*
X151885000Y-123900000D03*
D15*
X155610000Y-120450000D03*
X158150000Y-120450000D03*
X160690000Y-120450000D03*
D23*
X195600000Y-95085000D03*
X190700000Y-95085000D03*
D14*
X193150000Y-95660000D03*
X193150000Y-107040000D03*
D23*
X195600000Y-107615000D03*
X190700000Y-107615000D03*
D24*
X187250000Y-103890000D03*
X187250000Y-101350000D03*
X187250000Y-98810000D03*
D20*
X151885000Y-73900000D03*
X151885000Y-78800000D03*
D14*
X152460000Y-76350000D03*
X163840000Y-76350000D03*
D20*
X164415000Y-73900000D03*
X164415000Y-78800000D03*
D21*
X160690000Y-82250000D03*
X158150000Y-82250000D03*
X155610000Y-82250000D03*
D25*
X121350000Y-116350000D03*
X130150000Y-116350000D03*
M02*
