%TF.GenerationSoftware,KiCad,Pcbnew,7.0.11*%
%TF.CreationDate,2025-02-19T11:42:59-05:00*%
%TF.ProjectId,thruster-pcb,74687275-7374-4657-922d-7063622e6b69,1.0*%
%TF.SameCoordinates,Original*%
%TF.FileFunction,Drillmap*%
%TF.FilePolarity,Positive*%
%FSLAX45Y45*%
G04 Gerber Fmt 4.5, Leading zero omitted, Abs format (unit mm)*
G04 Created by KiCad (PCBNEW 7.0.11) date 2025-02-19 11:42:59*
%MOMM*%
%LPD*%
G01*
G04 APERTURE LIST*
%ADD10C,0.400000*%
%ADD11C,0.200000*%
%ADD12C,0.100000*%
%ADD13C,0.101600*%
%ADD14C,0.320000*%
G04 APERTURE END LIST*
D10*
X11815000Y-12635000D02*
X11815000Y-7635000D01*
X19315000Y-13135000D02*
X12315000Y-13135000D01*
X19815000Y-7635000D02*
X19815000Y-12635000D01*
X12315000Y-7135000D02*
G75*
G03*
X11815000Y-7635000I0J-500000D01*
G01*
X19815000Y-7635000D02*
G75*
G03*
X19315000Y-7135000I-500000J0D01*
G01*
X19315000Y-13135000D02*
G75*
G03*
X19815000Y-12635000I0J500000D01*
G01*
X12315000Y-7135000D02*
X19315000Y-7135000D01*
X11815000Y-12635000D02*
G75*
G03*
X12315000Y-13135000I500000J0D01*
G01*
D11*
D12*
X13202500Y-11622500D02*
X13227500Y-11647500D01*
X13227500Y-11622500D02*
X13202500Y-11647500D01*
X13548500Y-7876500D02*
X13573500Y-7901500D01*
X13573500Y-7876500D02*
X13548500Y-7901500D01*
X13548500Y-12368500D02*
X13573500Y-12393500D01*
X13573500Y-12368500D02*
X13548500Y-12393500D01*
X13802500Y-7876500D02*
X13827500Y-7901500D01*
X13827500Y-7876500D02*
X13802500Y-7901500D01*
X13802500Y-12368500D02*
X13827500Y-12393500D01*
X13827500Y-12368500D02*
X13802500Y-12393500D01*
X14056500Y-7876500D02*
X14081500Y-7901500D01*
X14081500Y-7876500D02*
X14056500Y-7901500D01*
X14056500Y-12368500D02*
X14081500Y-12393500D01*
X14081500Y-12368500D02*
X14056500Y-12393500D01*
X14352650Y-8811630D02*
X14377650Y-8836630D01*
X14377650Y-8811630D02*
X14352650Y-8836630D01*
X14545930Y-9605390D02*
X14570930Y-9630390D01*
X14570930Y-9605390D02*
X14545930Y-9630390D01*
X15548500Y-7876500D02*
X15573500Y-7901500D01*
X15573500Y-7876500D02*
X15548500Y-7901500D01*
X15548500Y-12368500D02*
X15573500Y-12393500D01*
X15573500Y-12368500D02*
X15548500Y-12393500D01*
X15802500Y-7876500D02*
X15827500Y-7901500D01*
X15827500Y-7876500D02*
X15802500Y-7901500D01*
X15802500Y-12368500D02*
X15827500Y-12393500D01*
X15827500Y-12368500D02*
X15802500Y-12393500D01*
X16056500Y-7876500D02*
X16081500Y-7901500D01*
X16081500Y-7876500D02*
X16056500Y-7901500D01*
X16056500Y-12368500D02*
X16081500Y-12393500D01*
X16081500Y-12368500D02*
X16056500Y-12393500D01*
X16377500Y-10397500D02*
X16402500Y-10422500D01*
X16402500Y-10397500D02*
X16377500Y-10422500D01*
X16507500Y-10057500D02*
X16532500Y-10082500D01*
X16532500Y-10057500D02*
X16507500Y-10082500D01*
X16507500Y-10187500D02*
X16532500Y-10212500D01*
X16532500Y-10187500D02*
X16507500Y-10212500D01*
X16507500Y-10317500D02*
X16532500Y-10342500D01*
X16532500Y-10317500D02*
X16507500Y-10342500D01*
X16572500Y-10122500D02*
X16597500Y-10147500D01*
X16597500Y-10122500D02*
X16572500Y-10147500D01*
X16572500Y-10252500D02*
X16597500Y-10277500D01*
X16597500Y-10252500D02*
X16572500Y-10277500D01*
X16852500Y-9297500D02*
X16877500Y-9322500D01*
X16877500Y-9297500D02*
X16852500Y-9322500D01*
X16877500Y-9736860D02*
X16902500Y-9761860D01*
X16902500Y-9736860D02*
X16877500Y-9761860D01*
X16877500Y-9922500D02*
X16902500Y-9947500D01*
X16902500Y-9922500D02*
X16877500Y-9947500D01*
X17296140Y-9715800D02*
X17321140Y-9740800D01*
X17321140Y-9715800D02*
X17296140Y-9740800D01*
X17443070Y-9494400D02*
X17468070Y-9519400D01*
X17468070Y-9494400D02*
X17443070Y-9519400D01*
X17502500Y-9922500D02*
X17527500Y-9947500D01*
X17527500Y-9922500D02*
X17502500Y-9947500D01*
X17502500Y-10222500D02*
X17527500Y-10247500D01*
X17527500Y-10222500D02*
X17502500Y-10247500D01*
X17548500Y-7876500D02*
X17573500Y-7901500D01*
X17573500Y-7876500D02*
X17548500Y-7901500D01*
X17548500Y-12368500D02*
X17573500Y-12393500D01*
X17573500Y-12368500D02*
X17548500Y-12393500D01*
X17602500Y-9922500D02*
X17627500Y-9947500D01*
X17627500Y-9922500D02*
X17602500Y-9947500D01*
X17602500Y-10272500D02*
X17627500Y-10297500D01*
X17627500Y-10272500D02*
X17602500Y-10297500D01*
X17702500Y-10122500D02*
X17727500Y-10147500D01*
X17727500Y-10122500D02*
X17702500Y-10147500D01*
X17802500Y-7876500D02*
X17827500Y-7901500D01*
X17827500Y-7876500D02*
X17802500Y-7901500D01*
X17802500Y-12368500D02*
X17827500Y-12393500D01*
X17827500Y-12368500D02*
X17802500Y-12393500D01*
X17827500Y-9472500D02*
X17852500Y-9497500D01*
X17852500Y-9472500D02*
X17827500Y-9497500D01*
X17877500Y-9197500D02*
X17902500Y-9222500D01*
X17902500Y-9197500D02*
X17877500Y-9222500D01*
X18056500Y-7876500D02*
X18081500Y-7901500D01*
X18081500Y-7876500D02*
X18056500Y-7901500D01*
X18056500Y-12368500D02*
X18081500Y-12393500D01*
X18081500Y-12368500D02*
X18056500Y-12393500D01*
X19048500Y-10122500D02*
X19073500Y-10147500D01*
X19073500Y-10122500D02*
X19048500Y-10147500D01*
X19048500Y-10376500D02*
X19073500Y-10401500D01*
X19073500Y-10376500D02*
X19048500Y-10401500D01*
D13*
X12460800Y-11151000D02*
G75*
G03*
X12359200Y-11151000I-50800J0D01*
G01*
X12359200Y-11151000D02*
G75*
G03*
X12460800Y-11151000I50800J0D01*
G01*
X12714800Y-11151000D02*
G75*
G03*
X12613200Y-11151000I-50800J0D01*
G01*
X12613200Y-11151000D02*
G75*
G03*
X12714800Y-11151000I50800J0D01*
G01*
X12968800Y-11151000D02*
G75*
G03*
X12867200Y-11151000I-50800J0D01*
G01*
X12867200Y-11151000D02*
G75*
G03*
X12968800Y-11151000I50800J0D01*
G01*
X13222800Y-11151000D02*
G75*
G03*
X13121200Y-11151000I-50800J0D01*
G01*
X13121200Y-11151000D02*
G75*
G03*
X13222800Y-11151000I50800J0D01*
G01*
X13476800Y-9119000D02*
G75*
G03*
X13375200Y-9119000I-50800J0D01*
G01*
X13375200Y-9119000D02*
G75*
G03*
X13476800Y-9119000I50800J0D01*
G01*
X13476800Y-11151000D02*
G75*
G03*
X13375200Y-11151000I-50800J0D01*
G01*
X13375200Y-11151000D02*
G75*
G03*
X13476800Y-11151000I50800J0D01*
G01*
X13730800Y-9119000D02*
G75*
G03*
X13629200Y-9119000I-50800J0D01*
G01*
X13629200Y-9119000D02*
G75*
G03*
X13730800Y-9119000I50800J0D01*
G01*
X13730800Y-11151000D02*
G75*
G03*
X13629200Y-11151000I-50800J0D01*
G01*
X13629200Y-11151000D02*
G75*
G03*
X13730800Y-11151000I50800J0D01*
G01*
X13984800Y-9119000D02*
G75*
G03*
X13883200Y-9119000I-50800J0D01*
G01*
X13883200Y-9119000D02*
G75*
G03*
X13984800Y-9119000I50800J0D01*
G01*
X13984800Y-11151000D02*
G75*
G03*
X13883200Y-11151000I-50800J0D01*
G01*
X13883200Y-11151000D02*
G75*
G03*
X13984800Y-11151000I50800J0D01*
G01*
X14238800Y-9119000D02*
G75*
G03*
X14137200Y-9119000I-50800J0D01*
G01*
X14137200Y-9119000D02*
G75*
G03*
X14238800Y-9119000I50800J0D01*
G01*
X14238800Y-11151000D02*
G75*
G03*
X14137200Y-11151000I-50800J0D01*
G01*
X14137200Y-11151000D02*
G75*
G03*
X14238800Y-11151000I50800J0D01*
G01*
X14492800Y-9119000D02*
G75*
G03*
X14391200Y-9119000I-50800J0D01*
G01*
X14391200Y-9119000D02*
G75*
G03*
X14492800Y-9119000I50800J0D01*
G01*
X14492800Y-11151000D02*
G75*
G03*
X14391200Y-11151000I-50800J0D01*
G01*
X14391200Y-11151000D02*
G75*
G03*
X14492800Y-11151000I50800J0D01*
G01*
X14746800Y-9119000D02*
G75*
G03*
X14645200Y-9119000I-50800J0D01*
G01*
X14645200Y-9119000D02*
G75*
G03*
X14746800Y-9119000I50800J0D01*
G01*
X14746800Y-11151000D02*
G75*
G03*
X14645200Y-11151000I-50800J0D01*
G01*
X14645200Y-11151000D02*
G75*
G03*
X14746800Y-11151000I50800J0D01*
G01*
X15000800Y-9119000D02*
G75*
G03*
X14899200Y-9119000I-50800J0D01*
G01*
X14899200Y-9119000D02*
G75*
G03*
X15000800Y-9119000I50800J0D01*
G01*
X15000800Y-11151000D02*
G75*
G03*
X14899200Y-11151000I-50800J0D01*
G01*
X14899200Y-11151000D02*
G75*
G03*
X15000800Y-11151000I50800J0D01*
G01*
X15254800Y-9119000D02*
G75*
G03*
X15153200Y-9119000I-50800J0D01*
G01*
X15153200Y-9119000D02*
G75*
G03*
X15254800Y-9119000I50800J0D01*
G01*
X15254800Y-11151000D02*
G75*
G03*
X15153200Y-11151000I-50800J0D01*
G01*
X15153200Y-11151000D02*
G75*
G03*
X15254800Y-11151000I50800J0D01*
G01*
X15508800Y-9119000D02*
G75*
G03*
X15407200Y-9119000I-50800J0D01*
G01*
X15407200Y-9119000D02*
G75*
G03*
X15508800Y-9119000I50800J0D01*
G01*
X15508800Y-11151000D02*
G75*
G03*
X15407200Y-11151000I-50800J0D01*
G01*
X15407200Y-11151000D02*
G75*
G03*
X15508800Y-11151000I50800J0D01*
G01*
X15762800Y-9119000D02*
G75*
G03*
X15661200Y-9119000I-50800J0D01*
G01*
X15661200Y-9119000D02*
G75*
G03*
X15762800Y-9119000I50800J0D01*
G01*
X15762800Y-11151000D02*
G75*
G03*
X15661200Y-11151000I-50800J0D01*
G01*
X15661200Y-11151000D02*
G75*
G03*
X15762800Y-11151000I50800J0D01*
G01*
X16016800Y-9119000D02*
G75*
G03*
X15915200Y-9119000I-50800J0D01*
G01*
X15915200Y-9119000D02*
G75*
G03*
X16016800Y-9119000I50800J0D01*
G01*
X16016800Y-11151000D02*
G75*
G03*
X15915200Y-11151000I-50800J0D01*
G01*
X15915200Y-11151000D02*
G75*
G03*
X16016800Y-11151000I50800J0D01*
G01*
X16270800Y-9119000D02*
G75*
G03*
X16169200Y-9119000I-50800J0D01*
G01*
X16169200Y-9119000D02*
G75*
G03*
X16270800Y-9119000I50800J0D01*
G01*
X16270800Y-11151000D02*
G75*
G03*
X16169200Y-11151000I-50800J0D01*
G01*
X16169200Y-11151000D02*
G75*
G03*
X16270800Y-11151000I50800J0D01*
G01*
D14*
X12315000Y-7475000D02*
X12315000Y-7795000D01*
X12155000Y-7635000D02*
X12475000Y-7635000D01*
X12315000Y-12475000D02*
X12315000Y-12795000D01*
X12155000Y-12635000D02*
X12475000Y-12635000D01*
X19315000Y-7475000D02*
X19315000Y-7795000D01*
X19155000Y-7635000D02*
X19475000Y-7635000D01*
X19315000Y-12475000D02*
X19315000Y-12795000D01*
X19155000Y-12635000D02*
X19475000Y-12635000D01*
D11*
X12055777Y-13466484D02*
X12055777Y-13266484D01*
X12055777Y-13266484D02*
X12103396Y-13266484D01*
X12103396Y-13266484D02*
X12131967Y-13276008D01*
X12131967Y-13276008D02*
X12151015Y-13295055D01*
X12151015Y-13295055D02*
X12160539Y-13314103D01*
X12160539Y-13314103D02*
X12170062Y-13352198D01*
X12170062Y-13352198D02*
X12170062Y-13380769D01*
X12170062Y-13380769D02*
X12160539Y-13418865D01*
X12160539Y-13418865D02*
X12151015Y-13437912D01*
X12151015Y-13437912D02*
X12131967Y-13456960D01*
X12131967Y-13456960D02*
X12103396Y-13466484D01*
X12103396Y-13466484D02*
X12055777Y-13466484D01*
X12255777Y-13466484D02*
X12255777Y-13333150D01*
X12255777Y-13371246D02*
X12265301Y-13352198D01*
X12265301Y-13352198D02*
X12274824Y-13342674D01*
X12274824Y-13342674D02*
X12293872Y-13333150D01*
X12293872Y-13333150D02*
X12312920Y-13333150D01*
X12379586Y-13466484D02*
X12379586Y-13333150D01*
X12379586Y-13266484D02*
X12370062Y-13276008D01*
X12370062Y-13276008D02*
X12379586Y-13285531D01*
X12379586Y-13285531D02*
X12389110Y-13276008D01*
X12389110Y-13276008D02*
X12379586Y-13266484D01*
X12379586Y-13266484D02*
X12379586Y-13285531D01*
X12503396Y-13466484D02*
X12484348Y-13456960D01*
X12484348Y-13456960D02*
X12474824Y-13437912D01*
X12474824Y-13437912D02*
X12474824Y-13266484D01*
X12608158Y-13466484D02*
X12589110Y-13456960D01*
X12589110Y-13456960D02*
X12579586Y-13437912D01*
X12579586Y-13437912D02*
X12579586Y-13266484D01*
X12836729Y-13466484D02*
X12836729Y-13266484D01*
X12836729Y-13266484D02*
X12903396Y-13409341D01*
X12903396Y-13409341D02*
X12970062Y-13266484D01*
X12970062Y-13266484D02*
X12970062Y-13466484D01*
X13151015Y-13466484D02*
X13151015Y-13361722D01*
X13151015Y-13361722D02*
X13141491Y-13342674D01*
X13141491Y-13342674D02*
X13122443Y-13333150D01*
X13122443Y-13333150D02*
X13084348Y-13333150D01*
X13084348Y-13333150D02*
X13065301Y-13342674D01*
X13151015Y-13456960D02*
X13131967Y-13466484D01*
X13131967Y-13466484D02*
X13084348Y-13466484D01*
X13084348Y-13466484D02*
X13065301Y-13456960D01*
X13065301Y-13456960D02*
X13055777Y-13437912D01*
X13055777Y-13437912D02*
X13055777Y-13418865D01*
X13055777Y-13418865D02*
X13065301Y-13399817D01*
X13065301Y-13399817D02*
X13084348Y-13390293D01*
X13084348Y-13390293D02*
X13131967Y-13390293D01*
X13131967Y-13390293D02*
X13151015Y-13380769D01*
X13246253Y-13333150D02*
X13246253Y-13533150D01*
X13246253Y-13342674D02*
X13265301Y-13333150D01*
X13265301Y-13333150D02*
X13303396Y-13333150D01*
X13303396Y-13333150D02*
X13322443Y-13342674D01*
X13322443Y-13342674D02*
X13331967Y-13352198D01*
X13331967Y-13352198D02*
X13341491Y-13371246D01*
X13341491Y-13371246D02*
X13341491Y-13428388D01*
X13341491Y-13428388D02*
X13331967Y-13447436D01*
X13331967Y-13447436D02*
X13322443Y-13456960D01*
X13322443Y-13456960D02*
X13303396Y-13466484D01*
X13303396Y-13466484D02*
X13265301Y-13466484D01*
X13265301Y-13466484D02*
X13246253Y-13456960D01*
X13427205Y-13447436D02*
X13436729Y-13456960D01*
X13436729Y-13456960D02*
X13427205Y-13466484D01*
X13427205Y-13466484D02*
X13417682Y-13456960D01*
X13417682Y-13456960D02*
X13427205Y-13447436D01*
X13427205Y-13447436D02*
X13427205Y-13466484D01*
X13427205Y-13342674D02*
X13436729Y-13352198D01*
X13436729Y-13352198D02*
X13427205Y-13361722D01*
X13427205Y-13361722D02*
X13417682Y-13352198D01*
X13417682Y-13352198D02*
X13427205Y-13342674D01*
X13427205Y-13342674D02*
X13427205Y-13361722D01*
D12*
X11770000Y-13782500D02*
X11795000Y-13807500D01*
X11795000Y-13782500D02*
X11770000Y-13807500D01*
D11*
X12093872Y-13686484D02*
X12112920Y-13686484D01*
X12112920Y-13686484D02*
X12131967Y-13696008D01*
X12131967Y-13696008D02*
X12141491Y-13705531D01*
X12141491Y-13705531D02*
X12151015Y-13724579D01*
X12151015Y-13724579D02*
X12160539Y-13762674D01*
X12160539Y-13762674D02*
X12160539Y-13810293D01*
X12160539Y-13810293D02*
X12151015Y-13848388D01*
X12151015Y-13848388D02*
X12141491Y-13867436D01*
X12141491Y-13867436D02*
X12131967Y-13876960D01*
X12131967Y-13876960D02*
X12112920Y-13886484D01*
X12112920Y-13886484D02*
X12093872Y-13886484D01*
X12093872Y-13886484D02*
X12074824Y-13876960D01*
X12074824Y-13876960D02*
X12065301Y-13867436D01*
X12065301Y-13867436D02*
X12055777Y-13848388D01*
X12055777Y-13848388D02*
X12046253Y-13810293D01*
X12046253Y-13810293D02*
X12046253Y-13762674D01*
X12046253Y-13762674D02*
X12055777Y-13724579D01*
X12055777Y-13724579D02*
X12065301Y-13705531D01*
X12065301Y-13705531D02*
X12074824Y-13696008D01*
X12074824Y-13696008D02*
X12093872Y-13686484D01*
X12246253Y-13867436D02*
X12255777Y-13876960D01*
X12255777Y-13876960D02*
X12246253Y-13886484D01*
X12246253Y-13886484D02*
X12236729Y-13876960D01*
X12236729Y-13876960D02*
X12246253Y-13867436D01*
X12246253Y-13867436D02*
X12246253Y-13886484D01*
X12331967Y-13705531D02*
X12341491Y-13696008D01*
X12341491Y-13696008D02*
X12360539Y-13686484D01*
X12360539Y-13686484D02*
X12408158Y-13686484D01*
X12408158Y-13686484D02*
X12427205Y-13696008D01*
X12427205Y-13696008D02*
X12436729Y-13705531D01*
X12436729Y-13705531D02*
X12446253Y-13724579D01*
X12446253Y-13724579D02*
X12446253Y-13743627D01*
X12446253Y-13743627D02*
X12436729Y-13772198D01*
X12436729Y-13772198D02*
X12322443Y-13886484D01*
X12322443Y-13886484D02*
X12446253Y-13886484D01*
X12627205Y-13686484D02*
X12531967Y-13686484D01*
X12531967Y-13686484D02*
X12522443Y-13781722D01*
X12522443Y-13781722D02*
X12531967Y-13772198D01*
X12531967Y-13772198D02*
X12551015Y-13762674D01*
X12551015Y-13762674D02*
X12598634Y-13762674D01*
X12598634Y-13762674D02*
X12617682Y-13772198D01*
X12617682Y-13772198D02*
X12627205Y-13781722D01*
X12627205Y-13781722D02*
X12636729Y-13800769D01*
X12636729Y-13800769D02*
X12636729Y-13848388D01*
X12636729Y-13848388D02*
X12627205Y-13867436D01*
X12627205Y-13867436D02*
X12617682Y-13876960D01*
X12617682Y-13876960D02*
X12598634Y-13886484D01*
X12598634Y-13886484D02*
X12551015Y-13886484D01*
X12551015Y-13886484D02*
X12531967Y-13876960D01*
X12531967Y-13876960D02*
X12522443Y-13867436D01*
X12760539Y-13686484D02*
X12779586Y-13686484D01*
X12779586Y-13686484D02*
X12798634Y-13696008D01*
X12798634Y-13696008D02*
X12808158Y-13705531D01*
X12808158Y-13705531D02*
X12817682Y-13724579D01*
X12817682Y-13724579D02*
X12827205Y-13762674D01*
X12827205Y-13762674D02*
X12827205Y-13810293D01*
X12827205Y-13810293D02*
X12817682Y-13848388D01*
X12817682Y-13848388D02*
X12808158Y-13867436D01*
X12808158Y-13867436D02*
X12798634Y-13876960D01*
X12798634Y-13876960D02*
X12779586Y-13886484D01*
X12779586Y-13886484D02*
X12760539Y-13886484D01*
X12760539Y-13886484D02*
X12741491Y-13876960D01*
X12741491Y-13876960D02*
X12731967Y-13867436D01*
X12731967Y-13867436D02*
X12722443Y-13848388D01*
X12722443Y-13848388D02*
X12712920Y-13810293D01*
X12712920Y-13810293D02*
X12712920Y-13762674D01*
X12712920Y-13762674D02*
X12722443Y-13724579D01*
X12722443Y-13724579D02*
X12731967Y-13705531D01*
X12731967Y-13705531D02*
X12741491Y-13696008D01*
X12741491Y-13696008D02*
X12760539Y-13686484D01*
X12912920Y-13886484D02*
X12912920Y-13753150D01*
X12912920Y-13772198D02*
X12922443Y-13762674D01*
X12922443Y-13762674D02*
X12941491Y-13753150D01*
X12941491Y-13753150D02*
X12970063Y-13753150D01*
X12970063Y-13753150D02*
X12989110Y-13762674D01*
X12989110Y-13762674D02*
X12998634Y-13781722D01*
X12998634Y-13781722D02*
X12998634Y-13886484D01*
X12998634Y-13781722D02*
X13008158Y-13762674D01*
X13008158Y-13762674D02*
X13027205Y-13753150D01*
X13027205Y-13753150D02*
X13055777Y-13753150D01*
X13055777Y-13753150D02*
X13074824Y-13762674D01*
X13074824Y-13762674D02*
X13084348Y-13781722D01*
X13084348Y-13781722D02*
X13084348Y-13886484D01*
X13179586Y-13886484D02*
X13179586Y-13753150D01*
X13179586Y-13772198D02*
X13189110Y-13762674D01*
X13189110Y-13762674D02*
X13208158Y-13753150D01*
X13208158Y-13753150D02*
X13236729Y-13753150D01*
X13236729Y-13753150D02*
X13255777Y-13762674D01*
X13255777Y-13762674D02*
X13265301Y-13781722D01*
X13265301Y-13781722D02*
X13265301Y-13886484D01*
X13265301Y-13781722D02*
X13274824Y-13762674D01*
X13274824Y-13762674D02*
X13293872Y-13753150D01*
X13293872Y-13753150D02*
X13322443Y-13753150D01*
X13322443Y-13753150D02*
X13341491Y-13762674D01*
X13341491Y-13762674D02*
X13351015Y-13781722D01*
X13351015Y-13781722D02*
X13351015Y-13886484D01*
X13741491Y-13676960D02*
X13570063Y-13934103D01*
X13998634Y-13686484D02*
X14017682Y-13686484D01*
X14017682Y-13686484D02*
X14036729Y-13696008D01*
X14036729Y-13696008D02*
X14046253Y-13705531D01*
X14046253Y-13705531D02*
X14055777Y-13724579D01*
X14055777Y-13724579D02*
X14065301Y-13762674D01*
X14065301Y-13762674D02*
X14065301Y-13810293D01*
X14065301Y-13810293D02*
X14055777Y-13848388D01*
X14055777Y-13848388D02*
X14046253Y-13867436D01*
X14046253Y-13867436D02*
X14036729Y-13876960D01*
X14036729Y-13876960D02*
X14017682Y-13886484D01*
X14017682Y-13886484D02*
X13998634Y-13886484D01*
X13998634Y-13886484D02*
X13979586Y-13876960D01*
X13979586Y-13876960D02*
X13970063Y-13867436D01*
X13970063Y-13867436D02*
X13960539Y-13848388D01*
X13960539Y-13848388D02*
X13951015Y-13810293D01*
X13951015Y-13810293D02*
X13951015Y-13762674D01*
X13951015Y-13762674D02*
X13960539Y-13724579D01*
X13960539Y-13724579D02*
X13970063Y-13705531D01*
X13970063Y-13705531D02*
X13979586Y-13696008D01*
X13979586Y-13696008D02*
X13998634Y-13686484D01*
X14151015Y-13867436D02*
X14160539Y-13876960D01*
X14160539Y-13876960D02*
X14151015Y-13886484D01*
X14151015Y-13886484D02*
X14141491Y-13876960D01*
X14141491Y-13876960D02*
X14151015Y-13867436D01*
X14151015Y-13867436D02*
X14151015Y-13886484D01*
X14284348Y-13686484D02*
X14303396Y-13686484D01*
X14303396Y-13686484D02*
X14322444Y-13696008D01*
X14322444Y-13696008D02*
X14331967Y-13705531D01*
X14331967Y-13705531D02*
X14341491Y-13724579D01*
X14341491Y-13724579D02*
X14351015Y-13762674D01*
X14351015Y-13762674D02*
X14351015Y-13810293D01*
X14351015Y-13810293D02*
X14341491Y-13848388D01*
X14341491Y-13848388D02*
X14331967Y-13867436D01*
X14331967Y-13867436D02*
X14322444Y-13876960D01*
X14322444Y-13876960D02*
X14303396Y-13886484D01*
X14303396Y-13886484D02*
X14284348Y-13886484D01*
X14284348Y-13886484D02*
X14265301Y-13876960D01*
X14265301Y-13876960D02*
X14255777Y-13867436D01*
X14255777Y-13867436D02*
X14246253Y-13848388D01*
X14246253Y-13848388D02*
X14236729Y-13810293D01*
X14236729Y-13810293D02*
X14236729Y-13762674D01*
X14236729Y-13762674D02*
X14246253Y-13724579D01*
X14246253Y-13724579D02*
X14255777Y-13705531D01*
X14255777Y-13705531D02*
X14265301Y-13696008D01*
X14265301Y-13696008D02*
X14284348Y-13686484D01*
X14474825Y-13686484D02*
X14493872Y-13686484D01*
X14493872Y-13686484D02*
X14512920Y-13696008D01*
X14512920Y-13696008D02*
X14522444Y-13705531D01*
X14522444Y-13705531D02*
X14531967Y-13724579D01*
X14531967Y-13724579D02*
X14541491Y-13762674D01*
X14541491Y-13762674D02*
X14541491Y-13810293D01*
X14541491Y-13810293D02*
X14531967Y-13848388D01*
X14531967Y-13848388D02*
X14522444Y-13867436D01*
X14522444Y-13867436D02*
X14512920Y-13876960D01*
X14512920Y-13876960D02*
X14493872Y-13886484D01*
X14493872Y-13886484D02*
X14474825Y-13886484D01*
X14474825Y-13886484D02*
X14455777Y-13876960D01*
X14455777Y-13876960D02*
X14446253Y-13867436D01*
X14446253Y-13867436D02*
X14436729Y-13848388D01*
X14436729Y-13848388D02*
X14427206Y-13810293D01*
X14427206Y-13810293D02*
X14427206Y-13762674D01*
X14427206Y-13762674D02*
X14436729Y-13724579D01*
X14436729Y-13724579D02*
X14446253Y-13705531D01*
X14446253Y-13705531D02*
X14455777Y-13696008D01*
X14455777Y-13696008D02*
X14474825Y-13686484D01*
X14636729Y-13886484D02*
X14674825Y-13886484D01*
X14674825Y-13886484D02*
X14693872Y-13876960D01*
X14693872Y-13876960D02*
X14703396Y-13867436D01*
X14703396Y-13867436D02*
X14722444Y-13838865D01*
X14722444Y-13838865D02*
X14731967Y-13800769D01*
X14731967Y-13800769D02*
X14731967Y-13724579D01*
X14731967Y-13724579D02*
X14722444Y-13705531D01*
X14722444Y-13705531D02*
X14712920Y-13696008D01*
X14712920Y-13696008D02*
X14693872Y-13686484D01*
X14693872Y-13686484D02*
X14655777Y-13686484D01*
X14655777Y-13686484D02*
X14636729Y-13696008D01*
X14636729Y-13696008D02*
X14627206Y-13705531D01*
X14627206Y-13705531D02*
X14617682Y-13724579D01*
X14617682Y-13724579D02*
X14617682Y-13772198D01*
X14617682Y-13772198D02*
X14627206Y-13791246D01*
X14627206Y-13791246D02*
X14636729Y-13800769D01*
X14636729Y-13800769D02*
X14655777Y-13810293D01*
X14655777Y-13810293D02*
X14693872Y-13810293D01*
X14693872Y-13810293D02*
X14712920Y-13800769D01*
X14712920Y-13800769D02*
X14722444Y-13791246D01*
X14722444Y-13791246D02*
X14731967Y-13772198D01*
X14846253Y-13772198D02*
X14827206Y-13762674D01*
X14827206Y-13762674D02*
X14817682Y-13753150D01*
X14817682Y-13753150D02*
X14808158Y-13734103D01*
X14808158Y-13734103D02*
X14808158Y-13724579D01*
X14808158Y-13724579D02*
X14817682Y-13705531D01*
X14817682Y-13705531D02*
X14827206Y-13696008D01*
X14827206Y-13696008D02*
X14846253Y-13686484D01*
X14846253Y-13686484D02*
X14884348Y-13686484D01*
X14884348Y-13686484D02*
X14903396Y-13696008D01*
X14903396Y-13696008D02*
X14912920Y-13705531D01*
X14912920Y-13705531D02*
X14922444Y-13724579D01*
X14922444Y-13724579D02*
X14922444Y-13734103D01*
X14922444Y-13734103D02*
X14912920Y-13753150D01*
X14912920Y-13753150D02*
X14903396Y-13762674D01*
X14903396Y-13762674D02*
X14884348Y-13772198D01*
X14884348Y-13772198D02*
X14846253Y-13772198D01*
X14846253Y-13772198D02*
X14827206Y-13781722D01*
X14827206Y-13781722D02*
X14817682Y-13791246D01*
X14817682Y-13791246D02*
X14808158Y-13810293D01*
X14808158Y-13810293D02*
X14808158Y-13848388D01*
X14808158Y-13848388D02*
X14817682Y-13867436D01*
X14817682Y-13867436D02*
X14827206Y-13876960D01*
X14827206Y-13876960D02*
X14846253Y-13886484D01*
X14846253Y-13886484D02*
X14884348Y-13886484D01*
X14884348Y-13886484D02*
X14903396Y-13876960D01*
X14903396Y-13876960D02*
X14912920Y-13867436D01*
X14912920Y-13867436D02*
X14922444Y-13848388D01*
X14922444Y-13848388D02*
X14922444Y-13810293D01*
X14922444Y-13810293D02*
X14912920Y-13791246D01*
X14912920Y-13791246D02*
X14903396Y-13781722D01*
X14903396Y-13781722D02*
X14884348Y-13772198D01*
X14998634Y-13686484D02*
X14998634Y-13724579D01*
X15074825Y-13686484D02*
X15074825Y-13724579D01*
X15370063Y-13962674D02*
X15360539Y-13953150D01*
X15360539Y-13953150D02*
X15341491Y-13924579D01*
X15341491Y-13924579D02*
X15331968Y-13905531D01*
X15331968Y-13905531D02*
X15322444Y-13876960D01*
X15322444Y-13876960D02*
X15312920Y-13829341D01*
X15312920Y-13829341D02*
X15312920Y-13791246D01*
X15312920Y-13791246D02*
X15322444Y-13743627D01*
X15322444Y-13743627D02*
X15331968Y-13715055D01*
X15331968Y-13715055D02*
X15341491Y-13696008D01*
X15341491Y-13696008D02*
X15360539Y-13667436D01*
X15360539Y-13667436D02*
X15370063Y-13657912D01*
X15531968Y-13753150D02*
X15531968Y-13886484D01*
X15484348Y-13676960D02*
X15436729Y-13819817D01*
X15436729Y-13819817D02*
X15560539Y-13819817D01*
X15741491Y-13886484D02*
X15627206Y-13886484D01*
X15684348Y-13886484D02*
X15684348Y-13686484D01*
X15684348Y-13686484D02*
X15665301Y-13715055D01*
X15665301Y-13715055D02*
X15646253Y-13734103D01*
X15646253Y-13734103D02*
X15627206Y-13743627D01*
X15979587Y-13886484D02*
X15979587Y-13686484D01*
X16065301Y-13886484D02*
X16065301Y-13781722D01*
X16065301Y-13781722D02*
X16055777Y-13762674D01*
X16055777Y-13762674D02*
X16036730Y-13753150D01*
X16036730Y-13753150D02*
X16008158Y-13753150D01*
X16008158Y-13753150D02*
X15989110Y-13762674D01*
X15989110Y-13762674D02*
X15979587Y-13772198D01*
X16189110Y-13886484D02*
X16170063Y-13876960D01*
X16170063Y-13876960D02*
X16160539Y-13867436D01*
X16160539Y-13867436D02*
X16151015Y-13848388D01*
X16151015Y-13848388D02*
X16151015Y-13791246D01*
X16151015Y-13791246D02*
X16160539Y-13772198D01*
X16160539Y-13772198D02*
X16170063Y-13762674D01*
X16170063Y-13762674D02*
X16189110Y-13753150D01*
X16189110Y-13753150D02*
X16217682Y-13753150D01*
X16217682Y-13753150D02*
X16236730Y-13762674D01*
X16236730Y-13762674D02*
X16246253Y-13772198D01*
X16246253Y-13772198D02*
X16255777Y-13791246D01*
X16255777Y-13791246D02*
X16255777Y-13848388D01*
X16255777Y-13848388D02*
X16246253Y-13867436D01*
X16246253Y-13867436D02*
X16236730Y-13876960D01*
X16236730Y-13876960D02*
X16217682Y-13886484D01*
X16217682Y-13886484D02*
X16189110Y-13886484D01*
X16370063Y-13886484D02*
X16351015Y-13876960D01*
X16351015Y-13876960D02*
X16341491Y-13857912D01*
X16341491Y-13857912D02*
X16341491Y-13686484D01*
X16522444Y-13876960D02*
X16503396Y-13886484D01*
X16503396Y-13886484D02*
X16465301Y-13886484D01*
X16465301Y-13886484D02*
X16446253Y-13876960D01*
X16446253Y-13876960D02*
X16436730Y-13857912D01*
X16436730Y-13857912D02*
X16436730Y-13781722D01*
X16436730Y-13781722D02*
X16446253Y-13762674D01*
X16446253Y-13762674D02*
X16465301Y-13753150D01*
X16465301Y-13753150D02*
X16503396Y-13753150D01*
X16503396Y-13753150D02*
X16522444Y-13762674D01*
X16522444Y-13762674D02*
X16531968Y-13781722D01*
X16531968Y-13781722D02*
X16531968Y-13800769D01*
X16531968Y-13800769D02*
X16436730Y-13819817D01*
X16608158Y-13876960D02*
X16627206Y-13886484D01*
X16627206Y-13886484D02*
X16665301Y-13886484D01*
X16665301Y-13886484D02*
X16684349Y-13876960D01*
X16684349Y-13876960D02*
X16693872Y-13857912D01*
X16693872Y-13857912D02*
X16693872Y-13848388D01*
X16693872Y-13848388D02*
X16684349Y-13829341D01*
X16684349Y-13829341D02*
X16665301Y-13819817D01*
X16665301Y-13819817D02*
X16636730Y-13819817D01*
X16636730Y-13819817D02*
X16617682Y-13810293D01*
X16617682Y-13810293D02*
X16608158Y-13791246D01*
X16608158Y-13791246D02*
X16608158Y-13781722D01*
X16608158Y-13781722D02*
X16617682Y-13762674D01*
X16617682Y-13762674D02*
X16636730Y-13753150D01*
X16636730Y-13753150D02*
X16665301Y-13753150D01*
X16665301Y-13753150D02*
X16684349Y-13762674D01*
X16760539Y-13962674D02*
X16770063Y-13953150D01*
X16770063Y-13953150D02*
X16789111Y-13924579D01*
X16789111Y-13924579D02*
X16798634Y-13905531D01*
X16798634Y-13905531D02*
X16808158Y-13876960D01*
X16808158Y-13876960D02*
X16817682Y-13829341D01*
X16817682Y-13829341D02*
X16817682Y-13791246D01*
X16817682Y-13791246D02*
X16808158Y-13743627D01*
X16808158Y-13743627D02*
X16798634Y-13715055D01*
X16798634Y-13715055D02*
X16789111Y-13696008D01*
X16789111Y-13696008D02*
X16770063Y-13667436D01*
X16770063Y-13667436D02*
X16760539Y-13657912D01*
D13*
X11795000Y-14059000D02*
G75*
G03*
X11693400Y-14059000I-50800J0D01*
G01*
X11693400Y-14059000D02*
G75*
G03*
X11795000Y-14059000I50800J0D01*
G01*
D11*
X12160539Y-14150484D02*
X12046253Y-14150484D01*
X12103396Y-14150484D02*
X12103396Y-13950484D01*
X12103396Y-13950484D02*
X12084348Y-13979055D01*
X12084348Y-13979055D02*
X12065301Y-13998103D01*
X12065301Y-13998103D02*
X12046253Y-14007627D01*
X12246253Y-14131436D02*
X12255777Y-14140960D01*
X12255777Y-14140960D02*
X12246253Y-14150484D01*
X12246253Y-14150484D02*
X12236729Y-14140960D01*
X12236729Y-14140960D02*
X12246253Y-14131436D01*
X12246253Y-14131436D02*
X12246253Y-14150484D01*
X12379586Y-13950484D02*
X12398634Y-13950484D01*
X12398634Y-13950484D02*
X12417682Y-13960008D01*
X12417682Y-13960008D02*
X12427205Y-13969531D01*
X12427205Y-13969531D02*
X12436729Y-13988579D01*
X12436729Y-13988579D02*
X12446253Y-14026674D01*
X12446253Y-14026674D02*
X12446253Y-14074293D01*
X12446253Y-14074293D02*
X12436729Y-14112388D01*
X12436729Y-14112388D02*
X12427205Y-14131436D01*
X12427205Y-14131436D02*
X12417682Y-14140960D01*
X12417682Y-14140960D02*
X12398634Y-14150484D01*
X12398634Y-14150484D02*
X12379586Y-14150484D01*
X12379586Y-14150484D02*
X12360539Y-14140960D01*
X12360539Y-14140960D02*
X12351015Y-14131436D01*
X12351015Y-14131436D02*
X12341491Y-14112388D01*
X12341491Y-14112388D02*
X12331967Y-14074293D01*
X12331967Y-14074293D02*
X12331967Y-14026674D01*
X12331967Y-14026674D02*
X12341491Y-13988579D01*
X12341491Y-13988579D02*
X12351015Y-13969531D01*
X12351015Y-13969531D02*
X12360539Y-13960008D01*
X12360539Y-13960008D02*
X12379586Y-13950484D01*
X12636729Y-14150484D02*
X12522443Y-14150484D01*
X12579586Y-14150484D02*
X12579586Y-13950484D01*
X12579586Y-13950484D02*
X12560539Y-13979055D01*
X12560539Y-13979055D02*
X12541491Y-13998103D01*
X12541491Y-13998103D02*
X12522443Y-14007627D01*
X12808158Y-13950484D02*
X12770062Y-13950484D01*
X12770062Y-13950484D02*
X12751015Y-13960008D01*
X12751015Y-13960008D02*
X12741491Y-13969531D01*
X12741491Y-13969531D02*
X12722443Y-13998103D01*
X12722443Y-13998103D02*
X12712920Y-14036198D01*
X12712920Y-14036198D02*
X12712920Y-14112388D01*
X12712920Y-14112388D02*
X12722443Y-14131436D01*
X12722443Y-14131436D02*
X12731967Y-14140960D01*
X12731967Y-14140960D02*
X12751015Y-14150484D01*
X12751015Y-14150484D02*
X12789110Y-14150484D01*
X12789110Y-14150484D02*
X12808158Y-14140960D01*
X12808158Y-14140960D02*
X12817682Y-14131436D01*
X12817682Y-14131436D02*
X12827205Y-14112388D01*
X12827205Y-14112388D02*
X12827205Y-14064769D01*
X12827205Y-14064769D02*
X12817682Y-14045722D01*
X12817682Y-14045722D02*
X12808158Y-14036198D01*
X12808158Y-14036198D02*
X12789110Y-14026674D01*
X12789110Y-14026674D02*
X12751015Y-14026674D01*
X12751015Y-14026674D02*
X12731967Y-14036198D01*
X12731967Y-14036198D02*
X12722443Y-14045722D01*
X12722443Y-14045722D02*
X12712920Y-14064769D01*
X12912920Y-14150484D02*
X12912920Y-14017150D01*
X12912920Y-14036198D02*
X12922443Y-14026674D01*
X12922443Y-14026674D02*
X12941491Y-14017150D01*
X12941491Y-14017150D02*
X12970063Y-14017150D01*
X12970063Y-14017150D02*
X12989110Y-14026674D01*
X12989110Y-14026674D02*
X12998634Y-14045722D01*
X12998634Y-14045722D02*
X12998634Y-14150484D01*
X12998634Y-14045722D02*
X13008158Y-14026674D01*
X13008158Y-14026674D02*
X13027205Y-14017150D01*
X13027205Y-14017150D02*
X13055777Y-14017150D01*
X13055777Y-14017150D02*
X13074824Y-14026674D01*
X13074824Y-14026674D02*
X13084348Y-14045722D01*
X13084348Y-14045722D02*
X13084348Y-14150484D01*
X13179586Y-14150484D02*
X13179586Y-14017150D01*
X13179586Y-14036198D02*
X13189110Y-14026674D01*
X13189110Y-14026674D02*
X13208158Y-14017150D01*
X13208158Y-14017150D02*
X13236729Y-14017150D01*
X13236729Y-14017150D02*
X13255777Y-14026674D01*
X13255777Y-14026674D02*
X13265301Y-14045722D01*
X13265301Y-14045722D02*
X13265301Y-14150484D01*
X13265301Y-14045722D02*
X13274824Y-14026674D01*
X13274824Y-14026674D02*
X13293872Y-14017150D01*
X13293872Y-14017150D02*
X13322443Y-14017150D01*
X13322443Y-14017150D02*
X13341491Y-14026674D01*
X13341491Y-14026674D02*
X13351015Y-14045722D01*
X13351015Y-14045722D02*
X13351015Y-14150484D01*
X13741491Y-13940960D02*
X13570063Y-14198103D01*
X13998634Y-13950484D02*
X14017682Y-13950484D01*
X14017682Y-13950484D02*
X14036729Y-13960008D01*
X14036729Y-13960008D02*
X14046253Y-13969531D01*
X14046253Y-13969531D02*
X14055777Y-13988579D01*
X14055777Y-13988579D02*
X14065301Y-14026674D01*
X14065301Y-14026674D02*
X14065301Y-14074293D01*
X14065301Y-14074293D02*
X14055777Y-14112388D01*
X14055777Y-14112388D02*
X14046253Y-14131436D01*
X14046253Y-14131436D02*
X14036729Y-14140960D01*
X14036729Y-14140960D02*
X14017682Y-14150484D01*
X14017682Y-14150484D02*
X13998634Y-14150484D01*
X13998634Y-14150484D02*
X13979586Y-14140960D01*
X13979586Y-14140960D02*
X13970063Y-14131436D01*
X13970063Y-14131436D02*
X13960539Y-14112388D01*
X13960539Y-14112388D02*
X13951015Y-14074293D01*
X13951015Y-14074293D02*
X13951015Y-14026674D01*
X13951015Y-14026674D02*
X13960539Y-13988579D01*
X13960539Y-13988579D02*
X13970063Y-13969531D01*
X13970063Y-13969531D02*
X13979586Y-13960008D01*
X13979586Y-13960008D02*
X13998634Y-13950484D01*
X14151015Y-14131436D02*
X14160539Y-14140960D01*
X14160539Y-14140960D02*
X14151015Y-14150484D01*
X14151015Y-14150484D02*
X14141491Y-14140960D01*
X14141491Y-14140960D02*
X14151015Y-14131436D01*
X14151015Y-14131436D02*
X14151015Y-14150484D01*
X14284348Y-13950484D02*
X14303396Y-13950484D01*
X14303396Y-13950484D02*
X14322444Y-13960008D01*
X14322444Y-13960008D02*
X14331967Y-13969531D01*
X14331967Y-13969531D02*
X14341491Y-13988579D01*
X14341491Y-13988579D02*
X14351015Y-14026674D01*
X14351015Y-14026674D02*
X14351015Y-14074293D01*
X14351015Y-14074293D02*
X14341491Y-14112388D01*
X14341491Y-14112388D02*
X14331967Y-14131436D01*
X14331967Y-14131436D02*
X14322444Y-14140960D01*
X14322444Y-14140960D02*
X14303396Y-14150484D01*
X14303396Y-14150484D02*
X14284348Y-14150484D01*
X14284348Y-14150484D02*
X14265301Y-14140960D01*
X14265301Y-14140960D02*
X14255777Y-14131436D01*
X14255777Y-14131436D02*
X14246253Y-14112388D01*
X14246253Y-14112388D02*
X14236729Y-14074293D01*
X14236729Y-14074293D02*
X14236729Y-14026674D01*
X14236729Y-14026674D02*
X14246253Y-13988579D01*
X14246253Y-13988579D02*
X14255777Y-13969531D01*
X14255777Y-13969531D02*
X14265301Y-13960008D01*
X14265301Y-13960008D02*
X14284348Y-13950484D01*
X14522444Y-14017150D02*
X14522444Y-14150484D01*
X14474825Y-13940960D02*
X14427206Y-14083817D01*
X14427206Y-14083817D02*
X14551015Y-14083817D01*
X14665301Y-13950484D02*
X14684348Y-13950484D01*
X14684348Y-13950484D02*
X14703396Y-13960008D01*
X14703396Y-13960008D02*
X14712920Y-13969531D01*
X14712920Y-13969531D02*
X14722444Y-13988579D01*
X14722444Y-13988579D02*
X14731967Y-14026674D01*
X14731967Y-14026674D02*
X14731967Y-14074293D01*
X14731967Y-14074293D02*
X14722444Y-14112388D01*
X14722444Y-14112388D02*
X14712920Y-14131436D01*
X14712920Y-14131436D02*
X14703396Y-14140960D01*
X14703396Y-14140960D02*
X14684348Y-14150484D01*
X14684348Y-14150484D02*
X14665301Y-14150484D01*
X14665301Y-14150484D02*
X14646253Y-14140960D01*
X14646253Y-14140960D02*
X14636729Y-14131436D01*
X14636729Y-14131436D02*
X14627206Y-14112388D01*
X14627206Y-14112388D02*
X14617682Y-14074293D01*
X14617682Y-14074293D02*
X14617682Y-14026674D01*
X14617682Y-14026674D02*
X14627206Y-13988579D01*
X14627206Y-13988579D02*
X14636729Y-13969531D01*
X14636729Y-13969531D02*
X14646253Y-13960008D01*
X14646253Y-13960008D02*
X14665301Y-13950484D01*
X14855777Y-13950484D02*
X14874825Y-13950484D01*
X14874825Y-13950484D02*
X14893872Y-13960008D01*
X14893872Y-13960008D02*
X14903396Y-13969531D01*
X14903396Y-13969531D02*
X14912920Y-13988579D01*
X14912920Y-13988579D02*
X14922444Y-14026674D01*
X14922444Y-14026674D02*
X14922444Y-14074293D01*
X14922444Y-14074293D02*
X14912920Y-14112388D01*
X14912920Y-14112388D02*
X14903396Y-14131436D01*
X14903396Y-14131436D02*
X14893872Y-14140960D01*
X14893872Y-14140960D02*
X14874825Y-14150484D01*
X14874825Y-14150484D02*
X14855777Y-14150484D01*
X14855777Y-14150484D02*
X14836729Y-14140960D01*
X14836729Y-14140960D02*
X14827206Y-14131436D01*
X14827206Y-14131436D02*
X14817682Y-14112388D01*
X14817682Y-14112388D02*
X14808158Y-14074293D01*
X14808158Y-14074293D02*
X14808158Y-14026674D01*
X14808158Y-14026674D02*
X14817682Y-13988579D01*
X14817682Y-13988579D02*
X14827206Y-13969531D01*
X14827206Y-13969531D02*
X14836729Y-13960008D01*
X14836729Y-13960008D02*
X14855777Y-13950484D01*
X14998634Y-13950484D02*
X14998634Y-13988579D01*
X15074825Y-13950484D02*
X15074825Y-13988579D01*
X15370063Y-14226674D02*
X15360539Y-14217150D01*
X15360539Y-14217150D02*
X15341491Y-14188579D01*
X15341491Y-14188579D02*
X15331968Y-14169531D01*
X15331968Y-14169531D02*
X15322444Y-14140960D01*
X15322444Y-14140960D02*
X15312920Y-14093341D01*
X15312920Y-14093341D02*
X15312920Y-14055246D01*
X15312920Y-14055246D02*
X15322444Y-14007627D01*
X15322444Y-14007627D02*
X15331968Y-13979055D01*
X15331968Y-13979055D02*
X15341491Y-13960008D01*
X15341491Y-13960008D02*
X15360539Y-13931436D01*
X15360539Y-13931436D02*
X15370063Y-13921912D01*
X15436729Y-13969531D02*
X15446253Y-13960008D01*
X15446253Y-13960008D02*
X15465301Y-13950484D01*
X15465301Y-13950484D02*
X15512920Y-13950484D01*
X15512920Y-13950484D02*
X15531968Y-13960008D01*
X15531968Y-13960008D02*
X15541491Y-13969531D01*
X15541491Y-13969531D02*
X15551015Y-13988579D01*
X15551015Y-13988579D02*
X15551015Y-14007627D01*
X15551015Y-14007627D02*
X15541491Y-14036198D01*
X15541491Y-14036198D02*
X15427206Y-14150484D01*
X15427206Y-14150484D02*
X15551015Y-14150484D01*
X15665301Y-14036198D02*
X15646253Y-14026674D01*
X15646253Y-14026674D02*
X15636729Y-14017150D01*
X15636729Y-14017150D02*
X15627206Y-13998103D01*
X15627206Y-13998103D02*
X15627206Y-13988579D01*
X15627206Y-13988579D02*
X15636729Y-13969531D01*
X15636729Y-13969531D02*
X15646253Y-13960008D01*
X15646253Y-13960008D02*
X15665301Y-13950484D01*
X15665301Y-13950484D02*
X15703396Y-13950484D01*
X15703396Y-13950484D02*
X15722444Y-13960008D01*
X15722444Y-13960008D02*
X15731968Y-13969531D01*
X15731968Y-13969531D02*
X15741491Y-13988579D01*
X15741491Y-13988579D02*
X15741491Y-13998103D01*
X15741491Y-13998103D02*
X15731968Y-14017150D01*
X15731968Y-14017150D02*
X15722444Y-14026674D01*
X15722444Y-14026674D02*
X15703396Y-14036198D01*
X15703396Y-14036198D02*
X15665301Y-14036198D01*
X15665301Y-14036198D02*
X15646253Y-14045722D01*
X15646253Y-14045722D02*
X15636729Y-14055246D01*
X15636729Y-14055246D02*
X15627206Y-14074293D01*
X15627206Y-14074293D02*
X15627206Y-14112388D01*
X15627206Y-14112388D02*
X15636729Y-14131436D01*
X15636729Y-14131436D02*
X15646253Y-14140960D01*
X15646253Y-14140960D02*
X15665301Y-14150484D01*
X15665301Y-14150484D02*
X15703396Y-14150484D01*
X15703396Y-14150484D02*
X15722444Y-14140960D01*
X15722444Y-14140960D02*
X15731968Y-14131436D01*
X15731968Y-14131436D02*
X15741491Y-14112388D01*
X15741491Y-14112388D02*
X15741491Y-14074293D01*
X15741491Y-14074293D02*
X15731968Y-14055246D01*
X15731968Y-14055246D02*
X15722444Y-14045722D01*
X15722444Y-14045722D02*
X15703396Y-14036198D01*
X15979587Y-14150484D02*
X15979587Y-13950484D01*
X16065301Y-14150484D02*
X16065301Y-14045722D01*
X16065301Y-14045722D02*
X16055777Y-14026674D01*
X16055777Y-14026674D02*
X16036730Y-14017150D01*
X16036730Y-14017150D02*
X16008158Y-14017150D01*
X16008158Y-14017150D02*
X15989110Y-14026674D01*
X15989110Y-14026674D02*
X15979587Y-14036198D01*
X16189110Y-14150484D02*
X16170063Y-14140960D01*
X16170063Y-14140960D02*
X16160539Y-14131436D01*
X16160539Y-14131436D02*
X16151015Y-14112388D01*
X16151015Y-14112388D02*
X16151015Y-14055246D01*
X16151015Y-14055246D02*
X16160539Y-14036198D01*
X16160539Y-14036198D02*
X16170063Y-14026674D01*
X16170063Y-14026674D02*
X16189110Y-14017150D01*
X16189110Y-14017150D02*
X16217682Y-14017150D01*
X16217682Y-14017150D02*
X16236730Y-14026674D01*
X16236730Y-14026674D02*
X16246253Y-14036198D01*
X16246253Y-14036198D02*
X16255777Y-14055246D01*
X16255777Y-14055246D02*
X16255777Y-14112388D01*
X16255777Y-14112388D02*
X16246253Y-14131436D01*
X16246253Y-14131436D02*
X16236730Y-14140960D01*
X16236730Y-14140960D02*
X16217682Y-14150484D01*
X16217682Y-14150484D02*
X16189110Y-14150484D01*
X16370063Y-14150484D02*
X16351015Y-14140960D01*
X16351015Y-14140960D02*
X16341491Y-14121912D01*
X16341491Y-14121912D02*
X16341491Y-13950484D01*
X16522444Y-14140960D02*
X16503396Y-14150484D01*
X16503396Y-14150484D02*
X16465301Y-14150484D01*
X16465301Y-14150484D02*
X16446253Y-14140960D01*
X16446253Y-14140960D02*
X16436730Y-14121912D01*
X16436730Y-14121912D02*
X16436730Y-14045722D01*
X16436730Y-14045722D02*
X16446253Y-14026674D01*
X16446253Y-14026674D02*
X16465301Y-14017150D01*
X16465301Y-14017150D02*
X16503396Y-14017150D01*
X16503396Y-14017150D02*
X16522444Y-14026674D01*
X16522444Y-14026674D02*
X16531968Y-14045722D01*
X16531968Y-14045722D02*
X16531968Y-14064769D01*
X16531968Y-14064769D02*
X16436730Y-14083817D01*
X16608158Y-14140960D02*
X16627206Y-14150484D01*
X16627206Y-14150484D02*
X16665301Y-14150484D01*
X16665301Y-14150484D02*
X16684349Y-14140960D01*
X16684349Y-14140960D02*
X16693872Y-14121912D01*
X16693872Y-14121912D02*
X16693872Y-14112388D01*
X16693872Y-14112388D02*
X16684349Y-14093341D01*
X16684349Y-14093341D02*
X16665301Y-14083817D01*
X16665301Y-14083817D02*
X16636730Y-14083817D01*
X16636730Y-14083817D02*
X16617682Y-14074293D01*
X16617682Y-14074293D02*
X16608158Y-14055246D01*
X16608158Y-14055246D02*
X16608158Y-14045722D01*
X16608158Y-14045722D02*
X16617682Y-14026674D01*
X16617682Y-14026674D02*
X16636730Y-14017150D01*
X16636730Y-14017150D02*
X16665301Y-14017150D01*
X16665301Y-14017150D02*
X16684349Y-14026674D01*
X16760539Y-14226674D02*
X16770063Y-14217150D01*
X16770063Y-14217150D02*
X16789111Y-14188579D01*
X16789111Y-14188579D02*
X16798634Y-14169531D01*
X16798634Y-14169531D02*
X16808158Y-14140960D01*
X16808158Y-14140960D02*
X16817682Y-14093341D01*
X16817682Y-14093341D02*
X16817682Y-14055246D01*
X16817682Y-14055246D02*
X16808158Y-14007627D01*
X16808158Y-14007627D02*
X16798634Y-13979055D01*
X16798634Y-13979055D02*
X16789111Y-13960008D01*
X16789111Y-13960008D02*
X16770063Y-13931436D01*
X16770063Y-13931436D02*
X16760539Y-13921912D01*
X11695000Y-14223000D02*
X11695000Y-14423000D01*
X11595000Y-14323000D02*
X11795000Y-14323000D01*
X12036729Y-14214484D02*
X12160539Y-14214484D01*
X12160539Y-14214484D02*
X12093872Y-14290674D01*
X12093872Y-14290674D02*
X12122443Y-14290674D01*
X12122443Y-14290674D02*
X12141491Y-14300198D01*
X12141491Y-14300198D02*
X12151015Y-14309722D01*
X12151015Y-14309722D02*
X12160539Y-14328769D01*
X12160539Y-14328769D02*
X12160539Y-14376388D01*
X12160539Y-14376388D02*
X12151015Y-14395436D01*
X12151015Y-14395436D02*
X12141491Y-14404960D01*
X12141491Y-14404960D02*
X12122443Y-14414484D01*
X12122443Y-14414484D02*
X12065301Y-14414484D01*
X12065301Y-14414484D02*
X12046253Y-14404960D01*
X12046253Y-14404960D02*
X12036729Y-14395436D01*
X12246253Y-14395436D02*
X12255777Y-14404960D01*
X12255777Y-14404960D02*
X12246253Y-14414484D01*
X12246253Y-14414484D02*
X12236729Y-14404960D01*
X12236729Y-14404960D02*
X12246253Y-14395436D01*
X12246253Y-14395436D02*
X12246253Y-14414484D01*
X12331967Y-14233531D02*
X12341491Y-14224008D01*
X12341491Y-14224008D02*
X12360539Y-14214484D01*
X12360539Y-14214484D02*
X12408158Y-14214484D01*
X12408158Y-14214484D02*
X12427205Y-14224008D01*
X12427205Y-14224008D02*
X12436729Y-14233531D01*
X12436729Y-14233531D02*
X12446253Y-14252579D01*
X12446253Y-14252579D02*
X12446253Y-14271627D01*
X12446253Y-14271627D02*
X12436729Y-14300198D01*
X12436729Y-14300198D02*
X12322443Y-14414484D01*
X12322443Y-14414484D02*
X12446253Y-14414484D01*
X12570062Y-14214484D02*
X12589110Y-14214484D01*
X12589110Y-14214484D02*
X12608158Y-14224008D01*
X12608158Y-14224008D02*
X12617682Y-14233531D01*
X12617682Y-14233531D02*
X12627205Y-14252579D01*
X12627205Y-14252579D02*
X12636729Y-14290674D01*
X12636729Y-14290674D02*
X12636729Y-14338293D01*
X12636729Y-14338293D02*
X12627205Y-14376388D01*
X12627205Y-14376388D02*
X12617682Y-14395436D01*
X12617682Y-14395436D02*
X12608158Y-14404960D01*
X12608158Y-14404960D02*
X12589110Y-14414484D01*
X12589110Y-14414484D02*
X12570062Y-14414484D01*
X12570062Y-14414484D02*
X12551015Y-14404960D01*
X12551015Y-14404960D02*
X12541491Y-14395436D01*
X12541491Y-14395436D02*
X12531967Y-14376388D01*
X12531967Y-14376388D02*
X12522443Y-14338293D01*
X12522443Y-14338293D02*
X12522443Y-14290674D01*
X12522443Y-14290674D02*
X12531967Y-14252579D01*
X12531967Y-14252579D02*
X12541491Y-14233531D01*
X12541491Y-14233531D02*
X12551015Y-14224008D01*
X12551015Y-14224008D02*
X12570062Y-14214484D01*
X12760539Y-14214484D02*
X12779586Y-14214484D01*
X12779586Y-14214484D02*
X12798634Y-14224008D01*
X12798634Y-14224008D02*
X12808158Y-14233531D01*
X12808158Y-14233531D02*
X12817682Y-14252579D01*
X12817682Y-14252579D02*
X12827205Y-14290674D01*
X12827205Y-14290674D02*
X12827205Y-14338293D01*
X12827205Y-14338293D02*
X12817682Y-14376388D01*
X12817682Y-14376388D02*
X12808158Y-14395436D01*
X12808158Y-14395436D02*
X12798634Y-14404960D01*
X12798634Y-14404960D02*
X12779586Y-14414484D01*
X12779586Y-14414484D02*
X12760539Y-14414484D01*
X12760539Y-14414484D02*
X12741491Y-14404960D01*
X12741491Y-14404960D02*
X12731967Y-14395436D01*
X12731967Y-14395436D02*
X12722443Y-14376388D01*
X12722443Y-14376388D02*
X12712920Y-14338293D01*
X12712920Y-14338293D02*
X12712920Y-14290674D01*
X12712920Y-14290674D02*
X12722443Y-14252579D01*
X12722443Y-14252579D02*
X12731967Y-14233531D01*
X12731967Y-14233531D02*
X12741491Y-14224008D01*
X12741491Y-14224008D02*
X12760539Y-14214484D01*
X12912920Y-14414484D02*
X12912920Y-14281150D01*
X12912920Y-14300198D02*
X12922443Y-14290674D01*
X12922443Y-14290674D02*
X12941491Y-14281150D01*
X12941491Y-14281150D02*
X12970063Y-14281150D01*
X12970063Y-14281150D02*
X12989110Y-14290674D01*
X12989110Y-14290674D02*
X12998634Y-14309722D01*
X12998634Y-14309722D02*
X12998634Y-14414484D01*
X12998634Y-14309722D02*
X13008158Y-14290674D01*
X13008158Y-14290674D02*
X13027205Y-14281150D01*
X13027205Y-14281150D02*
X13055777Y-14281150D01*
X13055777Y-14281150D02*
X13074824Y-14290674D01*
X13074824Y-14290674D02*
X13084348Y-14309722D01*
X13084348Y-14309722D02*
X13084348Y-14414484D01*
X13179586Y-14414484D02*
X13179586Y-14281150D01*
X13179586Y-14300198D02*
X13189110Y-14290674D01*
X13189110Y-14290674D02*
X13208158Y-14281150D01*
X13208158Y-14281150D02*
X13236729Y-14281150D01*
X13236729Y-14281150D02*
X13255777Y-14290674D01*
X13255777Y-14290674D02*
X13265301Y-14309722D01*
X13265301Y-14309722D02*
X13265301Y-14414484D01*
X13265301Y-14309722D02*
X13274824Y-14290674D01*
X13274824Y-14290674D02*
X13293872Y-14281150D01*
X13293872Y-14281150D02*
X13322443Y-14281150D01*
X13322443Y-14281150D02*
X13341491Y-14290674D01*
X13341491Y-14290674D02*
X13351015Y-14309722D01*
X13351015Y-14309722D02*
X13351015Y-14414484D01*
X13741491Y-14204960D02*
X13570063Y-14462103D01*
X13998634Y-14214484D02*
X14017682Y-14214484D01*
X14017682Y-14214484D02*
X14036729Y-14224008D01*
X14036729Y-14224008D02*
X14046253Y-14233531D01*
X14046253Y-14233531D02*
X14055777Y-14252579D01*
X14055777Y-14252579D02*
X14065301Y-14290674D01*
X14065301Y-14290674D02*
X14065301Y-14338293D01*
X14065301Y-14338293D02*
X14055777Y-14376388D01*
X14055777Y-14376388D02*
X14046253Y-14395436D01*
X14046253Y-14395436D02*
X14036729Y-14404960D01*
X14036729Y-14404960D02*
X14017682Y-14414484D01*
X14017682Y-14414484D02*
X13998634Y-14414484D01*
X13998634Y-14414484D02*
X13979586Y-14404960D01*
X13979586Y-14404960D02*
X13970063Y-14395436D01*
X13970063Y-14395436D02*
X13960539Y-14376388D01*
X13960539Y-14376388D02*
X13951015Y-14338293D01*
X13951015Y-14338293D02*
X13951015Y-14290674D01*
X13951015Y-14290674D02*
X13960539Y-14252579D01*
X13960539Y-14252579D02*
X13970063Y-14233531D01*
X13970063Y-14233531D02*
X13979586Y-14224008D01*
X13979586Y-14224008D02*
X13998634Y-14214484D01*
X14151015Y-14395436D02*
X14160539Y-14404960D01*
X14160539Y-14404960D02*
X14151015Y-14414484D01*
X14151015Y-14414484D02*
X14141491Y-14404960D01*
X14141491Y-14404960D02*
X14151015Y-14395436D01*
X14151015Y-14395436D02*
X14151015Y-14414484D01*
X14351015Y-14414484D02*
X14236729Y-14414484D01*
X14293872Y-14414484D02*
X14293872Y-14214484D01*
X14293872Y-14214484D02*
X14274825Y-14243055D01*
X14274825Y-14243055D02*
X14255777Y-14262103D01*
X14255777Y-14262103D02*
X14236729Y-14271627D01*
X14427206Y-14233531D02*
X14436729Y-14224008D01*
X14436729Y-14224008D02*
X14455777Y-14214484D01*
X14455777Y-14214484D02*
X14503396Y-14214484D01*
X14503396Y-14214484D02*
X14522444Y-14224008D01*
X14522444Y-14224008D02*
X14531967Y-14233531D01*
X14531967Y-14233531D02*
X14541491Y-14252579D01*
X14541491Y-14252579D02*
X14541491Y-14271627D01*
X14541491Y-14271627D02*
X14531967Y-14300198D01*
X14531967Y-14300198D02*
X14417682Y-14414484D01*
X14417682Y-14414484D02*
X14541491Y-14414484D01*
X14712920Y-14214484D02*
X14674825Y-14214484D01*
X14674825Y-14214484D02*
X14655777Y-14224008D01*
X14655777Y-14224008D02*
X14646253Y-14233531D01*
X14646253Y-14233531D02*
X14627206Y-14262103D01*
X14627206Y-14262103D02*
X14617682Y-14300198D01*
X14617682Y-14300198D02*
X14617682Y-14376388D01*
X14617682Y-14376388D02*
X14627206Y-14395436D01*
X14627206Y-14395436D02*
X14636729Y-14404960D01*
X14636729Y-14404960D02*
X14655777Y-14414484D01*
X14655777Y-14414484D02*
X14693872Y-14414484D01*
X14693872Y-14414484D02*
X14712920Y-14404960D01*
X14712920Y-14404960D02*
X14722444Y-14395436D01*
X14722444Y-14395436D02*
X14731967Y-14376388D01*
X14731967Y-14376388D02*
X14731967Y-14328769D01*
X14731967Y-14328769D02*
X14722444Y-14309722D01*
X14722444Y-14309722D02*
X14712920Y-14300198D01*
X14712920Y-14300198D02*
X14693872Y-14290674D01*
X14693872Y-14290674D02*
X14655777Y-14290674D01*
X14655777Y-14290674D02*
X14636729Y-14300198D01*
X14636729Y-14300198D02*
X14627206Y-14309722D01*
X14627206Y-14309722D02*
X14617682Y-14328769D01*
X14855777Y-14214484D02*
X14874825Y-14214484D01*
X14874825Y-14214484D02*
X14893872Y-14224008D01*
X14893872Y-14224008D02*
X14903396Y-14233531D01*
X14903396Y-14233531D02*
X14912920Y-14252579D01*
X14912920Y-14252579D02*
X14922444Y-14290674D01*
X14922444Y-14290674D02*
X14922444Y-14338293D01*
X14922444Y-14338293D02*
X14912920Y-14376388D01*
X14912920Y-14376388D02*
X14903396Y-14395436D01*
X14903396Y-14395436D02*
X14893872Y-14404960D01*
X14893872Y-14404960D02*
X14874825Y-14414484D01*
X14874825Y-14414484D02*
X14855777Y-14414484D01*
X14855777Y-14414484D02*
X14836729Y-14404960D01*
X14836729Y-14404960D02*
X14827206Y-14395436D01*
X14827206Y-14395436D02*
X14817682Y-14376388D01*
X14817682Y-14376388D02*
X14808158Y-14338293D01*
X14808158Y-14338293D02*
X14808158Y-14290674D01*
X14808158Y-14290674D02*
X14817682Y-14252579D01*
X14817682Y-14252579D02*
X14827206Y-14233531D01*
X14827206Y-14233531D02*
X14836729Y-14224008D01*
X14836729Y-14224008D02*
X14855777Y-14214484D01*
X14998634Y-14214484D02*
X14998634Y-14252579D01*
X15074825Y-14214484D02*
X15074825Y-14252579D01*
X15370063Y-14490674D02*
X15360539Y-14481150D01*
X15360539Y-14481150D02*
X15341491Y-14452579D01*
X15341491Y-14452579D02*
X15331968Y-14433531D01*
X15331968Y-14433531D02*
X15322444Y-14404960D01*
X15322444Y-14404960D02*
X15312920Y-14357341D01*
X15312920Y-14357341D02*
X15312920Y-14319246D01*
X15312920Y-14319246D02*
X15322444Y-14271627D01*
X15322444Y-14271627D02*
X15331968Y-14243055D01*
X15331968Y-14243055D02*
X15341491Y-14224008D01*
X15341491Y-14224008D02*
X15360539Y-14195436D01*
X15360539Y-14195436D02*
X15370063Y-14185912D01*
X15531968Y-14281150D02*
X15531968Y-14414484D01*
X15484348Y-14204960D02*
X15436729Y-14347817D01*
X15436729Y-14347817D02*
X15560539Y-14347817D01*
X15789110Y-14414484D02*
X15789110Y-14214484D01*
X15874825Y-14414484D02*
X15874825Y-14309722D01*
X15874825Y-14309722D02*
X15865301Y-14290674D01*
X15865301Y-14290674D02*
X15846253Y-14281150D01*
X15846253Y-14281150D02*
X15817682Y-14281150D01*
X15817682Y-14281150D02*
X15798634Y-14290674D01*
X15798634Y-14290674D02*
X15789110Y-14300198D01*
X15998634Y-14414484D02*
X15979587Y-14404960D01*
X15979587Y-14404960D02*
X15970063Y-14395436D01*
X15970063Y-14395436D02*
X15960539Y-14376388D01*
X15960539Y-14376388D02*
X15960539Y-14319246D01*
X15960539Y-14319246D02*
X15970063Y-14300198D01*
X15970063Y-14300198D02*
X15979587Y-14290674D01*
X15979587Y-14290674D02*
X15998634Y-14281150D01*
X15998634Y-14281150D02*
X16027206Y-14281150D01*
X16027206Y-14281150D02*
X16046253Y-14290674D01*
X16046253Y-14290674D02*
X16055777Y-14300198D01*
X16055777Y-14300198D02*
X16065301Y-14319246D01*
X16065301Y-14319246D02*
X16065301Y-14376388D01*
X16065301Y-14376388D02*
X16055777Y-14395436D01*
X16055777Y-14395436D02*
X16046253Y-14404960D01*
X16046253Y-14404960D02*
X16027206Y-14414484D01*
X16027206Y-14414484D02*
X15998634Y-14414484D01*
X16179587Y-14414484D02*
X16160539Y-14404960D01*
X16160539Y-14404960D02*
X16151015Y-14385912D01*
X16151015Y-14385912D02*
X16151015Y-14214484D01*
X16331968Y-14404960D02*
X16312920Y-14414484D01*
X16312920Y-14414484D02*
X16274825Y-14414484D01*
X16274825Y-14414484D02*
X16255777Y-14404960D01*
X16255777Y-14404960D02*
X16246253Y-14385912D01*
X16246253Y-14385912D02*
X16246253Y-14309722D01*
X16246253Y-14309722D02*
X16255777Y-14290674D01*
X16255777Y-14290674D02*
X16274825Y-14281150D01*
X16274825Y-14281150D02*
X16312920Y-14281150D01*
X16312920Y-14281150D02*
X16331968Y-14290674D01*
X16331968Y-14290674D02*
X16341491Y-14309722D01*
X16341491Y-14309722D02*
X16341491Y-14328769D01*
X16341491Y-14328769D02*
X16246253Y-14347817D01*
X16417682Y-14404960D02*
X16436730Y-14414484D01*
X16436730Y-14414484D02*
X16474825Y-14414484D01*
X16474825Y-14414484D02*
X16493872Y-14404960D01*
X16493872Y-14404960D02*
X16503396Y-14385912D01*
X16503396Y-14385912D02*
X16503396Y-14376388D01*
X16503396Y-14376388D02*
X16493872Y-14357341D01*
X16493872Y-14357341D02*
X16474825Y-14347817D01*
X16474825Y-14347817D02*
X16446253Y-14347817D01*
X16446253Y-14347817D02*
X16427206Y-14338293D01*
X16427206Y-14338293D02*
X16417682Y-14319246D01*
X16417682Y-14319246D02*
X16417682Y-14309722D01*
X16417682Y-14309722D02*
X16427206Y-14290674D01*
X16427206Y-14290674D02*
X16446253Y-14281150D01*
X16446253Y-14281150D02*
X16474825Y-14281150D01*
X16474825Y-14281150D02*
X16493872Y-14290674D01*
X16570063Y-14490674D02*
X16579587Y-14481150D01*
X16579587Y-14481150D02*
X16598634Y-14452579D01*
X16598634Y-14452579D02*
X16608158Y-14433531D01*
X16608158Y-14433531D02*
X16617682Y-14404960D01*
X16617682Y-14404960D02*
X16627206Y-14357341D01*
X16627206Y-14357341D02*
X16627206Y-14319246D01*
X16627206Y-14319246D02*
X16617682Y-14271627D01*
X16617682Y-14271627D02*
X16608158Y-14243055D01*
X16608158Y-14243055D02*
X16598634Y-14224008D01*
X16598634Y-14224008D02*
X16579587Y-14195436D01*
X16579587Y-14195436D02*
X16570063Y-14185912D01*
M02*
