G04 #@! TF.GenerationSoftware,KiCad,Pcbnew,7.0.11*
G04 #@! TF.CreationDate,2025-02-19T11:42:19-05:00*
G04 #@! TF.ProjectId,thruster-pcb,74687275-7374-4657-922d-7063622e6b69,1.0*
G04 #@! TF.SameCoordinates,Original*
G04 #@! TF.FileFunction,Copper,L2,Bot*
G04 #@! TF.FilePolarity,Positive*
%FSLAX46Y46*%
G04 Gerber Fmt 4.6, Leading zero omitted, Abs format (unit mm)*
G04 Created by KiCad (PCBNEW 7.0.11) date 2025-02-19 11:42:19*
%MOMM*%
%LPD*%
G01*
G04 APERTURE LIST*
G04 Aperture macros list*
%AMRoundRect*
0 Rectangle with rounded corners*
0 $1 Rounding radius*
0 $2 $3 $4 $5 $6 $7 $8 $9 X,Y pos of 4 corners*
0 Add a 4 corners polygon primitive as box body*
4,1,4,$2,$3,$4,$5,$6,$7,$8,$9,$2,$3,0*
0 Add four circle primitives for the rounded corners*
1,1,$1+$1,$2,$3*
1,1,$1+$1,$4,$5*
1,1,$1+$1,$6,$7*
1,1,$1+$1,$8,$9*
0 Add four rect primitives between the rounded corners*
20,1,$1+$1,$2,$3,$4,$5,0*
20,1,$1+$1,$4,$5,$6,$7,0*
20,1,$1+$1,$6,$7,$8,$9,0*
20,1,$1+$1,$8,$9,$2,$3,0*%
G04 Aperture macros list end*
G04 #@! TA.AperFunction,ComponentPad*
%ADD10C,1.778000*%
G04 #@! TD*
G04 #@! TA.AperFunction,ComponentPad*
%ADD11C,6.400000*%
G04 #@! TD*
G04 #@! TA.AperFunction,SMDPad,CuDef*
%ADD12RoundRect,0.135000X-0.135000X-0.185000X0.135000X-0.185000X0.135000X0.185000X-0.135000X0.185000X0*%
G04 #@! TD*
G04 #@! TA.AperFunction,SMDPad,CuDef*
%ADD13C,0.500000*%
G04 #@! TD*
G04 #@! TA.AperFunction,SMDPad,CuDef*
%ADD14RoundRect,0.250000X-0.250000X-0.475000X0.250000X-0.475000X0.250000X0.475000X-0.250000X0.475000X0*%
G04 #@! TD*
G04 #@! TA.AperFunction,SMDPad,CuDef*
%ADD15RoundRect,0.250000X0.475000X-0.250000X0.475000X0.250000X-0.475000X0.250000X-0.475000X-0.250000X0*%
G04 #@! TD*
G04 #@! TA.AperFunction,SMDPad,CuDef*
%ADD16RoundRect,0.140000X-0.140000X-0.170000X0.140000X-0.170000X0.140000X0.170000X-0.140000X0.170000X0*%
G04 #@! TD*
G04 #@! TA.AperFunction,SMDPad,CuDef*
%ADD17RoundRect,0.140000X0.170000X-0.140000X0.170000X0.140000X-0.170000X0.140000X-0.170000X-0.140000X0*%
G04 #@! TD*
G04 #@! TA.AperFunction,SMDPad,CuDef*
%ADD18RoundRect,0.250000X0.250000X0.475000X-0.250000X0.475000X-0.250000X-0.475000X0.250000X-0.475000X0*%
G04 #@! TD*
G04 #@! TA.AperFunction,SMDPad,CuDef*
%ADD19RoundRect,0.247500X-0.247500X0.402500X-0.247500X-0.402500X0.247500X-0.402500X0.247500X0.402500X0*%
G04 #@! TD*
G04 #@! TA.AperFunction,SMDPad,CuDef*
%ADD20RoundRect,0.090000X-0.210000X0.560000X-0.210000X-0.560000X0.210000X-0.560000X0.210000X0.560000X0*%
G04 #@! TD*
G04 #@! TA.AperFunction,SMDPad,CuDef*
%ADD21R,1.200000X1.200000*%
G04 #@! TD*
G04 #@! TA.AperFunction,SMDPad,CuDef*
%ADD22RoundRect,0.075000X0.437500X0.075000X-0.437500X0.075000X-0.437500X-0.075000X0.437500X-0.075000X0*%
G04 #@! TD*
G04 #@! TA.AperFunction,SMDPad,CuDef*
%ADD23RoundRect,0.075000X0.075000X0.437500X-0.075000X0.437500X-0.075000X-0.437500X0.075000X-0.437500X0*%
G04 #@! TD*
G04 #@! TA.AperFunction,HeatsinkPad*
%ADD24R,4.250000X4.250000*%
G04 #@! TD*
G04 #@! TA.AperFunction,SMDPad,CuDef*
%ADD25RoundRect,0.135000X0.135000X0.185000X-0.135000X0.185000X-0.135000X-0.185000X0.135000X-0.185000X0*%
G04 #@! TD*
G04 #@! TA.AperFunction,SMDPad,CuDef*
%ADD26R,0.475000X1.200000*%
G04 #@! TD*
G04 #@! TA.AperFunction,SMDPad,CuDef*
%ADD27R,0.349999X1.200000*%
G04 #@! TD*
G04 #@! TA.AperFunction,SMDPad,CuDef*
%ADD28R,2.150001X1.599999*%
G04 #@! TD*
G04 #@! TA.AperFunction,SMDPad,CuDef*
%ADD29R,0.900001X0.349999*%
G04 #@! TD*
G04 #@! TA.AperFunction,SMDPad,CuDef*
%ADD30RoundRect,0.100000X0.900000X-0.100000X0.900000X0.100000X-0.900000X0.100000X-0.900000X-0.100000X0*%
G04 #@! TD*
G04 #@! TA.AperFunction,SMDPad,CuDef*
%ADD31RoundRect,0.140000X-0.170000X0.140000X-0.170000X-0.140000X0.170000X-0.140000X0.170000X0.140000X0*%
G04 #@! TD*
G04 #@! TA.AperFunction,SMDPad,CuDef*
%ADD32RoundRect,0.250000X-1.100000X0.325000X-1.100000X-0.325000X1.100000X-0.325000X1.100000X0.325000X0*%
G04 #@! TD*
G04 #@! TA.AperFunction,ViaPad*
%ADD33C,1.250000*%
G04 #@! TD*
G04 #@! TA.AperFunction,ViaPad*
%ADD34C,0.750000*%
G04 #@! TD*
G04 #@! TA.AperFunction,Conductor*
%ADD35C,0.750000*%
G04 #@! TD*
G04 #@! TA.AperFunction,Conductor*
%ADD36C,0.300000*%
G04 #@! TD*
G04 APERTURE END LIST*
D10*
X124100000Y-111510000D03*
X126640000Y-111510000D03*
X129180000Y-111510000D03*
X131720000Y-111510000D03*
X134260000Y-111510000D03*
X136800000Y-111510000D03*
X139340000Y-111510000D03*
X141880000Y-111510000D03*
X144420000Y-111510000D03*
X146960000Y-111510000D03*
X149500000Y-111510000D03*
X152040000Y-111510000D03*
X154580000Y-111510000D03*
X157120000Y-111510000D03*
X159660000Y-111510000D03*
X162200000Y-111510000D03*
X162200000Y-91190000D03*
X159660000Y-91190000D03*
X157120000Y-91190000D03*
X154580000Y-91190000D03*
X152040000Y-91190000D03*
X149500000Y-91190000D03*
X146960000Y-91190000D03*
X144420000Y-91190000D03*
X141880000Y-91190000D03*
X139340000Y-91190000D03*
X136800000Y-91190000D03*
X134260000Y-91190000D03*
D11*
X123150000Y-76350000D03*
X193150000Y-76350000D03*
X193150000Y-126350000D03*
X123150000Y-126350000D03*
D12*
X158140000Y-96850000D03*
X159160000Y-96850000D03*
D13*
X120050000Y-121670000D03*
D14*
X157200000Y-76350000D03*
X159100000Y-76350000D03*
X137200000Y-76350000D03*
X139100000Y-76350000D03*
D15*
X171650000Y-93050000D03*
X171650000Y-91150000D03*
D16*
X176670000Y-95600000D03*
X177630000Y-95600000D03*
X163170000Y-96850000D03*
X164130000Y-96850000D03*
D17*
X169900000Y-92580000D03*
X169900000Y-91620000D03*
D18*
X139100000Y-126350000D03*
X137200000Y-126350000D03*
D19*
X129385000Y-114325000D03*
D20*
X131110000Y-114325000D03*
X131110000Y-116375000D03*
X129190000Y-116375000D03*
D21*
X139300000Y-88600000D03*
X142500000Y-88600000D03*
D22*
X163987500Y-99400000D03*
X163987500Y-100050000D03*
X163987500Y-100700000D03*
X163987500Y-101350000D03*
X163987500Y-102000000D03*
X163987500Y-102650000D03*
X163987500Y-103300000D03*
D23*
X163100000Y-104187500D03*
X162450000Y-104187500D03*
X161800000Y-104187500D03*
X161150000Y-104187500D03*
X160500000Y-104187500D03*
X159850000Y-104187500D03*
X159200000Y-104187500D03*
D22*
X158312500Y-103300000D03*
X158312500Y-102650000D03*
X158312500Y-102000000D03*
X158312500Y-101350000D03*
X158312500Y-100700000D03*
X158312500Y-100050000D03*
X158312500Y-99400000D03*
D23*
X159200000Y-98512500D03*
X159850000Y-98512500D03*
X160500000Y-98512500D03*
X161150000Y-98512500D03*
X161800000Y-98512500D03*
X162450000Y-98512500D03*
X163100000Y-98512500D03*
D24*
X161150000Y-101350000D03*
D25*
X162160000Y-96850000D03*
X161140000Y-96850000D03*
D26*
X177362000Y-93500000D03*
D27*
X176550000Y-93500000D03*
X176050001Y-93500000D03*
D28*
X174399999Y-93300000D03*
X174399999Y-90900000D03*
D27*
X176050001Y-90700000D03*
X176550000Y-90700000D03*
D26*
X177362000Y-90700000D03*
D29*
X177449998Y-91600001D03*
D30*
X177150000Y-92100000D03*
D29*
X177449998Y-92599999D03*
D14*
X177200000Y-76350000D03*
X179100000Y-76350000D03*
D17*
X127150000Y-115830000D03*
X127150000Y-114870000D03*
D18*
X159100000Y-126350000D03*
X157200000Y-126350000D03*
D31*
X178900000Y-90370000D03*
X178900000Y-91330000D03*
D13*
X196250000Y-81030000D03*
D32*
X193150000Y-99875000D03*
X193150000Y-102825000D03*
D18*
X179100000Y-126350000D03*
X177200000Y-126350000D03*
D33*
X190610000Y-103890000D03*
X160690000Y-78890000D03*
X155610000Y-123810000D03*
X175610000Y-123810000D03*
D34*
X178400000Y-94850000D03*
D33*
X135610000Y-123810000D03*
D34*
X178900000Y-92100000D03*
D33*
X180690000Y-78890000D03*
X140690000Y-78890000D03*
X178150000Y-78890000D03*
X190610000Y-101350000D03*
X158150000Y-123810000D03*
X178150000Y-123810000D03*
X138150000Y-78890000D03*
X158150000Y-78890000D03*
X138150000Y-123810000D03*
D34*
X143651500Y-88241300D03*
X173086400Y-97283000D03*
X168900000Y-97493600D03*
X168900000Y-99350000D03*
X145584300Y-96178900D03*
X135610000Y-78890000D03*
X155610000Y-78890000D03*
X175150000Y-99350000D03*
X175610000Y-78890000D03*
X176150000Y-99350000D03*
X168650000Y-93100000D03*
X174555700Y-95069000D03*
X180690000Y-123810000D03*
X177150000Y-101350000D03*
X160690000Y-123810000D03*
X176150000Y-102850000D03*
X140690000Y-123810000D03*
X175150000Y-102350000D03*
X165200000Y-100700000D03*
X165850000Y-101350000D03*
X165200000Y-102000000D03*
X165850000Y-102650000D03*
X165200000Y-103300000D03*
X163900000Y-104100000D03*
X132150000Y-116350000D03*
D35*
X190610000Y-101350000D02*
X182110001Y-101350000D01*
X182110001Y-101350000D02*
X176670000Y-95909999D01*
X176670000Y-95909999D02*
X176670000Y-95600000D01*
D36*
X177630000Y-95600000D02*
X177650000Y-95600000D01*
X177650000Y-95600000D02*
X178400000Y-94850000D01*
X176550000Y-93500000D02*
X176550000Y-95480000D01*
X176550000Y-95480000D02*
X176670000Y-95600000D01*
X169900000Y-92580000D02*
X171180000Y-92580000D01*
X171180000Y-92580000D02*
X171650000Y-93050000D01*
X169900000Y-91620000D02*
X171180000Y-91620000D01*
X171650000Y-93050000D02*
X173086400Y-93050000D01*
X171180000Y-91620000D02*
X171650000Y-91150000D01*
X180056700Y-78256700D02*
X172150000Y-86163400D01*
X172150000Y-86163400D02*
X172150000Y-90650000D01*
X172150000Y-90650000D02*
X171650000Y-91150000D01*
X168650000Y-93100000D02*
X168650000Y-85850000D01*
X168650000Y-85850000D02*
X175610000Y-78890000D01*
X129385000Y-113845000D02*
X131720000Y-111510000D01*
X158312500Y-100050000D02*
X143180000Y-100050000D01*
D35*
X137200000Y-125400000D02*
X135610000Y-123810000D01*
X139100000Y-76350000D02*
X139100000Y-77300000D01*
D36*
X161800000Y-98512500D02*
X161800000Y-100700000D01*
D35*
X177200000Y-125400000D02*
X175610000Y-123810000D01*
X139100000Y-77300000D02*
X140690000Y-78890000D01*
D36*
X159850000Y-100050000D02*
X161150000Y-101350000D01*
X163100000Y-99400000D02*
X162450000Y-100050000D01*
X143180000Y-100050000D02*
X131720000Y-111510000D01*
X161800000Y-100700000D02*
X161150000Y-101350000D01*
X128840000Y-114870000D02*
X129385000Y-114325000D01*
X127150000Y-114870000D02*
X128840000Y-114870000D01*
X159200000Y-98512500D02*
X159200000Y-99400000D01*
X178900000Y-92100000D02*
X178900000Y-91330000D01*
X163988000Y-100050000D02*
X163987500Y-100050000D01*
D35*
X179100000Y-76350000D02*
X179100000Y-77300000D01*
D36*
X161800000Y-100700000D02*
X161150000Y-101350000D01*
D35*
X159100000Y-76350000D02*
X159100000Y-77300000D01*
D36*
X163987500Y-99400000D02*
X163100000Y-99400000D01*
D35*
X191675000Y-102825000D02*
X190610000Y-103890000D01*
D36*
X162450000Y-98512500D02*
X162450000Y-100050000D01*
X130150000Y-118350000D02*
X135610000Y-123810000D01*
D35*
X157200000Y-125400000D02*
X155610000Y-123810000D01*
D36*
X162450000Y-100050000D02*
X161800000Y-100700000D01*
D35*
X180056700Y-78256700D02*
X180690000Y-78890000D01*
X177200000Y-126350000D02*
X177200000Y-125400000D01*
D36*
X158312500Y-100050000D02*
X159850000Y-100050000D01*
X159850000Y-100050000D02*
X161150000Y-101350000D01*
X163100000Y-97880000D02*
X164130000Y-96850000D01*
D35*
X159100000Y-77300000D02*
X160690000Y-78890000D01*
D36*
X163100000Y-98512500D02*
X163100000Y-97880000D01*
X161150000Y-104188000D02*
X161150000Y-104187500D01*
X129385000Y-114325000D02*
X129385000Y-114085000D01*
D35*
X157200000Y-126350000D02*
X157200000Y-125400000D01*
D36*
X162450000Y-100050000D02*
X161800000Y-100700000D01*
D35*
X193150000Y-102825000D02*
X191675000Y-102825000D01*
D36*
X161150000Y-104187500D02*
X161150000Y-101350000D01*
X129385000Y-114085000D02*
X130150000Y-114850000D01*
X163987500Y-100050000D02*
X162450000Y-100050000D01*
X161800000Y-100700000D02*
X161150000Y-101350000D01*
X129385000Y-114085000D02*
X129385000Y-113845000D01*
X163100000Y-98512500D02*
X163100000Y-99400000D01*
X159200000Y-99400000D02*
X159850000Y-100050000D01*
D35*
X137200000Y-126350000D02*
X137200000Y-125400000D01*
D36*
X130150000Y-114850000D02*
X130150000Y-118350000D01*
D35*
X179100000Y-77300000D02*
X180056700Y-78256700D01*
D36*
X158312500Y-99400000D02*
X159200000Y-99400000D01*
X177150000Y-92100000D02*
X178900000Y-92100000D01*
D35*
X139100000Y-126350000D02*
X139100000Y-124760000D01*
X158575000Y-74975000D02*
X175825000Y-74975000D01*
X157200000Y-76350000D02*
X158575000Y-74975000D01*
X177200000Y-77940000D02*
X178150000Y-78890000D01*
X157725000Y-127725000D02*
X159100000Y-126350000D01*
X193150000Y-99875000D02*
X192085000Y-99875000D01*
X196150000Y-110350000D02*
X196150000Y-101825000D01*
D36*
X176550000Y-93500000D02*
X176050000Y-93500000D01*
D35*
X160475000Y-127725000D02*
X177725000Y-127725000D01*
X178575000Y-74975000D02*
X179775000Y-74975000D01*
X137200000Y-77940000D02*
X138150000Y-78890000D01*
X194200000Y-99875000D02*
X193150000Y-99875000D01*
X179775000Y-74975000D02*
X196150000Y-91350000D01*
X179100000Y-126350000D02*
X180150000Y-126350000D01*
X177200000Y-76350000D02*
X178575000Y-74975000D01*
X159100000Y-126350000D02*
X159100000Y-124760000D01*
X194200000Y-99875000D02*
X193150000Y-99875000D01*
X192085000Y-99875000D02*
X190610000Y-101350000D01*
X139100000Y-126350000D02*
X140475000Y-127725000D01*
X196150000Y-101825000D02*
X194200000Y-99875000D01*
X157200000Y-77940000D02*
X158150000Y-78890000D01*
X139100000Y-124760000D02*
X138150000Y-123810000D01*
X175825000Y-74975000D02*
X177200000Y-76350000D01*
X157200000Y-76350000D02*
X157200000Y-77940000D01*
X194388000Y-99875000D02*
X194200000Y-99875000D01*
X137200000Y-76350000D02*
X138575000Y-74975000D01*
X138575000Y-74975000D02*
X155825000Y-74975000D01*
X179100000Y-126350000D02*
X179100000Y-124760000D01*
X196150000Y-98112500D02*
X194388000Y-99875000D01*
X159100000Y-124760000D02*
X158150000Y-123810000D01*
X159100000Y-126350000D02*
X160475000Y-127725000D01*
X179100000Y-124760000D02*
X178150000Y-123810000D01*
X177200000Y-76350000D02*
X177200000Y-77940000D01*
X180150000Y-126350000D02*
X196150000Y-110350000D01*
X177725000Y-127725000D02*
X179100000Y-126350000D01*
X137200000Y-76350000D02*
X137200000Y-77940000D01*
X196150000Y-91350000D02*
X196150000Y-98112500D01*
X155825000Y-74975000D02*
X157200000Y-76350000D01*
X140475000Y-127725000D02*
X157725000Y-127725000D01*
X139300000Y-88600000D02*
X139300000Y-91150000D01*
X139300000Y-91150000D02*
X139340000Y-91190000D01*
D36*
X131110000Y-116375000D02*
X131735000Y-117000000D01*
X132419000Y-117000000D02*
X134260000Y-115159000D01*
X134260000Y-115159000D02*
X134260000Y-111510000D01*
X131735000Y-117000000D02*
X132419000Y-117000000D01*
X176100000Y-91600000D02*
X174400000Y-93300000D01*
X143651500Y-88241300D02*
X143400000Y-88492800D01*
X173086400Y-93050000D02*
X173086400Y-97283000D01*
X173086400Y-93050000D02*
X174150000Y-93050000D01*
X177450000Y-91600000D02*
X176100000Y-91600000D01*
X142500000Y-88600000D02*
X143400000Y-88600000D01*
X143400000Y-88492800D02*
X143400000Y-88600000D01*
X174150000Y-93050000D02*
X174400000Y-93300000D01*
X163768500Y-96251500D02*
X163170000Y-96850000D01*
X125751000Y-114431000D02*
X125751000Y-112399000D01*
X162160000Y-96850000D02*
X163170000Y-96850000D01*
X161150000Y-98512500D02*
X161150000Y-97860000D01*
X159178700Y-89993700D02*
X162692900Y-89993700D01*
X168900000Y-99350000D02*
X168900000Y-97493600D01*
X126990000Y-111510000D02*
X128900000Y-109600000D01*
X127150000Y-115830000D02*
X125751000Y-114431000D01*
X128900000Y-109600000D02*
X132900000Y-109600000D01*
X132900000Y-109600000D02*
X143150000Y-99350000D01*
X158390000Y-96600000D02*
X158390000Y-90782400D01*
X161150000Y-97860000D02*
X162160000Y-96850000D01*
X165801500Y-96251500D02*
X168900000Y-99350000D01*
X125751000Y-112399000D02*
X126640000Y-111510000D01*
X158390000Y-90782400D02*
X159178700Y-89993700D01*
X127150000Y-115830000D02*
X128645000Y-115830000D01*
X143150000Y-99350000D02*
X155640000Y-99350000D01*
X163768500Y-96251500D02*
X165801500Y-96251500D01*
X162692900Y-89993700D02*
X163768500Y-91069300D01*
X158140000Y-96850000D02*
X158390000Y-96600000D01*
X126640000Y-111510000D02*
X126990000Y-111510000D01*
X128645000Y-115830000D02*
X129190000Y-116375000D01*
X155640000Y-99350000D02*
X158140000Y-96850000D01*
X163768500Y-91069300D02*
X163768500Y-96251500D01*
X145584300Y-96178900D02*
X145650000Y-96113200D01*
X145650000Y-88930000D02*
X135610000Y-78890000D01*
X145650000Y-96113200D02*
X145650000Y-88930000D01*
X178900000Y-90370000D02*
X179550000Y-91020000D01*
X179550000Y-92369200D02*
X179104000Y-92815000D01*
X178570000Y-90700000D02*
X178900000Y-90370000D01*
X177362000Y-90700000D02*
X178570000Y-90700000D01*
X178185000Y-92815000D02*
X177970000Y-92600000D01*
X177970000Y-92600000D02*
X177450000Y-92600000D01*
X179550000Y-91020000D02*
X179550000Y-92369200D01*
X179104000Y-92815000D02*
X178185000Y-92815000D01*
X173400000Y-99350000D02*
X155610000Y-81560000D01*
X175150000Y-99350000D02*
X173400000Y-99350000D01*
X155610000Y-81560000D02*
X155610000Y-78890000D01*
X176150000Y-99350000D02*
X175838900Y-99038900D01*
X175838900Y-96352200D02*
X174555700Y-95069000D01*
X175838900Y-99038900D02*
X175838900Y-96352200D01*
X177150000Y-101350000D02*
X177150000Y-120270000D01*
X177150000Y-120270000D02*
X180690000Y-123810000D01*
X160500000Y-96850000D02*
X160500000Y-92890000D01*
X160500000Y-98512500D02*
X160500000Y-96850000D01*
X161140000Y-96850000D02*
X160500000Y-96850000D01*
X160500000Y-92890000D02*
X162200000Y-91190000D01*
X159850000Y-96850000D02*
X159850000Y-91380000D01*
X159850000Y-91380000D02*
X159660000Y-91190000D01*
X159850000Y-98512500D02*
X159850000Y-96850000D01*
X159160000Y-96850000D02*
X159850000Y-96850000D01*
X175480100Y-103519900D02*
X175480100Y-109019900D01*
X175480100Y-109019900D02*
X160690000Y-123810000D01*
X176150000Y-102850000D02*
X175480100Y-103519900D01*
X174571700Y-102350000D02*
X153111700Y-123810000D01*
X175150000Y-102350000D02*
X174571700Y-102350000D01*
X153111700Y-123810000D02*
X140690000Y-123810000D01*
X163988000Y-100700000D02*
X163987500Y-100700000D01*
X163988000Y-100700000D02*
X165200000Y-100700000D01*
X163988000Y-101350000D02*
X165850000Y-101350000D01*
X163988000Y-101350000D02*
X163987500Y-101350000D01*
X163988000Y-102000000D02*
X165200000Y-102000000D01*
X163988000Y-102000000D02*
X163987500Y-102000000D01*
X163988000Y-102650000D02*
X163987500Y-102650000D01*
X163988000Y-102650000D02*
X165850000Y-102650000D01*
X163988000Y-103300000D02*
X163987500Y-103300000D01*
X163988000Y-103300000D02*
X165200000Y-103300000D01*
X163812000Y-104188000D02*
X163900000Y-104100000D01*
X163100500Y-104188000D02*
X163812000Y-104188000D01*
X163100500Y-104188000D02*
X163100000Y-104187500D01*
X163100000Y-104188000D02*
X163100500Y-104188000D01*
X132150000Y-116350000D02*
X132150000Y-115365000D01*
X132150000Y-115365000D02*
X131110000Y-114325000D01*
G04 #@! TA.AperFunction,Conductor*
G36*
X193152152Y-71650593D02*
G01*
X193555284Y-71668195D01*
X193563864Y-71668945D01*
X193961776Y-71721332D01*
X193970281Y-71722832D01*
X194081870Y-71747570D01*
X194362108Y-71809698D01*
X194370423Y-71811925D01*
X194753201Y-71932615D01*
X194761317Y-71935569D01*
X195132111Y-72089157D01*
X195139923Y-72092799D01*
X195495910Y-72278115D01*
X195503390Y-72282433D01*
X195841882Y-72498076D01*
X195848956Y-72503030D01*
X196167354Y-72747345D01*
X196173968Y-72752895D01*
X196469868Y-73024038D01*
X196475961Y-73030131D01*
X196693350Y-73267369D01*
X196747102Y-73326029D01*
X196752654Y-73332645D01*
X196996969Y-73651043D01*
X197001923Y-73658117D01*
X197217566Y-73996609D01*
X197221884Y-74004089D01*
X197407196Y-74360069D01*
X197410846Y-74367896D01*
X197564430Y-74738682D01*
X197567384Y-74746798D01*
X197688069Y-75129560D01*
X197690304Y-75137903D01*
X197777167Y-75529718D01*
X197778667Y-75538223D01*
X197831052Y-75936123D01*
X197831805Y-75944727D01*
X197849406Y-76347847D01*
X197849500Y-76352165D01*
X197849500Y-126347834D01*
X197849406Y-126352152D01*
X197831805Y-126755272D01*
X197831052Y-126763876D01*
X197778667Y-127161776D01*
X197777167Y-127170281D01*
X197690304Y-127562096D01*
X197688069Y-127570439D01*
X197567384Y-127953201D01*
X197564430Y-127961317D01*
X197410846Y-128332103D01*
X197407196Y-128339930D01*
X197221884Y-128695910D01*
X197217566Y-128703390D01*
X197001923Y-129041882D01*
X196996969Y-129048956D01*
X196752654Y-129367354D01*
X196747102Y-129373970D01*
X196475968Y-129669861D01*
X196469861Y-129675968D01*
X196173970Y-129947102D01*
X196167354Y-129952654D01*
X195848956Y-130196969D01*
X195841882Y-130201923D01*
X195503390Y-130417566D01*
X195495910Y-130421884D01*
X195139930Y-130607196D01*
X195132103Y-130610846D01*
X194761317Y-130764430D01*
X194753201Y-130767384D01*
X194370439Y-130888069D01*
X194362096Y-130890304D01*
X193970281Y-130977167D01*
X193961776Y-130978667D01*
X193563876Y-131031052D01*
X193555272Y-131031805D01*
X193152153Y-131049406D01*
X193147835Y-131049500D01*
X123152165Y-131049500D01*
X123147847Y-131049406D01*
X122744727Y-131031805D01*
X122736123Y-131031052D01*
X122338223Y-130978667D01*
X122329718Y-130977167D01*
X121937903Y-130890304D01*
X121929560Y-130888069D01*
X121546798Y-130767384D01*
X121538682Y-130764430D01*
X121167896Y-130610846D01*
X121160069Y-130607196D01*
X120804089Y-130421884D01*
X120796609Y-130417566D01*
X120458117Y-130201923D01*
X120451043Y-130196969D01*
X120132645Y-129952654D01*
X120126029Y-129947102D01*
X119942183Y-129778638D01*
X119830131Y-129675961D01*
X119824038Y-129669868D01*
X119552895Y-129373968D01*
X119547345Y-129367354D01*
X119540777Y-129358795D01*
X119303030Y-129048956D01*
X119298076Y-129041882D01*
X119082433Y-128703390D01*
X119078115Y-128695910D01*
X118892803Y-128339930D01*
X118889153Y-128332103D01*
X118866917Y-128278421D01*
X118735569Y-127961317D01*
X118732615Y-127953201D01*
X118677982Y-127779927D01*
X118611925Y-127570423D01*
X118609698Y-127562108D01*
X118545525Y-127272644D01*
X118522832Y-127170281D01*
X118521332Y-127161776D01*
X118514918Y-127113057D01*
X118468945Y-126763864D01*
X118468195Y-126755284D01*
X118450594Y-126352152D01*
X118450547Y-126350000D01*
X119744506Y-126350000D01*
X119764468Y-126718197D01*
X119824126Y-127082087D01*
X119922768Y-127437365D01*
X119922772Y-127437376D01*
X120059255Y-127779927D01*
X120151120Y-127953201D01*
X120231978Y-128105716D01*
X120438910Y-128410917D01*
X120438914Y-128410922D01*
X120438915Y-128410923D01*
X120677622Y-128691951D01*
X120677632Y-128691961D01*
X120945326Y-128945535D01*
X120945330Y-128945538D01*
X121238881Y-129168690D01*
X121554838Y-129358795D01*
X121889497Y-129513625D01*
X122238934Y-129631364D01*
X122238939Y-129631365D01*
X122238942Y-129631366D01*
X122599047Y-129710631D01*
X122599048Y-129710631D01*
X122599052Y-129710632D01*
X122965630Y-129750500D01*
X123334370Y-129750500D01*
X123700948Y-129710632D01*
X124061057Y-129631366D01*
X124061058Y-129631366D01*
X124061060Y-129631365D01*
X124061066Y-129631364D01*
X124410503Y-129513625D01*
X124745162Y-129358795D01*
X125061119Y-129168690D01*
X125354670Y-128945538D01*
X125622373Y-128691956D01*
X125861090Y-128410917D01*
X126068022Y-128105716D01*
X126240743Y-127779930D01*
X126377227Y-127437379D01*
X126475875Y-127082081D01*
X126535531Y-126718199D01*
X126552732Y-126400939D01*
X131455630Y-126400939D01*
X131486443Y-126602067D01*
X131486444Y-126602071D01*
X131557114Y-126792887D01*
X131557115Y-126792888D01*
X131664745Y-126965567D01*
X131664747Y-126965569D01*
X131664748Y-126965571D01*
X131804941Y-127113053D01*
X131804943Y-127113054D01*
X131804946Y-127113057D01*
X131969793Y-127227793D01*
X131971951Y-127229295D01*
X132158940Y-127309539D01*
X132158942Y-127309540D01*
X132358259Y-127350500D01*
X132358262Y-127350500D01*
X132510744Y-127350500D01*
X132536381Y-127347892D01*
X132662438Y-127335074D01*
X132856588Y-127274159D01*
X133034502Y-127175409D01*
X133188895Y-127042866D01*
X133313448Y-126881958D01*
X133314769Y-126879266D01*
X133315645Y-126877478D01*
X133403060Y-126699271D01*
X133454063Y-126502285D01*
X133464369Y-126299064D01*
X133433556Y-126097929D01*
X133362886Y-125907113D01*
X133255252Y-125734429D01*
X133115059Y-125586947D01*
X133115057Y-125586945D01*
X133115053Y-125586942D01*
X132948054Y-125470708D01*
X132948051Y-125470706D01*
X132948049Y-125470705D01*
X132761058Y-125390460D01*
X132761060Y-125390460D01*
X132681331Y-125374076D01*
X132561741Y-125349500D01*
X132409258Y-125349500D01*
X132409256Y-125349500D01*
X132257561Y-125364926D01*
X132063410Y-125425841D01*
X132063409Y-125425842D01*
X131885501Y-125524588D01*
X131885498Y-125524590D01*
X131731109Y-125657129D01*
X131606549Y-125818045D01*
X131526224Y-125981802D01*
X131516940Y-126000729D01*
X131491773Y-126097932D01*
X131465936Y-126197719D01*
X131455631Y-126400936D01*
X131455630Y-126400939D01*
X126552732Y-126400939D01*
X126555494Y-126350000D01*
X126535531Y-125981801D01*
X126475875Y-125617919D01*
X126435001Y-125470705D01*
X126377231Y-125262634D01*
X126377229Y-125262629D01*
X126377227Y-125262621D01*
X126260772Y-124970340D01*
X126240744Y-124920072D01*
X126240743Y-124920070D01*
X126068022Y-124594284D01*
X125861090Y-124289083D01*
X125784771Y-124199233D01*
X125622377Y-124008048D01*
X125622367Y-124008038D01*
X125354673Y-123754464D01*
X125061123Y-123531313D01*
X125061122Y-123531312D01*
X125061119Y-123531310D01*
X124745162Y-123341205D01*
X124510529Y-123232652D01*
X124410508Y-123186377D01*
X124410505Y-123186376D01*
X124410503Y-123186375D01*
X124061066Y-123068636D01*
X124061065Y-123068635D01*
X124061057Y-123068633D01*
X123700952Y-122989368D01*
X123700953Y-122989368D01*
X123334370Y-122949500D01*
X122965630Y-122949500D01*
X122599046Y-122989368D01*
X122238943Y-123068633D01*
X122238941Y-123068633D01*
X121889491Y-123186377D01*
X121554846Y-123341201D01*
X121554840Y-123341204D01*
X121554838Y-123341205D01*
X121314016Y-123486103D01*
X121238881Y-123531310D01*
X121238876Y-123531313D01*
X120945326Y-123754464D01*
X120677632Y-124008038D01*
X120677622Y-124008048D01*
X120438915Y-124289076D01*
X120438908Y-124289086D01*
X120231981Y-124594278D01*
X120059255Y-124920072D01*
X119922772Y-125262623D01*
X119922768Y-125262634D01*
X119824126Y-125617912D01*
X119764468Y-125981802D01*
X119744506Y-126350000D01*
X118450547Y-126350000D01*
X118450500Y-126347834D01*
X118450500Y-121670002D01*
X119539302Y-121670002D01*
X119559987Y-121813874D01*
X119559989Y-121813883D01*
X119620372Y-121946101D01*
X119620373Y-121946102D01*
X119620374Y-121946104D01*
X119715564Y-122055960D01*
X119715565Y-122055961D01*
X119837843Y-122134544D01*
X119837848Y-122134547D01*
X119977320Y-122175500D01*
X119977321Y-122175500D01*
X120122679Y-122175500D01*
X120122680Y-122175500D01*
X120262152Y-122134547D01*
X120384436Y-122055960D01*
X120479626Y-121946104D01*
X120540011Y-121813880D01*
X120560698Y-121670000D01*
X120540011Y-121526120D01*
X120540010Y-121526119D01*
X120540010Y-121526116D01*
X120479627Y-121393898D01*
X120479626Y-121393897D01*
X120479626Y-121393896D01*
X120384436Y-121284040D01*
X120384435Y-121284039D01*
X120384434Y-121284038D01*
X120262156Y-121205455D01*
X120262153Y-121205454D01*
X120262152Y-121205453D01*
X120192416Y-121184976D01*
X120122681Y-121164500D01*
X120122680Y-121164500D01*
X119977320Y-121164500D01*
X119977318Y-121164500D01*
X119837848Y-121205453D01*
X119837843Y-121205455D01*
X119715565Y-121284038D01*
X119620372Y-121393898D01*
X119559989Y-121526116D01*
X119559987Y-121526125D01*
X119539302Y-121669997D01*
X119539302Y-121670002D01*
X118450500Y-121670002D01*
X118450500Y-114416313D01*
X125395957Y-114416313D01*
X125399740Y-114446662D01*
X125400500Y-114458907D01*
X125400500Y-114460042D01*
X125403751Y-114479528D01*
X125404337Y-114483547D01*
X125408216Y-114514655D01*
X125410427Y-114532393D01*
X125412527Y-114539448D01*
X125414907Y-114546380D01*
X125438322Y-114589646D01*
X125440194Y-114593284D01*
X125448275Y-114609815D01*
X125461801Y-114637482D01*
X125466078Y-114643472D01*
X125470581Y-114649258D01*
X125506764Y-114682567D01*
X125509717Y-114685399D01*
X126073813Y-115249495D01*
X126610504Y-115786185D01*
X126638281Y-115840702D01*
X126639500Y-115856188D01*
X126639500Y-116009895D01*
X126639501Y-116009907D01*
X126646027Y-116059486D01*
X126646027Y-116059488D01*
X126696774Y-116168313D01*
X126696775Y-116168314D01*
X126696776Y-116168316D01*
X126781684Y-116253224D01*
X126890513Y-116303972D01*
X126940099Y-116310500D01*
X127359900Y-116310499D01*
X127409487Y-116303972D01*
X127409488Y-116303972D01*
X127468137Y-116276622D01*
X127518316Y-116253224D01*
X127540180Y-116231359D01*
X127562045Y-116209496D01*
X127616562Y-116181719D01*
X127632048Y-116180500D01*
X128458810Y-116180500D01*
X128517001Y-116199407D01*
X128528814Y-116209496D01*
X128660504Y-116341186D01*
X128688281Y-116395703D01*
X128689500Y-116411190D01*
X128689500Y-116978369D01*
X128689501Y-116978372D01*
X128692317Y-117002661D01*
X128716816Y-117058146D01*
X128736187Y-117102016D01*
X128812984Y-117178813D01*
X128912338Y-117222682D01*
X128936627Y-117225500D01*
X129443372Y-117225499D01*
X129467662Y-117222682D01*
X129567016Y-117178813D01*
X129630498Y-117115330D01*
X129685013Y-117087555D01*
X129745445Y-117097126D01*
X129788710Y-117140391D01*
X129799500Y-117185336D01*
X129799500Y-118303381D01*
X129797393Y-118323696D01*
X129794957Y-118335313D01*
X129798740Y-118365662D01*
X129799500Y-118377907D01*
X129799500Y-118379042D01*
X129802751Y-118398528D01*
X129803337Y-118402547D01*
X129809427Y-118451393D01*
X129811527Y-118458448D01*
X129813907Y-118465380D01*
X129837322Y-118508646D01*
X129839195Y-118512285D01*
X129860801Y-118556482D01*
X129865078Y-118562472D01*
X129869581Y-118568258D01*
X129905764Y-118601567D01*
X129908717Y-118604399D01*
X134790421Y-123486103D01*
X134818198Y-123540620D01*
X134814573Y-123586697D01*
X134798092Y-123637423D01*
X134791456Y-123700557D01*
X134779953Y-123810000D01*
X134798092Y-123982576D01*
X134851714Y-124147611D01*
X134851715Y-124147612D01*
X134851716Y-124147616D01*
X134938477Y-124297888D01*
X134938477Y-124297889D01*
X135004025Y-124370687D01*
X135054590Y-124426845D01*
X135194976Y-124528842D01*
X135194980Y-124528844D01*
X135194982Y-124528845D01*
X135247444Y-124552202D01*
X135353501Y-124599422D01*
X135523236Y-124635500D01*
X135580612Y-124635500D01*
X135638803Y-124654407D01*
X135650616Y-124664496D01*
X136530475Y-125544355D01*
X136558252Y-125598872D01*
X136549360Y-125655012D01*
X136549657Y-125655116D01*
X136549085Y-125656748D01*
X136548681Y-125659304D01*
X136548004Y-125660608D01*
X136547208Y-125662114D01*
X136502355Y-125790296D01*
X136502353Y-125790305D01*
X136499500Y-125820725D01*
X136499500Y-126879274D01*
X136502353Y-126909694D01*
X136502355Y-126909703D01*
X136547207Y-127037883D01*
X136627845Y-127147144D01*
X136627847Y-127147146D01*
X136627850Y-127147150D01*
X136627853Y-127147152D01*
X136627855Y-127147154D01*
X136737116Y-127227792D01*
X136737117Y-127227792D01*
X136737118Y-127227793D01*
X136865301Y-127272646D01*
X136895725Y-127275499D01*
X136895727Y-127275500D01*
X136895734Y-127275500D01*
X137504273Y-127275500D01*
X137504273Y-127275499D01*
X137534699Y-127272646D01*
X137662882Y-127227793D01*
X137772150Y-127147150D01*
X137852793Y-127037882D01*
X137897646Y-126909699D01*
X137900499Y-126879273D01*
X137900500Y-126879273D01*
X137900500Y-126879203D01*
X138400001Y-126879203D01*
X138402850Y-126909600D01*
X138402850Y-126909602D01*
X138447654Y-127037647D01*
X138528207Y-127146790D01*
X138528209Y-127146792D01*
X138637352Y-127227345D01*
X138765398Y-127272149D01*
X138795789Y-127274999D01*
X138999998Y-127274999D01*
X139000000Y-127274998D01*
X139200000Y-127274998D01*
X139200001Y-127274999D01*
X139404203Y-127274999D01*
X139434600Y-127272149D01*
X139434602Y-127272149D01*
X139562647Y-127227345D01*
X139671790Y-127146792D01*
X139671792Y-127146790D01*
X139752345Y-127037647D01*
X139797149Y-126909601D01*
X139799999Y-126879211D01*
X139800000Y-126879210D01*
X139800000Y-126450001D01*
X139799999Y-126450000D01*
X139200001Y-126450000D01*
X139200000Y-126450001D01*
X139200000Y-127274998D01*
X139000000Y-127274998D01*
X139000000Y-126450001D01*
X138999999Y-126450000D01*
X138400002Y-126450000D01*
X138400001Y-126450001D01*
X138400001Y-126879203D01*
X137900500Y-126879203D01*
X137900500Y-126400939D01*
X142835630Y-126400939D01*
X142866443Y-126602067D01*
X142866444Y-126602071D01*
X142937114Y-126792887D01*
X142937115Y-126792888D01*
X143044745Y-126965567D01*
X143044747Y-126965569D01*
X143044748Y-126965571D01*
X143184941Y-127113053D01*
X143184943Y-127113054D01*
X143184946Y-127113057D01*
X143349793Y-127227793D01*
X143351951Y-127229295D01*
X143538940Y-127309539D01*
X143538942Y-127309540D01*
X143738259Y-127350500D01*
X143738262Y-127350500D01*
X143890744Y-127350500D01*
X143916381Y-127347892D01*
X144042438Y-127335074D01*
X144236588Y-127274159D01*
X144414502Y-127175409D01*
X144568895Y-127042866D01*
X144693448Y-126881958D01*
X144694769Y-126879266D01*
X144695645Y-126877478D01*
X144783060Y-126699271D01*
X144834063Y-126502285D01*
X144839203Y-126400939D01*
X151455630Y-126400939D01*
X151486443Y-126602067D01*
X151486444Y-126602071D01*
X151557114Y-126792887D01*
X151557115Y-126792888D01*
X151664745Y-126965567D01*
X151664747Y-126965569D01*
X151664748Y-126965571D01*
X151804941Y-127113053D01*
X151804943Y-127113054D01*
X151804946Y-127113057D01*
X151969793Y-127227793D01*
X151971951Y-127229295D01*
X152158940Y-127309539D01*
X152158942Y-127309540D01*
X152358259Y-127350500D01*
X152358262Y-127350500D01*
X152510744Y-127350500D01*
X152536381Y-127347892D01*
X152662438Y-127335074D01*
X152856588Y-127274159D01*
X153034502Y-127175409D01*
X153188895Y-127042866D01*
X153313448Y-126881958D01*
X153314769Y-126879266D01*
X153315645Y-126877478D01*
X153403060Y-126699271D01*
X153454063Y-126502285D01*
X153464369Y-126299064D01*
X153433556Y-126097929D01*
X153362886Y-125907113D01*
X153255252Y-125734429D01*
X153115059Y-125586947D01*
X153115057Y-125586945D01*
X153115053Y-125586942D01*
X152948054Y-125470708D01*
X152948051Y-125470706D01*
X152948049Y-125470705D01*
X152761058Y-125390460D01*
X152761060Y-125390460D01*
X152681331Y-125374076D01*
X152561741Y-125349500D01*
X152409258Y-125349500D01*
X152409256Y-125349500D01*
X152257561Y-125364926D01*
X152063410Y-125425841D01*
X152063409Y-125425842D01*
X151885501Y-125524588D01*
X151885498Y-125524590D01*
X151731109Y-125657129D01*
X151606549Y-125818045D01*
X151526224Y-125981802D01*
X151516940Y-126000729D01*
X151491773Y-126097932D01*
X151465936Y-126197719D01*
X151455631Y-126400936D01*
X151455630Y-126400939D01*
X144839203Y-126400939D01*
X144844369Y-126299064D01*
X144813556Y-126097929D01*
X144742886Y-125907113D01*
X144635252Y-125734429D01*
X144495059Y-125586947D01*
X144495057Y-125586945D01*
X144495053Y-125586942D01*
X144328054Y-125470708D01*
X144328051Y-125470706D01*
X144328049Y-125470705D01*
X144141058Y-125390460D01*
X144141060Y-125390460D01*
X144061331Y-125374076D01*
X143941741Y-125349500D01*
X143789258Y-125349500D01*
X143789256Y-125349500D01*
X143637561Y-125364926D01*
X143443410Y-125425841D01*
X143443409Y-125425842D01*
X143265501Y-125524588D01*
X143265498Y-125524590D01*
X143111109Y-125657129D01*
X142986549Y-125818045D01*
X142906224Y-125981802D01*
X142896940Y-126000729D01*
X142871773Y-126097932D01*
X142845936Y-126197719D01*
X142835631Y-126400936D01*
X142835630Y-126400939D01*
X137900500Y-126400939D01*
X137900500Y-126249999D01*
X138400000Y-126249999D01*
X138400001Y-126250000D01*
X138999999Y-126250000D01*
X139000000Y-126249999D01*
X139200000Y-126249999D01*
X139200001Y-126250000D01*
X139799998Y-126250000D01*
X139799999Y-126249999D01*
X139799999Y-125820796D01*
X139797149Y-125790399D01*
X139797149Y-125790397D01*
X139752345Y-125662352D01*
X139671792Y-125553209D01*
X139671790Y-125553207D01*
X139562647Y-125472654D01*
X139434601Y-125427850D01*
X139404211Y-125425000D01*
X139200001Y-125425000D01*
X139200000Y-125425001D01*
X139200000Y-126249999D01*
X139000000Y-126249999D01*
X139000000Y-125425001D01*
X138999999Y-125425000D01*
X138795796Y-125425000D01*
X138765399Y-125427850D01*
X138765397Y-125427850D01*
X138637352Y-125472654D01*
X138528209Y-125553207D01*
X138528207Y-125553209D01*
X138447654Y-125662352D01*
X138402850Y-125790398D01*
X138400000Y-125820788D01*
X138400000Y-126249999D01*
X137900500Y-126249999D01*
X137900500Y-125820727D01*
X137900499Y-125820725D01*
X137900248Y-125818045D01*
X137897646Y-125790301D01*
X137852793Y-125662118D01*
X137852792Y-125662116D01*
X137794845Y-125583600D01*
X137775503Y-125525552D01*
X137775500Y-125524812D01*
X137775500Y-125444208D01*
X137776347Y-125431285D01*
X137777175Y-125425001D01*
X137780466Y-125400000D01*
X137760687Y-125249765D01*
X137702699Y-125109768D01*
X137633612Y-125019732D01*
X137631650Y-125017175D01*
X137631638Y-125017160D01*
X137610451Y-124989549D01*
X137585418Y-124970340D01*
X137575682Y-124961802D01*
X136466734Y-123852854D01*
X136444899Y-123810000D01*
X140109534Y-123810000D01*
X140129313Y-123960236D01*
X140158307Y-124030234D01*
X140185102Y-124094923D01*
X140187302Y-124100233D01*
X140279549Y-124220451D01*
X140399767Y-124312698D01*
X140539764Y-124370687D01*
X140652441Y-124385521D01*
X140689999Y-124390466D01*
X140690000Y-124390466D01*
X140690001Y-124390466D01*
X140720047Y-124386510D01*
X140840236Y-124370687D01*
X140980233Y-124312698D01*
X141100451Y-124220451D01*
X141116732Y-124199232D01*
X141167156Y-124164577D01*
X141195274Y-124160500D01*
X153065081Y-124160500D01*
X153085396Y-124162607D01*
X153087306Y-124163007D01*
X153097015Y-124165043D01*
X153127362Y-124161259D01*
X153139607Y-124160500D01*
X153140743Y-124160500D01*
X153160221Y-124157249D01*
X153164252Y-124156661D01*
X153213093Y-124150573D01*
X153213096Y-124150571D01*
X153220129Y-124148477D01*
X153227075Y-124146092D01*
X153227081Y-124146092D01*
X153270355Y-124122671D01*
X153273979Y-124120807D01*
X153318182Y-124099199D01*
X153318182Y-124099198D01*
X153318184Y-124099198D01*
X153318185Y-124099196D01*
X153324170Y-124094923D01*
X153329955Y-124090420D01*
X153329955Y-124090419D01*
X153329958Y-124090418D01*
X153363279Y-124054220D01*
X153366064Y-124051316D01*
X153607380Y-123810000D01*
X154779953Y-123810000D01*
X154798092Y-123982576D01*
X154851714Y-124147611D01*
X154851715Y-124147612D01*
X154851716Y-124147616D01*
X154938477Y-124297888D01*
X154938477Y-124297889D01*
X155004025Y-124370687D01*
X155054590Y-124426845D01*
X155194976Y-124528842D01*
X155194980Y-124528844D01*
X155194982Y-124528845D01*
X155247444Y-124552202D01*
X155353501Y-124599422D01*
X155523236Y-124635500D01*
X155580612Y-124635500D01*
X155638803Y-124654407D01*
X155650616Y-124664496D01*
X156530475Y-125544355D01*
X156558252Y-125598872D01*
X156549360Y-125655012D01*
X156549657Y-125655116D01*
X156549085Y-125656748D01*
X156548681Y-125659304D01*
X156548004Y-125660608D01*
X156547208Y-125662114D01*
X156502355Y-125790296D01*
X156502353Y-125790305D01*
X156499500Y-125820725D01*
X156499500Y-126879274D01*
X156502353Y-126909694D01*
X156502355Y-126909703D01*
X156547207Y-127037883D01*
X156627845Y-127147144D01*
X156627847Y-127147146D01*
X156627850Y-127147150D01*
X156627853Y-127147152D01*
X156627855Y-127147154D01*
X156737116Y-127227792D01*
X156737117Y-127227792D01*
X156737118Y-127227793D01*
X156865301Y-127272646D01*
X156895725Y-127275499D01*
X156895727Y-127275500D01*
X156895734Y-127275500D01*
X157504273Y-127275500D01*
X157504273Y-127275499D01*
X157534699Y-127272646D01*
X157662882Y-127227793D01*
X157772150Y-127147150D01*
X157852793Y-127037882D01*
X157897646Y-126909699D01*
X157900499Y-126879273D01*
X157900500Y-126879273D01*
X157900500Y-126879203D01*
X158400001Y-126879203D01*
X158402850Y-126909600D01*
X158402850Y-126909602D01*
X158447654Y-127037647D01*
X158528207Y-127146790D01*
X158528209Y-127146792D01*
X158637352Y-127227345D01*
X158765398Y-127272149D01*
X158795789Y-127274999D01*
X158999998Y-127274999D01*
X159000000Y-127274998D01*
X159200000Y-127274998D01*
X159200001Y-127274999D01*
X159404203Y-127274999D01*
X159434600Y-127272149D01*
X159434602Y-127272149D01*
X159562647Y-127227345D01*
X159671790Y-127146792D01*
X159671792Y-127146790D01*
X159752345Y-127037647D01*
X159797149Y-126909601D01*
X159799999Y-126879211D01*
X159800000Y-126879210D01*
X159800000Y-126450001D01*
X159799999Y-126450000D01*
X159200001Y-126450000D01*
X159200000Y-126450001D01*
X159200000Y-127274998D01*
X159000000Y-127274998D01*
X159000000Y-126450001D01*
X158999999Y-126450000D01*
X158400002Y-126450000D01*
X158400001Y-126450001D01*
X158400001Y-126879203D01*
X157900500Y-126879203D01*
X157900500Y-126400939D01*
X162835630Y-126400939D01*
X162866443Y-126602067D01*
X162866444Y-126602071D01*
X162937114Y-126792887D01*
X162937115Y-126792888D01*
X163044745Y-126965567D01*
X163044747Y-126965569D01*
X163044748Y-126965571D01*
X163184941Y-127113053D01*
X163184943Y-127113054D01*
X163184946Y-127113057D01*
X163349793Y-127227793D01*
X163351951Y-127229295D01*
X163538940Y-127309539D01*
X163538942Y-127309540D01*
X163738259Y-127350500D01*
X163738262Y-127350500D01*
X163890744Y-127350500D01*
X163916381Y-127347892D01*
X164042438Y-127335074D01*
X164236588Y-127274159D01*
X164414502Y-127175409D01*
X164568895Y-127042866D01*
X164693448Y-126881958D01*
X164694769Y-126879266D01*
X164695645Y-126877478D01*
X164783060Y-126699271D01*
X164834063Y-126502285D01*
X164839203Y-126400939D01*
X171455630Y-126400939D01*
X171486443Y-126602067D01*
X171486444Y-126602071D01*
X171557114Y-126792887D01*
X171557115Y-126792888D01*
X171664745Y-126965567D01*
X171664747Y-126965569D01*
X171664748Y-126965571D01*
X171804941Y-127113053D01*
X171804943Y-127113054D01*
X171804946Y-127113057D01*
X171969793Y-127227793D01*
X171971951Y-127229295D01*
X172158940Y-127309539D01*
X172158942Y-127309540D01*
X172358259Y-127350500D01*
X172358262Y-127350500D01*
X172510744Y-127350500D01*
X172536381Y-127347892D01*
X172662438Y-127335074D01*
X172856588Y-127274159D01*
X173034502Y-127175409D01*
X173188895Y-127042866D01*
X173313448Y-126881958D01*
X173314769Y-126879266D01*
X173315645Y-126877478D01*
X173403060Y-126699271D01*
X173454063Y-126502285D01*
X173464369Y-126299064D01*
X173433556Y-126097929D01*
X173362886Y-125907113D01*
X173255252Y-125734429D01*
X173115059Y-125586947D01*
X173115057Y-125586945D01*
X173115053Y-125586942D01*
X172948054Y-125470708D01*
X172948051Y-125470706D01*
X172948049Y-125470705D01*
X172761058Y-125390460D01*
X172761060Y-125390460D01*
X172681331Y-125374076D01*
X172561741Y-125349500D01*
X172409258Y-125349500D01*
X172409256Y-125349500D01*
X172257561Y-125364926D01*
X172063410Y-125425841D01*
X172063409Y-125425842D01*
X171885501Y-125524588D01*
X171885498Y-125524590D01*
X171731109Y-125657129D01*
X171606549Y-125818045D01*
X171526224Y-125981802D01*
X171516940Y-126000729D01*
X171491773Y-126097932D01*
X171465936Y-126197719D01*
X171455631Y-126400936D01*
X171455630Y-126400939D01*
X164839203Y-126400939D01*
X164844369Y-126299064D01*
X164813556Y-126097929D01*
X164742886Y-125907113D01*
X164635252Y-125734429D01*
X164495059Y-125586947D01*
X164495057Y-125586945D01*
X164495053Y-125586942D01*
X164328054Y-125470708D01*
X164328051Y-125470706D01*
X164328049Y-125470705D01*
X164141058Y-125390460D01*
X164141060Y-125390460D01*
X164061331Y-125374076D01*
X163941741Y-125349500D01*
X163789258Y-125349500D01*
X163789256Y-125349500D01*
X163637561Y-125364926D01*
X163443410Y-125425841D01*
X163443409Y-125425842D01*
X163265501Y-125524588D01*
X163265498Y-125524590D01*
X163111109Y-125657129D01*
X162986549Y-125818045D01*
X162906224Y-125981802D01*
X162896940Y-126000729D01*
X162871773Y-126097932D01*
X162845936Y-126197719D01*
X162835631Y-126400936D01*
X162835630Y-126400939D01*
X157900500Y-126400939D01*
X157900500Y-126249999D01*
X158400000Y-126249999D01*
X158400001Y-126250000D01*
X158999999Y-126250000D01*
X159000000Y-126249999D01*
X159200000Y-126249999D01*
X159200001Y-126250000D01*
X159799998Y-126250000D01*
X159799999Y-126249999D01*
X159799999Y-125820796D01*
X159797149Y-125790399D01*
X159797149Y-125790397D01*
X159752345Y-125662352D01*
X159671792Y-125553209D01*
X159671790Y-125553207D01*
X159562647Y-125472654D01*
X159434601Y-125427850D01*
X159404211Y-125425000D01*
X159200001Y-125425000D01*
X159200000Y-125425001D01*
X159200000Y-126249999D01*
X159000000Y-126249999D01*
X159000000Y-125425001D01*
X158999999Y-125425000D01*
X158795796Y-125425000D01*
X158765399Y-125427850D01*
X158765397Y-125427850D01*
X158637352Y-125472654D01*
X158528209Y-125553207D01*
X158528207Y-125553209D01*
X158447654Y-125662352D01*
X158402850Y-125790398D01*
X158400000Y-125820788D01*
X158400000Y-126249999D01*
X157900500Y-126249999D01*
X157900500Y-125820727D01*
X157900499Y-125820725D01*
X157900248Y-125818045D01*
X157897646Y-125790301D01*
X157852793Y-125662118D01*
X157852792Y-125662116D01*
X157794845Y-125583600D01*
X157775503Y-125525552D01*
X157775500Y-125524812D01*
X157775500Y-125444208D01*
X157776347Y-125431285D01*
X157777175Y-125425001D01*
X157780466Y-125400000D01*
X157760687Y-125249765D01*
X157702699Y-125109768D01*
X157633612Y-125019732D01*
X157631650Y-125017175D01*
X157631638Y-125017160D01*
X157610451Y-124989549D01*
X157585418Y-124970340D01*
X157575682Y-124961802D01*
X156466734Y-123852854D01*
X156438957Y-123798337D01*
X156438284Y-123793235D01*
X156421908Y-123637424D01*
X156368286Y-123472389D01*
X156360844Y-123459500D01*
X156281522Y-123322111D01*
X156281522Y-123322110D01*
X156200973Y-123232652D01*
X156165410Y-123193155D01*
X156025024Y-123091158D01*
X156025020Y-123091156D01*
X156025017Y-123091154D01*
X155866501Y-123020579D01*
X155866499Y-123020578D01*
X155866496Y-123020577D01*
X155866495Y-123020577D01*
X155834209Y-123013714D01*
X155696764Y-122984500D01*
X155523236Y-122984500D01*
X155415005Y-123007505D01*
X155353504Y-123020577D01*
X155353498Y-123020579D01*
X155194983Y-123091154D01*
X155194980Y-123091156D01*
X155054588Y-123193156D01*
X155004026Y-123249312D01*
X154938478Y-123322111D01*
X154938476Y-123322113D01*
X154938476Y-123322114D01*
X154851716Y-123472383D01*
X154851714Y-123472387D01*
X154851714Y-123472389D01*
X154798092Y-123637424D01*
X154779953Y-123810000D01*
X153607380Y-123810000D01*
X174631411Y-102785969D01*
X174685926Y-102758194D01*
X174746358Y-102767765D01*
X174761676Y-102777430D01*
X174859767Y-102852698D01*
X174999764Y-102910687D01*
X175098030Y-102923624D01*
X175149999Y-102930466D01*
X175150000Y-102930466D01*
X175150001Y-102930466D01*
X175192126Y-102924920D01*
X175300236Y-102910687D01*
X175341270Y-102893689D01*
X175402264Y-102888889D01*
X175454433Y-102920858D01*
X175477849Y-102977385D01*
X175463566Y-103036880D01*
X175449158Y-103055158D01*
X175265218Y-103239098D01*
X175249365Y-103251971D01*
X175239435Y-103258459D01*
X175239432Y-103258461D01*
X175220648Y-103282595D01*
X175212537Y-103291780D01*
X175211727Y-103292589D01*
X175211719Y-103292598D01*
X175200233Y-103308686D01*
X175197790Y-103311963D01*
X175167582Y-103350774D01*
X175164081Y-103357243D01*
X175160859Y-103363834D01*
X175146818Y-103410996D01*
X175145570Y-103414890D01*
X175129600Y-103461410D01*
X175128393Y-103468643D01*
X175127483Y-103475947D01*
X175129515Y-103525075D01*
X175129600Y-103529166D01*
X175129600Y-108833709D01*
X175110693Y-108891900D01*
X175100604Y-108903713D01*
X160799441Y-123204875D01*
X160744924Y-123232652D01*
X160716517Y-123233024D01*
X160690003Y-123229534D01*
X160689999Y-123229534D01*
X160539767Y-123249312D01*
X160539761Y-123249314D01*
X160399768Y-123307301D01*
X160279551Y-123399547D01*
X160279547Y-123399551D01*
X160187301Y-123519768D01*
X160129314Y-123659761D01*
X160129312Y-123659767D01*
X160111746Y-123793198D01*
X160109534Y-123810000D01*
X160129313Y-123960236D01*
X160158307Y-124030234D01*
X160185102Y-124094923D01*
X160187302Y-124100233D01*
X160279549Y-124220451D01*
X160399767Y-124312698D01*
X160539764Y-124370687D01*
X160652441Y-124385521D01*
X160689999Y-124390466D01*
X160690000Y-124390466D01*
X160690001Y-124390466D01*
X160720047Y-124386510D01*
X160840236Y-124370687D01*
X160980233Y-124312698D01*
X161100451Y-124220451D01*
X161192698Y-124100233D01*
X161250687Y-123960236D01*
X161270466Y-123810000D01*
X174779953Y-123810000D01*
X174798092Y-123982576D01*
X174851714Y-124147611D01*
X174851715Y-124147612D01*
X174851716Y-124147616D01*
X174938477Y-124297888D01*
X174938477Y-124297889D01*
X175004025Y-124370687D01*
X175054590Y-124426845D01*
X175194976Y-124528842D01*
X175194980Y-124528844D01*
X175194982Y-124528845D01*
X175247444Y-124552202D01*
X175353501Y-124599422D01*
X175523236Y-124635500D01*
X175580612Y-124635500D01*
X175638803Y-124654407D01*
X175650616Y-124664496D01*
X176530475Y-125544355D01*
X176558252Y-125598872D01*
X176549360Y-125655012D01*
X176549657Y-125655116D01*
X176549085Y-125656748D01*
X176548681Y-125659304D01*
X176548004Y-125660608D01*
X176547208Y-125662114D01*
X176502355Y-125790296D01*
X176502353Y-125790305D01*
X176499500Y-125820725D01*
X176499500Y-126879274D01*
X176502353Y-126909694D01*
X176502355Y-126909703D01*
X176547207Y-127037883D01*
X176627845Y-127147144D01*
X176627847Y-127147146D01*
X176627850Y-127147150D01*
X176627853Y-127147152D01*
X176627855Y-127147154D01*
X176737116Y-127227792D01*
X176737117Y-127227792D01*
X176737118Y-127227793D01*
X176865301Y-127272646D01*
X176895725Y-127275499D01*
X176895727Y-127275500D01*
X176895734Y-127275500D01*
X177504273Y-127275500D01*
X177504273Y-127275499D01*
X177534699Y-127272646D01*
X177662882Y-127227793D01*
X177772150Y-127147150D01*
X177852793Y-127037882D01*
X177897646Y-126909699D01*
X177900499Y-126879273D01*
X177900500Y-126879273D01*
X177900500Y-126879203D01*
X178400001Y-126879203D01*
X178402850Y-126909600D01*
X178402850Y-126909602D01*
X178447654Y-127037647D01*
X178528207Y-127146790D01*
X178528209Y-127146792D01*
X178637352Y-127227345D01*
X178765398Y-127272149D01*
X178795789Y-127274999D01*
X178999998Y-127274999D01*
X179000000Y-127274998D01*
X179200000Y-127274998D01*
X179200001Y-127274999D01*
X179404203Y-127274999D01*
X179434600Y-127272149D01*
X179434602Y-127272149D01*
X179562647Y-127227345D01*
X179671790Y-127146792D01*
X179671792Y-127146790D01*
X179752345Y-127037647D01*
X179797149Y-126909601D01*
X179799999Y-126879211D01*
X179800000Y-126879210D01*
X179800000Y-126450001D01*
X179799999Y-126450000D01*
X179200001Y-126450000D01*
X179200000Y-126450001D01*
X179200000Y-127274998D01*
X179000000Y-127274998D01*
X179000000Y-126450001D01*
X178999999Y-126450000D01*
X178400002Y-126450000D01*
X178400001Y-126450001D01*
X178400001Y-126879203D01*
X177900500Y-126879203D01*
X177900500Y-126400939D01*
X182835630Y-126400939D01*
X182866443Y-126602067D01*
X182866444Y-126602071D01*
X182937114Y-126792887D01*
X182937115Y-126792888D01*
X183044745Y-126965567D01*
X183044747Y-126965569D01*
X183044748Y-126965571D01*
X183184941Y-127113053D01*
X183184943Y-127113054D01*
X183184946Y-127113057D01*
X183349793Y-127227793D01*
X183351951Y-127229295D01*
X183538940Y-127309539D01*
X183538942Y-127309540D01*
X183738259Y-127350500D01*
X183738262Y-127350500D01*
X183890744Y-127350500D01*
X183916381Y-127347892D01*
X184042438Y-127335074D01*
X184236588Y-127274159D01*
X184414502Y-127175409D01*
X184568895Y-127042866D01*
X184693448Y-126881958D01*
X184694769Y-126879266D01*
X184695645Y-126877478D01*
X184783060Y-126699271D01*
X184834063Y-126502285D01*
X184841786Y-126350000D01*
X189744506Y-126350000D01*
X189764468Y-126718197D01*
X189824126Y-127082087D01*
X189922768Y-127437365D01*
X189922772Y-127437376D01*
X190059255Y-127779927D01*
X190151120Y-127953201D01*
X190231978Y-128105716D01*
X190438910Y-128410917D01*
X190438914Y-128410922D01*
X190438915Y-128410923D01*
X190677622Y-128691951D01*
X190677632Y-128691961D01*
X190945326Y-128945535D01*
X190945330Y-128945538D01*
X191238881Y-129168690D01*
X191554838Y-129358795D01*
X191889497Y-129513625D01*
X192238934Y-129631364D01*
X192238939Y-129631365D01*
X192238942Y-129631366D01*
X192599047Y-129710631D01*
X192599048Y-129710631D01*
X192599052Y-129710632D01*
X192965630Y-129750500D01*
X193334370Y-129750500D01*
X193700948Y-129710632D01*
X194061057Y-129631366D01*
X194061058Y-129631366D01*
X194061060Y-129631365D01*
X194061066Y-129631364D01*
X194410503Y-129513625D01*
X194745162Y-129358795D01*
X195061119Y-129168690D01*
X195354670Y-128945538D01*
X195622373Y-128691956D01*
X195861090Y-128410917D01*
X196068022Y-128105716D01*
X196240743Y-127779930D01*
X196377227Y-127437379D01*
X196475875Y-127082081D01*
X196535531Y-126718199D01*
X196555494Y-126350000D01*
X196535531Y-125981801D01*
X196475875Y-125617919D01*
X196435001Y-125470705D01*
X196377231Y-125262634D01*
X196377229Y-125262629D01*
X196377227Y-125262621D01*
X196260772Y-124970340D01*
X196240744Y-124920072D01*
X196240743Y-124920070D01*
X196068022Y-124594284D01*
X195861090Y-124289083D01*
X195784771Y-124199233D01*
X195622377Y-124008048D01*
X195622367Y-124008038D01*
X195354673Y-123754464D01*
X195061123Y-123531313D01*
X195061122Y-123531312D01*
X195061119Y-123531310D01*
X194745162Y-123341205D01*
X194510529Y-123232652D01*
X194410508Y-123186377D01*
X194410505Y-123186376D01*
X194410503Y-123186375D01*
X194061066Y-123068636D01*
X194061065Y-123068635D01*
X194061057Y-123068633D01*
X193700952Y-122989368D01*
X193700953Y-122989368D01*
X193334370Y-122949500D01*
X192965630Y-122949500D01*
X192599046Y-122989368D01*
X192238943Y-123068633D01*
X192238941Y-123068633D01*
X191889491Y-123186377D01*
X191554846Y-123341201D01*
X191554840Y-123341204D01*
X191554838Y-123341205D01*
X191314016Y-123486103D01*
X191238881Y-123531310D01*
X191238876Y-123531313D01*
X190945326Y-123754464D01*
X190677632Y-124008038D01*
X190677622Y-124008048D01*
X190438915Y-124289076D01*
X190438908Y-124289086D01*
X190231981Y-124594278D01*
X190059255Y-124920072D01*
X189922772Y-125262623D01*
X189922768Y-125262634D01*
X189824126Y-125617912D01*
X189764468Y-125981802D01*
X189744506Y-126350000D01*
X184841786Y-126350000D01*
X184844369Y-126299064D01*
X184813556Y-126097929D01*
X184742886Y-125907113D01*
X184635252Y-125734429D01*
X184495059Y-125586947D01*
X184495057Y-125586945D01*
X184495053Y-125586942D01*
X184328054Y-125470708D01*
X184328051Y-125470706D01*
X184328049Y-125470705D01*
X184141058Y-125390460D01*
X184141060Y-125390460D01*
X184061331Y-125374076D01*
X183941741Y-125349500D01*
X183789258Y-125349500D01*
X183789256Y-125349500D01*
X183637561Y-125364926D01*
X183443410Y-125425841D01*
X183443409Y-125425842D01*
X183265501Y-125524588D01*
X183265498Y-125524590D01*
X183111109Y-125657129D01*
X182986549Y-125818045D01*
X182906224Y-125981802D01*
X182896940Y-126000729D01*
X182871773Y-126097932D01*
X182845936Y-126197719D01*
X182835631Y-126400936D01*
X182835630Y-126400939D01*
X177900500Y-126400939D01*
X177900500Y-126249999D01*
X178400000Y-126249999D01*
X178400001Y-126250000D01*
X178999999Y-126250000D01*
X179000000Y-126249999D01*
X179200000Y-126249999D01*
X179200001Y-126250000D01*
X179799998Y-126250000D01*
X179799999Y-126249999D01*
X179799999Y-125820796D01*
X179797149Y-125790399D01*
X179797149Y-125790397D01*
X179752345Y-125662352D01*
X179671792Y-125553209D01*
X179671790Y-125553207D01*
X179562647Y-125472654D01*
X179434601Y-125427850D01*
X179404211Y-125425000D01*
X179200001Y-125425000D01*
X179200000Y-125425001D01*
X179200000Y-126249999D01*
X179000000Y-126249999D01*
X179000000Y-125425001D01*
X178999999Y-125425000D01*
X178795796Y-125425000D01*
X178765399Y-125427850D01*
X178765397Y-125427850D01*
X178637352Y-125472654D01*
X178528209Y-125553207D01*
X178528207Y-125553209D01*
X178447654Y-125662352D01*
X178402850Y-125790398D01*
X178400000Y-125820788D01*
X178400000Y-126249999D01*
X177900500Y-126249999D01*
X177900500Y-125820727D01*
X177900499Y-125820725D01*
X177900248Y-125818045D01*
X177897646Y-125790301D01*
X177852793Y-125662118D01*
X177852792Y-125662116D01*
X177794845Y-125583600D01*
X177775503Y-125525552D01*
X177775500Y-125524812D01*
X177775500Y-125444208D01*
X177776347Y-125431285D01*
X177777175Y-125425001D01*
X177780466Y-125400000D01*
X177760687Y-125249765D01*
X177702699Y-125109768D01*
X177633612Y-125019732D01*
X177631650Y-125017175D01*
X177631638Y-125017160D01*
X177610451Y-124989549D01*
X177585418Y-124970340D01*
X177575682Y-124961802D01*
X176466734Y-123852854D01*
X176438957Y-123798337D01*
X176438284Y-123793235D01*
X176421908Y-123637424D01*
X176368286Y-123472389D01*
X176360844Y-123459500D01*
X176281522Y-123322111D01*
X176281522Y-123322110D01*
X176200973Y-123232652D01*
X176165410Y-123193155D01*
X176025024Y-123091158D01*
X176025020Y-123091156D01*
X176025017Y-123091154D01*
X175866501Y-123020579D01*
X175866499Y-123020578D01*
X175866496Y-123020577D01*
X175866495Y-123020577D01*
X175834209Y-123013714D01*
X175696764Y-122984500D01*
X175523236Y-122984500D01*
X175415005Y-123007505D01*
X175353504Y-123020577D01*
X175353498Y-123020579D01*
X175194983Y-123091154D01*
X175194980Y-123091156D01*
X175054588Y-123193156D01*
X175004026Y-123249312D01*
X174938478Y-123322111D01*
X174938476Y-123322113D01*
X174938476Y-123322114D01*
X174851716Y-123472383D01*
X174851714Y-123472387D01*
X174851714Y-123472389D01*
X174798092Y-123637424D01*
X174779953Y-123810000D01*
X161270466Y-123810000D01*
X161266974Y-123783482D01*
X161278123Y-123723325D01*
X161295120Y-123700560D01*
X175694984Y-109300696D01*
X175710834Y-109287826D01*
X175720769Y-109281337D01*
X175739551Y-109257203D01*
X175747677Y-109248004D01*
X175748475Y-109247207D01*
X175759986Y-109231082D01*
X175762388Y-109227862D01*
X175792617Y-109189026D01*
X175792617Y-109189023D01*
X175796123Y-109182545D01*
X175799337Y-109175971D01*
X175799337Y-109175969D01*
X175799340Y-109175966D01*
X175813387Y-109128781D01*
X175814612Y-109124954D01*
X175830600Y-109078388D01*
X175830600Y-109078383D01*
X175831807Y-109071154D01*
X175832717Y-109063854D01*
X175830685Y-109014723D01*
X175830600Y-109010632D01*
X175830600Y-103706088D01*
X175849507Y-103647897D01*
X175859590Y-103636091D01*
X176040558Y-103455122D01*
X176095073Y-103427346D01*
X176123477Y-103426974D01*
X176150000Y-103430466D01*
X176300236Y-103410687D01*
X176440233Y-103352698D01*
X176560451Y-103260451D01*
X176621958Y-103180294D01*
X176672383Y-103145638D01*
X176733547Y-103147240D01*
X176782089Y-103184487D01*
X176799500Y-103240561D01*
X176799500Y-120223381D01*
X176797393Y-120243696D01*
X176794957Y-120255313D01*
X176798740Y-120285662D01*
X176799500Y-120297907D01*
X176799500Y-120299042D01*
X176802751Y-120318528D01*
X176803337Y-120322547D01*
X176809427Y-120371393D01*
X176811527Y-120378448D01*
X176813907Y-120385380D01*
X176837322Y-120428646D01*
X176839195Y-120432285D01*
X176860801Y-120476482D01*
X176865078Y-120482472D01*
X176869581Y-120488258D01*
X176905764Y-120521567D01*
X176908717Y-120524399D01*
X180084875Y-123700557D01*
X180112652Y-123755074D01*
X180113024Y-123783480D01*
X180109534Y-123809995D01*
X180109534Y-123809999D01*
X180109534Y-123810000D01*
X180129313Y-123960236D01*
X180158307Y-124030234D01*
X180185102Y-124094923D01*
X180187302Y-124100233D01*
X180279549Y-124220451D01*
X180399767Y-124312698D01*
X180539764Y-124370687D01*
X180652441Y-124385521D01*
X180689999Y-124390466D01*
X180690000Y-124390466D01*
X180690001Y-124390466D01*
X180720047Y-124386510D01*
X180840236Y-124370687D01*
X180980233Y-124312698D01*
X181100451Y-124220451D01*
X181192698Y-124100233D01*
X181250687Y-123960236D01*
X181270466Y-123810000D01*
X181250687Y-123659764D01*
X181192698Y-123519767D01*
X181100451Y-123399549D01*
X180980233Y-123307302D01*
X180840236Y-123249313D01*
X180840234Y-123249312D01*
X180840232Y-123249312D01*
X180690001Y-123229534D01*
X180689996Y-123229534D01*
X180663480Y-123233024D01*
X180603319Y-123221872D01*
X180580557Y-123204875D01*
X177529496Y-120153814D01*
X177501719Y-120099297D01*
X177500500Y-120083810D01*
X177500500Y-107090939D01*
X192145630Y-107090939D01*
X192176443Y-107292067D01*
X192176444Y-107292071D01*
X192247114Y-107482887D01*
X192247115Y-107482888D01*
X192354745Y-107655567D01*
X192354747Y-107655569D01*
X192354748Y-107655571D01*
X192494941Y-107803053D01*
X192494943Y-107803054D01*
X192494946Y-107803057D01*
X192584533Y-107865411D01*
X192661951Y-107919295D01*
X192848940Y-107999539D01*
X192848942Y-107999540D01*
X193048259Y-108040500D01*
X193048262Y-108040500D01*
X193200744Y-108040500D01*
X193226381Y-108037892D01*
X193352438Y-108025074D01*
X193546588Y-107964159D01*
X193724502Y-107865409D01*
X193878895Y-107732866D01*
X194003448Y-107571958D01*
X194093060Y-107389271D01*
X194144063Y-107192285D01*
X194154369Y-106989064D01*
X194123556Y-106787929D01*
X194052886Y-106597113D01*
X193945252Y-106424429D01*
X193805059Y-106276947D01*
X193805057Y-106276945D01*
X193805053Y-106276942D01*
X193638054Y-106160708D01*
X193638051Y-106160706D01*
X193638049Y-106160705D01*
X193451058Y-106080460D01*
X193451060Y-106080460D01*
X193371331Y-106064076D01*
X193251741Y-106039500D01*
X193099258Y-106039500D01*
X193099256Y-106039500D01*
X192947561Y-106054926D01*
X192753410Y-106115841D01*
X192753409Y-106115842D01*
X192575501Y-106214588D01*
X192575498Y-106214590D01*
X192421109Y-106347129D01*
X192296549Y-106508045D01*
X192208038Y-106688489D01*
X192206940Y-106690729D01*
X192181773Y-106787932D01*
X192155936Y-106887719D01*
X192145631Y-107090936D01*
X192145630Y-107090939D01*
X177500500Y-107090939D01*
X177500500Y-103890000D01*
X189779953Y-103890000D01*
X189798092Y-104062576D01*
X189851714Y-104227611D01*
X189851715Y-104227612D01*
X189851716Y-104227616D01*
X189938477Y-104377888D01*
X189938477Y-104377889D01*
X190006729Y-104453690D01*
X190054590Y-104506845D01*
X190194976Y-104608842D01*
X190194980Y-104608844D01*
X190194982Y-104608845D01*
X190247444Y-104632202D01*
X190353501Y-104679422D01*
X190523236Y-104715500D01*
X190523239Y-104715500D01*
X190696761Y-104715500D01*
X190696764Y-104715500D01*
X190866499Y-104679422D01*
X191025024Y-104608842D01*
X191165410Y-104506845D01*
X191281522Y-104377889D01*
X191368286Y-104227611D01*
X191421908Y-104062576D01*
X191438281Y-103906796D01*
X191463167Y-103850904D01*
X191466715Y-103847163D01*
X191736810Y-103577068D01*
X191791325Y-103549293D01*
X191839510Y-103553630D01*
X191965301Y-103597646D01*
X191995725Y-103600499D01*
X191995727Y-103600500D01*
X191995734Y-103600500D01*
X194304273Y-103600500D01*
X194304273Y-103600499D01*
X194334699Y-103597646D01*
X194462882Y-103552793D01*
X194572150Y-103472150D01*
X194652793Y-103362882D01*
X194697646Y-103234699D01*
X194700499Y-103204273D01*
X194700500Y-103204273D01*
X194700500Y-102445727D01*
X194700499Y-102445725D01*
X194697646Y-102415305D01*
X194697646Y-102415301D01*
X194652793Y-102287118D01*
X194640391Y-102270314D01*
X194572154Y-102177855D01*
X194572152Y-102177853D01*
X194572150Y-102177850D01*
X194572146Y-102177847D01*
X194572144Y-102177845D01*
X194462883Y-102097207D01*
X194334703Y-102052355D01*
X194334694Y-102052353D01*
X194304274Y-102049500D01*
X194304266Y-102049500D01*
X191995734Y-102049500D01*
X191995725Y-102049500D01*
X191965305Y-102052353D01*
X191965296Y-102052355D01*
X191837116Y-102097207D01*
X191727855Y-102177845D01*
X191727846Y-102177854D01*
X191704020Y-102210136D01*
X191654251Y-102245727D01*
X191637290Y-102249498D01*
X191524766Y-102264312D01*
X191524761Y-102264314D01*
X191384767Y-102322301D01*
X191296139Y-102390306D01*
X191296140Y-102390307D01*
X191296127Y-102390317D01*
X191296035Y-102390387D01*
X191264556Y-102414542D01*
X191264544Y-102414554D01*
X191245339Y-102439581D01*
X191236804Y-102449313D01*
X190650616Y-103035503D01*
X190596099Y-103063281D01*
X190580612Y-103064500D01*
X190523236Y-103064500D01*
X190415005Y-103087505D01*
X190353504Y-103100577D01*
X190353498Y-103100579D01*
X190194983Y-103171154D01*
X190194980Y-103171156D01*
X190194977Y-103171157D01*
X190194977Y-103171158D01*
X190176631Y-103184487D01*
X190054588Y-103273156D01*
X190021110Y-103310338D01*
X189938478Y-103402111D01*
X189938476Y-103402113D01*
X189938476Y-103402114D01*
X189851716Y-103552383D01*
X189851714Y-103552387D01*
X189851714Y-103552389D01*
X189798092Y-103717424D01*
X189779953Y-103890000D01*
X177500500Y-103890000D01*
X177500500Y-101855274D01*
X177519407Y-101797083D01*
X177539233Y-101776732D01*
X177560451Y-101760451D01*
X177652698Y-101640233D01*
X177710687Y-101500236D01*
X177730466Y-101350000D01*
X177710687Y-101199764D01*
X177652698Y-101059767D01*
X177560451Y-100939549D01*
X177440233Y-100847302D01*
X177300236Y-100789313D01*
X177300234Y-100789312D01*
X177300232Y-100789312D01*
X177150001Y-100769534D01*
X177149999Y-100769534D01*
X176999767Y-100789312D01*
X176999761Y-100789314D01*
X176859768Y-100847301D01*
X176739551Y-100939547D01*
X176739547Y-100939551D01*
X176647301Y-101059768D01*
X176589314Y-101199761D01*
X176589312Y-101199767D01*
X176569534Y-101349999D01*
X176569534Y-101350000D01*
X176582980Y-101452137D01*
X176589313Y-101500236D01*
X176647302Y-101640233D01*
X176739549Y-101760451D01*
X176739553Y-101760454D01*
X176760767Y-101776732D01*
X176795423Y-101827156D01*
X176799500Y-101855274D01*
X176799500Y-102459438D01*
X176780593Y-102517629D01*
X176731093Y-102553593D01*
X176669907Y-102553593D01*
X176621958Y-102519706D01*
X176606656Y-102499764D01*
X176560451Y-102439549D01*
X176440233Y-102347302D01*
X176300236Y-102289313D01*
X176300234Y-102289312D01*
X176300232Y-102289312D01*
X176150001Y-102269534D01*
X176149999Y-102269534D01*
X175999767Y-102289312D01*
X175999759Y-102289314D01*
X175856013Y-102348856D01*
X175795017Y-102353657D01*
X175742848Y-102321687D01*
X175719975Y-102270314D01*
X175710687Y-102199764D01*
X175652698Y-102059767D01*
X175560451Y-101939549D01*
X175440233Y-101847302D01*
X175300236Y-101789313D01*
X175300234Y-101789312D01*
X175300232Y-101789312D01*
X175150001Y-101769534D01*
X175149999Y-101769534D01*
X174999767Y-101789312D01*
X174999761Y-101789314D01*
X174859768Y-101847301D01*
X174739551Y-101939547D01*
X174739545Y-101939553D01*
X174723268Y-101960767D01*
X174672844Y-101995423D01*
X174644726Y-101999500D01*
X174618319Y-101999500D01*
X174598004Y-101997393D01*
X174586385Y-101994957D01*
X174566844Y-101997393D01*
X174556038Y-101998740D01*
X174543793Y-101999500D01*
X174542660Y-101999500D01*
X174523170Y-102002751D01*
X174519131Y-102003339D01*
X174470307Y-102009426D01*
X174463281Y-102011517D01*
X174456316Y-102013908D01*
X174413061Y-102037317D01*
X174409424Y-102039189D01*
X174365220Y-102060799D01*
X174359242Y-102065066D01*
X174353444Y-102069580D01*
X174320131Y-102105765D01*
X174317301Y-102108715D01*
X152995514Y-123430504D01*
X152940997Y-123458281D01*
X152925510Y-123459500D01*
X141195274Y-123459500D01*
X141137083Y-123440593D01*
X141116732Y-123420767D01*
X141100454Y-123399553D01*
X141100451Y-123399549D01*
X140980233Y-123307302D01*
X140840236Y-123249313D01*
X140840234Y-123249312D01*
X140840232Y-123249312D01*
X140690001Y-123229534D01*
X140689999Y-123229534D01*
X140539767Y-123249312D01*
X140539761Y-123249314D01*
X140399768Y-123307301D01*
X140279551Y-123399547D01*
X140279547Y-123399551D01*
X140187301Y-123519768D01*
X140129314Y-123659761D01*
X140129312Y-123659767D01*
X140111746Y-123793198D01*
X140109534Y-123810000D01*
X136444899Y-123810000D01*
X136438957Y-123798337D01*
X136438284Y-123793235D01*
X136421908Y-123637424D01*
X136368286Y-123472389D01*
X136360844Y-123459500D01*
X136281522Y-123322111D01*
X136281522Y-123322110D01*
X136200973Y-123232652D01*
X136165410Y-123193155D01*
X136025024Y-123091158D01*
X136025020Y-123091156D01*
X136025017Y-123091154D01*
X135866501Y-123020579D01*
X135866499Y-123020578D01*
X135866496Y-123020577D01*
X135866495Y-123020577D01*
X135834209Y-123013714D01*
X135696764Y-122984500D01*
X135523236Y-122984500D01*
X135467387Y-122996370D01*
X135375365Y-123015930D01*
X135314515Y-123009534D01*
X135284779Y-122989097D01*
X130529496Y-118233814D01*
X130501719Y-118179297D01*
X130500500Y-118163810D01*
X130500500Y-117185336D01*
X130519407Y-117127145D01*
X130568907Y-117091181D01*
X130630093Y-117091181D01*
X130669501Y-117115330D01*
X130732984Y-117178813D01*
X130832338Y-117222682D01*
X130856627Y-117225500D01*
X131363372Y-117225499D01*
X131387662Y-117222682D01*
X131387662Y-117222681D01*
X131395061Y-117221824D01*
X131395248Y-117223444D01*
X131447542Y-117225976D01*
X131473239Y-117240416D01*
X131473561Y-117240667D01*
X131473563Y-117240669D01*
X131497691Y-117259448D01*
X131506877Y-117267560D01*
X131507689Y-117268371D01*
X131507693Y-117268375D01*
X131523794Y-117279870D01*
X131527045Y-117282295D01*
X131535915Y-117289199D01*
X131565874Y-117312517D01*
X131572323Y-117316007D01*
X131578930Y-117319237D01*
X131578933Y-117319239D01*
X131578935Y-117319239D01*
X131578936Y-117319240D01*
X131626058Y-117333269D01*
X131629955Y-117334517D01*
X131650227Y-117341476D01*
X131676512Y-117350500D01*
X131676514Y-117350500D01*
X131683736Y-117351705D01*
X131691039Y-117352615D01*
X131691046Y-117352617D01*
X131740176Y-117350585D01*
X131744267Y-117350500D01*
X132372381Y-117350500D01*
X132392696Y-117352607D01*
X132394606Y-117353007D01*
X132404315Y-117355043D01*
X132434662Y-117351259D01*
X132446907Y-117350500D01*
X132448043Y-117350500D01*
X132467521Y-117347249D01*
X132471552Y-117346661D01*
X132520393Y-117340573D01*
X132520396Y-117340571D01*
X132527429Y-117338477D01*
X132534375Y-117336092D01*
X132534381Y-117336092D01*
X132577655Y-117312671D01*
X132581279Y-117310807D01*
X132625482Y-117289199D01*
X132625482Y-117289198D01*
X132625484Y-117289198D01*
X132625485Y-117289196D01*
X132631470Y-117284923D01*
X132637255Y-117280420D01*
X132637255Y-117280419D01*
X132637258Y-117280418D01*
X132670579Y-117244220D01*
X132673364Y-117241316D01*
X134474884Y-115439796D01*
X134490734Y-115426926D01*
X134500669Y-115420437D01*
X134519451Y-115396303D01*
X134527577Y-115387104D01*
X134528375Y-115386307D01*
X134539886Y-115370182D01*
X134542288Y-115366962D01*
X134572517Y-115328126D01*
X134572517Y-115328123D01*
X134576023Y-115321645D01*
X134579237Y-115315071D01*
X134579237Y-115315069D01*
X134579240Y-115315066D01*
X134593287Y-115267881D01*
X134594512Y-115264054D01*
X134610500Y-115217488D01*
X134610500Y-115217483D01*
X134611707Y-115210254D01*
X134612617Y-115202954D01*
X134610585Y-115153824D01*
X134610500Y-115149733D01*
X134610500Y-112610431D01*
X134629407Y-112552240D01*
X134673736Y-112518117D01*
X134747713Y-112489459D01*
X134919384Y-112383165D01*
X135068600Y-112247136D01*
X135190280Y-112086005D01*
X135280281Y-111905259D01*
X135335538Y-111711053D01*
X135354168Y-111510000D01*
X135705832Y-111510000D01*
X135724462Y-111711053D01*
X135779719Y-111905259D01*
X135869720Y-112086005D01*
X135991400Y-112247136D01*
X136140616Y-112383165D01*
X136312287Y-112489459D01*
X136500567Y-112562399D01*
X136699043Y-112599500D01*
X136900957Y-112599500D01*
X137099433Y-112562399D01*
X137287713Y-112489459D01*
X137459384Y-112383165D01*
X137608600Y-112247136D01*
X137730280Y-112086005D01*
X137820281Y-111905259D01*
X137875538Y-111711053D01*
X137894168Y-111510000D01*
X138245832Y-111510000D01*
X138264462Y-111711053D01*
X138319719Y-111905259D01*
X138409720Y-112086005D01*
X138531400Y-112247136D01*
X138680616Y-112383165D01*
X138852287Y-112489459D01*
X139040567Y-112562399D01*
X139239043Y-112599500D01*
X139440957Y-112599500D01*
X139639433Y-112562399D01*
X139827713Y-112489459D01*
X139999384Y-112383165D01*
X140148600Y-112247136D01*
X140270280Y-112086005D01*
X140360281Y-111905259D01*
X140415538Y-111711053D01*
X140434168Y-111510000D01*
X140785832Y-111510000D01*
X140804462Y-111711053D01*
X140859719Y-111905259D01*
X140949720Y-112086005D01*
X141071400Y-112247136D01*
X141220616Y-112383165D01*
X141392287Y-112489459D01*
X141580567Y-112562399D01*
X141779043Y-112599500D01*
X141980957Y-112599500D01*
X142179433Y-112562399D01*
X142367713Y-112489459D01*
X142539384Y-112383165D01*
X142688600Y-112247136D01*
X142810280Y-112086005D01*
X142900281Y-111905259D01*
X142955538Y-111711053D01*
X142974168Y-111510000D01*
X143325832Y-111510000D01*
X143344462Y-111711053D01*
X143399719Y-111905259D01*
X143489720Y-112086005D01*
X143611400Y-112247136D01*
X143760616Y-112383165D01*
X143932287Y-112489459D01*
X144120567Y-112562399D01*
X144319043Y-112599500D01*
X144520957Y-112599500D01*
X144719433Y-112562399D01*
X144907713Y-112489459D01*
X145079384Y-112383165D01*
X145228600Y-112247136D01*
X145350280Y-112086005D01*
X145440281Y-111905259D01*
X145495538Y-111711053D01*
X145514168Y-111510000D01*
X145865832Y-111510000D01*
X145884462Y-111711053D01*
X145939719Y-111905259D01*
X146029720Y-112086005D01*
X146151400Y-112247136D01*
X146300616Y-112383165D01*
X146472287Y-112489459D01*
X146660567Y-112562399D01*
X146859043Y-112599500D01*
X147060957Y-112599500D01*
X147259433Y-112562399D01*
X147447713Y-112489459D01*
X147619384Y-112383165D01*
X147768600Y-112247136D01*
X147890280Y-112086005D01*
X147980281Y-111905259D01*
X148035538Y-111711053D01*
X148054168Y-111510000D01*
X148405832Y-111510000D01*
X148424462Y-111711053D01*
X148479719Y-111905259D01*
X148569720Y-112086005D01*
X148691400Y-112247136D01*
X148840616Y-112383165D01*
X149012287Y-112489459D01*
X149200567Y-112562399D01*
X149399043Y-112599500D01*
X149600957Y-112599500D01*
X149799433Y-112562399D01*
X149987713Y-112489459D01*
X150159384Y-112383165D01*
X150308600Y-112247136D01*
X150430280Y-112086005D01*
X150520281Y-111905259D01*
X150575538Y-111711053D01*
X150594168Y-111510000D01*
X150945832Y-111510000D01*
X150964462Y-111711053D01*
X151019719Y-111905259D01*
X151109720Y-112086005D01*
X151231400Y-112247136D01*
X151380616Y-112383165D01*
X151552287Y-112489459D01*
X151740567Y-112562399D01*
X151939043Y-112599500D01*
X152140957Y-112599500D01*
X152339433Y-112562399D01*
X152527713Y-112489459D01*
X152699384Y-112383165D01*
X152848600Y-112247136D01*
X152970280Y-112086005D01*
X153060281Y-111905259D01*
X153115538Y-111711053D01*
X153134168Y-111510000D01*
X153485832Y-111510000D01*
X153504462Y-111711053D01*
X153559719Y-111905259D01*
X153649720Y-112086005D01*
X153771400Y-112247136D01*
X153920616Y-112383165D01*
X154092287Y-112489459D01*
X154280567Y-112562399D01*
X154479043Y-112599500D01*
X154680957Y-112599500D01*
X154879433Y-112562399D01*
X155067713Y-112489459D01*
X155239384Y-112383165D01*
X155388600Y-112247136D01*
X155510280Y-112086005D01*
X155600281Y-111905259D01*
X155655538Y-111711053D01*
X155674168Y-111510000D01*
X156025832Y-111510000D01*
X156044462Y-111711053D01*
X156099719Y-111905259D01*
X156189720Y-112086005D01*
X156311400Y-112247136D01*
X156460616Y-112383165D01*
X156632287Y-112489459D01*
X156820567Y-112562399D01*
X157019043Y-112599500D01*
X157220957Y-112599500D01*
X157419433Y-112562399D01*
X157607713Y-112489459D01*
X157779384Y-112383165D01*
X157928600Y-112247136D01*
X158050280Y-112086005D01*
X158140281Y-111905259D01*
X158195538Y-111711053D01*
X158214168Y-111510000D01*
X158565832Y-111510000D01*
X158584462Y-111711053D01*
X158639719Y-111905259D01*
X158729720Y-112086005D01*
X158851400Y-112247136D01*
X159000616Y-112383165D01*
X159172287Y-112489459D01*
X159360567Y-112562399D01*
X159559043Y-112599500D01*
X159760957Y-112599500D01*
X159959433Y-112562399D01*
X160147713Y-112489459D01*
X160319384Y-112383165D01*
X160468600Y-112247136D01*
X160590280Y-112086005D01*
X160680281Y-111905259D01*
X160735538Y-111711053D01*
X160754168Y-111510000D01*
X161105832Y-111510000D01*
X161124462Y-111711053D01*
X161179719Y-111905259D01*
X161269720Y-112086005D01*
X161391400Y-112247136D01*
X161540616Y-112383165D01*
X161712287Y-112489459D01*
X161900567Y-112562399D01*
X162099043Y-112599500D01*
X162300957Y-112599500D01*
X162499433Y-112562399D01*
X162687713Y-112489459D01*
X162859384Y-112383165D01*
X163008600Y-112247136D01*
X163130280Y-112086005D01*
X163220281Y-111905259D01*
X163275538Y-111711053D01*
X163294168Y-111510000D01*
X163275538Y-111308947D01*
X163220281Y-111114741D01*
X163130280Y-110933995D01*
X163008600Y-110772864D01*
X162859384Y-110636835D01*
X162687713Y-110530541D01*
X162499433Y-110457601D01*
X162499432Y-110457600D01*
X162499430Y-110457600D01*
X162300957Y-110420500D01*
X162099043Y-110420500D01*
X161900569Y-110457600D01*
X161855975Y-110474876D01*
X161712287Y-110530541D01*
X161543252Y-110635203D01*
X161540613Y-110636837D01*
X161391400Y-110772863D01*
X161269721Y-110933993D01*
X161269716Y-110934002D01*
X161179720Y-111114738D01*
X161179719Y-111114741D01*
X161124462Y-111308947D01*
X161105832Y-111510000D01*
X160754168Y-111510000D01*
X160735538Y-111308947D01*
X160680281Y-111114741D01*
X160590280Y-110933995D01*
X160468600Y-110772864D01*
X160319384Y-110636835D01*
X160147713Y-110530541D01*
X159959433Y-110457601D01*
X159959432Y-110457600D01*
X159959430Y-110457600D01*
X159760957Y-110420500D01*
X159559043Y-110420500D01*
X159360569Y-110457600D01*
X159315975Y-110474876D01*
X159172287Y-110530541D01*
X159003252Y-110635203D01*
X159000613Y-110636837D01*
X158851400Y-110772863D01*
X158729721Y-110933993D01*
X158729716Y-110934002D01*
X158639720Y-111114738D01*
X158639719Y-111114741D01*
X158584462Y-111308947D01*
X158565832Y-111510000D01*
X158214168Y-111510000D01*
X158195538Y-111308947D01*
X158140281Y-111114741D01*
X158050280Y-110933995D01*
X157928600Y-110772864D01*
X157779384Y-110636835D01*
X157607713Y-110530541D01*
X157419433Y-110457601D01*
X157419432Y-110457600D01*
X157419430Y-110457600D01*
X157220957Y-110420500D01*
X157019043Y-110420500D01*
X156820569Y-110457600D01*
X156775975Y-110474876D01*
X156632287Y-110530541D01*
X156463252Y-110635203D01*
X156460613Y-110636837D01*
X156311400Y-110772863D01*
X156189721Y-110933993D01*
X156189716Y-110934002D01*
X156099720Y-111114738D01*
X156099719Y-111114741D01*
X156044462Y-111308947D01*
X156025832Y-111510000D01*
X155674168Y-111510000D01*
X155655538Y-111308947D01*
X155600281Y-111114741D01*
X155510280Y-110933995D01*
X155388600Y-110772864D01*
X155239384Y-110636835D01*
X155067713Y-110530541D01*
X154879433Y-110457601D01*
X154879432Y-110457600D01*
X154879430Y-110457600D01*
X154680957Y-110420500D01*
X154479043Y-110420500D01*
X154280569Y-110457600D01*
X154235975Y-110474876D01*
X154092287Y-110530541D01*
X153923252Y-110635203D01*
X153920613Y-110636837D01*
X153771400Y-110772863D01*
X153649721Y-110933993D01*
X153649716Y-110934002D01*
X153559720Y-111114738D01*
X153559719Y-111114741D01*
X153504462Y-111308947D01*
X153485832Y-111510000D01*
X153134168Y-111510000D01*
X153115538Y-111308947D01*
X153060281Y-111114741D01*
X152970280Y-110933995D01*
X152848600Y-110772864D01*
X152699384Y-110636835D01*
X152527713Y-110530541D01*
X152339433Y-110457601D01*
X152339432Y-110457600D01*
X152339430Y-110457600D01*
X152140957Y-110420500D01*
X151939043Y-110420500D01*
X151740569Y-110457600D01*
X151695975Y-110474876D01*
X151552287Y-110530541D01*
X151383252Y-110635203D01*
X151380613Y-110636837D01*
X151231400Y-110772863D01*
X151109721Y-110933993D01*
X151109716Y-110934002D01*
X151019720Y-111114738D01*
X151019719Y-111114741D01*
X150964462Y-111308947D01*
X150945832Y-111510000D01*
X150594168Y-111510000D01*
X150575538Y-111308947D01*
X150520281Y-111114741D01*
X150430280Y-110933995D01*
X150308600Y-110772864D01*
X150159384Y-110636835D01*
X149987713Y-110530541D01*
X149799433Y-110457601D01*
X149799432Y-110457600D01*
X149799430Y-110457600D01*
X149600957Y-110420500D01*
X149399043Y-110420500D01*
X149200569Y-110457600D01*
X149155975Y-110474876D01*
X149012287Y-110530541D01*
X148843252Y-110635203D01*
X148840613Y-110636837D01*
X148691400Y-110772863D01*
X148569721Y-110933993D01*
X148569716Y-110934002D01*
X148479720Y-111114738D01*
X148479719Y-111114741D01*
X148424462Y-111308947D01*
X148405832Y-111510000D01*
X148054168Y-111510000D01*
X148035538Y-111308947D01*
X147980281Y-111114741D01*
X147890280Y-110933995D01*
X147768600Y-110772864D01*
X147619384Y-110636835D01*
X147447713Y-110530541D01*
X147259433Y-110457601D01*
X147259432Y-110457600D01*
X147259430Y-110457600D01*
X147060957Y-110420500D01*
X146859043Y-110420500D01*
X146660569Y-110457600D01*
X146615975Y-110474876D01*
X146472287Y-110530541D01*
X146303252Y-110635203D01*
X146300613Y-110636837D01*
X146151400Y-110772863D01*
X146029721Y-110933993D01*
X146029716Y-110934002D01*
X145939720Y-111114738D01*
X145939719Y-111114741D01*
X145884462Y-111308947D01*
X145865832Y-111510000D01*
X145514168Y-111510000D01*
X145495538Y-111308947D01*
X145440281Y-111114741D01*
X145350280Y-110933995D01*
X145228600Y-110772864D01*
X145079384Y-110636835D01*
X144907713Y-110530541D01*
X144719433Y-110457601D01*
X144719432Y-110457600D01*
X144719430Y-110457600D01*
X144520957Y-110420500D01*
X144319043Y-110420500D01*
X144120569Y-110457600D01*
X144075975Y-110474876D01*
X143932287Y-110530541D01*
X143763252Y-110635203D01*
X143760613Y-110636837D01*
X143611400Y-110772863D01*
X143489721Y-110933993D01*
X143489716Y-110934002D01*
X143399720Y-111114738D01*
X143399719Y-111114741D01*
X143344462Y-111308947D01*
X143325832Y-111510000D01*
X142974168Y-111510000D01*
X142955538Y-111308947D01*
X142900281Y-111114741D01*
X142810280Y-110933995D01*
X142688600Y-110772864D01*
X142539384Y-110636835D01*
X142367713Y-110530541D01*
X142179433Y-110457601D01*
X142179432Y-110457600D01*
X142179430Y-110457600D01*
X141980957Y-110420500D01*
X141779043Y-110420500D01*
X141580569Y-110457600D01*
X141535975Y-110474876D01*
X141392287Y-110530541D01*
X141223252Y-110635203D01*
X141220613Y-110636837D01*
X141071400Y-110772863D01*
X140949721Y-110933993D01*
X140949716Y-110934002D01*
X140859720Y-111114738D01*
X140859719Y-111114741D01*
X140804462Y-111308947D01*
X140785832Y-111510000D01*
X140434168Y-111510000D01*
X140415538Y-111308947D01*
X140360281Y-111114741D01*
X140270280Y-110933995D01*
X140148600Y-110772864D01*
X139999384Y-110636835D01*
X139827713Y-110530541D01*
X139639433Y-110457601D01*
X139639432Y-110457600D01*
X139639430Y-110457600D01*
X139440957Y-110420500D01*
X139239043Y-110420500D01*
X139040569Y-110457600D01*
X138995975Y-110474876D01*
X138852287Y-110530541D01*
X138683252Y-110635203D01*
X138680613Y-110636837D01*
X138531400Y-110772863D01*
X138409721Y-110933993D01*
X138409716Y-110934002D01*
X138319720Y-111114738D01*
X138319719Y-111114741D01*
X138264462Y-111308947D01*
X138245832Y-111510000D01*
X137894168Y-111510000D01*
X137875538Y-111308947D01*
X137820281Y-111114741D01*
X137730280Y-110933995D01*
X137608600Y-110772864D01*
X137459384Y-110636835D01*
X137287713Y-110530541D01*
X137099433Y-110457601D01*
X137099432Y-110457600D01*
X137099430Y-110457600D01*
X136900957Y-110420500D01*
X136699043Y-110420500D01*
X136500569Y-110457600D01*
X136455975Y-110474876D01*
X136312287Y-110530541D01*
X136143252Y-110635203D01*
X136140613Y-110636837D01*
X135991400Y-110772863D01*
X135869721Y-110933993D01*
X135869716Y-110934002D01*
X135779720Y-111114738D01*
X135779719Y-111114741D01*
X135724462Y-111308947D01*
X135705832Y-111510000D01*
X135354168Y-111510000D01*
X135335538Y-111308947D01*
X135280281Y-111114741D01*
X135190280Y-110933995D01*
X135068600Y-110772864D01*
X134919384Y-110636835D01*
X134747713Y-110530541D01*
X134559433Y-110457601D01*
X134559432Y-110457600D01*
X134559430Y-110457600D01*
X134360957Y-110420500D01*
X134159043Y-110420500D01*
X133960569Y-110457600D01*
X133915975Y-110474876D01*
X133772287Y-110530541D01*
X133603252Y-110635203D01*
X133600613Y-110636837D01*
X133451400Y-110772863D01*
X133329721Y-110933993D01*
X133329716Y-110934002D01*
X133239720Y-111114738D01*
X133239719Y-111114741D01*
X133184462Y-111308947D01*
X133165832Y-111510000D01*
X133184462Y-111711053D01*
X133239719Y-111905259D01*
X133329720Y-112086005D01*
X133451400Y-112247136D01*
X133600616Y-112383165D01*
X133772287Y-112489459D01*
X133846263Y-112518117D01*
X133893694Y-112556767D01*
X133909500Y-112610431D01*
X133909500Y-114972809D01*
X133890593Y-115031000D01*
X133880504Y-115042813D01*
X132819223Y-116104093D01*
X132764706Y-116131870D01*
X132704274Y-116122299D01*
X132661009Y-116079034D01*
X132657755Y-116071975D01*
X132652698Y-116059768D01*
X132652698Y-116059767D01*
X132560451Y-115939549D01*
X132539230Y-115923265D01*
X132504576Y-115872841D01*
X132500500Y-115844725D01*
X132500500Y-115411613D01*
X132502607Y-115391297D01*
X132505042Y-115379685D01*
X132501260Y-115349342D01*
X132500500Y-115337098D01*
X132500500Y-115335959D01*
X132499193Y-115328127D01*
X132497243Y-115316447D01*
X132496658Y-115312429D01*
X132494264Y-115293224D01*
X132490573Y-115263607D01*
X132490571Y-115263604D01*
X132488477Y-115256569D01*
X132486091Y-115249616D01*
X132462687Y-115206371D01*
X132460813Y-115202730D01*
X132439199Y-115158517D01*
X132434948Y-115152562D01*
X132430419Y-115146743D01*
X132427111Y-115143698D01*
X132394221Y-115113420D01*
X132391294Y-115110612D01*
X131639495Y-114358813D01*
X131611718Y-114304296D01*
X131610499Y-114288809D01*
X131610499Y-113721630D01*
X131610499Y-113721628D01*
X131607682Y-113697338D01*
X131563813Y-113597984D01*
X131487016Y-113521187D01*
X131387662Y-113477318D01*
X131387661Y-113477317D01*
X131387659Y-113477317D01*
X131363376Y-113474500D01*
X130856630Y-113474500D01*
X130856627Y-113474501D01*
X130832338Y-113477317D01*
X130732984Y-113521187D01*
X130656187Y-113597984D01*
X130612317Y-113697340D01*
X130609500Y-113721622D01*
X130609500Y-114573450D01*
X130590593Y-114631641D01*
X130541093Y-114667605D01*
X130479907Y-114667605D01*
X130436555Y-114637189D01*
X130436454Y-114637299D01*
X130435627Y-114636537D01*
X130432372Y-114634254D01*
X130430421Y-114631748D01*
X130430418Y-114631742D01*
X130394221Y-114598420D01*
X130391294Y-114595612D01*
X130109495Y-114313813D01*
X130081718Y-114259296D01*
X130080499Y-114243809D01*
X130080499Y-113868536D01*
X130077662Y-113838274D01*
X130077662Y-113838272D01*
X130077662Y-113838271D01*
X130048890Y-113756049D01*
X130047517Y-113694882D01*
X130072329Y-113653351D01*
X131189510Y-112536170D01*
X131244025Y-112508395D01*
X131295274Y-112513861D01*
X131394343Y-112552240D01*
X131420567Y-112562399D01*
X131619043Y-112599500D01*
X131820957Y-112599500D01*
X132019433Y-112562399D01*
X132207713Y-112489459D01*
X132379384Y-112383165D01*
X132528600Y-112247136D01*
X132650280Y-112086005D01*
X132740281Y-111905259D01*
X132795538Y-111711053D01*
X132814168Y-111510000D01*
X132795538Y-111308947D01*
X132740281Y-111114741D01*
X132729035Y-111092156D01*
X132720023Y-111031642D01*
X132747651Y-110978029D01*
X143296186Y-100429496D01*
X143350703Y-100401719D01*
X143366190Y-100400500D01*
X157518127Y-100400500D01*
X157576318Y-100419407D01*
X157612282Y-100468907D01*
X157615224Y-100518812D01*
X157609068Y-100549766D01*
X157599500Y-100597866D01*
X157599500Y-100802129D01*
X157599501Y-100802137D01*
X157615484Y-100882494D01*
X157615485Y-100882496D01*
X157673953Y-100969998D01*
X157690562Y-101028886D01*
X157673953Y-101080002D01*
X157615487Y-101167501D01*
X157615486Y-101167503D01*
X157615485Y-101167505D01*
X157609068Y-101199767D01*
X157599500Y-101247867D01*
X157599500Y-101452129D01*
X157599501Y-101452137D01*
X157615484Y-101532494D01*
X157615485Y-101532496D01*
X157673953Y-101619998D01*
X157690562Y-101678886D01*
X157673953Y-101730002D01*
X157615487Y-101817501D01*
X157615486Y-101817503D01*
X157615485Y-101817505D01*
X157599500Y-101897867D01*
X157599500Y-102102129D01*
X157599501Y-102102137D01*
X157615484Y-102182494D01*
X157615485Y-102182496D01*
X157673953Y-102269998D01*
X157690562Y-102328886D01*
X157673953Y-102380002D01*
X157615487Y-102467501D01*
X157615486Y-102467503D01*
X157615485Y-102467505D01*
X157609068Y-102499767D01*
X157599500Y-102547867D01*
X157599500Y-102752129D01*
X157599501Y-102752137D01*
X157615484Y-102832494D01*
X157615485Y-102832496D01*
X157673953Y-102919998D01*
X157690562Y-102978886D01*
X157673953Y-103030002D01*
X157615487Y-103117501D01*
X157615486Y-103117503D01*
X157615485Y-103117505D01*
X157599500Y-103197867D01*
X157599500Y-103402129D01*
X157599501Y-103402137D01*
X157615484Y-103482494D01*
X157615485Y-103482496D01*
X157662187Y-103552389D01*
X157676376Y-103573624D01*
X157767505Y-103634515D01*
X157847867Y-103650500D01*
X158750500Y-103650499D01*
X158808691Y-103669406D01*
X158844655Y-103718906D01*
X158849500Y-103749499D01*
X158849500Y-104652129D01*
X158849501Y-104652136D01*
X158865484Y-104732494D01*
X158865485Y-104732496D01*
X158916896Y-104809437D01*
X158926376Y-104823624D01*
X159017505Y-104884515D01*
X159097867Y-104900500D01*
X159302132Y-104900499D01*
X159382495Y-104884515D01*
X159470000Y-104826044D01*
X159528885Y-104809437D01*
X159579998Y-104826044D01*
X159667505Y-104884515D01*
X159747867Y-104900500D01*
X159952132Y-104900499D01*
X160032495Y-104884515D01*
X160120000Y-104826044D01*
X160178885Y-104809437D01*
X160229998Y-104826044D01*
X160317505Y-104884515D01*
X160397867Y-104900500D01*
X160602132Y-104900499D01*
X160682495Y-104884515D01*
X160770000Y-104826044D01*
X160828885Y-104809437D01*
X160879998Y-104826044D01*
X160967505Y-104884515D01*
X161047867Y-104900500D01*
X161252132Y-104900499D01*
X161332495Y-104884515D01*
X161420000Y-104826044D01*
X161478885Y-104809437D01*
X161529998Y-104826044D01*
X161617505Y-104884515D01*
X161697867Y-104900500D01*
X161902132Y-104900499D01*
X161982495Y-104884515D01*
X162070000Y-104826044D01*
X162128885Y-104809437D01*
X162179998Y-104826044D01*
X162267505Y-104884515D01*
X162347867Y-104900500D01*
X162552132Y-104900499D01*
X162632495Y-104884515D01*
X162720000Y-104826044D01*
X162778885Y-104809437D01*
X162829998Y-104826044D01*
X162917505Y-104884515D01*
X162997867Y-104900500D01*
X163202132Y-104900499D01*
X163282495Y-104884515D01*
X163373624Y-104823624D01*
X163434515Y-104732495D01*
X163449062Y-104659360D01*
X163478958Y-104605979D01*
X163534523Y-104580363D01*
X163594532Y-104592300D01*
X163606426Y-104600135D01*
X163609764Y-104602696D01*
X163609766Y-104602698D01*
X163659262Y-104623199D01*
X163749764Y-104660687D01*
X163862441Y-104675521D01*
X163899999Y-104680466D01*
X163900000Y-104680466D01*
X163900001Y-104680466D01*
X163930047Y-104676510D01*
X164050236Y-104660687D01*
X164190233Y-104602698D01*
X164310451Y-104510451D01*
X164402698Y-104390233D01*
X164460687Y-104250236D01*
X164480466Y-104100000D01*
X164460687Y-103949764D01*
X164402698Y-103809767D01*
X164402698Y-103809766D01*
X164399454Y-103804148D01*
X164400495Y-103803546D01*
X164382275Y-103752086D01*
X164399655Y-103693421D01*
X164448199Y-103656177D01*
X164481241Y-103650500D01*
X164694726Y-103650500D01*
X164752917Y-103669407D01*
X164773267Y-103689232D01*
X164789549Y-103710451D01*
X164909767Y-103802698D01*
X165049764Y-103860687D01*
X165161292Y-103875370D01*
X165199999Y-103880466D01*
X165200000Y-103880466D01*
X165200001Y-103880466D01*
X165238708Y-103875370D01*
X165350236Y-103860687D01*
X165490233Y-103802698D01*
X165610451Y-103710451D01*
X165702698Y-103590233D01*
X165760687Y-103450236D01*
X165778640Y-103313867D01*
X165804980Y-103258645D01*
X165858750Y-103229450D01*
X165863833Y-103228644D01*
X166000236Y-103210687D01*
X166140233Y-103152698D01*
X166260451Y-103060451D01*
X166352698Y-102940233D01*
X166410687Y-102800236D01*
X166430466Y-102650000D01*
X166410687Y-102499764D01*
X166352698Y-102359767D01*
X166260451Y-102239549D01*
X166140233Y-102147302D01*
X166005427Y-102091463D01*
X165958903Y-102051727D01*
X165944619Y-101992233D01*
X165968034Y-101935705D01*
X166005426Y-101908536D01*
X166140233Y-101852698D01*
X166260451Y-101760451D01*
X166352698Y-101640233D01*
X166410687Y-101500236D01*
X166430466Y-101350000D01*
X166410687Y-101199764D01*
X166352698Y-101059767D01*
X166260451Y-100939549D01*
X166140233Y-100847302D01*
X166000236Y-100789313D01*
X166000234Y-100789312D01*
X166000232Y-100789312D01*
X165863870Y-100771360D01*
X165808645Y-100745019D01*
X165779450Y-100691248D01*
X165778643Y-100686160D01*
X165760687Y-100549764D01*
X165702698Y-100409767D01*
X165610451Y-100289549D01*
X165564387Y-100254203D01*
X191600001Y-100254203D01*
X191602850Y-100284600D01*
X191602850Y-100284602D01*
X191647654Y-100412647D01*
X191728207Y-100521790D01*
X191728209Y-100521792D01*
X191837352Y-100602345D01*
X191965398Y-100647149D01*
X191995789Y-100649999D01*
X193049998Y-100649999D01*
X193050000Y-100649998D01*
X193250000Y-100649998D01*
X193250001Y-100649999D01*
X194304203Y-100649999D01*
X194334600Y-100647149D01*
X194334602Y-100647149D01*
X194462647Y-100602345D01*
X194571790Y-100521792D01*
X194571792Y-100521790D01*
X194652345Y-100412647D01*
X194697149Y-100284601D01*
X194699999Y-100254211D01*
X194700000Y-100254210D01*
X194700000Y-99975001D01*
X194699999Y-99975000D01*
X193250001Y-99975000D01*
X193250000Y-99975001D01*
X193250000Y-100649998D01*
X193050000Y-100649998D01*
X193050000Y-99975001D01*
X193049999Y-99975000D01*
X191600002Y-99975000D01*
X191600001Y-99975001D01*
X191600001Y-100254203D01*
X165564387Y-100254203D01*
X165490233Y-100197302D01*
X165350236Y-100139313D01*
X165350234Y-100139312D01*
X165350232Y-100139312D01*
X165200001Y-100119534D01*
X165199999Y-100119534D01*
X165049767Y-100139312D01*
X165049761Y-100139314D01*
X164909766Y-100197301D01*
X164909764Y-100197303D01*
X164859753Y-100235678D01*
X164802077Y-100256102D01*
X164743411Y-100238724D01*
X164706164Y-100190182D01*
X164702151Y-100156996D01*
X164700500Y-100156996D01*
X164700499Y-99947870D01*
X164700498Y-99947862D01*
X164684515Y-99867506D01*
X164684515Y-99867505D01*
X164626044Y-99779999D01*
X164609437Y-99721115D01*
X164626044Y-99670001D01*
X164684515Y-99582495D01*
X164700500Y-99502133D01*
X164700499Y-99297868D01*
X164684515Y-99217505D01*
X164684512Y-99217501D01*
X164623626Y-99126379D01*
X164623624Y-99126376D01*
X164592778Y-99105765D01*
X164532497Y-99065486D01*
X164532496Y-99065485D01*
X164532495Y-99065485D01*
X164452133Y-99049500D01*
X163549500Y-99049500D01*
X163491309Y-99030593D01*
X163455345Y-98981093D01*
X163450500Y-98950500D01*
X163450500Y-98066189D01*
X163469407Y-98007998D01*
X163479490Y-97996191D01*
X164086186Y-97389494D01*
X164140703Y-97361718D01*
X164156190Y-97360499D01*
X164309897Y-97360499D01*
X164309900Y-97360499D01*
X164359487Y-97353972D01*
X164359488Y-97353972D01*
X164445067Y-97314065D01*
X164468316Y-97303224D01*
X164553224Y-97218316D01*
X164603972Y-97109487D01*
X164610500Y-97059901D01*
X164610499Y-96700999D01*
X164629406Y-96642809D01*
X164678906Y-96606845D01*
X164709499Y-96602000D01*
X165615310Y-96602000D01*
X165673501Y-96620907D01*
X165685314Y-96630996D01*
X168294875Y-99240557D01*
X168322652Y-99295074D01*
X168323024Y-99323480D01*
X168319534Y-99349995D01*
X168319534Y-99350000D01*
X168334726Y-99465399D01*
X168339313Y-99500236D01*
X168340099Y-99502133D01*
X168394015Y-99632299D01*
X168397302Y-99640233D01*
X168489549Y-99760451D01*
X168609767Y-99852698D01*
X168749764Y-99910687D01*
X168862441Y-99925521D01*
X168899999Y-99930466D01*
X168900000Y-99930466D01*
X168900001Y-99930466D01*
X168930047Y-99926510D01*
X169050236Y-99910687D01*
X169190233Y-99852698D01*
X169310451Y-99760451D01*
X169402698Y-99640233D01*
X169460687Y-99500236D01*
X169480466Y-99350000D01*
X169460687Y-99199764D01*
X169402698Y-99059767D01*
X169310451Y-98939549D01*
X169289230Y-98923265D01*
X169254576Y-98872841D01*
X169250500Y-98844725D01*
X169250500Y-97998874D01*
X169269407Y-97940683D01*
X169289233Y-97920332D01*
X169296050Y-97915101D01*
X169310451Y-97904051D01*
X169402698Y-97783833D01*
X169460687Y-97643836D01*
X169480466Y-97493600D01*
X169460687Y-97343364D01*
X169402698Y-97203367D01*
X169310451Y-97083149D01*
X169190233Y-96990902D01*
X169050236Y-96932913D01*
X169050234Y-96932912D01*
X169050232Y-96932912D01*
X168900001Y-96913134D01*
X168899999Y-96913134D01*
X168749767Y-96932912D01*
X168749761Y-96932914D01*
X168609768Y-96990901D01*
X168489551Y-97083147D01*
X168489547Y-97083151D01*
X168397301Y-97203368D01*
X168339314Y-97343361D01*
X168339312Y-97343367D01*
X168319534Y-97493599D01*
X168319534Y-97493600D01*
X168339162Y-97642695D01*
X168339313Y-97643836D01*
X168397302Y-97783833D01*
X168489549Y-97904051D01*
X168489553Y-97904054D01*
X168510767Y-97920332D01*
X168545423Y-97970756D01*
X168549500Y-97998874D01*
X168549500Y-98264810D01*
X168530593Y-98323001D01*
X168481093Y-98358965D01*
X168419907Y-98358965D01*
X168380496Y-98334814D01*
X166082301Y-96036619D01*
X166069425Y-96020762D01*
X166062937Y-96010831D01*
X166038808Y-95992051D01*
X166029619Y-95983937D01*
X166028807Y-95983125D01*
X166012725Y-95971643D01*
X166009461Y-95969210D01*
X165970626Y-95938983D01*
X165970624Y-95938982D01*
X165964177Y-95935493D01*
X165957570Y-95932263D01*
X165957566Y-95932260D01*
X165910409Y-95918220D01*
X165906515Y-95916972D01*
X165859987Y-95900999D01*
X165852760Y-95899793D01*
X165845455Y-95898883D01*
X165845454Y-95898883D01*
X165845452Y-95898883D01*
X165796324Y-95900915D01*
X165792233Y-95901000D01*
X164218000Y-95901000D01*
X164159809Y-95882093D01*
X164123845Y-95832593D01*
X164119000Y-95802000D01*
X164119000Y-91115913D01*
X164121107Y-91095597D01*
X164123542Y-91083985D01*
X164119760Y-91053642D01*
X164119000Y-91041398D01*
X164119000Y-91040259D01*
X164118433Y-91036865D01*
X164115743Y-91020747D01*
X164115158Y-91016729D01*
X164109073Y-90967907D01*
X164109071Y-90967904D01*
X164106977Y-90960869D01*
X164104591Y-90953916D01*
X164081187Y-90910671D01*
X164079313Y-90907030D01*
X164057699Y-90862817D01*
X164053448Y-90856862D01*
X164048919Y-90851043D01*
X164043142Y-90845725D01*
X164012721Y-90817720D01*
X164009794Y-90814912D01*
X162973701Y-89778819D01*
X162960825Y-89762962D01*
X162954337Y-89753031D01*
X162930208Y-89734251D01*
X162921019Y-89726137D01*
X162920207Y-89725325D01*
X162904125Y-89713843D01*
X162900861Y-89711410D01*
X162862026Y-89681183D01*
X162862024Y-89681182D01*
X162855577Y-89677693D01*
X162848970Y-89674463D01*
X162848966Y-89674460D01*
X162801809Y-89660420D01*
X162797915Y-89659172D01*
X162751387Y-89643199D01*
X162744160Y-89641993D01*
X162736855Y-89641083D01*
X162736854Y-89641083D01*
X162736852Y-89641083D01*
X162687724Y-89643115D01*
X162683633Y-89643200D01*
X159225313Y-89643200D01*
X159204998Y-89641093D01*
X159193385Y-89638658D01*
X159163043Y-89642440D01*
X159150799Y-89643200D01*
X159149659Y-89643200D01*
X159130181Y-89646450D01*
X159126136Y-89647039D01*
X159077308Y-89653126D01*
X159070275Y-89655219D01*
X159063316Y-89657608D01*
X159020061Y-89681017D01*
X159016424Y-89682889D01*
X158972220Y-89704499D01*
X158966242Y-89708766D01*
X158960444Y-89713280D01*
X158927131Y-89749465D01*
X158924301Y-89752415D01*
X158175118Y-90501598D01*
X158159265Y-90514471D01*
X158149335Y-90520959D01*
X158149330Y-90520963D01*
X158142708Y-90529471D01*
X158092044Y-90563776D01*
X158030893Y-90561750D01*
X157985582Y-90528321D01*
X157980022Y-90520959D01*
X157928600Y-90452864D01*
X157928039Y-90452353D01*
X157878329Y-90407036D01*
X157779384Y-90316835D01*
X157607713Y-90210541D01*
X157419433Y-90137601D01*
X157419432Y-90137600D01*
X157419430Y-90137600D01*
X157220957Y-90100500D01*
X157019043Y-90100500D01*
X156820569Y-90137600D01*
X156813055Y-90140511D01*
X156632287Y-90210541D01*
X156473769Y-90308691D01*
X156460613Y-90316837D01*
X156311400Y-90452863D01*
X156189721Y-90613993D01*
X156189716Y-90614002D01*
X156099720Y-90794738D01*
X156099719Y-90794741D01*
X156044462Y-90988947D01*
X156025832Y-91190000D01*
X156044462Y-91391053D01*
X156099719Y-91585259D01*
X156189720Y-91766005D01*
X156311400Y-91927136D01*
X156460616Y-92063165D01*
X156632287Y-92169459D01*
X156820567Y-92242399D01*
X157019043Y-92279500D01*
X157220957Y-92279500D01*
X157419433Y-92242399D01*
X157607713Y-92169459D01*
X157779384Y-92063165D01*
X157873804Y-91977088D01*
X157929545Y-91951859D01*
X157989471Y-91964211D01*
X158030691Y-92009427D01*
X158039500Y-92050251D01*
X158039500Y-96232961D01*
X158020593Y-96291152D01*
X157971093Y-96327116D01*
X157953423Y-96331114D01*
X157916825Y-96335932D01*
X157916824Y-96335932D01*
X157809598Y-96385933D01*
X157725933Y-96469598D01*
X157675932Y-96576824D01*
X157675932Y-96576825D01*
X157669500Y-96625685D01*
X157669500Y-96783810D01*
X157650593Y-96842001D01*
X157640504Y-96853814D01*
X155523814Y-98970504D01*
X155469297Y-98998281D01*
X155453810Y-98999500D01*
X143196619Y-98999500D01*
X143176304Y-98997393D01*
X143164685Y-98994957D01*
X143145144Y-98997393D01*
X143134338Y-98998740D01*
X143122093Y-98999500D01*
X143120960Y-98999500D01*
X143101470Y-99002751D01*
X143097431Y-99003339D01*
X143048607Y-99009426D01*
X143041581Y-99011517D01*
X143034616Y-99013908D01*
X142991361Y-99037317D01*
X142987724Y-99039189D01*
X142943520Y-99060799D01*
X142937542Y-99065066D01*
X142931744Y-99069580D01*
X142898431Y-99105765D01*
X142895601Y-99108715D01*
X132783814Y-109220504D01*
X132729297Y-109248281D01*
X132713810Y-109249500D01*
X128946619Y-109249500D01*
X128926304Y-109247393D01*
X128914685Y-109244957D01*
X128895144Y-109247393D01*
X128884338Y-109248740D01*
X128872093Y-109249500D01*
X128870960Y-109249500D01*
X128851470Y-109252751D01*
X128847431Y-109253339D01*
X128798607Y-109259426D01*
X128791581Y-109261517D01*
X128784616Y-109263908D01*
X128741361Y-109287317D01*
X128737724Y-109289189D01*
X128693520Y-109310799D01*
X128687542Y-109315066D01*
X128681744Y-109319580D01*
X128648431Y-109355765D01*
X128645601Y-109358715D01*
X127396890Y-110607426D01*
X127342373Y-110635203D01*
X127281941Y-110625632D01*
X127274770Y-110621594D01*
X127127715Y-110530542D01*
X127127713Y-110530541D01*
X127069636Y-110508042D01*
X126939433Y-110457601D01*
X126939432Y-110457600D01*
X126939430Y-110457600D01*
X126740957Y-110420500D01*
X126539043Y-110420500D01*
X126340569Y-110457600D01*
X126295975Y-110474876D01*
X126152287Y-110530541D01*
X125983252Y-110635203D01*
X125980613Y-110636837D01*
X125831400Y-110772863D01*
X125709721Y-110933993D01*
X125709716Y-110934002D01*
X125619720Y-111114738D01*
X125564462Y-111308947D01*
X125545832Y-111510000D01*
X125564462Y-111711052D01*
X125619719Y-111905259D01*
X125630963Y-111927840D01*
X125639975Y-111988358D01*
X125612345Y-112041971D01*
X125536118Y-112118198D01*
X125520265Y-112131071D01*
X125510335Y-112137559D01*
X125510332Y-112137561D01*
X125491548Y-112161695D01*
X125483437Y-112170880D01*
X125482627Y-112171689D01*
X125482619Y-112171698D01*
X125471133Y-112187786D01*
X125468690Y-112191063D01*
X125438482Y-112229874D01*
X125434981Y-112236343D01*
X125431759Y-112242934D01*
X125417718Y-112290096D01*
X125416470Y-112293990D01*
X125400500Y-112340510D01*
X125399293Y-112347743D01*
X125398383Y-112355047D01*
X125400415Y-112404175D01*
X125400500Y-112408266D01*
X125400500Y-114384381D01*
X125398393Y-114404696D01*
X125395957Y-114416313D01*
X118450500Y-114416313D01*
X118450500Y-111510000D01*
X123005832Y-111510000D01*
X123024462Y-111711053D01*
X123079719Y-111905259D01*
X123169720Y-112086005D01*
X123291400Y-112247136D01*
X123440616Y-112383165D01*
X123612287Y-112489459D01*
X123800567Y-112562399D01*
X123999043Y-112599500D01*
X124200957Y-112599500D01*
X124399433Y-112562399D01*
X124587713Y-112489459D01*
X124759384Y-112383165D01*
X124908600Y-112247136D01*
X125030280Y-112086005D01*
X125120281Y-111905259D01*
X125175538Y-111711053D01*
X125194168Y-111510000D01*
X125175538Y-111308947D01*
X125120281Y-111114741D01*
X125030280Y-110933995D01*
X124908600Y-110772864D01*
X124759384Y-110636835D01*
X124587713Y-110530541D01*
X124399433Y-110457601D01*
X124399432Y-110457600D01*
X124399430Y-110457600D01*
X124200957Y-110420500D01*
X123999043Y-110420500D01*
X123800569Y-110457600D01*
X123755975Y-110474876D01*
X123612287Y-110530541D01*
X123443252Y-110635203D01*
X123440613Y-110636837D01*
X123291400Y-110772863D01*
X123169721Y-110933993D01*
X123169716Y-110934002D01*
X123079720Y-111114738D01*
X123079719Y-111114741D01*
X123024462Y-111308947D01*
X123005832Y-111510000D01*
X118450500Y-111510000D01*
X118450500Y-91190000D01*
X133165832Y-91190000D01*
X133184462Y-91391053D01*
X133239719Y-91585259D01*
X133329720Y-91766005D01*
X133451400Y-91927136D01*
X133600616Y-92063165D01*
X133772287Y-92169459D01*
X133960567Y-92242399D01*
X134159043Y-92279500D01*
X134360957Y-92279500D01*
X134559433Y-92242399D01*
X134747713Y-92169459D01*
X134919384Y-92063165D01*
X135068600Y-91927136D01*
X135190280Y-91766005D01*
X135280281Y-91585259D01*
X135335538Y-91391053D01*
X135354168Y-91190000D01*
X135705832Y-91190000D01*
X135724462Y-91391053D01*
X135779719Y-91585259D01*
X135869720Y-91766005D01*
X135991400Y-91927136D01*
X136140616Y-92063165D01*
X136312287Y-92169459D01*
X136500567Y-92242399D01*
X136699043Y-92279500D01*
X136900957Y-92279500D01*
X137099433Y-92242399D01*
X137287713Y-92169459D01*
X137459384Y-92063165D01*
X137608600Y-91927136D01*
X137730280Y-91766005D01*
X137820281Y-91585259D01*
X137875538Y-91391053D01*
X137894168Y-91190000D01*
X138245832Y-91190000D01*
X138264462Y-91391053D01*
X138319719Y-91585259D01*
X138409720Y-91766005D01*
X138531400Y-91927136D01*
X138680616Y-92063165D01*
X138852287Y-92169459D01*
X139040567Y-92242399D01*
X139239043Y-92279500D01*
X139440957Y-92279500D01*
X139639433Y-92242399D01*
X139827713Y-92169459D01*
X139999384Y-92063165D01*
X140148600Y-91927136D01*
X140270280Y-91766005D01*
X140360281Y-91585259D01*
X140415538Y-91391053D01*
X140434168Y-91190000D01*
X140785832Y-91190000D01*
X140804462Y-91391053D01*
X140859719Y-91585259D01*
X140949720Y-91766005D01*
X141071400Y-91927136D01*
X141220616Y-92063165D01*
X141392287Y-92169459D01*
X141580567Y-92242399D01*
X141779043Y-92279500D01*
X141980957Y-92279500D01*
X142179433Y-92242399D01*
X142367713Y-92169459D01*
X142539384Y-92063165D01*
X142688600Y-91927136D01*
X142810280Y-91766005D01*
X142900281Y-91585259D01*
X142955538Y-91391053D01*
X142974168Y-91190000D01*
X142955538Y-90988947D01*
X142900281Y-90794741D01*
X142810280Y-90613995D01*
X142688600Y-90452864D01*
X142688039Y-90452353D01*
X142638329Y-90407036D01*
X142539384Y-90316835D01*
X142367713Y-90210541D01*
X142179433Y-90137601D01*
X142179432Y-90137600D01*
X142179430Y-90137600D01*
X141980957Y-90100500D01*
X141779043Y-90100500D01*
X141580569Y-90137600D01*
X141573055Y-90140511D01*
X141392287Y-90210541D01*
X141233769Y-90308691D01*
X141220613Y-90316837D01*
X141071400Y-90452863D01*
X140949721Y-90613993D01*
X140949716Y-90614002D01*
X140859720Y-90794738D01*
X140859719Y-90794741D01*
X140804462Y-90988947D01*
X140785832Y-91190000D01*
X140434168Y-91190000D01*
X140415538Y-90988947D01*
X140360281Y-90794741D01*
X140270280Y-90613995D01*
X140148600Y-90452864D01*
X140148040Y-90452353D01*
X139999383Y-90316834D01*
X139999382Y-90316833D01*
X139922383Y-90269157D01*
X139882862Y-90222448D01*
X139875500Y-90184986D01*
X139875500Y-89490548D01*
X139894407Y-89432357D01*
X139943907Y-89396393D01*
X139955170Y-89393453D01*
X139978231Y-89388867D01*
X140044552Y-89344552D01*
X140088867Y-89278231D01*
X140100500Y-89219748D01*
X140100500Y-87980252D01*
X140088867Y-87921769D01*
X140044552Y-87855448D01*
X140044548Y-87855445D01*
X139978233Y-87811134D01*
X139978231Y-87811133D01*
X139978228Y-87811132D01*
X139978227Y-87811132D01*
X139919758Y-87799501D01*
X139919748Y-87799500D01*
X138680252Y-87799500D01*
X138680251Y-87799500D01*
X138680241Y-87799501D01*
X138621772Y-87811132D01*
X138621766Y-87811134D01*
X138555451Y-87855445D01*
X138555445Y-87855451D01*
X138511134Y-87921766D01*
X138511132Y-87921772D01*
X138499501Y-87980241D01*
X138499500Y-87980253D01*
X138499500Y-89219746D01*
X138499501Y-89219758D01*
X138511132Y-89278227D01*
X138511133Y-89278231D01*
X138555448Y-89344552D01*
X138621769Y-89388867D01*
X138644816Y-89393451D01*
X138698198Y-89423346D01*
X138723814Y-89478911D01*
X138724500Y-89490548D01*
X138724500Y-90234520D01*
X138705593Y-90292711D01*
X138683578Y-90313166D01*
X138684267Y-90314078D01*
X138680616Y-90316834D01*
X138531400Y-90452863D01*
X138409721Y-90613993D01*
X138409716Y-90614002D01*
X138319720Y-90794738D01*
X138319719Y-90794741D01*
X138264462Y-90988947D01*
X138245832Y-91190000D01*
X137894168Y-91190000D01*
X137875538Y-90988947D01*
X137820281Y-90794741D01*
X137730280Y-90613995D01*
X137608600Y-90452864D01*
X137608039Y-90452353D01*
X137558329Y-90407036D01*
X137459384Y-90316835D01*
X137287713Y-90210541D01*
X137099433Y-90137601D01*
X137099432Y-90137600D01*
X137099430Y-90137600D01*
X136900957Y-90100500D01*
X136699043Y-90100500D01*
X136500569Y-90137600D01*
X136493055Y-90140511D01*
X136312287Y-90210541D01*
X136153769Y-90308691D01*
X136140613Y-90316837D01*
X135991400Y-90452863D01*
X135869721Y-90613993D01*
X135869716Y-90614002D01*
X135779720Y-90794738D01*
X135779719Y-90794741D01*
X135724462Y-90988947D01*
X135705832Y-91190000D01*
X135354168Y-91190000D01*
X135335538Y-90988947D01*
X135280281Y-90794741D01*
X135190280Y-90613995D01*
X135068600Y-90452864D01*
X135068039Y-90452353D01*
X135018329Y-90407036D01*
X134919384Y-90316835D01*
X134747713Y-90210541D01*
X134559433Y-90137601D01*
X134559432Y-90137600D01*
X134559430Y-90137600D01*
X134360957Y-90100500D01*
X134159043Y-90100500D01*
X133960569Y-90137600D01*
X133953055Y-90140511D01*
X133772287Y-90210541D01*
X133613769Y-90308691D01*
X133600613Y-90316837D01*
X133451400Y-90452863D01*
X133329721Y-90613993D01*
X133329716Y-90614002D01*
X133239720Y-90794738D01*
X133239719Y-90794741D01*
X133184462Y-90988947D01*
X133165832Y-91190000D01*
X118450500Y-91190000D01*
X118450500Y-76352165D01*
X118450547Y-76350000D01*
X119744506Y-76350000D01*
X119764468Y-76718197D01*
X119824126Y-77082087D01*
X119922768Y-77437365D01*
X119922772Y-77437376D01*
X120059255Y-77779927D01*
X120059257Y-77779930D01*
X120229253Y-78100577D01*
X120231981Y-78105721D01*
X120276349Y-78171158D01*
X120438910Y-78410917D01*
X120438914Y-78410922D01*
X120438915Y-78410923D01*
X120677622Y-78691951D01*
X120677632Y-78691961D01*
X120945326Y-78945535D01*
X120945330Y-78945538D01*
X121238881Y-79168690D01*
X121554838Y-79358795D01*
X121889497Y-79513625D01*
X122238934Y-79631364D01*
X122238939Y-79631365D01*
X122238942Y-79631366D01*
X122599047Y-79710631D01*
X122599048Y-79710631D01*
X122599052Y-79710632D01*
X122965630Y-79750500D01*
X123334370Y-79750500D01*
X123700948Y-79710632D01*
X124061057Y-79631366D01*
X124061058Y-79631366D01*
X124061060Y-79631365D01*
X124061066Y-79631364D01*
X124410503Y-79513625D01*
X124745162Y-79358795D01*
X125061119Y-79168690D01*
X125354670Y-78945538D01*
X125413301Y-78890000D01*
X135029534Y-78890000D01*
X135049313Y-79040236D01*
X135107302Y-79180233D01*
X135199549Y-79300451D01*
X135319767Y-79392698D01*
X135459764Y-79450687D01*
X135610000Y-79470466D01*
X135636515Y-79466974D01*
X135696672Y-79478122D01*
X135719441Y-79495123D01*
X143716148Y-87491830D01*
X143743925Y-87546347D01*
X143734354Y-87606779D01*
X143691089Y-87650044D01*
X143657679Y-87658064D01*
X143657933Y-87659987D01*
X143501267Y-87680612D01*
X143501261Y-87680614D01*
X143361266Y-87738601D01*
X143361264Y-87738603D01*
X143281058Y-87800147D01*
X143223382Y-87820571D01*
X143182909Y-87813071D01*
X143178233Y-87811134D01*
X143178231Y-87811133D01*
X143178227Y-87811132D01*
X143119758Y-87799501D01*
X143119748Y-87799500D01*
X141880252Y-87799500D01*
X141880251Y-87799500D01*
X141880241Y-87799501D01*
X141821772Y-87811132D01*
X141821766Y-87811134D01*
X141755451Y-87855445D01*
X141755445Y-87855451D01*
X141711134Y-87921766D01*
X141711132Y-87921772D01*
X141699501Y-87980241D01*
X141699500Y-87980253D01*
X141699500Y-89219746D01*
X141699501Y-89219758D01*
X141711132Y-89278227D01*
X141711133Y-89278231D01*
X141755448Y-89344552D01*
X141821769Y-89388867D01*
X141859605Y-89396393D01*
X141880241Y-89400498D01*
X141880246Y-89400498D01*
X141880252Y-89400500D01*
X141880253Y-89400500D01*
X143119747Y-89400500D01*
X143119748Y-89400500D01*
X143178231Y-89388867D01*
X143244552Y-89344552D01*
X143288867Y-89278231D01*
X143300500Y-89219748D01*
X143300500Y-89050998D01*
X143319407Y-88992807D01*
X143368907Y-88956843D01*
X143407672Y-88952336D01*
X143429344Y-88954132D01*
X143468036Y-88944333D01*
X143476000Y-88942663D01*
X143515381Y-88936092D01*
X143517541Y-88934922D01*
X143540360Y-88926018D01*
X143542741Y-88925416D01*
X143576140Y-88903595D01*
X143583171Y-88899405D01*
X143618258Y-88880418D01*
X143619919Y-88878613D01*
X143638615Y-88862779D01*
X143640667Y-88861438D01*
X143640666Y-88861438D01*
X143640669Y-88861437D01*
X143648891Y-88850872D01*
X143699549Y-88816564D01*
X143714086Y-88813526D01*
X143801736Y-88801987D01*
X143941733Y-88743998D01*
X144061951Y-88651751D01*
X144154198Y-88531533D01*
X144212187Y-88391536D01*
X144231966Y-88241300D01*
X144232813Y-88234867D01*
X144235674Y-88235243D01*
X144250873Y-88188465D01*
X144300373Y-88152501D01*
X144361559Y-88152501D01*
X144400970Y-88176652D01*
X145270504Y-89046186D01*
X145298281Y-89100703D01*
X145299500Y-89116190D01*
X145299500Y-90293284D01*
X145280593Y-90351475D01*
X145231093Y-90387439D01*
X145169907Y-90387439D01*
X145133804Y-90366446D01*
X145133548Y-90366213D01*
X145079384Y-90316835D01*
X144907713Y-90210541D01*
X144719433Y-90137601D01*
X144719432Y-90137600D01*
X144719430Y-90137600D01*
X144520957Y-90100500D01*
X144319043Y-90100500D01*
X144120569Y-90137600D01*
X144113055Y-90140511D01*
X143932287Y-90210541D01*
X143773769Y-90308691D01*
X143760613Y-90316837D01*
X143611400Y-90452863D01*
X143489721Y-90613993D01*
X143489716Y-90614002D01*
X143399720Y-90794738D01*
X143399719Y-90794741D01*
X143344462Y-90988947D01*
X143325832Y-91190000D01*
X143344462Y-91391053D01*
X143399719Y-91585259D01*
X143489720Y-91766005D01*
X143611400Y-91927136D01*
X143760616Y-92063165D01*
X143932287Y-92169459D01*
X144120567Y-92242399D01*
X144319043Y-92279500D01*
X144520957Y-92279500D01*
X144719433Y-92242399D01*
X144907713Y-92169459D01*
X145079384Y-92063165D01*
X145133804Y-92013553D01*
X145189545Y-91988324D01*
X145249471Y-92000676D01*
X145290691Y-92045892D01*
X145299500Y-92086716D01*
X145299500Y-95623211D01*
X145280593Y-95681402D01*
X145260768Y-95701752D01*
X145173855Y-95768443D01*
X145173847Y-95768451D01*
X145081601Y-95888668D01*
X145023614Y-96028661D01*
X145023612Y-96028667D01*
X145003834Y-96178899D01*
X145003834Y-96178900D01*
X145019995Y-96301659D01*
X145023613Y-96329136D01*
X145081602Y-96469133D01*
X145173849Y-96589351D01*
X145294067Y-96681598D01*
X145434064Y-96739587D01*
X145546741Y-96754421D01*
X145584299Y-96759366D01*
X145584300Y-96759366D01*
X145584301Y-96759366D01*
X145614347Y-96755410D01*
X145734536Y-96739587D01*
X145874533Y-96681598D01*
X145994751Y-96589351D01*
X146086998Y-96469133D01*
X146144987Y-96329136D01*
X146164766Y-96178900D01*
X146144987Y-96028664D01*
X146098998Y-95917638D01*
X146086998Y-95888666D01*
X146086997Y-95888665D01*
X146020958Y-95802601D01*
X146000534Y-95744925D01*
X146000500Y-95742334D01*
X146000500Y-92013786D01*
X146019407Y-91955595D01*
X146068907Y-91919631D01*
X146130093Y-91919631D01*
X146166194Y-91940623D01*
X146300616Y-92063165D01*
X146472287Y-92169459D01*
X146660567Y-92242399D01*
X146859043Y-92279500D01*
X147060957Y-92279500D01*
X147259433Y-92242399D01*
X147447713Y-92169459D01*
X147619384Y-92063165D01*
X147768600Y-91927136D01*
X147890280Y-91766005D01*
X147980281Y-91585259D01*
X148035538Y-91391053D01*
X148054168Y-91190000D01*
X148405832Y-91190000D01*
X148424462Y-91391053D01*
X148479719Y-91585259D01*
X148569720Y-91766005D01*
X148691400Y-91927136D01*
X148840616Y-92063165D01*
X149012287Y-92169459D01*
X149200567Y-92242399D01*
X149399043Y-92279500D01*
X149600957Y-92279500D01*
X149799433Y-92242399D01*
X149987713Y-92169459D01*
X150159384Y-92063165D01*
X150308600Y-91927136D01*
X150430280Y-91766005D01*
X150520281Y-91585259D01*
X150575538Y-91391053D01*
X150594168Y-91190000D01*
X150945832Y-91190000D01*
X150964462Y-91391053D01*
X151019719Y-91585259D01*
X151109720Y-91766005D01*
X151231400Y-91927136D01*
X151380616Y-92063165D01*
X151552287Y-92169459D01*
X151740567Y-92242399D01*
X151939043Y-92279500D01*
X152140957Y-92279500D01*
X152339433Y-92242399D01*
X152527713Y-92169459D01*
X152699384Y-92063165D01*
X152848600Y-91927136D01*
X152970280Y-91766005D01*
X153060281Y-91585259D01*
X153115538Y-91391053D01*
X153134168Y-91190000D01*
X153485832Y-91190000D01*
X153504462Y-91391053D01*
X153559719Y-91585259D01*
X153649720Y-91766005D01*
X153771400Y-91927136D01*
X153920616Y-92063165D01*
X154092287Y-92169459D01*
X154280567Y-92242399D01*
X154479043Y-92279500D01*
X154680957Y-92279500D01*
X154879433Y-92242399D01*
X155067713Y-92169459D01*
X155239384Y-92063165D01*
X155388600Y-91927136D01*
X155510280Y-91766005D01*
X155600281Y-91585259D01*
X155655538Y-91391053D01*
X155674168Y-91190000D01*
X155655538Y-90988947D01*
X155600281Y-90794741D01*
X155510280Y-90613995D01*
X155388600Y-90452864D01*
X155388039Y-90452353D01*
X155338329Y-90407036D01*
X155239384Y-90316835D01*
X155067713Y-90210541D01*
X154879433Y-90137601D01*
X154879432Y-90137600D01*
X154879430Y-90137600D01*
X154680957Y-90100500D01*
X154479043Y-90100500D01*
X154280569Y-90137600D01*
X154273055Y-90140511D01*
X154092287Y-90210541D01*
X153933769Y-90308691D01*
X153920613Y-90316837D01*
X153771400Y-90452863D01*
X153649721Y-90613993D01*
X153649716Y-90614002D01*
X153559720Y-90794738D01*
X153559719Y-90794741D01*
X153504462Y-90988947D01*
X153485832Y-91190000D01*
X153134168Y-91190000D01*
X153115538Y-90988947D01*
X153060281Y-90794741D01*
X152970280Y-90613995D01*
X152848600Y-90452864D01*
X152848039Y-90452353D01*
X152798329Y-90407036D01*
X152699384Y-90316835D01*
X152527713Y-90210541D01*
X152339433Y-90137601D01*
X152339432Y-90137600D01*
X152339430Y-90137600D01*
X152140957Y-90100500D01*
X151939043Y-90100500D01*
X151740569Y-90137600D01*
X151733055Y-90140511D01*
X151552287Y-90210541D01*
X151393769Y-90308691D01*
X151380613Y-90316837D01*
X151231400Y-90452863D01*
X151109721Y-90613993D01*
X151109716Y-90614002D01*
X151019720Y-90794738D01*
X151019719Y-90794741D01*
X150964462Y-90988947D01*
X150945832Y-91190000D01*
X150594168Y-91190000D01*
X150575538Y-90988947D01*
X150520281Y-90794741D01*
X150430280Y-90613995D01*
X150308600Y-90452864D01*
X150308039Y-90452353D01*
X150258329Y-90407036D01*
X150159384Y-90316835D01*
X149987713Y-90210541D01*
X149799433Y-90137601D01*
X149799432Y-90137600D01*
X149799430Y-90137600D01*
X149600957Y-90100500D01*
X149399043Y-90100500D01*
X149200569Y-90137600D01*
X149193055Y-90140511D01*
X149012287Y-90210541D01*
X148853769Y-90308691D01*
X148840613Y-90316837D01*
X148691400Y-90452863D01*
X148569721Y-90613993D01*
X148569716Y-90614002D01*
X148479720Y-90794738D01*
X148479719Y-90794741D01*
X148424462Y-90988947D01*
X148405832Y-91190000D01*
X148054168Y-91190000D01*
X148035538Y-90988947D01*
X147980281Y-90794741D01*
X147890280Y-90613995D01*
X147768600Y-90452864D01*
X147768039Y-90452353D01*
X147718329Y-90407036D01*
X147619384Y-90316835D01*
X147447713Y-90210541D01*
X147259433Y-90137601D01*
X147259432Y-90137600D01*
X147259430Y-90137600D01*
X147060957Y-90100500D01*
X146859043Y-90100500D01*
X146660569Y-90137600D01*
X146653055Y-90140511D01*
X146472287Y-90210541D01*
X146313769Y-90308691D01*
X146300613Y-90316837D01*
X146166196Y-90439375D01*
X146110455Y-90464605D01*
X146050529Y-90452253D01*
X146009309Y-90407036D01*
X146000500Y-90366213D01*
X146000500Y-88976613D01*
X146002607Y-88956297D01*
X146003061Y-88954131D01*
X146005042Y-88944685D01*
X146001260Y-88914342D01*
X146000500Y-88902098D01*
X146000500Y-88900959D01*
X145999933Y-88897565D01*
X145997243Y-88881447D01*
X145996658Y-88877429D01*
X145990573Y-88828607D01*
X145990571Y-88828604D01*
X145988477Y-88821569D01*
X145986091Y-88814616D01*
X145962687Y-88771371D01*
X145960813Y-88767730D01*
X145939199Y-88723517D01*
X145934948Y-88717562D01*
X145930419Y-88711743D01*
X145930418Y-88711742D01*
X145894221Y-88678420D01*
X145891294Y-88675612D01*
X136215123Y-78999441D01*
X136187346Y-78944924D01*
X136186974Y-78916521D01*
X136190466Y-78890000D01*
X136170687Y-78739764D01*
X136112698Y-78599767D01*
X136020451Y-78479549D01*
X135900233Y-78387302D01*
X135760236Y-78329313D01*
X135760234Y-78329312D01*
X135760232Y-78329312D01*
X135610001Y-78309534D01*
X135609999Y-78309534D01*
X135459767Y-78329312D01*
X135459761Y-78329314D01*
X135319768Y-78387301D01*
X135199551Y-78479547D01*
X135199547Y-78479551D01*
X135107301Y-78599768D01*
X135049314Y-78739761D01*
X135049312Y-78739767D01*
X135035176Y-78847145D01*
X135029534Y-78890000D01*
X125413301Y-78890000D01*
X125622373Y-78691956D01*
X125861090Y-78410917D01*
X126068022Y-78105716D01*
X126240743Y-77779930D01*
X126377227Y-77437379D01*
X126475875Y-77082081D01*
X126535531Y-76718199D01*
X126552732Y-76400939D01*
X131455630Y-76400939D01*
X131486443Y-76602067D01*
X131486444Y-76602071D01*
X131557114Y-76792887D01*
X131557115Y-76792888D01*
X131664745Y-76965567D01*
X131664747Y-76965569D01*
X131664748Y-76965571D01*
X131804941Y-77113053D01*
X131804943Y-77113054D01*
X131804946Y-77113057D01*
X131894533Y-77175411D01*
X131971951Y-77229295D01*
X132158940Y-77309539D01*
X132158942Y-77309540D01*
X132358259Y-77350500D01*
X132358262Y-77350500D01*
X132510744Y-77350500D01*
X132536381Y-77347892D01*
X132662438Y-77335074D01*
X132856588Y-77274159D01*
X133034502Y-77175409D01*
X133188895Y-77042866D01*
X133313448Y-76881958D01*
X133314769Y-76879266D01*
X133314800Y-76879203D01*
X136500001Y-76879203D01*
X136502850Y-76909600D01*
X136502850Y-76909602D01*
X136547654Y-77037647D01*
X136628207Y-77146790D01*
X136628209Y-77146792D01*
X136737352Y-77227345D01*
X136865398Y-77272149D01*
X136895789Y-77274999D01*
X137099998Y-77274999D01*
X137100000Y-77274998D01*
X137300000Y-77274998D01*
X137300001Y-77274999D01*
X137504203Y-77274999D01*
X137534600Y-77272149D01*
X137534602Y-77272149D01*
X137662647Y-77227345D01*
X137771790Y-77146792D01*
X137771792Y-77146790D01*
X137852345Y-77037647D01*
X137897149Y-76909601D01*
X137899993Y-76879274D01*
X138399500Y-76879274D01*
X138402353Y-76909694D01*
X138402355Y-76909703D01*
X138447206Y-77037881D01*
X138449282Y-77040694D01*
X138505155Y-77116399D01*
X138524497Y-77174445D01*
X138524500Y-77175186D01*
X138524500Y-77255797D01*
X138523653Y-77268718D01*
X138519535Y-77299999D01*
X138519535Y-77300000D01*
X138524076Y-77334494D01*
X138524077Y-77334507D01*
X138539312Y-77450231D01*
X138539314Y-77450237D01*
X138597301Y-77590232D01*
X138597302Y-77590233D01*
X138666390Y-77680270D01*
X138689548Y-77710450D01*
X138714575Y-77729654D01*
X138724312Y-77738192D01*
X139833265Y-78847145D01*
X139861042Y-78901662D01*
X139861718Y-78906792D01*
X139878092Y-79062576D01*
X139931714Y-79227611D01*
X139931715Y-79227612D01*
X139931716Y-79227616D01*
X140018477Y-79377888D01*
X140018477Y-79377889D01*
X140084025Y-79450687D01*
X140134590Y-79506845D01*
X140274976Y-79608842D01*
X140274980Y-79608844D01*
X140274982Y-79608845D01*
X140325561Y-79631364D01*
X140433501Y-79679422D01*
X140603236Y-79715500D01*
X140603239Y-79715500D01*
X140776761Y-79715500D01*
X140776764Y-79715500D01*
X140946499Y-79679422D01*
X141105024Y-79608842D01*
X141245410Y-79506845D01*
X141361522Y-79377889D01*
X141448286Y-79227611D01*
X141501908Y-79062576D01*
X141520047Y-78890000D01*
X155029534Y-78890000D01*
X155049313Y-79040236D01*
X155107302Y-79180233D01*
X155199549Y-79300451D01*
X155199553Y-79300454D01*
X155220767Y-79316732D01*
X155255423Y-79367156D01*
X155259500Y-79395274D01*
X155259500Y-81513381D01*
X155257393Y-81533696D01*
X155254957Y-81545313D01*
X155258740Y-81575662D01*
X155259500Y-81587907D01*
X155259500Y-81589042D01*
X155262751Y-81608528D01*
X155263337Y-81612547D01*
X155269427Y-81661393D01*
X155271527Y-81668448D01*
X155273907Y-81675380D01*
X155297322Y-81718646D01*
X155299195Y-81722285D01*
X155320801Y-81766482D01*
X155325078Y-81772472D01*
X155329581Y-81778258D01*
X155365764Y-81811567D01*
X155368717Y-81814399D01*
X173119199Y-99564881D01*
X173132074Y-99580737D01*
X173138563Y-99590669D01*
X173162690Y-99609448D01*
X173171877Y-99617560D01*
X173172687Y-99618370D01*
X173172690Y-99618372D01*
X173172693Y-99618375D01*
X173188769Y-99629852D01*
X173192050Y-99632299D01*
X173230874Y-99662517D01*
X173230875Y-99662517D01*
X173230876Y-99662518D01*
X173237318Y-99666005D01*
X173243930Y-99669238D01*
X173246480Y-99669997D01*
X173291100Y-99683280D01*
X173294951Y-99684514D01*
X173341512Y-99700500D01*
X173341515Y-99700500D01*
X173348732Y-99701705D01*
X173356039Y-99702615D01*
X173356046Y-99702617D01*
X173405176Y-99700585D01*
X173409267Y-99700500D01*
X174644726Y-99700500D01*
X174702917Y-99719407D01*
X174723267Y-99739232D01*
X174739549Y-99760451D01*
X174859767Y-99852698D01*
X174999764Y-99910687D01*
X175112441Y-99925521D01*
X175149999Y-99930466D01*
X175150000Y-99930466D01*
X175150001Y-99930466D01*
X175180047Y-99926510D01*
X175300236Y-99910687D01*
X175440233Y-99852698D01*
X175560451Y-99760451D01*
X175571458Y-99746106D01*
X175621881Y-99711450D01*
X175683045Y-99713051D01*
X175728541Y-99746106D01*
X175739549Y-99760451D01*
X175859767Y-99852698D01*
X175999764Y-99910687D01*
X176112441Y-99925521D01*
X176149999Y-99930466D01*
X176150000Y-99930466D01*
X176150001Y-99930466D01*
X176180047Y-99926510D01*
X176300236Y-99910687D01*
X176440233Y-99852698D01*
X176541492Y-99774999D01*
X191600000Y-99774999D01*
X191600001Y-99775000D01*
X193049999Y-99775000D01*
X193050000Y-99774999D01*
X193250000Y-99774999D01*
X193250001Y-99775000D01*
X194699998Y-99775000D01*
X194699999Y-99774999D01*
X194699999Y-99495796D01*
X194697149Y-99465399D01*
X194697149Y-99465397D01*
X194652345Y-99337352D01*
X194571792Y-99228209D01*
X194571790Y-99228207D01*
X194462647Y-99147654D01*
X194334601Y-99102850D01*
X194304211Y-99100000D01*
X193250001Y-99100000D01*
X193250000Y-99100001D01*
X193250000Y-99774999D01*
X193050000Y-99774999D01*
X193050000Y-99100001D01*
X193049999Y-99100000D01*
X191995796Y-99100000D01*
X191965399Y-99102850D01*
X191965397Y-99102850D01*
X191837352Y-99147654D01*
X191728209Y-99228207D01*
X191728207Y-99228209D01*
X191647654Y-99337352D01*
X191602850Y-99465398D01*
X191600000Y-99495788D01*
X191600000Y-99774999D01*
X176541492Y-99774999D01*
X176560451Y-99760451D01*
X176652698Y-99640233D01*
X176710687Y-99500236D01*
X176730466Y-99350000D01*
X176710687Y-99199764D01*
X176652698Y-99059767D01*
X176560451Y-98939549D01*
X176440233Y-98847302D01*
X176300236Y-98789313D01*
X176291639Y-98788181D01*
X176275476Y-98786053D01*
X176220252Y-98759711D01*
X176191057Y-98705940D01*
X176189400Y-98687900D01*
X176189400Y-96398818D01*
X176191507Y-96378502D01*
X176193444Y-96369263D01*
X176193943Y-96366885D01*
X176190160Y-96336536D01*
X176189400Y-96324292D01*
X176189400Y-96323159D01*
X176186149Y-96303678D01*
X176185559Y-96299630D01*
X176182559Y-96275567D01*
X176179473Y-96250807D01*
X176179472Y-96250805D01*
X176179472Y-96250803D01*
X176177379Y-96243775D01*
X176174991Y-96236816D01*
X176151587Y-96193571D01*
X176149713Y-96189930D01*
X176128099Y-96145717D01*
X176123848Y-96139762D01*
X176119319Y-96133943D01*
X176093852Y-96110499D01*
X176083121Y-96100620D01*
X176080194Y-96097812D01*
X175792220Y-95809838D01*
X176190000Y-95809838D01*
X176196519Y-95859354D01*
X176196521Y-95859361D01*
X176247190Y-95968021D01*
X176331978Y-96052809D01*
X176440638Y-96103478D01*
X176440645Y-96103480D01*
X176490161Y-96110000D01*
X176569999Y-96110000D01*
X176570000Y-96109999D01*
X176770000Y-96109999D01*
X176770001Y-96110000D01*
X176849838Y-96110000D01*
X176899354Y-96103480D01*
X176899361Y-96103478D01*
X177008021Y-96052809D01*
X177079642Y-95981189D01*
X177134159Y-95953412D01*
X177194591Y-95962983D01*
X177219646Y-95981186D01*
X177291684Y-96053224D01*
X177400513Y-96103972D01*
X177450099Y-96110500D01*
X177809900Y-96110499D01*
X177859487Y-96103972D01*
X177859488Y-96103972D01*
X177918137Y-96076622D01*
X177968316Y-96053224D01*
X178053224Y-95968316D01*
X178103972Y-95859487D01*
X178110500Y-95809901D01*
X178110499Y-95710939D01*
X192145630Y-95710939D01*
X192174748Y-95901000D01*
X192176444Y-95912071D01*
X192247114Y-96102887D01*
X192259963Y-96123501D01*
X192354745Y-96275567D01*
X192354750Y-96275573D01*
X192459655Y-96385933D01*
X192494941Y-96423053D01*
X192494943Y-96423054D01*
X192494946Y-96423057D01*
X192660649Y-96538389D01*
X192661951Y-96539295D01*
X192848940Y-96619539D01*
X192848942Y-96619540D01*
X193048259Y-96660500D01*
X193048262Y-96660500D01*
X193200744Y-96660500D01*
X193226381Y-96657892D01*
X193352438Y-96645074D01*
X193546588Y-96584159D01*
X193724502Y-96485409D01*
X193878895Y-96352866D01*
X194003448Y-96191958D01*
X194093060Y-96009271D01*
X194144063Y-95812285D01*
X194154369Y-95609064D01*
X194123556Y-95407929D01*
X194052886Y-95217113D01*
X193945252Y-95044429D01*
X193842826Y-94936678D01*
X193805063Y-94896951D01*
X193805053Y-94896942D01*
X193638054Y-94780708D01*
X193638051Y-94780706D01*
X193638049Y-94780705D01*
X193451058Y-94700460D01*
X193451060Y-94700460D01*
X193371331Y-94684076D01*
X193251741Y-94659500D01*
X193099258Y-94659500D01*
X193099256Y-94659500D01*
X192947561Y-94674926D01*
X192753410Y-94735841D01*
X192753409Y-94735842D01*
X192575501Y-94834588D01*
X192575498Y-94834590D01*
X192421109Y-94967129D01*
X192296549Y-95128045D01*
X192231604Y-95260448D01*
X192206940Y-95310729D01*
X192175938Y-95430466D01*
X192155936Y-95507719D01*
X192145631Y-95710936D01*
X192145630Y-95710939D01*
X178110499Y-95710939D01*
X178110499Y-95676189D01*
X178129406Y-95617999D01*
X178139489Y-95606191D01*
X178290559Y-95455121D01*
X178345074Y-95427346D01*
X178373477Y-95426974D01*
X178400000Y-95430466D01*
X178550236Y-95410687D01*
X178690233Y-95352698D01*
X178810451Y-95260451D01*
X178902698Y-95140233D01*
X178960687Y-95000236D01*
X178980466Y-94850000D01*
X178960687Y-94699764D01*
X178902698Y-94559767D01*
X178810451Y-94439549D01*
X178690233Y-94347302D01*
X178550236Y-94289313D01*
X178550234Y-94289312D01*
X178550232Y-94289312D01*
X178400001Y-94269534D01*
X178399999Y-94269534D01*
X178249767Y-94289312D01*
X178249761Y-94289314D01*
X178109768Y-94347301D01*
X177989551Y-94439547D01*
X177989547Y-94439551D01*
X177897301Y-94559768D01*
X177839314Y-94699761D01*
X177839312Y-94699767D01*
X177819534Y-94849999D01*
X177819534Y-94850002D01*
X177823024Y-94876517D01*
X177811873Y-94936678D01*
X177794875Y-94959441D01*
X177693812Y-95060504D01*
X177639295Y-95088281D01*
X177623809Y-95089500D01*
X177450104Y-95089500D01*
X177450092Y-95089501D01*
X177400513Y-95096027D01*
X177400511Y-95096027D01*
X177291686Y-95146774D01*
X177291684Y-95146775D01*
X177291684Y-95146776D01*
X177219647Y-95218812D01*
X177165133Y-95246588D01*
X177104701Y-95237017D01*
X177079642Y-95218811D01*
X177008021Y-95147190D01*
X176899361Y-95096521D01*
X176899354Y-95096519D01*
X176849839Y-95090000D01*
X176770001Y-95090000D01*
X176770000Y-95090001D01*
X176770000Y-96109999D01*
X176570000Y-96109999D01*
X176570000Y-95700001D01*
X176569999Y-95700000D01*
X176190001Y-95700000D01*
X176190000Y-95700001D01*
X176190000Y-95809838D01*
X175792220Y-95809838D01*
X175482381Y-95499999D01*
X176190000Y-95499999D01*
X176190001Y-95500000D01*
X176569999Y-95500000D01*
X176570000Y-95499999D01*
X176570000Y-95090001D01*
X176569999Y-95090000D01*
X176490161Y-95090000D01*
X176440645Y-95096519D01*
X176440638Y-95096521D01*
X176331978Y-95147190D01*
X176247190Y-95231978D01*
X176196521Y-95340638D01*
X176196519Y-95340645D01*
X176190000Y-95390161D01*
X176190000Y-95499999D01*
X175482381Y-95499999D01*
X175160823Y-95178441D01*
X175133046Y-95123924D01*
X175132674Y-95095521D01*
X175136166Y-95069000D01*
X175116387Y-94918764D01*
X175058398Y-94778767D01*
X174966151Y-94658549D01*
X174845933Y-94566302D01*
X174830156Y-94559767D01*
X174705938Y-94508314D01*
X174705940Y-94508314D01*
X174705936Y-94508313D01*
X174705934Y-94508312D01*
X174705932Y-94508312D01*
X174624966Y-94497653D01*
X174569741Y-94471312D01*
X174556045Y-94446088D01*
X174531703Y-94479593D01*
X174486434Y-94497653D01*
X174405467Y-94508312D01*
X174405461Y-94508314D01*
X174265468Y-94566301D01*
X174145251Y-94658547D01*
X174145247Y-94658551D01*
X174053001Y-94778768D01*
X173995014Y-94918761D01*
X173995012Y-94918767D01*
X173975234Y-95068999D01*
X173975234Y-95069000D01*
X173995012Y-95219232D01*
X173995014Y-95219238D01*
X174045302Y-95340645D01*
X174053002Y-95359233D01*
X174145249Y-95479451D01*
X174265467Y-95571698D01*
X174405464Y-95629687D01*
X174555700Y-95649466D01*
X174582216Y-95645974D01*
X174642374Y-95657122D01*
X174665138Y-95674120D01*
X175088831Y-96097812D01*
X175459404Y-96468385D01*
X175487181Y-96522902D01*
X175488400Y-96538389D01*
X175488400Y-98719089D01*
X175469493Y-98777280D01*
X175419993Y-98813244D01*
X175358807Y-98813244D01*
X175351515Y-98810553D01*
X175300240Y-98789314D01*
X175300232Y-98789312D01*
X175150001Y-98769534D01*
X175149999Y-98769534D01*
X174999767Y-98789312D01*
X174999761Y-98789314D01*
X174859768Y-98847301D01*
X174739551Y-98939547D01*
X174739545Y-98939553D01*
X174723268Y-98960767D01*
X174672844Y-98995423D01*
X174644726Y-98999500D01*
X173586190Y-98999500D01*
X173527999Y-98980593D01*
X173516186Y-98970504D01*
X168350839Y-93805157D01*
X168323062Y-93750640D01*
X168332633Y-93690208D01*
X168375898Y-93646943D01*
X168436330Y-93637372D01*
X168458721Y-93643686D01*
X168499764Y-93660687D01*
X168612441Y-93675521D01*
X168649999Y-93680466D01*
X168650000Y-93680466D01*
X168650001Y-93680466D01*
X168680047Y-93676510D01*
X168800236Y-93660687D01*
X168940233Y-93602698D01*
X169060451Y-93510451D01*
X169152698Y-93390233D01*
X169210687Y-93250236D01*
X169230466Y-93100000D01*
X169229944Y-93096038D01*
X169222190Y-93037136D01*
X169210687Y-92949764D01*
X169152698Y-92809767D01*
X169114430Y-92759895D01*
X169389500Y-92759895D01*
X169389501Y-92759907D01*
X169396027Y-92809486D01*
X169396027Y-92809488D01*
X169446774Y-92918313D01*
X169446775Y-92918314D01*
X169446776Y-92918316D01*
X169531684Y-93003224D01*
X169640513Y-93053972D01*
X169690099Y-93060500D01*
X170109900Y-93060499D01*
X170159487Y-93053972D01*
X170159488Y-93053972D01*
X170236633Y-93017998D01*
X170268316Y-93003224D01*
X170296041Y-92975499D01*
X170312045Y-92959496D01*
X170366562Y-92931719D01*
X170382048Y-92930500D01*
X170625500Y-92930500D01*
X170683691Y-92949407D01*
X170719655Y-92998907D01*
X170724500Y-93029500D01*
X170724500Y-93354274D01*
X170727353Y-93384694D01*
X170727355Y-93384703D01*
X170772207Y-93512883D01*
X170852845Y-93622144D01*
X170852847Y-93622146D01*
X170852850Y-93622150D01*
X170852853Y-93622152D01*
X170852855Y-93622154D01*
X170962116Y-93702792D01*
X170962117Y-93702792D01*
X170962118Y-93702793D01*
X171090301Y-93747646D01*
X171120725Y-93750499D01*
X171120727Y-93750500D01*
X171120734Y-93750500D01*
X172179273Y-93750500D01*
X172179273Y-93750499D01*
X172209699Y-93747646D01*
X172337882Y-93702793D01*
X172447150Y-93622150D01*
X172527793Y-93512882D01*
X172543456Y-93468117D01*
X172580521Y-93419439D01*
X172639121Y-93401842D01*
X172696873Y-93422050D01*
X172731717Y-93472344D01*
X172735900Y-93500817D01*
X172735900Y-96777725D01*
X172716993Y-96835916D01*
X172697169Y-96856266D01*
X172675951Y-96872547D01*
X172675947Y-96872551D01*
X172583701Y-96992768D01*
X172525714Y-97132761D01*
X172525712Y-97132767D01*
X172505934Y-97282999D01*
X172505934Y-97283000D01*
X172517453Y-97370500D01*
X172525713Y-97433236D01*
X172583702Y-97573233D01*
X172675949Y-97693451D01*
X172796167Y-97785698D01*
X172936164Y-97843687D01*
X173048841Y-97858521D01*
X173086399Y-97863466D01*
X173086400Y-97863466D01*
X173086401Y-97863466D01*
X173116447Y-97859510D01*
X173236636Y-97843687D01*
X173376633Y-97785698D01*
X173496851Y-97693451D01*
X173589098Y-97573233D01*
X173647087Y-97433236D01*
X173666866Y-97283000D01*
X173647087Y-97132764D01*
X173589098Y-96992767D01*
X173496851Y-96872549D01*
X173475630Y-96856265D01*
X173440976Y-96805841D01*
X173436900Y-96777725D01*
X173436900Y-94399500D01*
X173455807Y-94341309D01*
X173505307Y-94305345D01*
X173535900Y-94300500D01*
X174473512Y-94300500D01*
X174531703Y-94319407D01*
X174554420Y-94350674D01*
X174590649Y-94312497D01*
X174637888Y-94300500D01*
X175494747Y-94300500D01*
X175494748Y-94300500D01*
X175553231Y-94288867D01*
X175619552Y-94244552D01*
X175619553Y-94244549D01*
X175620446Y-94243953D01*
X175679334Y-94227344D01*
X175730451Y-94243953D01*
X175796964Y-94288396D01*
X175855300Y-94299999D01*
X175855304Y-94300000D01*
X175950000Y-94300000D01*
X175950001Y-94299999D01*
X176150001Y-94299999D01*
X176150002Y-94300000D01*
X176244694Y-94300000D01*
X176244700Y-94299999D01*
X176280683Y-94292841D01*
X176319316Y-94292841D01*
X176355298Y-94299999D01*
X176355307Y-94300000D01*
X176449999Y-94300000D01*
X176450000Y-94299999D01*
X176450000Y-93600001D01*
X176449999Y-93600000D01*
X176150002Y-93600000D01*
X176150001Y-93600001D01*
X176150001Y-94299999D01*
X175950001Y-94299999D01*
X175950001Y-93399999D01*
X176150001Y-93399999D01*
X176150002Y-93400000D01*
X176449999Y-93400000D01*
X176450000Y-93399999D01*
X176450000Y-92700001D01*
X176449999Y-92700000D01*
X176355297Y-92700000D01*
X176319313Y-92707158D01*
X176280686Y-92707158D01*
X176244702Y-92700000D01*
X176150002Y-92700000D01*
X176150001Y-92700001D01*
X176150001Y-93399999D01*
X175950001Y-93399999D01*
X175950001Y-92700001D01*
X175950000Y-92700000D01*
X175855298Y-92700000D01*
X175793813Y-92712230D01*
X175733052Y-92705038D01*
X175688122Y-92663505D01*
X175675500Y-92615132D01*
X175675500Y-92561188D01*
X175694407Y-92502997D01*
X175704490Y-92491191D01*
X175842399Y-92353281D01*
X175896914Y-92325505D01*
X175957346Y-92335076D01*
X175994074Y-92367335D01*
X175997791Y-92372761D01*
X175997793Y-92372763D01*
X175997794Y-92372765D01*
X176077235Y-92452206D01*
X176180009Y-92497585D01*
X176205135Y-92500500D01*
X176700497Y-92500499D01*
X176758688Y-92519406D01*
X176794652Y-92568906D01*
X176799497Y-92599499D01*
X176799497Y-92601000D01*
X176780590Y-92659191D01*
X176731090Y-92695155D01*
X176700497Y-92700000D01*
X176650001Y-92700000D01*
X176650000Y-92700001D01*
X176650000Y-94299999D01*
X176650001Y-94300000D01*
X176744697Y-94300000D01*
X176744700Y-94299999D01*
X176803034Y-94288396D01*
X176869297Y-94244120D01*
X176928185Y-94227511D01*
X176979302Y-94244120D01*
X176979947Y-94244551D01*
X176979948Y-94244552D01*
X177046269Y-94288867D01*
X177090731Y-94297711D01*
X177104741Y-94300498D01*
X177104746Y-94300498D01*
X177104752Y-94300500D01*
X177104753Y-94300500D01*
X177619247Y-94300500D01*
X177619248Y-94300500D01*
X177677731Y-94288867D01*
X177744052Y-94244552D01*
X177788367Y-94178231D01*
X177800000Y-94119748D01*
X177800000Y-93163112D01*
X177818907Y-93104921D01*
X177868407Y-93068957D01*
X177929593Y-93068957D01*
X177956530Y-93082543D01*
X177957691Y-93083372D01*
X177957694Y-93083375D01*
X177969213Y-93091599D01*
X177973774Y-93094856D01*
X177977051Y-93097300D01*
X178013685Y-93125813D01*
X178015874Y-93127517D01*
X178015878Y-93127518D01*
X178022354Y-93131022D01*
X178028934Y-93134240D01*
X178076102Y-93148282D01*
X178079964Y-93149520D01*
X178090311Y-93153072D01*
X178126512Y-93165500D01*
X178126514Y-93165500D01*
X178133736Y-93166705D01*
X178141039Y-93167615D01*
X178141046Y-93167617D01*
X178190176Y-93165585D01*
X178194267Y-93165500D01*
X179057334Y-93165500D01*
X179077671Y-93167611D01*
X179089235Y-93170039D01*
X179119624Y-93166257D01*
X179131847Y-93165500D01*
X179133034Y-93165500D01*
X179133040Y-93165500D01*
X179152530Y-93162246D01*
X179156508Y-93161667D01*
X179205316Y-93155596D01*
X179205321Y-93155593D01*
X179212397Y-93153489D01*
X179219377Y-93151092D01*
X179219381Y-93151092D01*
X179262611Y-93127697D01*
X179266272Y-93125813D01*
X179310419Y-93104244D01*
X179310422Y-93104240D01*
X179316427Y-93099955D01*
X179322254Y-93095419D01*
X179322258Y-93095418D01*
X179355552Y-93059249D01*
X179358370Y-93056312D01*
X179764851Y-92650013D01*
X179780691Y-92637155D01*
X179790669Y-92630637D01*
X179809422Y-92606540D01*
X179817563Y-92597327D01*
X179818324Y-92596567D01*
X179829869Y-92580404D01*
X179832227Y-92577241D01*
X179862517Y-92538326D01*
X179862518Y-92538320D01*
X179866005Y-92531877D01*
X179869201Y-92525342D01*
X179869205Y-92525338D01*
X179883277Y-92478106D01*
X179884495Y-92474304D01*
X179900500Y-92427688D01*
X179900500Y-92427684D01*
X179901697Y-92420516D01*
X179902604Y-92413240D01*
X179902607Y-92413233D01*
X179900584Y-92364045D01*
X179900500Y-92359977D01*
X179900500Y-91066618D01*
X179902607Y-91046302D01*
X179903635Y-91041398D01*
X179905043Y-91034685D01*
X179901260Y-91004336D01*
X179900500Y-90992092D01*
X179900500Y-90990959D01*
X179897249Y-90971478D01*
X179896659Y-90967430D01*
X179894974Y-90953916D01*
X179890573Y-90918607D01*
X179890572Y-90918605D01*
X179890572Y-90918603D01*
X179888479Y-90911575D01*
X179886091Y-90904616D01*
X179862687Y-90861371D01*
X179860813Y-90857730D01*
X179839199Y-90813517D01*
X179834948Y-90807562D01*
X179830419Y-90801743D01*
X179822813Y-90794741D01*
X179794221Y-90768420D01*
X179791294Y-90765612D01*
X179439495Y-90413813D01*
X179411718Y-90359296D01*
X179410499Y-90343809D01*
X179410499Y-90190103D01*
X179410498Y-90190092D01*
X179403972Y-90140513D01*
X179403972Y-90140511D01*
X179353225Y-90031686D01*
X179353224Y-90031685D01*
X179353224Y-90031684D01*
X179268316Y-89946776D01*
X179268314Y-89946775D01*
X179268313Y-89946774D01*
X179159489Y-89896029D01*
X179159488Y-89896028D01*
X179142958Y-89893852D01*
X179109901Y-89889500D01*
X179109899Y-89889500D01*
X178690103Y-89889500D01*
X178690092Y-89889501D01*
X178640513Y-89896027D01*
X178640511Y-89896027D01*
X178531686Y-89946774D01*
X178446774Y-90031686D01*
X178396029Y-90140510D01*
X178396028Y-90140511D01*
X178389500Y-90190100D01*
X178389500Y-90250500D01*
X178370593Y-90308691D01*
X178321093Y-90344655D01*
X178290500Y-90349500D01*
X177899000Y-90349500D01*
X177840809Y-90330593D01*
X177804845Y-90281093D01*
X177800000Y-90250500D01*
X177800000Y-90080253D01*
X177799998Y-90080241D01*
X177797211Y-90066231D01*
X177788367Y-90021769D01*
X177744052Y-89955448D01*
X177731071Y-89946774D01*
X177677733Y-89911134D01*
X177677731Y-89911133D01*
X177677728Y-89911132D01*
X177677727Y-89911132D01*
X177619258Y-89899501D01*
X177619248Y-89899500D01*
X177104752Y-89899500D01*
X177104751Y-89899500D01*
X177104741Y-89899501D01*
X177046272Y-89911132D01*
X177046267Y-89911134D01*
X176979751Y-89955579D01*
X176920863Y-89972187D01*
X176869749Y-89955579D01*
X176803232Y-89911134D01*
X176803233Y-89911134D01*
X176803231Y-89911133D01*
X176803228Y-89911132D01*
X176803227Y-89911132D01*
X176744758Y-89899501D01*
X176744748Y-89899500D01*
X176355252Y-89899500D01*
X176355247Y-89899500D01*
X176319313Y-89906648D01*
X176280686Y-89906648D01*
X176244752Y-89899500D01*
X176244749Y-89899500D01*
X175855253Y-89899500D01*
X175855252Y-89899500D01*
X175855242Y-89899501D01*
X175796773Y-89911132D01*
X175796767Y-89911134D01*
X175730002Y-89955746D01*
X175671113Y-89972355D01*
X175619998Y-89955746D01*
X175553233Y-89911134D01*
X175553231Y-89911133D01*
X175553228Y-89911132D01*
X175553227Y-89911132D01*
X175494758Y-89899501D01*
X175494748Y-89899500D01*
X173305250Y-89899500D01*
X173305249Y-89899500D01*
X173305239Y-89899501D01*
X173246770Y-89911132D01*
X173246764Y-89911134D01*
X173180449Y-89955445D01*
X173180443Y-89955451D01*
X173136132Y-90021766D01*
X173136130Y-90021772D01*
X173124499Y-90080241D01*
X173124498Y-90080253D01*
X173124498Y-91719746D01*
X173124499Y-91719758D01*
X173136130Y-91778227D01*
X173136132Y-91778233D01*
X173180443Y-91844548D01*
X173180446Y-91844552D01*
X173246767Y-91888867D01*
X173291229Y-91897711D01*
X173305239Y-91900498D01*
X173305244Y-91900498D01*
X173305250Y-91900500D01*
X175064810Y-91900500D01*
X175123001Y-91919407D01*
X175158965Y-91968907D01*
X175158965Y-92030093D01*
X175134814Y-92069504D01*
X174933814Y-92270504D01*
X174879297Y-92298281D01*
X174863810Y-92299500D01*
X173305250Y-92299500D01*
X173305249Y-92299500D01*
X173305239Y-92299501D01*
X173246770Y-92311132D01*
X173246764Y-92311134D01*
X173180449Y-92355445D01*
X173180443Y-92355451D01*
X173136132Y-92421766D01*
X173136130Y-92421772D01*
X173124499Y-92480241D01*
X173124498Y-92480253D01*
X173124498Y-92600500D01*
X173105591Y-92658691D01*
X173056091Y-92694655D01*
X173025498Y-92699500D01*
X172637361Y-92699500D01*
X172579170Y-92680593D01*
X172543917Y-92633198D01*
X172527793Y-92587118D01*
X172527791Y-92587116D01*
X172527791Y-92587114D01*
X172447154Y-92477855D01*
X172447152Y-92477853D01*
X172447150Y-92477850D01*
X172447146Y-92477847D01*
X172447144Y-92477845D01*
X172337883Y-92397207D01*
X172209703Y-92352355D01*
X172209694Y-92352353D01*
X172179274Y-92349500D01*
X172179266Y-92349500D01*
X171488489Y-92349500D01*
X171430298Y-92330593D01*
X171427684Y-92328626D01*
X171417310Y-92320552D01*
X171408119Y-92312437D01*
X171407307Y-92311625D01*
X171391225Y-92300143D01*
X171387961Y-92297710D01*
X171349126Y-92267483D01*
X171349124Y-92267482D01*
X171342677Y-92263993D01*
X171336070Y-92260763D01*
X171336066Y-92260760D01*
X171288909Y-92246720D01*
X171285015Y-92245472D01*
X171238487Y-92229499D01*
X171231260Y-92228293D01*
X171223955Y-92227383D01*
X171223954Y-92227383D01*
X171223952Y-92227383D01*
X171174824Y-92229415D01*
X171170733Y-92229500D01*
X170382048Y-92229500D01*
X170323857Y-92210593D01*
X170312046Y-92200505D01*
X170281545Y-92170005D01*
X170253766Y-92115489D01*
X170263337Y-92055056D01*
X170281545Y-92029995D01*
X170312046Y-91999495D01*
X170366563Y-91971719D01*
X170382048Y-91970500D01*
X171133381Y-91970500D01*
X171153696Y-91972607D01*
X171155606Y-91973007D01*
X171165315Y-91975043D01*
X171195662Y-91971259D01*
X171207907Y-91970500D01*
X171209043Y-91970500D01*
X171228521Y-91967249D01*
X171232552Y-91966661D01*
X171281393Y-91960573D01*
X171281396Y-91960571D01*
X171288429Y-91958477D01*
X171295375Y-91956092D01*
X171295381Y-91956092D01*
X171338655Y-91932671D01*
X171342279Y-91930807D01*
X171386482Y-91909199D01*
X171386482Y-91909198D01*
X171386484Y-91909198D01*
X171386485Y-91909196D01*
X171392470Y-91904923D01*
X171398255Y-91900420D01*
X171398255Y-91900419D01*
X171398258Y-91900418D01*
X171414797Y-91882450D01*
X171468118Y-91852443D01*
X171487635Y-91850500D01*
X172179273Y-91850500D01*
X172179273Y-91850499D01*
X172209699Y-91847646D01*
X172337882Y-91802793D01*
X172447150Y-91722150D01*
X172527793Y-91612882D01*
X172572646Y-91484699D01*
X172575499Y-91454273D01*
X172575500Y-91454273D01*
X172575500Y-90845727D01*
X172575499Y-90845725D01*
X172572875Y-90817745D01*
X172572646Y-90815301D01*
X172527793Y-90687118D01*
X172527792Y-90687116D01*
X172519845Y-90676348D01*
X172500503Y-90618301D01*
X172500500Y-90617560D01*
X172500500Y-86349589D01*
X172519407Y-86291398D01*
X172529490Y-86279591D01*
X177779078Y-81030002D01*
X195739302Y-81030002D01*
X195759987Y-81173874D01*
X195759989Y-81173883D01*
X195820372Y-81306101D01*
X195820373Y-81306102D01*
X195820374Y-81306104D01*
X195915564Y-81415960D01*
X195915565Y-81415961D01*
X196037843Y-81494544D01*
X196037848Y-81494547D01*
X196177320Y-81535500D01*
X196177321Y-81535500D01*
X196322679Y-81535500D01*
X196322680Y-81535500D01*
X196462152Y-81494547D01*
X196584436Y-81415960D01*
X196679626Y-81306104D01*
X196740011Y-81173880D01*
X196760698Y-81030000D01*
X196740011Y-80886120D01*
X196740010Y-80886119D01*
X196740010Y-80886116D01*
X196679627Y-80753898D01*
X196679626Y-80753897D01*
X196679626Y-80753896D01*
X196584436Y-80644040D01*
X196584435Y-80644039D01*
X196584434Y-80644038D01*
X196462156Y-80565455D01*
X196462153Y-80565454D01*
X196462152Y-80565453D01*
X196392416Y-80544976D01*
X196322681Y-80524500D01*
X196322680Y-80524500D01*
X196177320Y-80524500D01*
X196177318Y-80524500D01*
X196037848Y-80565453D01*
X196037843Y-80565455D01*
X195915565Y-80644038D01*
X195820372Y-80753898D01*
X195759989Y-80886116D01*
X195759987Y-80886125D01*
X195739302Y-81029997D01*
X195739302Y-81030002D01*
X177779078Y-81030002D01*
X179731588Y-79077492D01*
X179786103Y-79049717D01*
X179846535Y-79059288D01*
X179889800Y-79102553D01*
X179895742Y-79116900D01*
X179931714Y-79227611D01*
X179931715Y-79227612D01*
X179931716Y-79227616D01*
X180018477Y-79377888D01*
X180018477Y-79377889D01*
X180084025Y-79450687D01*
X180134590Y-79506845D01*
X180274976Y-79608842D01*
X180274980Y-79608844D01*
X180274982Y-79608845D01*
X180325561Y-79631364D01*
X180433501Y-79679422D01*
X180603236Y-79715500D01*
X180603239Y-79715500D01*
X180776761Y-79715500D01*
X180776764Y-79715500D01*
X180946499Y-79679422D01*
X181105024Y-79608842D01*
X181245410Y-79506845D01*
X181361522Y-79377889D01*
X181448286Y-79227611D01*
X181501908Y-79062576D01*
X181520047Y-78890000D01*
X181501908Y-78717424D01*
X181448286Y-78552389D01*
X181406232Y-78479551D01*
X181361522Y-78402111D01*
X181361522Y-78402110D01*
X181295974Y-78329312D01*
X181245410Y-78273155D01*
X181105024Y-78171158D01*
X181105020Y-78171156D01*
X181105017Y-78171154D01*
X180946501Y-78100579D01*
X180946499Y-78100578D01*
X180946496Y-78100577D01*
X180946495Y-78100577D01*
X180914209Y-78093714D01*
X180776764Y-78064500D01*
X180776761Y-78064500D01*
X180719388Y-78064500D01*
X180661197Y-78045593D01*
X180649384Y-78035504D01*
X179769523Y-77155643D01*
X179741746Y-77101126D01*
X179750637Y-77044986D01*
X179750343Y-77044884D01*
X179750910Y-77043263D01*
X179751317Y-77040694D01*
X179752007Y-77039365D01*
X179752784Y-77037893D01*
X179752793Y-77037882D01*
X179797646Y-76909699D01*
X179800499Y-76879273D01*
X179800500Y-76879273D01*
X179800500Y-76400939D01*
X182835630Y-76400939D01*
X182866443Y-76602067D01*
X182866444Y-76602071D01*
X182937114Y-76792887D01*
X182937115Y-76792888D01*
X183044745Y-76965567D01*
X183044747Y-76965569D01*
X183044748Y-76965571D01*
X183184941Y-77113053D01*
X183184943Y-77113054D01*
X183184946Y-77113057D01*
X183274533Y-77175411D01*
X183351951Y-77229295D01*
X183538940Y-77309539D01*
X183538942Y-77309540D01*
X183738259Y-77350500D01*
X183738262Y-77350500D01*
X183890744Y-77350500D01*
X183916381Y-77347892D01*
X184042438Y-77335074D01*
X184236588Y-77274159D01*
X184414502Y-77175409D01*
X184568895Y-77042866D01*
X184693448Y-76881958D01*
X184694769Y-76879266D01*
X184695645Y-76877478D01*
X184783060Y-76699271D01*
X184834063Y-76502285D01*
X184841786Y-76350000D01*
X189744506Y-76350000D01*
X189764468Y-76718197D01*
X189824126Y-77082087D01*
X189922768Y-77437365D01*
X189922772Y-77437376D01*
X190059255Y-77779927D01*
X190059257Y-77779930D01*
X190229253Y-78100577D01*
X190231981Y-78105721D01*
X190276349Y-78171158D01*
X190438910Y-78410917D01*
X190438914Y-78410922D01*
X190438915Y-78410923D01*
X190677622Y-78691951D01*
X190677632Y-78691961D01*
X190945326Y-78945535D01*
X190945330Y-78945538D01*
X191238881Y-79168690D01*
X191554838Y-79358795D01*
X191889497Y-79513625D01*
X192238934Y-79631364D01*
X192238939Y-79631365D01*
X192238942Y-79631366D01*
X192599047Y-79710631D01*
X192599048Y-79710631D01*
X192599052Y-79710632D01*
X192965630Y-79750500D01*
X193334370Y-79750500D01*
X193700948Y-79710632D01*
X194061057Y-79631366D01*
X194061058Y-79631366D01*
X194061060Y-79631365D01*
X194061066Y-79631364D01*
X194410503Y-79513625D01*
X194745162Y-79358795D01*
X195061119Y-79168690D01*
X195354670Y-78945538D01*
X195622373Y-78691956D01*
X195861090Y-78410917D01*
X196068022Y-78105716D01*
X196240743Y-77779930D01*
X196377227Y-77437379D01*
X196475875Y-77082081D01*
X196535531Y-76718199D01*
X196555494Y-76350000D01*
X196535531Y-75981801D01*
X196475875Y-75617919D01*
X196422311Y-75425000D01*
X196377231Y-75262634D01*
X196377229Y-75262629D01*
X196377227Y-75262621D01*
X196240743Y-74920070D01*
X196068022Y-74594284D01*
X195861090Y-74289083D01*
X195841399Y-74265901D01*
X195622377Y-74008048D01*
X195622367Y-74008038D01*
X195354673Y-73754464D01*
X195061123Y-73531313D01*
X195061122Y-73531312D01*
X195061119Y-73531310D01*
X194745162Y-73341205D01*
X194630226Y-73288029D01*
X194410508Y-73186377D01*
X194410505Y-73186376D01*
X194410503Y-73186375D01*
X194061066Y-73068636D01*
X194061065Y-73068635D01*
X194061057Y-73068633D01*
X193700952Y-72989368D01*
X193700953Y-72989368D01*
X193334370Y-72949500D01*
X192965630Y-72949500D01*
X192599046Y-72989368D01*
X192238943Y-73068633D01*
X192238941Y-73068633D01*
X191889491Y-73186377D01*
X191554846Y-73341201D01*
X191554840Y-73341204D01*
X191238881Y-73531310D01*
X191238876Y-73531313D01*
X190945326Y-73754464D01*
X190677632Y-74008038D01*
X190677622Y-74008048D01*
X190438915Y-74289076D01*
X190438908Y-74289086D01*
X190231981Y-74594278D01*
X190059255Y-74920072D01*
X189922772Y-75262623D01*
X189922768Y-75262634D01*
X189824126Y-75617912D01*
X189764468Y-75981802D01*
X189744506Y-76350000D01*
X184841786Y-76350000D01*
X184844369Y-76299064D01*
X184813556Y-76097929D01*
X184742886Y-75907113D01*
X184635252Y-75734429D01*
X184495059Y-75586947D01*
X184495057Y-75586945D01*
X184495053Y-75586942D01*
X184328054Y-75470708D01*
X184328051Y-75470706D01*
X184328049Y-75470705D01*
X184141058Y-75390460D01*
X184141060Y-75390460D01*
X184061331Y-75374076D01*
X183941741Y-75349500D01*
X183789258Y-75349500D01*
X183789256Y-75349500D01*
X183637561Y-75364926D01*
X183443410Y-75425841D01*
X183443409Y-75425842D01*
X183265501Y-75524588D01*
X183265498Y-75524590D01*
X183111109Y-75657129D01*
X182986549Y-75818045D01*
X182906224Y-75981802D01*
X182896940Y-76000729D01*
X182871773Y-76097932D01*
X182845936Y-76197719D01*
X182835631Y-76400936D01*
X182835630Y-76400939D01*
X179800500Y-76400939D01*
X179800500Y-75820727D01*
X179800499Y-75820725D01*
X179800248Y-75818045D01*
X179797646Y-75790301D01*
X179752793Y-75662118D01*
X179672413Y-75553207D01*
X179672154Y-75552855D01*
X179672152Y-75552853D01*
X179672150Y-75552850D01*
X179672146Y-75552847D01*
X179672144Y-75552845D01*
X179562883Y-75472207D01*
X179434703Y-75427355D01*
X179434694Y-75427353D01*
X179404274Y-75424500D01*
X179404266Y-75424500D01*
X178795734Y-75424500D01*
X178795725Y-75424500D01*
X178765305Y-75427353D01*
X178765296Y-75427355D01*
X178637116Y-75472207D01*
X178527855Y-75552845D01*
X178527845Y-75552855D01*
X178447207Y-75662116D01*
X178402355Y-75790296D01*
X178402353Y-75790305D01*
X178399500Y-75820725D01*
X178399500Y-76879274D01*
X178402353Y-76909694D01*
X178402355Y-76909703D01*
X178447206Y-77037881D01*
X178449282Y-77040694D01*
X178505155Y-77116399D01*
X178524497Y-77174445D01*
X178524500Y-77175186D01*
X178524500Y-77255797D01*
X178523653Y-77268718D01*
X178519535Y-77299999D01*
X178519535Y-77300000D01*
X178524076Y-77334494D01*
X178524077Y-77334507D01*
X178539312Y-77450231D01*
X178539314Y-77450237D01*
X178597301Y-77590232D01*
X178597302Y-77590233D01*
X178666390Y-77680270D01*
X178689548Y-77710450D01*
X178714575Y-77729654D01*
X178724312Y-77738192D01*
X179331914Y-78345794D01*
X179359691Y-78400311D01*
X179350120Y-78460743D01*
X179331914Y-78485802D01*
X171935118Y-85882598D01*
X171919265Y-85895471D01*
X171909335Y-85901959D01*
X171909332Y-85901961D01*
X171890548Y-85926095D01*
X171882437Y-85935280D01*
X171881627Y-85936089D01*
X171881619Y-85936098D01*
X171870133Y-85952186D01*
X171867690Y-85955463D01*
X171837482Y-85994274D01*
X171833981Y-86000743D01*
X171830759Y-86007334D01*
X171816718Y-86054496D01*
X171815470Y-86058390D01*
X171799500Y-86104910D01*
X171798293Y-86112143D01*
X171797383Y-86119447D01*
X171799415Y-86168575D01*
X171799500Y-86172666D01*
X171799500Y-90350500D01*
X171780593Y-90408691D01*
X171731093Y-90444655D01*
X171700500Y-90449500D01*
X171120725Y-90449500D01*
X171090305Y-90452353D01*
X171090296Y-90452355D01*
X170962116Y-90497207D01*
X170852855Y-90577845D01*
X170852845Y-90577855D01*
X170772207Y-90687116D01*
X170727355Y-90815296D01*
X170727353Y-90815305D01*
X170724500Y-90845725D01*
X170724500Y-91170500D01*
X170705593Y-91228691D01*
X170656093Y-91264655D01*
X170625500Y-91269500D01*
X170382048Y-91269500D01*
X170323857Y-91250593D01*
X170312045Y-91240504D01*
X170268316Y-91196776D01*
X170268313Y-91196774D01*
X170159489Y-91146029D01*
X170159488Y-91146028D01*
X170142958Y-91143852D01*
X170109901Y-91139500D01*
X170109899Y-91139500D01*
X169690103Y-91139500D01*
X169690092Y-91139501D01*
X169640513Y-91146027D01*
X169640511Y-91146027D01*
X169531686Y-91196774D01*
X169446774Y-91281686D01*
X169396029Y-91390510D01*
X169396028Y-91390511D01*
X169389500Y-91440100D01*
X169389500Y-91799895D01*
X169389501Y-91799907D01*
X169396027Y-91849486D01*
X169396027Y-91849488D01*
X169446774Y-91958313D01*
X169446775Y-91958314D01*
X169446776Y-91958316D01*
X169518458Y-92029998D01*
X169546234Y-92084513D01*
X169536663Y-92144945D01*
X169518459Y-92170000D01*
X169477867Y-92210593D01*
X169446774Y-92241686D01*
X169396029Y-92350510D01*
X169396028Y-92350511D01*
X169389500Y-92400100D01*
X169389500Y-92759895D01*
X169114430Y-92759895D01*
X169060451Y-92689549D01*
X169039230Y-92673265D01*
X169004576Y-92622841D01*
X169000500Y-92594725D01*
X169000500Y-86036189D01*
X169019407Y-85977998D01*
X169029490Y-85966191D01*
X175500559Y-79495121D01*
X175555074Y-79467346D01*
X175583477Y-79466974D01*
X175610000Y-79470466D01*
X175760236Y-79450687D01*
X175900233Y-79392698D01*
X176020451Y-79300451D01*
X176112698Y-79180233D01*
X176170687Y-79040236D01*
X176190466Y-78890000D01*
X176170687Y-78739764D01*
X176112698Y-78599767D01*
X176020451Y-78479549D01*
X175900233Y-78387302D01*
X175760236Y-78329313D01*
X175760234Y-78329312D01*
X175760232Y-78329312D01*
X175610001Y-78309534D01*
X175609999Y-78309534D01*
X175459767Y-78329312D01*
X175459761Y-78329314D01*
X175319768Y-78387301D01*
X175199551Y-78479547D01*
X175199547Y-78479551D01*
X175107301Y-78599768D01*
X175049314Y-78739761D01*
X175049312Y-78739767D01*
X175029534Y-78889999D01*
X175029534Y-78890002D01*
X175033024Y-78916517D01*
X175021873Y-78976678D01*
X175004875Y-78999441D01*
X168435118Y-85569198D01*
X168419265Y-85582071D01*
X168409335Y-85588559D01*
X168409332Y-85588561D01*
X168390548Y-85612695D01*
X168382437Y-85621880D01*
X168381627Y-85622689D01*
X168381619Y-85622698D01*
X168370133Y-85638786D01*
X168367690Y-85642063D01*
X168337482Y-85680874D01*
X168333981Y-85687343D01*
X168330759Y-85693934D01*
X168316718Y-85741096D01*
X168315470Y-85744990D01*
X168299500Y-85791510D01*
X168298293Y-85798743D01*
X168297383Y-85806047D01*
X168299415Y-85855175D01*
X168299500Y-85859266D01*
X168299500Y-92594725D01*
X168280593Y-92652916D01*
X168260769Y-92673266D01*
X168239551Y-92689547D01*
X168239547Y-92689551D01*
X168147301Y-92809768D01*
X168089314Y-92949761D01*
X168089312Y-92949767D01*
X168069534Y-93099999D01*
X168069534Y-93100000D01*
X168089312Y-93250232D01*
X168089314Y-93250238D01*
X168106310Y-93291270D01*
X168111111Y-93352267D01*
X168079141Y-93404436D01*
X168022613Y-93427851D01*
X167963119Y-93413567D01*
X167944842Y-93399160D01*
X155989496Y-81443814D01*
X155961719Y-81389297D01*
X155960500Y-81373810D01*
X155960500Y-79395274D01*
X155979407Y-79337083D01*
X155999233Y-79316732D01*
X156020451Y-79300451D01*
X156112698Y-79180233D01*
X156170687Y-79040236D01*
X156190466Y-78890000D01*
X156170687Y-78739764D01*
X156112698Y-78599767D01*
X156020451Y-78479549D01*
X155900233Y-78387302D01*
X155760236Y-78329313D01*
X155760234Y-78329312D01*
X155760232Y-78329312D01*
X155610001Y-78309534D01*
X155609999Y-78309534D01*
X155459767Y-78329312D01*
X155459761Y-78329314D01*
X155319768Y-78387301D01*
X155199551Y-78479547D01*
X155199547Y-78479551D01*
X155107301Y-78599768D01*
X155049314Y-78739761D01*
X155049312Y-78739767D01*
X155035176Y-78847145D01*
X155029534Y-78890000D01*
X141520047Y-78890000D01*
X141501908Y-78717424D01*
X141448286Y-78552389D01*
X141406232Y-78479551D01*
X141361522Y-78402111D01*
X141361522Y-78402110D01*
X141295974Y-78329312D01*
X141245410Y-78273155D01*
X141105024Y-78171158D01*
X141105020Y-78171156D01*
X141105017Y-78171154D01*
X140946501Y-78100579D01*
X140946499Y-78100578D01*
X140946496Y-78100577D01*
X140946495Y-78100577D01*
X140914209Y-78093714D01*
X140776764Y-78064500D01*
X140776761Y-78064500D01*
X140719388Y-78064500D01*
X140661197Y-78045593D01*
X140649384Y-78035504D01*
X139769523Y-77155643D01*
X139741746Y-77101126D01*
X139750637Y-77044986D01*
X139750343Y-77044884D01*
X139750910Y-77043263D01*
X139751317Y-77040694D01*
X139752007Y-77039365D01*
X139752784Y-77037893D01*
X139752793Y-77037882D01*
X139797646Y-76909699D01*
X139800499Y-76879273D01*
X139800500Y-76879273D01*
X139800500Y-76400939D01*
X142835630Y-76400939D01*
X142866443Y-76602067D01*
X142866444Y-76602071D01*
X142937114Y-76792887D01*
X142937115Y-76792888D01*
X143044745Y-76965567D01*
X143044747Y-76965569D01*
X143044748Y-76965571D01*
X143184941Y-77113053D01*
X143184943Y-77113054D01*
X143184946Y-77113057D01*
X143274533Y-77175411D01*
X143351951Y-77229295D01*
X143538940Y-77309539D01*
X143538942Y-77309540D01*
X143738259Y-77350500D01*
X143738262Y-77350500D01*
X143890744Y-77350500D01*
X143916381Y-77347892D01*
X144042438Y-77335074D01*
X144236588Y-77274159D01*
X144414502Y-77175409D01*
X144568895Y-77042866D01*
X144693448Y-76881958D01*
X144694769Y-76879266D01*
X144695645Y-76877478D01*
X144783060Y-76699271D01*
X144834063Y-76502285D01*
X144839203Y-76400939D01*
X151455630Y-76400939D01*
X151486443Y-76602067D01*
X151486444Y-76602071D01*
X151557114Y-76792887D01*
X151557115Y-76792888D01*
X151664745Y-76965567D01*
X151664747Y-76965569D01*
X151664748Y-76965571D01*
X151804941Y-77113053D01*
X151804943Y-77113054D01*
X151804946Y-77113057D01*
X151894533Y-77175411D01*
X151971951Y-77229295D01*
X152158940Y-77309539D01*
X152158942Y-77309540D01*
X152358259Y-77350500D01*
X152358262Y-77350500D01*
X152510744Y-77350500D01*
X152536381Y-77347892D01*
X152662438Y-77335074D01*
X152856588Y-77274159D01*
X153034502Y-77175409D01*
X153188895Y-77042866D01*
X153313448Y-76881958D01*
X153314769Y-76879266D01*
X153314800Y-76879203D01*
X156500001Y-76879203D01*
X156502850Y-76909600D01*
X156502850Y-76909602D01*
X156547654Y-77037647D01*
X156628207Y-77146790D01*
X156628209Y-77146792D01*
X156737352Y-77227345D01*
X156865398Y-77272149D01*
X156895789Y-77274999D01*
X157099998Y-77274999D01*
X157100000Y-77274998D01*
X157300000Y-77274998D01*
X157300001Y-77274999D01*
X157504203Y-77274999D01*
X157534600Y-77272149D01*
X157534602Y-77272149D01*
X157662647Y-77227345D01*
X157771790Y-77146792D01*
X157771792Y-77146790D01*
X157852345Y-77037647D01*
X157897149Y-76909601D01*
X157899993Y-76879274D01*
X158399500Y-76879274D01*
X158402353Y-76909694D01*
X158402355Y-76909703D01*
X158447206Y-77037881D01*
X158449282Y-77040694D01*
X158505155Y-77116399D01*
X158524497Y-77174445D01*
X158524500Y-77175186D01*
X158524500Y-77255797D01*
X158523653Y-77268718D01*
X158519535Y-77299999D01*
X158519535Y-77300000D01*
X158524076Y-77334494D01*
X158524077Y-77334507D01*
X158539312Y-77450231D01*
X158539314Y-77450237D01*
X158597301Y-77590232D01*
X158597302Y-77590233D01*
X158666390Y-77680270D01*
X158689548Y-77710450D01*
X158714575Y-77729654D01*
X158724312Y-77738192D01*
X159833265Y-78847145D01*
X159861042Y-78901662D01*
X159861718Y-78906792D01*
X159878092Y-79062576D01*
X159931714Y-79227611D01*
X159931715Y-79227612D01*
X159931716Y-79227616D01*
X160018477Y-79377888D01*
X160018477Y-79377889D01*
X160084025Y-79450687D01*
X160134590Y-79506845D01*
X160274976Y-79608842D01*
X160274980Y-79608844D01*
X160274982Y-79608845D01*
X160325561Y-79631364D01*
X160433501Y-79679422D01*
X160603236Y-79715500D01*
X160603239Y-79715500D01*
X160776761Y-79715500D01*
X160776764Y-79715500D01*
X160946499Y-79679422D01*
X161105024Y-79608842D01*
X161245410Y-79506845D01*
X161361522Y-79377889D01*
X161448286Y-79227611D01*
X161501908Y-79062576D01*
X161520047Y-78890000D01*
X161501908Y-78717424D01*
X161448286Y-78552389D01*
X161406232Y-78479551D01*
X161361522Y-78402111D01*
X161361522Y-78402110D01*
X161295974Y-78329312D01*
X161245410Y-78273155D01*
X161105024Y-78171158D01*
X161105020Y-78171156D01*
X161105017Y-78171154D01*
X160946501Y-78100579D01*
X160946499Y-78100578D01*
X160946496Y-78100577D01*
X160946495Y-78100577D01*
X160914209Y-78093714D01*
X160776764Y-78064500D01*
X160776761Y-78064500D01*
X160719388Y-78064500D01*
X160661197Y-78045593D01*
X160649384Y-78035504D01*
X159769523Y-77155643D01*
X159741746Y-77101126D01*
X159750637Y-77044986D01*
X159750343Y-77044884D01*
X159750910Y-77043263D01*
X159751317Y-77040694D01*
X159752007Y-77039365D01*
X159752784Y-77037893D01*
X159752793Y-77037882D01*
X159797646Y-76909699D01*
X159800499Y-76879273D01*
X159800500Y-76879273D01*
X159800500Y-76400939D01*
X162835630Y-76400939D01*
X162866443Y-76602067D01*
X162866444Y-76602071D01*
X162937114Y-76792887D01*
X162937115Y-76792888D01*
X163044745Y-76965567D01*
X163044747Y-76965569D01*
X163044748Y-76965571D01*
X163184941Y-77113053D01*
X163184943Y-77113054D01*
X163184946Y-77113057D01*
X163274533Y-77175411D01*
X163351951Y-77229295D01*
X163538940Y-77309539D01*
X163538942Y-77309540D01*
X163738259Y-77350500D01*
X163738262Y-77350500D01*
X163890744Y-77350500D01*
X163916381Y-77347892D01*
X164042438Y-77335074D01*
X164236588Y-77274159D01*
X164414502Y-77175409D01*
X164568895Y-77042866D01*
X164693448Y-76881958D01*
X164694769Y-76879266D01*
X164695645Y-76877478D01*
X164783060Y-76699271D01*
X164834063Y-76502285D01*
X164839203Y-76400939D01*
X171455630Y-76400939D01*
X171486443Y-76602067D01*
X171486444Y-76602071D01*
X171557114Y-76792887D01*
X171557115Y-76792888D01*
X171664745Y-76965567D01*
X171664747Y-76965569D01*
X171664748Y-76965571D01*
X171804941Y-77113053D01*
X171804943Y-77113054D01*
X171804946Y-77113057D01*
X171894533Y-77175411D01*
X171971951Y-77229295D01*
X172158940Y-77309539D01*
X172158942Y-77309540D01*
X172358259Y-77350500D01*
X172358262Y-77350500D01*
X172510744Y-77350500D01*
X172536381Y-77347892D01*
X172662438Y-77335074D01*
X172856588Y-77274159D01*
X173034502Y-77175409D01*
X173188895Y-77042866D01*
X173313448Y-76881958D01*
X173314769Y-76879266D01*
X173314800Y-76879203D01*
X176500001Y-76879203D01*
X176502850Y-76909600D01*
X176502850Y-76909602D01*
X176547654Y-77037647D01*
X176628207Y-77146790D01*
X176628209Y-77146792D01*
X176737352Y-77227345D01*
X176865398Y-77272149D01*
X176895789Y-77274999D01*
X177099998Y-77274999D01*
X177100000Y-77274998D01*
X177300000Y-77274998D01*
X177300001Y-77274999D01*
X177504203Y-77274999D01*
X177534600Y-77272149D01*
X177534602Y-77272149D01*
X177662647Y-77227345D01*
X177771790Y-77146792D01*
X177771792Y-77146790D01*
X177852345Y-77037647D01*
X177897149Y-76909601D01*
X177899999Y-76879211D01*
X177900000Y-76879210D01*
X177900000Y-76450001D01*
X177899999Y-76450000D01*
X177300001Y-76450000D01*
X177300000Y-76450001D01*
X177300000Y-77274998D01*
X177100000Y-77274998D01*
X177100000Y-76450001D01*
X177099999Y-76450000D01*
X176500002Y-76450000D01*
X176500001Y-76450001D01*
X176500001Y-76879203D01*
X173314800Y-76879203D01*
X173315645Y-76877478D01*
X173403060Y-76699271D01*
X173454063Y-76502285D01*
X173464369Y-76299064D01*
X173456852Y-76249999D01*
X176500000Y-76249999D01*
X176500001Y-76250000D01*
X177099999Y-76250000D01*
X177100000Y-76249999D01*
X177300000Y-76249999D01*
X177300001Y-76250000D01*
X177899998Y-76250000D01*
X177899999Y-76249999D01*
X177899999Y-75820796D01*
X177897149Y-75790399D01*
X177897149Y-75790397D01*
X177852345Y-75662352D01*
X177771792Y-75553209D01*
X177771790Y-75553207D01*
X177662647Y-75472654D01*
X177534601Y-75427850D01*
X177504211Y-75425000D01*
X177300001Y-75425000D01*
X177300000Y-75425001D01*
X177300000Y-76249999D01*
X177100000Y-76249999D01*
X177100000Y-75425001D01*
X177099999Y-75425000D01*
X176895796Y-75425000D01*
X176865399Y-75427850D01*
X176865397Y-75427850D01*
X176737352Y-75472654D01*
X176628209Y-75553207D01*
X176628207Y-75553209D01*
X176547654Y-75662352D01*
X176502850Y-75790398D01*
X176500000Y-75820788D01*
X176500000Y-76249999D01*
X173456852Y-76249999D01*
X173433556Y-76097929D01*
X173362886Y-75907113D01*
X173255252Y-75734429D01*
X173115059Y-75586947D01*
X173115057Y-75586945D01*
X173115053Y-75586942D01*
X172948054Y-75470708D01*
X172948051Y-75470706D01*
X172948049Y-75470705D01*
X172761058Y-75390460D01*
X172761060Y-75390460D01*
X172681331Y-75374076D01*
X172561741Y-75349500D01*
X172409258Y-75349500D01*
X172409256Y-75349500D01*
X172257561Y-75364926D01*
X172063410Y-75425841D01*
X172063409Y-75425842D01*
X171885501Y-75524588D01*
X171885498Y-75524590D01*
X171731109Y-75657129D01*
X171606549Y-75818045D01*
X171526224Y-75981802D01*
X171516940Y-76000729D01*
X171491773Y-76097932D01*
X171465936Y-76197719D01*
X171455631Y-76400936D01*
X171455630Y-76400939D01*
X164839203Y-76400939D01*
X164844369Y-76299064D01*
X164813556Y-76097929D01*
X164742886Y-75907113D01*
X164635252Y-75734429D01*
X164495059Y-75586947D01*
X164495057Y-75586945D01*
X164495053Y-75586942D01*
X164328054Y-75470708D01*
X164328051Y-75470706D01*
X164328049Y-75470705D01*
X164141058Y-75390460D01*
X164141060Y-75390460D01*
X164061331Y-75374076D01*
X163941741Y-75349500D01*
X163789258Y-75349500D01*
X163789256Y-75349500D01*
X163637561Y-75364926D01*
X163443410Y-75425841D01*
X163443409Y-75425842D01*
X163265501Y-75524588D01*
X163265498Y-75524590D01*
X163111109Y-75657129D01*
X162986549Y-75818045D01*
X162906224Y-75981802D01*
X162896940Y-76000729D01*
X162871773Y-76097932D01*
X162845936Y-76197719D01*
X162835631Y-76400936D01*
X162835630Y-76400939D01*
X159800500Y-76400939D01*
X159800500Y-75820727D01*
X159800499Y-75820725D01*
X159800248Y-75818045D01*
X159797646Y-75790301D01*
X159752793Y-75662118D01*
X159672413Y-75553207D01*
X159672154Y-75552855D01*
X159672152Y-75552853D01*
X159672150Y-75552850D01*
X159672146Y-75552847D01*
X159672144Y-75552845D01*
X159562883Y-75472207D01*
X159434703Y-75427355D01*
X159434694Y-75427353D01*
X159404274Y-75424500D01*
X159404266Y-75424500D01*
X158795734Y-75424500D01*
X158795725Y-75424500D01*
X158765305Y-75427353D01*
X158765296Y-75427355D01*
X158637116Y-75472207D01*
X158527855Y-75552845D01*
X158527845Y-75552855D01*
X158447207Y-75662116D01*
X158402355Y-75790296D01*
X158402353Y-75790305D01*
X158399500Y-75820725D01*
X158399500Y-76879274D01*
X157899993Y-76879274D01*
X157899999Y-76879211D01*
X157900000Y-76879210D01*
X157900000Y-76450001D01*
X157899999Y-76450000D01*
X157300001Y-76450000D01*
X157300000Y-76450001D01*
X157300000Y-77274998D01*
X157100000Y-77274998D01*
X157100000Y-76450001D01*
X157099999Y-76450000D01*
X156500002Y-76450000D01*
X156500001Y-76450001D01*
X156500001Y-76879203D01*
X153314800Y-76879203D01*
X153315645Y-76877478D01*
X153403060Y-76699271D01*
X153454063Y-76502285D01*
X153464369Y-76299064D01*
X153456852Y-76249999D01*
X156500000Y-76249999D01*
X156500001Y-76250000D01*
X157099999Y-76250000D01*
X157100000Y-76249999D01*
X157300000Y-76249999D01*
X157300001Y-76250000D01*
X157899998Y-76250000D01*
X157899999Y-76249999D01*
X157899999Y-75820796D01*
X157897149Y-75790399D01*
X157897149Y-75790397D01*
X157852345Y-75662352D01*
X157771792Y-75553209D01*
X157771790Y-75553207D01*
X157662647Y-75472654D01*
X157534601Y-75427850D01*
X157504211Y-75425000D01*
X157300001Y-75425000D01*
X157300000Y-75425001D01*
X157300000Y-76249999D01*
X157100000Y-76249999D01*
X157100000Y-75425001D01*
X157099999Y-75425000D01*
X156895796Y-75425000D01*
X156865399Y-75427850D01*
X156865397Y-75427850D01*
X156737352Y-75472654D01*
X156628209Y-75553207D01*
X156628207Y-75553209D01*
X156547654Y-75662352D01*
X156502850Y-75790398D01*
X156500000Y-75820788D01*
X156500000Y-76249999D01*
X153456852Y-76249999D01*
X153433556Y-76097929D01*
X153362886Y-75907113D01*
X153255252Y-75734429D01*
X153115059Y-75586947D01*
X153115057Y-75586945D01*
X153115053Y-75586942D01*
X152948054Y-75470708D01*
X152948051Y-75470706D01*
X152948049Y-75470705D01*
X152761058Y-75390460D01*
X152761060Y-75390460D01*
X152681331Y-75374076D01*
X152561741Y-75349500D01*
X152409258Y-75349500D01*
X152409256Y-75349500D01*
X152257561Y-75364926D01*
X152063410Y-75425841D01*
X152063409Y-75425842D01*
X151885501Y-75524588D01*
X151885498Y-75524590D01*
X151731109Y-75657129D01*
X151606549Y-75818045D01*
X151526224Y-75981802D01*
X151516940Y-76000729D01*
X151491773Y-76097932D01*
X151465936Y-76197719D01*
X151455631Y-76400936D01*
X151455630Y-76400939D01*
X144839203Y-76400939D01*
X144844369Y-76299064D01*
X144813556Y-76097929D01*
X144742886Y-75907113D01*
X144635252Y-75734429D01*
X144495059Y-75586947D01*
X144495057Y-75586945D01*
X144495053Y-75586942D01*
X144328054Y-75470708D01*
X144328051Y-75470706D01*
X144328049Y-75470705D01*
X144141058Y-75390460D01*
X144141060Y-75390460D01*
X144061331Y-75374076D01*
X143941741Y-75349500D01*
X143789258Y-75349500D01*
X143789256Y-75349500D01*
X143637561Y-75364926D01*
X143443410Y-75425841D01*
X143443409Y-75425842D01*
X143265501Y-75524588D01*
X143265498Y-75524590D01*
X143111109Y-75657129D01*
X142986549Y-75818045D01*
X142906224Y-75981802D01*
X142896940Y-76000729D01*
X142871773Y-76097932D01*
X142845936Y-76197719D01*
X142835631Y-76400936D01*
X142835630Y-76400939D01*
X139800500Y-76400939D01*
X139800500Y-75820727D01*
X139800499Y-75820725D01*
X139800248Y-75818045D01*
X139797646Y-75790301D01*
X139752793Y-75662118D01*
X139672413Y-75553207D01*
X139672154Y-75552855D01*
X139672152Y-75552853D01*
X139672150Y-75552850D01*
X139672146Y-75552847D01*
X139672144Y-75552845D01*
X139562883Y-75472207D01*
X139434703Y-75427355D01*
X139434694Y-75427353D01*
X139404274Y-75424500D01*
X139404266Y-75424500D01*
X138795734Y-75424500D01*
X138795725Y-75424500D01*
X138765305Y-75427353D01*
X138765296Y-75427355D01*
X138637116Y-75472207D01*
X138527855Y-75552845D01*
X138527845Y-75552855D01*
X138447207Y-75662116D01*
X138402355Y-75790296D01*
X138402353Y-75790305D01*
X138399500Y-75820725D01*
X138399500Y-76879274D01*
X137899993Y-76879274D01*
X137899999Y-76879211D01*
X137900000Y-76879210D01*
X137900000Y-76450001D01*
X137899999Y-76450000D01*
X137300001Y-76450000D01*
X137300000Y-76450001D01*
X137300000Y-77274998D01*
X137100000Y-77274998D01*
X137100000Y-76450001D01*
X137099999Y-76450000D01*
X136500002Y-76450000D01*
X136500001Y-76450001D01*
X136500001Y-76879203D01*
X133314800Y-76879203D01*
X133315645Y-76877478D01*
X133403060Y-76699271D01*
X133454063Y-76502285D01*
X133464369Y-76299064D01*
X133456852Y-76249999D01*
X136500000Y-76249999D01*
X136500001Y-76250000D01*
X137099999Y-76250000D01*
X137100000Y-76249999D01*
X137300000Y-76249999D01*
X137300001Y-76250000D01*
X137899998Y-76250000D01*
X137899999Y-76249999D01*
X137899999Y-75820796D01*
X137897149Y-75790399D01*
X137897149Y-75790397D01*
X137852345Y-75662352D01*
X137771792Y-75553209D01*
X137771790Y-75553207D01*
X137662647Y-75472654D01*
X137534601Y-75427850D01*
X137504211Y-75425000D01*
X137300001Y-75425000D01*
X137300000Y-75425001D01*
X137300000Y-76249999D01*
X137100000Y-76249999D01*
X137100000Y-75425001D01*
X137099999Y-75425000D01*
X136895796Y-75425000D01*
X136865399Y-75427850D01*
X136865397Y-75427850D01*
X136737352Y-75472654D01*
X136628209Y-75553207D01*
X136628207Y-75553209D01*
X136547654Y-75662352D01*
X136502850Y-75790398D01*
X136500000Y-75820788D01*
X136500000Y-76249999D01*
X133456852Y-76249999D01*
X133433556Y-76097929D01*
X133362886Y-75907113D01*
X133255252Y-75734429D01*
X133115059Y-75586947D01*
X133115057Y-75586945D01*
X133115053Y-75586942D01*
X132948054Y-75470708D01*
X132948051Y-75470706D01*
X132948049Y-75470705D01*
X132761058Y-75390460D01*
X132761060Y-75390460D01*
X132681331Y-75374076D01*
X132561741Y-75349500D01*
X132409258Y-75349500D01*
X132409256Y-75349500D01*
X132257561Y-75364926D01*
X132063410Y-75425841D01*
X132063409Y-75425842D01*
X131885501Y-75524588D01*
X131885498Y-75524590D01*
X131731109Y-75657129D01*
X131606549Y-75818045D01*
X131526224Y-75981802D01*
X131516940Y-76000729D01*
X131491773Y-76097932D01*
X131465936Y-76197719D01*
X131455631Y-76400936D01*
X131455630Y-76400939D01*
X126552732Y-76400939D01*
X126555494Y-76350000D01*
X126535531Y-75981801D01*
X126475875Y-75617919D01*
X126422311Y-75425000D01*
X126377231Y-75262634D01*
X126377229Y-75262629D01*
X126377227Y-75262621D01*
X126240743Y-74920070D01*
X126068022Y-74594284D01*
X125861090Y-74289083D01*
X125841399Y-74265901D01*
X125622377Y-74008048D01*
X125622367Y-74008038D01*
X125354673Y-73754464D01*
X125061123Y-73531313D01*
X125061122Y-73531312D01*
X125061119Y-73531310D01*
X124745162Y-73341205D01*
X124630226Y-73288029D01*
X124410508Y-73186377D01*
X124410505Y-73186376D01*
X124410503Y-73186375D01*
X124061066Y-73068636D01*
X124061065Y-73068635D01*
X124061057Y-73068633D01*
X123700952Y-72989368D01*
X123700953Y-72989368D01*
X123334370Y-72949500D01*
X122965630Y-72949500D01*
X122599046Y-72989368D01*
X122238943Y-73068633D01*
X122238941Y-73068633D01*
X121889491Y-73186377D01*
X121554846Y-73341201D01*
X121554840Y-73341204D01*
X121238881Y-73531310D01*
X121238876Y-73531313D01*
X120945326Y-73754464D01*
X120677632Y-74008038D01*
X120677622Y-74008048D01*
X120438915Y-74289076D01*
X120438908Y-74289086D01*
X120231981Y-74594278D01*
X120059255Y-74920072D01*
X119922772Y-75262623D01*
X119922768Y-75262634D01*
X119824126Y-75617912D01*
X119764468Y-75981802D01*
X119744506Y-76350000D01*
X118450547Y-76350000D01*
X118450594Y-76347847D01*
X118452724Y-76299059D01*
X118468195Y-75944713D01*
X118468945Y-75936137D01*
X118521332Y-75538220D01*
X118522832Y-75529718D01*
X118545525Y-75427355D01*
X118609699Y-75137886D01*
X118611924Y-75129581D01*
X118732617Y-74746791D01*
X118735569Y-74738682D01*
X118889160Y-74367879D01*
X118892795Y-74360085D01*
X119078120Y-74004079D01*
X119082427Y-73996618D01*
X119298083Y-73658105D01*
X119303021Y-73651054D01*
X119547355Y-73332632D01*
X119552885Y-73326042D01*
X119824049Y-73030119D01*
X119830119Y-73024049D01*
X120126042Y-72752885D01*
X120132632Y-72747355D01*
X120451054Y-72503021D01*
X120458105Y-72498083D01*
X120796618Y-72282427D01*
X120804079Y-72278120D01*
X121160085Y-72092795D01*
X121167879Y-72089160D01*
X121538689Y-71935566D01*
X121546791Y-71932617D01*
X121929581Y-71811924D01*
X121937886Y-71809699D01*
X122329718Y-71722831D01*
X122338220Y-71721332D01*
X122736137Y-71668945D01*
X122744713Y-71668195D01*
X123147847Y-71650593D01*
X123152165Y-71650500D01*
X123197595Y-71650500D01*
X193102405Y-71650500D01*
X193147835Y-71650500D01*
X193152152Y-71650593D01*
G37*
G04 #@! TD.AperFunction*
M02*
