G04 #@! TF.GenerationSoftware,KiCad,Pcbnew,7.0.11*
G04 #@! TF.CreationDate,2025-02-19T11:42:19-05:00*
G04 #@! TF.ProjectId,thruster-pcb,74687275-7374-4657-922d-7063622e6b69,1.0*
G04 #@! TF.SameCoordinates,Original*
G04 #@! TF.FileFunction,AssemblyDrawing,Top*
%FSLAX46Y46*%
G04 Gerber Fmt 4.6, Leading zero omitted, Abs format (unit mm)*
G04 Created by KiCad (PCBNEW 7.0.11) date 2025-02-19 11:42:19*
%MOMM*%
%LPD*%
G01*
G04 APERTURE LIST*
%ADD10C,0.125000*%
%ADD11C,0.062500*%
%ADD12C,0.127000*%
%ADD13C,0.200000*%
%ADD14C,0.400000*%
%ADD15C,0.550000*%
%ADD16C,0.100000*%
%ADD17C,0.203200*%
G04 APERTURE END LIST*
D10*
X177507143Y-126074809D02*
X177507143Y-126431952D01*
X177507143Y-126431952D02*
X177483334Y-126503380D01*
X177483334Y-126503380D02*
X177435715Y-126551000D01*
X177435715Y-126551000D02*
X177364286Y-126574809D01*
X177364286Y-126574809D02*
X177316667Y-126574809D01*
X177983333Y-126074809D02*
X177745238Y-126074809D01*
X177745238Y-126074809D02*
X177721429Y-126312904D01*
X177721429Y-126312904D02*
X177745238Y-126289095D01*
X177745238Y-126289095D02*
X177792857Y-126265285D01*
X177792857Y-126265285D02*
X177911905Y-126265285D01*
X177911905Y-126265285D02*
X177959524Y-126289095D01*
X177959524Y-126289095D02*
X177983333Y-126312904D01*
X177983333Y-126312904D02*
X178007143Y-126360523D01*
X178007143Y-126360523D02*
X178007143Y-126479571D01*
X178007143Y-126479571D02*
X177983333Y-126527190D01*
X177983333Y-126527190D02*
X177959524Y-126551000D01*
X177959524Y-126551000D02*
X177911905Y-126574809D01*
X177911905Y-126574809D02*
X177792857Y-126574809D01*
X177792857Y-126574809D02*
X177745238Y-126551000D01*
X177745238Y-126551000D02*
X177721429Y-126527190D01*
X178316666Y-126074809D02*
X178364285Y-126074809D01*
X178364285Y-126074809D02*
X178411904Y-126098619D01*
X178411904Y-126098619D02*
X178435714Y-126122428D01*
X178435714Y-126122428D02*
X178459523Y-126170047D01*
X178459523Y-126170047D02*
X178483333Y-126265285D01*
X178483333Y-126265285D02*
X178483333Y-126384333D01*
X178483333Y-126384333D02*
X178459523Y-126479571D01*
X178459523Y-126479571D02*
X178435714Y-126527190D01*
X178435714Y-126527190D02*
X178411904Y-126551000D01*
X178411904Y-126551000D02*
X178364285Y-126574809D01*
X178364285Y-126574809D02*
X178316666Y-126574809D01*
X178316666Y-126574809D02*
X178269047Y-126551000D01*
X178269047Y-126551000D02*
X178245238Y-126527190D01*
X178245238Y-126527190D02*
X178221428Y-126479571D01*
X178221428Y-126479571D02*
X178197619Y-126384333D01*
X178197619Y-126384333D02*
X178197619Y-126265285D01*
X178197619Y-126265285D02*
X178221428Y-126170047D01*
X178221428Y-126170047D02*
X178245238Y-126122428D01*
X178245238Y-126122428D02*
X178269047Y-126098619D01*
X178269047Y-126098619D02*
X178316666Y-126074809D01*
X178911904Y-126241476D02*
X178911904Y-126574809D01*
X178792856Y-126051000D02*
X178673809Y-126408142D01*
X178673809Y-126408142D02*
X178983332Y-126408142D01*
X122292857Y-76574809D02*
X122292857Y-76074809D01*
X122292857Y-76312904D02*
X122578571Y-76312904D01*
X122578571Y-76574809D02*
X122578571Y-76074809D01*
X122792858Y-76122428D02*
X122816667Y-76098619D01*
X122816667Y-76098619D02*
X122864286Y-76074809D01*
X122864286Y-76074809D02*
X122983334Y-76074809D01*
X122983334Y-76074809D02*
X123030953Y-76098619D01*
X123030953Y-76098619D02*
X123054762Y-76122428D01*
X123054762Y-76122428D02*
X123078572Y-76170047D01*
X123078572Y-76170047D02*
X123078572Y-76217666D01*
X123078572Y-76217666D02*
X123054762Y-76289095D01*
X123054762Y-76289095D02*
X122769048Y-76574809D01*
X122769048Y-76574809D02*
X123078572Y-76574809D01*
X123388095Y-76074809D02*
X123435714Y-76074809D01*
X123435714Y-76074809D02*
X123483333Y-76098619D01*
X123483333Y-76098619D02*
X123507143Y-76122428D01*
X123507143Y-76122428D02*
X123530952Y-76170047D01*
X123530952Y-76170047D02*
X123554762Y-76265285D01*
X123554762Y-76265285D02*
X123554762Y-76384333D01*
X123554762Y-76384333D02*
X123530952Y-76479571D01*
X123530952Y-76479571D02*
X123507143Y-76527190D01*
X123507143Y-76527190D02*
X123483333Y-76551000D01*
X123483333Y-76551000D02*
X123435714Y-76574809D01*
X123435714Y-76574809D02*
X123388095Y-76574809D01*
X123388095Y-76574809D02*
X123340476Y-76551000D01*
X123340476Y-76551000D02*
X123316667Y-76527190D01*
X123316667Y-76527190D02*
X123292857Y-76479571D01*
X123292857Y-76479571D02*
X123269048Y-76384333D01*
X123269048Y-76384333D02*
X123269048Y-76265285D01*
X123269048Y-76265285D02*
X123292857Y-76170047D01*
X123292857Y-76170047D02*
X123316667Y-76122428D01*
X123316667Y-76122428D02*
X123340476Y-76098619D01*
X123340476Y-76098619D02*
X123388095Y-76074809D01*
X124030952Y-76574809D02*
X123745238Y-76574809D01*
X123888095Y-76574809D02*
X123888095Y-76074809D01*
X123888095Y-76074809D02*
X123840476Y-76146238D01*
X123840476Y-76146238D02*
X123792857Y-76193857D01*
X123792857Y-76193857D02*
X123745238Y-76217666D01*
X119038096Y-80092904D02*
X118871429Y-80092904D01*
X118871429Y-80354809D02*
X118871429Y-79854809D01*
X118871429Y-79854809D02*
X119109524Y-79854809D01*
X119300000Y-80354809D02*
X119300000Y-79854809D01*
X119538095Y-80354809D02*
X119538095Y-79854809D01*
X119538095Y-79854809D02*
X119657143Y-79854809D01*
X119657143Y-79854809D02*
X119728571Y-79878619D01*
X119728571Y-79878619D02*
X119776190Y-79926238D01*
X119776190Y-79926238D02*
X119800000Y-79973857D01*
X119800000Y-79973857D02*
X119823809Y-80069095D01*
X119823809Y-80069095D02*
X119823809Y-80140523D01*
X119823809Y-80140523D02*
X119800000Y-80235761D01*
X119800000Y-80235761D02*
X119776190Y-80283380D01*
X119776190Y-80283380D02*
X119728571Y-80331000D01*
X119728571Y-80331000D02*
X119657143Y-80354809D01*
X119657143Y-80354809D02*
X119538095Y-80354809D01*
X120014286Y-79902428D02*
X120038095Y-79878619D01*
X120038095Y-79878619D02*
X120085714Y-79854809D01*
X120085714Y-79854809D02*
X120204762Y-79854809D01*
X120204762Y-79854809D02*
X120252381Y-79878619D01*
X120252381Y-79878619D02*
X120276190Y-79902428D01*
X120276190Y-79902428D02*
X120300000Y-79950047D01*
X120300000Y-79950047D02*
X120300000Y-79997666D01*
X120300000Y-79997666D02*
X120276190Y-80069095D01*
X120276190Y-80069095D02*
X119990476Y-80354809D01*
X119990476Y-80354809D02*
X120300000Y-80354809D01*
X120609523Y-79854809D02*
X120657142Y-79854809D01*
X120657142Y-79854809D02*
X120704761Y-79878619D01*
X120704761Y-79878619D02*
X120728571Y-79902428D01*
X120728571Y-79902428D02*
X120752380Y-79950047D01*
X120752380Y-79950047D02*
X120776190Y-80045285D01*
X120776190Y-80045285D02*
X120776190Y-80164333D01*
X120776190Y-80164333D02*
X120752380Y-80259571D01*
X120752380Y-80259571D02*
X120728571Y-80307190D01*
X120728571Y-80307190D02*
X120704761Y-80331000D01*
X120704761Y-80331000D02*
X120657142Y-80354809D01*
X120657142Y-80354809D02*
X120609523Y-80354809D01*
X120609523Y-80354809D02*
X120561904Y-80331000D01*
X120561904Y-80331000D02*
X120538095Y-80307190D01*
X120538095Y-80307190D02*
X120514285Y-80259571D01*
X120514285Y-80259571D02*
X120490476Y-80164333D01*
X120490476Y-80164333D02*
X120490476Y-80045285D01*
X120490476Y-80045285D02*
X120514285Y-79950047D01*
X120514285Y-79950047D02*
X120538095Y-79902428D01*
X120538095Y-79902428D02*
X120561904Y-79878619D01*
X120561904Y-79878619D02*
X120609523Y-79854809D01*
X121252380Y-80354809D02*
X120966666Y-80354809D01*
X121109523Y-80354809D02*
X121109523Y-79854809D01*
X121109523Y-79854809D02*
X121061904Y-79926238D01*
X121061904Y-79926238D02*
X121014285Y-79973857D01*
X121014285Y-79973857D02*
X120966666Y-79997666D01*
X192292857Y-76574809D02*
X192292857Y-76074809D01*
X192292857Y-76312904D02*
X192578571Y-76312904D01*
X192578571Y-76574809D02*
X192578571Y-76074809D01*
X192792858Y-76122428D02*
X192816667Y-76098619D01*
X192816667Y-76098619D02*
X192864286Y-76074809D01*
X192864286Y-76074809D02*
X192983334Y-76074809D01*
X192983334Y-76074809D02*
X193030953Y-76098619D01*
X193030953Y-76098619D02*
X193054762Y-76122428D01*
X193054762Y-76122428D02*
X193078572Y-76170047D01*
X193078572Y-76170047D02*
X193078572Y-76217666D01*
X193078572Y-76217666D02*
X193054762Y-76289095D01*
X193054762Y-76289095D02*
X192769048Y-76574809D01*
X192769048Y-76574809D02*
X193078572Y-76574809D01*
X193388095Y-76074809D02*
X193435714Y-76074809D01*
X193435714Y-76074809D02*
X193483333Y-76098619D01*
X193483333Y-76098619D02*
X193507143Y-76122428D01*
X193507143Y-76122428D02*
X193530952Y-76170047D01*
X193530952Y-76170047D02*
X193554762Y-76265285D01*
X193554762Y-76265285D02*
X193554762Y-76384333D01*
X193554762Y-76384333D02*
X193530952Y-76479571D01*
X193530952Y-76479571D02*
X193507143Y-76527190D01*
X193507143Y-76527190D02*
X193483333Y-76551000D01*
X193483333Y-76551000D02*
X193435714Y-76574809D01*
X193435714Y-76574809D02*
X193388095Y-76574809D01*
X193388095Y-76574809D02*
X193340476Y-76551000D01*
X193340476Y-76551000D02*
X193316667Y-76527190D01*
X193316667Y-76527190D02*
X193292857Y-76479571D01*
X193292857Y-76479571D02*
X193269048Y-76384333D01*
X193269048Y-76384333D02*
X193269048Y-76265285D01*
X193269048Y-76265285D02*
X193292857Y-76170047D01*
X193292857Y-76170047D02*
X193316667Y-76122428D01*
X193316667Y-76122428D02*
X193340476Y-76098619D01*
X193340476Y-76098619D02*
X193388095Y-76074809D01*
X193745238Y-76122428D02*
X193769047Y-76098619D01*
X193769047Y-76098619D02*
X193816666Y-76074809D01*
X193816666Y-76074809D02*
X193935714Y-76074809D01*
X193935714Y-76074809D02*
X193983333Y-76098619D01*
X193983333Y-76098619D02*
X194007142Y-76122428D01*
X194007142Y-76122428D02*
X194030952Y-76170047D01*
X194030952Y-76170047D02*
X194030952Y-76217666D01*
X194030952Y-76217666D02*
X194007142Y-76289095D01*
X194007142Y-76289095D02*
X193721428Y-76574809D01*
X193721428Y-76574809D02*
X194030952Y-76574809D01*
D11*
X174620238Y-98688595D02*
X174608334Y-98700500D01*
X174608334Y-98700500D02*
X174572619Y-98712404D01*
X174572619Y-98712404D02*
X174548810Y-98712404D01*
X174548810Y-98712404D02*
X174513096Y-98700500D01*
X174513096Y-98700500D02*
X174489286Y-98676690D01*
X174489286Y-98676690D02*
X174477381Y-98652880D01*
X174477381Y-98652880D02*
X174465477Y-98605261D01*
X174465477Y-98605261D02*
X174465477Y-98569547D01*
X174465477Y-98569547D02*
X174477381Y-98521928D01*
X174477381Y-98521928D02*
X174489286Y-98498119D01*
X174489286Y-98498119D02*
X174513096Y-98474309D01*
X174513096Y-98474309D02*
X174548810Y-98462404D01*
X174548810Y-98462404D02*
X174572619Y-98462404D01*
X174572619Y-98462404D02*
X174608334Y-98474309D01*
X174608334Y-98474309D02*
X174620238Y-98486214D01*
X174846429Y-98462404D02*
X174727381Y-98462404D01*
X174727381Y-98462404D02*
X174715477Y-98581452D01*
X174715477Y-98581452D02*
X174727381Y-98569547D01*
X174727381Y-98569547D02*
X174751191Y-98557642D01*
X174751191Y-98557642D02*
X174810715Y-98557642D01*
X174810715Y-98557642D02*
X174834524Y-98569547D01*
X174834524Y-98569547D02*
X174846429Y-98581452D01*
X174846429Y-98581452D02*
X174858334Y-98605261D01*
X174858334Y-98605261D02*
X174858334Y-98664785D01*
X174858334Y-98664785D02*
X174846429Y-98688595D01*
X174846429Y-98688595D02*
X174834524Y-98700500D01*
X174834524Y-98700500D02*
X174810715Y-98712404D01*
X174810715Y-98712404D02*
X174751191Y-98712404D01*
X174751191Y-98712404D02*
X174727381Y-98700500D01*
X174727381Y-98700500D02*
X174715477Y-98688595D01*
X175013095Y-98462404D02*
X175036905Y-98462404D01*
X175036905Y-98462404D02*
X175060714Y-98474309D01*
X175060714Y-98474309D02*
X175072619Y-98486214D01*
X175072619Y-98486214D02*
X175084524Y-98510023D01*
X175084524Y-98510023D02*
X175096429Y-98557642D01*
X175096429Y-98557642D02*
X175096429Y-98617166D01*
X175096429Y-98617166D02*
X175084524Y-98664785D01*
X175084524Y-98664785D02*
X175072619Y-98688595D01*
X175072619Y-98688595D02*
X175060714Y-98700500D01*
X175060714Y-98700500D02*
X175036905Y-98712404D01*
X175036905Y-98712404D02*
X175013095Y-98712404D01*
X175013095Y-98712404D02*
X174989286Y-98700500D01*
X174989286Y-98700500D02*
X174977381Y-98688595D01*
X174977381Y-98688595D02*
X174965476Y-98664785D01*
X174965476Y-98664785D02*
X174953572Y-98617166D01*
X174953572Y-98617166D02*
X174953572Y-98557642D01*
X174953572Y-98557642D02*
X174965476Y-98510023D01*
X174965476Y-98510023D02*
X174977381Y-98486214D01*
X174977381Y-98486214D02*
X174989286Y-98474309D01*
X174989286Y-98474309D02*
X175013095Y-98462404D01*
X175179762Y-98462404D02*
X175334524Y-98462404D01*
X175334524Y-98462404D02*
X175251190Y-98557642D01*
X175251190Y-98557642D02*
X175286905Y-98557642D01*
X175286905Y-98557642D02*
X175310714Y-98569547D01*
X175310714Y-98569547D02*
X175322619Y-98581452D01*
X175322619Y-98581452D02*
X175334524Y-98605261D01*
X175334524Y-98605261D02*
X175334524Y-98664785D01*
X175334524Y-98664785D02*
X175322619Y-98688595D01*
X175322619Y-98688595D02*
X175310714Y-98700500D01*
X175310714Y-98700500D02*
X175286905Y-98712404D01*
X175286905Y-98712404D02*
X175215476Y-98712404D01*
X175215476Y-98712404D02*
X175191667Y-98700500D01*
X175191667Y-98700500D02*
X175179762Y-98688595D01*
D10*
X137507143Y-76074809D02*
X137507143Y-76431952D01*
X137507143Y-76431952D02*
X137483334Y-76503380D01*
X137483334Y-76503380D02*
X137435715Y-76551000D01*
X137435715Y-76551000D02*
X137364286Y-76574809D01*
X137364286Y-76574809D02*
X137316667Y-76574809D01*
X137983333Y-76074809D02*
X137745238Y-76074809D01*
X137745238Y-76074809D02*
X137721429Y-76312904D01*
X137721429Y-76312904D02*
X137745238Y-76289095D01*
X137745238Y-76289095D02*
X137792857Y-76265285D01*
X137792857Y-76265285D02*
X137911905Y-76265285D01*
X137911905Y-76265285D02*
X137959524Y-76289095D01*
X137959524Y-76289095D02*
X137983333Y-76312904D01*
X137983333Y-76312904D02*
X138007143Y-76360523D01*
X138007143Y-76360523D02*
X138007143Y-76479571D01*
X138007143Y-76479571D02*
X137983333Y-76527190D01*
X137983333Y-76527190D02*
X137959524Y-76551000D01*
X137959524Y-76551000D02*
X137911905Y-76574809D01*
X137911905Y-76574809D02*
X137792857Y-76574809D01*
X137792857Y-76574809D02*
X137745238Y-76551000D01*
X137745238Y-76551000D02*
X137721429Y-76527190D01*
X138316666Y-76074809D02*
X138364285Y-76074809D01*
X138364285Y-76074809D02*
X138411904Y-76098619D01*
X138411904Y-76098619D02*
X138435714Y-76122428D01*
X138435714Y-76122428D02*
X138459523Y-76170047D01*
X138459523Y-76170047D02*
X138483333Y-76265285D01*
X138483333Y-76265285D02*
X138483333Y-76384333D01*
X138483333Y-76384333D02*
X138459523Y-76479571D01*
X138459523Y-76479571D02*
X138435714Y-76527190D01*
X138435714Y-76527190D02*
X138411904Y-76551000D01*
X138411904Y-76551000D02*
X138364285Y-76574809D01*
X138364285Y-76574809D02*
X138316666Y-76574809D01*
X138316666Y-76574809D02*
X138269047Y-76551000D01*
X138269047Y-76551000D02*
X138245238Y-76527190D01*
X138245238Y-76527190D02*
X138221428Y-76479571D01*
X138221428Y-76479571D02*
X138197619Y-76384333D01*
X138197619Y-76384333D02*
X138197619Y-76265285D01*
X138197619Y-76265285D02*
X138221428Y-76170047D01*
X138221428Y-76170047D02*
X138245238Y-76122428D01*
X138245238Y-76122428D02*
X138269047Y-76098619D01*
X138269047Y-76098619D02*
X138316666Y-76074809D01*
X138959523Y-76574809D02*
X138673809Y-76574809D01*
X138816666Y-76574809D02*
X138816666Y-76074809D01*
X138816666Y-76074809D02*
X138769047Y-76146238D01*
X138769047Y-76146238D02*
X138721428Y-76193857D01*
X138721428Y-76193857D02*
X138673809Y-76217666D01*
X195238096Y-120732904D02*
X195071429Y-120732904D01*
X195071429Y-120994809D02*
X195071429Y-120494809D01*
X195071429Y-120494809D02*
X195309524Y-120494809D01*
X195500000Y-120994809D02*
X195500000Y-120494809D01*
X195738095Y-120994809D02*
X195738095Y-120494809D01*
X195738095Y-120494809D02*
X195857143Y-120494809D01*
X195857143Y-120494809D02*
X195928571Y-120518619D01*
X195928571Y-120518619D02*
X195976190Y-120566238D01*
X195976190Y-120566238D02*
X196000000Y-120613857D01*
X196000000Y-120613857D02*
X196023809Y-120709095D01*
X196023809Y-120709095D02*
X196023809Y-120780523D01*
X196023809Y-120780523D02*
X196000000Y-120875761D01*
X196000000Y-120875761D02*
X195976190Y-120923380D01*
X195976190Y-120923380D02*
X195928571Y-120971000D01*
X195928571Y-120971000D02*
X195857143Y-120994809D01*
X195857143Y-120994809D02*
X195738095Y-120994809D01*
X196214286Y-120542428D02*
X196238095Y-120518619D01*
X196238095Y-120518619D02*
X196285714Y-120494809D01*
X196285714Y-120494809D02*
X196404762Y-120494809D01*
X196404762Y-120494809D02*
X196452381Y-120518619D01*
X196452381Y-120518619D02*
X196476190Y-120542428D01*
X196476190Y-120542428D02*
X196500000Y-120590047D01*
X196500000Y-120590047D02*
X196500000Y-120637666D01*
X196500000Y-120637666D02*
X196476190Y-120709095D01*
X196476190Y-120709095D02*
X196190476Y-120994809D01*
X196190476Y-120994809D02*
X196500000Y-120994809D01*
X196809523Y-120494809D02*
X196857142Y-120494809D01*
X196857142Y-120494809D02*
X196904761Y-120518619D01*
X196904761Y-120518619D02*
X196928571Y-120542428D01*
X196928571Y-120542428D02*
X196952380Y-120590047D01*
X196952380Y-120590047D02*
X196976190Y-120685285D01*
X196976190Y-120685285D02*
X196976190Y-120804333D01*
X196976190Y-120804333D02*
X196952380Y-120899571D01*
X196952380Y-120899571D02*
X196928571Y-120947190D01*
X196928571Y-120947190D02*
X196904761Y-120971000D01*
X196904761Y-120971000D02*
X196857142Y-120994809D01*
X196857142Y-120994809D02*
X196809523Y-120994809D01*
X196809523Y-120994809D02*
X196761904Y-120971000D01*
X196761904Y-120971000D02*
X196738095Y-120947190D01*
X196738095Y-120947190D02*
X196714285Y-120899571D01*
X196714285Y-120899571D02*
X196690476Y-120804333D01*
X196690476Y-120804333D02*
X196690476Y-120685285D01*
X196690476Y-120685285D02*
X196714285Y-120590047D01*
X196714285Y-120590047D02*
X196738095Y-120542428D01*
X196738095Y-120542428D02*
X196761904Y-120518619D01*
X196761904Y-120518619D02*
X196809523Y-120494809D01*
X197142856Y-120494809D02*
X197452380Y-120494809D01*
X197452380Y-120494809D02*
X197285713Y-120685285D01*
X197285713Y-120685285D02*
X197357142Y-120685285D01*
X197357142Y-120685285D02*
X197404761Y-120709095D01*
X197404761Y-120709095D02*
X197428570Y-120732904D01*
X197428570Y-120732904D02*
X197452380Y-120780523D01*
X197452380Y-120780523D02*
X197452380Y-120899571D01*
X197452380Y-120899571D02*
X197428570Y-120947190D01*
X197428570Y-120947190D02*
X197404761Y-120971000D01*
X197404761Y-120971000D02*
X197357142Y-120994809D01*
X197357142Y-120994809D02*
X197214285Y-120994809D01*
X197214285Y-120994809D02*
X197166666Y-120971000D01*
X197166666Y-120971000D02*
X197142856Y-120947190D01*
X192292857Y-126574809D02*
X192292857Y-126074809D01*
X192292857Y-126312904D02*
X192578571Y-126312904D01*
X192578571Y-126574809D02*
X192578571Y-126074809D01*
X192792858Y-126122428D02*
X192816667Y-126098619D01*
X192816667Y-126098619D02*
X192864286Y-126074809D01*
X192864286Y-126074809D02*
X192983334Y-126074809D01*
X192983334Y-126074809D02*
X193030953Y-126098619D01*
X193030953Y-126098619D02*
X193054762Y-126122428D01*
X193054762Y-126122428D02*
X193078572Y-126170047D01*
X193078572Y-126170047D02*
X193078572Y-126217666D01*
X193078572Y-126217666D02*
X193054762Y-126289095D01*
X193054762Y-126289095D02*
X192769048Y-126574809D01*
X192769048Y-126574809D02*
X193078572Y-126574809D01*
X193388095Y-126074809D02*
X193435714Y-126074809D01*
X193435714Y-126074809D02*
X193483333Y-126098619D01*
X193483333Y-126098619D02*
X193507143Y-126122428D01*
X193507143Y-126122428D02*
X193530952Y-126170047D01*
X193530952Y-126170047D02*
X193554762Y-126265285D01*
X193554762Y-126265285D02*
X193554762Y-126384333D01*
X193554762Y-126384333D02*
X193530952Y-126479571D01*
X193530952Y-126479571D02*
X193507143Y-126527190D01*
X193507143Y-126527190D02*
X193483333Y-126551000D01*
X193483333Y-126551000D02*
X193435714Y-126574809D01*
X193435714Y-126574809D02*
X193388095Y-126574809D01*
X193388095Y-126574809D02*
X193340476Y-126551000D01*
X193340476Y-126551000D02*
X193316667Y-126527190D01*
X193316667Y-126527190D02*
X193292857Y-126479571D01*
X193292857Y-126479571D02*
X193269048Y-126384333D01*
X193269048Y-126384333D02*
X193269048Y-126265285D01*
X193269048Y-126265285D02*
X193292857Y-126170047D01*
X193292857Y-126170047D02*
X193316667Y-126122428D01*
X193316667Y-126122428D02*
X193340476Y-126098619D01*
X193340476Y-126098619D02*
X193388095Y-126074809D01*
X193721428Y-126074809D02*
X194030952Y-126074809D01*
X194030952Y-126074809D02*
X193864285Y-126265285D01*
X193864285Y-126265285D02*
X193935714Y-126265285D01*
X193935714Y-126265285D02*
X193983333Y-126289095D01*
X193983333Y-126289095D02*
X194007142Y-126312904D01*
X194007142Y-126312904D02*
X194030952Y-126360523D01*
X194030952Y-126360523D02*
X194030952Y-126479571D01*
X194030952Y-126479571D02*
X194007142Y-126527190D01*
X194007142Y-126527190D02*
X193983333Y-126551000D01*
X193983333Y-126551000D02*
X193935714Y-126574809D01*
X193935714Y-126574809D02*
X193792857Y-126574809D01*
X193792857Y-126574809D02*
X193745238Y-126551000D01*
X193745238Y-126551000D02*
X193721428Y-126527190D01*
X122292857Y-126574809D02*
X122292857Y-126074809D01*
X122292857Y-126312904D02*
X122578571Y-126312904D01*
X122578571Y-126574809D02*
X122578571Y-126074809D01*
X122792858Y-126122428D02*
X122816667Y-126098619D01*
X122816667Y-126098619D02*
X122864286Y-126074809D01*
X122864286Y-126074809D02*
X122983334Y-126074809D01*
X122983334Y-126074809D02*
X123030953Y-126098619D01*
X123030953Y-126098619D02*
X123054762Y-126122428D01*
X123054762Y-126122428D02*
X123078572Y-126170047D01*
X123078572Y-126170047D02*
X123078572Y-126217666D01*
X123078572Y-126217666D02*
X123054762Y-126289095D01*
X123054762Y-126289095D02*
X122769048Y-126574809D01*
X122769048Y-126574809D02*
X123078572Y-126574809D01*
X123388095Y-126074809D02*
X123435714Y-126074809D01*
X123435714Y-126074809D02*
X123483333Y-126098619D01*
X123483333Y-126098619D02*
X123507143Y-126122428D01*
X123507143Y-126122428D02*
X123530952Y-126170047D01*
X123530952Y-126170047D02*
X123554762Y-126265285D01*
X123554762Y-126265285D02*
X123554762Y-126384333D01*
X123554762Y-126384333D02*
X123530952Y-126479571D01*
X123530952Y-126479571D02*
X123507143Y-126527190D01*
X123507143Y-126527190D02*
X123483333Y-126551000D01*
X123483333Y-126551000D02*
X123435714Y-126574809D01*
X123435714Y-126574809D02*
X123388095Y-126574809D01*
X123388095Y-126574809D02*
X123340476Y-126551000D01*
X123340476Y-126551000D02*
X123316667Y-126527190D01*
X123316667Y-126527190D02*
X123292857Y-126479571D01*
X123292857Y-126479571D02*
X123269048Y-126384333D01*
X123269048Y-126384333D02*
X123269048Y-126265285D01*
X123269048Y-126265285D02*
X123292857Y-126170047D01*
X123292857Y-126170047D02*
X123316667Y-126122428D01*
X123316667Y-126122428D02*
X123340476Y-126098619D01*
X123340476Y-126098619D02*
X123388095Y-126074809D01*
X123983333Y-126241476D02*
X123983333Y-126574809D01*
X123864285Y-126051000D02*
X123745238Y-126408142D01*
X123745238Y-126408142D02*
X124054761Y-126408142D01*
X177507143Y-76074809D02*
X177507143Y-76431952D01*
X177507143Y-76431952D02*
X177483334Y-76503380D01*
X177483334Y-76503380D02*
X177435715Y-76551000D01*
X177435715Y-76551000D02*
X177364286Y-76574809D01*
X177364286Y-76574809D02*
X177316667Y-76574809D01*
X177983333Y-76074809D02*
X177745238Y-76074809D01*
X177745238Y-76074809D02*
X177721429Y-76312904D01*
X177721429Y-76312904D02*
X177745238Y-76289095D01*
X177745238Y-76289095D02*
X177792857Y-76265285D01*
X177792857Y-76265285D02*
X177911905Y-76265285D01*
X177911905Y-76265285D02*
X177959524Y-76289095D01*
X177959524Y-76289095D02*
X177983333Y-76312904D01*
X177983333Y-76312904D02*
X178007143Y-76360523D01*
X178007143Y-76360523D02*
X178007143Y-76479571D01*
X178007143Y-76479571D02*
X177983333Y-76527190D01*
X177983333Y-76527190D02*
X177959524Y-76551000D01*
X177959524Y-76551000D02*
X177911905Y-76574809D01*
X177911905Y-76574809D02*
X177792857Y-76574809D01*
X177792857Y-76574809D02*
X177745238Y-76551000D01*
X177745238Y-76551000D02*
X177721429Y-76527190D01*
X178316666Y-76074809D02*
X178364285Y-76074809D01*
X178364285Y-76074809D02*
X178411904Y-76098619D01*
X178411904Y-76098619D02*
X178435714Y-76122428D01*
X178435714Y-76122428D02*
X178459523Y-76170047D01*
X178459523Y-76170047D02*
X178483333Y-76265285D01*
X178483333Y-76265285D02*
X178483333Y-76384333D01*
X178483333Y-76384333D02*
X178459523Y-76479571D01*
X178459523Y-76479571D02*
X178435714Y-76527190D01*
X178435714Y-76527190D02*
X178411904Y-76551000D01*
X178411904Y-76551000D02*
X178364285Y-76574809D01*
X178364285Y-76574809D02*
X178316666Y-76574809D01*
X178316666Y-76574809D02*
X178269047Y-76551000D01*
X178269047Y-76551000D02*
X178245238Y-76527190D01*
X178245238Y-76527190D02*
X178221428Y-76479571D01*
X178221428Y-76479571D02*
X178197619Y-76384333D01*
X178197619Y-76384333D02*
X178197619Y-76265285D01*
X178197619Y-76265285D02*
X178221428Y-76170047D01*
X178221428Y-76170047D02*
X178245238Y-76122428D01*
X178245238Y-76122428D02*
X178269047Y-76098619D01*
X178269047Y-76098619D02*
X178316666Y-76074809D01*
X178649999Y-76074809D02*
X178959523Y-76074809D01*
X178959523Y-76074809D02*
X178792856Y-76265285D01*
X178792856Y-76265285D02*
X178864285Y-76265285D01*
X178864285Y-76265285D02*
X178911904Y-76289095D01*
X178911904Y-76289095D02*
X178935713Y-76312904D01*
X178935713Y-76312904D02*
X178959523Y-76360523D01*
X178959523Y-76360523D02*
X178959523Y-76479571D01*
X178959523Y-76479571D02*
X178935713Y-76527190D01*
X178935713Y-76527190D02*
X178911904Y-76551000D01*
X178911904Y-76551000D02*
X178864285Y-76574809D01*
X178864285Y-76574809D02*
X178721428Y-76574809D01*
X178721428Y-76574809D02*
X178673809Y-76551000D01*
X178673809Y-76551000D02*
X178649999Y-76527190D01*
X137507143Y-126074809D02*
X137507143Y-126431952D01*
X137507143Y-126431952D02*
X137483334Y-126503380D01*
X137483334Y-126503380D02*
X137435715Y-126551000D01*
X137435715Y-126551000D02*
X137364286Y-126574809D01*
X137364286Y-126574809D02*
X137316667Y-126574809D01*
X137983333Y-126074809D02*
X137745238Y-126074809D01*
X137745238Y-126074809D02*
X137721429Y-126312904D01*
X137721429Y-126312904D02*
X137745238Y-126289095D01*
X137745238Y-126289095D02*
X137792857Y-126265285D01*
X137792857Y-126265285D02*
X137911905Y-126265285D01*
X137911905Y-126265285D02*
X137959524Y-126289095D01*
X137959524Y-126289095D02*
X137983333Y-126312904D01*
X137983333Y-126312904D02*
X138007143Y-126360523D01*
X138007143Y-126360523D02*
X138007143Y-126479571D01*
X138007143Y-126479571D02*
X137983333Y-126527190D01*
X137983333Y-126527190D02*
X137959524Y-126551000D01*
X137959524Y-126551000D02*
X137911905Y-126574809D01*
X137911905Y-126574809D02*
X137792857Y-126574809D01*
X137792857Y-126574809D02*
X137745238Y-126551000D01*
X137745238Y-126551000D02*
X137721429Y-126527190D01*
X138316666Y-126074809D02*
X138364285Y-126074809D01*
X138364285Y-126074809D02*
X138411904Y-126098619D01*
X138411904Y-126098619D02*
X138435714Y-126122428D01*
X138435714Y-126122428D02*
X138459523Y-126170047D01*
X138459523Y-126170047D02*
X138483333Y-126265285D01*
X138483333Y-126265285D02*
X138483333Y-126384333D01*
X138483333Y-126384333D02*
X138459523Y-126479571D01*
X138459523Y-126479571D02*
X138435714Y-126527190D01*
X138435714Y-126527190D02*
X138411904Y-126551000D01*
X138411904Y-126551000D02*
X138364285Y-126574809D01*
X138364285Y-126574809D02*
X138316666Y-126574809D01*
X138316666Y-126574809D02*
X138269047Y-126551000D01*
X138269047Y-126551000D02*
X138245238Y-126527190D01*
X138245238Y-126527190D02*
X138221428Y-126479571D01*
X138221428Y-126479571D02*
X138197619Y-126384333D01*
X138197619Y-126384333D02*
X138197619Y-126265285D01*
X138197619Y-126265285D02*
X138221428Y-126170047D01*
X138221428Y-126170047D02*
X138245238Y-126122428D01*
X138245238Y-126122428D02*
X138269047Y-126098619D01*
X138269047Y-126098619D02*
X138316666Y-126074809D01*
X138911904Y-126074809D02*
X138816666Y-126074809D01*
X138816666Y-126074809D02*
X138769047Y-126098619D01*
X138769047Y-126098619D02*
X138745237Y-126122428D01*
X138745237Y-126122428D02*
X138697618Y-126193857D01*
X138697618Y-126193857D02*
X138673809Y-126289095D01*
X138673809Y-126289095D02*
X138673809Y-126479571D01*
X138673809Y-126479571D02*
X138697618Y-126527190D01*
X138697618Y-126527190D02*
X138721428Y-126551000D01*
X138721428Y-126551000D02*
X138769047Y-126574809D01*
X138769047Y-126574809D02*
X138864285Y-126574809D01*
X138864285Y-126574809D02*
X138911904Y-126551000D01*
X138911904Y-126551000D02*
X138935713Y-126527190D01*
X138935713Y-126527190D02*
X138959523Y-126479571D01*
X138959523Y-126479571D02*
X138959523Y-126360523D01*
X138959523Y-126360523D02*
X138935713Y-126312904D01*
X138935713Y-126312904D02*
X138911904Y-126289095D01*
X138911904Y-126289095D02*
X138864285Y-126265285D01*
X138864285Y-126265285D02*
X138769047Y-126265285D01*
X138769047Y-126265285D02*
X138721428Y-126289095D01*
X138721428Y-126289095D02*
X138697618Y-126312904D01*
X138697618Y-126312904D02*
X138673809Y-126360523D01*
D11*
X169870238Y-104188595D02*
X169858334Y-104200500D01*
X169858334Y-104200500D02*
X169822619Y-104212404D01*
X169822619Y-104212404D02*
X169798810Y-104212404D01*
X169798810Y-104212404D02*
X169763096Y-104200500D01*
X169763096Y-104200500D02*
X169739286Y-104176690D01*
X169739286Y-104176690D02*
X169727381Y-104152880D01*
X169727381Y-104152880D02*
X169715477Y-104105261D01*
X169715477Y-104105261D02*
X169715477Y-104069547D01*
X169715477Y-104069547D02*
X169727381Y-104021928D01*
X169727381Y-104021928D02*
X169739286Y-103998119D01*
X169739286Y-103998119D02*
X169763096Y-103974309D01*
X169763096Y-103974309D02*
X169798810Y-103962404D01*
X169798810Y-103962404D02*
X169822619Y-103962404D01*
X169822619Y-103962404D02*
X169858334Y-103974309D01*
X169858334Y-103974309D02*
X169870238Y-103986214D01*
X170096429Y-103962404D02*
X169977381Y-103962404D01*
X169977381Y-103962404D02*
X169965477Y-104081452D01*
X169965477Y-104081452D02*
X169977381Y-104069547D01*
X169977381Y-104069547D02*
X170001191Y-104057642D01*
X170001191Y-104057642D02*
X170060715Y-104057642D01*
X170060715Y-104057642D02*
X170084524Y-104069547D01*
X170084524Y-104069547D02*
X170096429Y-104081452D01*
X170096429Y-104081452D02*
X170108334Y-104105261D01*
X170108334Y-104105261D02*
X170108334Y-104164785D01*
X170108334Y-104164785D02*
X170096429Y-104188595D01*
X170096429Y-104188595D02*
X170084524Y-104200500D01*
X170084524Y-104200500D02*
X170060715Y-104212404D01*
X170060715Y-104212404D02*
X170001191Y-104212404D01*
X170001191Y-104212404D02*
X169977381Y-104200500D01*
X169977381Y-104200500D02*
X169965477Y-104188595D01*
X170263095Y-103962404D02*
X170286905Y-103962404D01*
X170286905Y-103962404D02*
X170310714Y-103974309D01*
X170310714Y-103974309D02*
X170322619Y-103986214D01*
X170322619Y-103986214D02*
X170334524Y-104010023D01*
X170334524Y-104010023D02*
X170346429Y-104057642D01*
X170346429Y-104057642D02*
X170346429Y-104117166D01*
X170346429Y-104117166D02*
X170334524Y-104164785D01*
X170334524Y-104164785D02*
X170322619Y-104188595D01*
X170322619Y-104188595D02*
X170310714Y-104200500D01*
X170310714Y-104200500D02*
X170286905Y-104212404D01*
X170286905Y-104212404D02*
X170263095Y-104212404D01*
X170263095Y-104212404D02*
X170239286Y-104200500D01*
X170239286Y-104200500D02*
X170227381Y-104188595D01*
X170227381Y-104188595D02*
X170215476Y-104164785D01*
X170215476Y-104164785D02*
X170203572Y-104117166D01*
X170203572Y-104117166D02*
X170203572Y-104057642D01*
X170203572Y-104057642D02*
X170215476Y-104010023D01*
X170215476Y-104010023D02*
X170227381Y-103986214D01*
X170227381Y-103986214D02*
X170239286Y-103974309D01*
X170239286Y-103974309D02*
X170263095Y-103962404D01*
X170441667Y-103986214D02*
X170453571Y-103974309D01*
X170453571Y-103974309D02*
X170477381Y-103962404D01*
X170477381Y-103962404D02*
X170536905Y-103962404D01*
X170536905Y-103962404D02*
X170560714Y-103974309D01*
X170560714Y-103974309D02*
X170572619Y-103986214D01*
X170572619Y-103986214D02*
X170584524Y-104010023D01*
X170584524Y-104010023D02*
X170584524Y-104033833D01*
X170584524Y-104033833D02*
X170572619Y-104069547D01*
X170572619Y-104069547D02*
X170429762Y-104212404D01*
X170429762Y-104212404D02*
X170584524Y-104212404D01*
D10*
X157507143Y-126074809D02*
X157507143Y-126431952D01*
X157507143Y-126431952D02*
X157483334Y-126503380D01*
X157483334Y-126503380D02*
X157435715Y-126551000D01*
X157435715Y-126551000D02*
X157364286Y-126574809D01*
X157364286Y-126574809D02*
X157316667Y-126574809D01*
X157983333Y-126074809D02*
X157745238Y-126074809D01*
X157745238Y-126074809D02*
X157721429Y-126312904D01*
X157721429Y-126312904D02*
X157745238Y-126289095D01*
X157745238Y-126289095D02*
X157792857Y-126265285D01*
X157792857Y-126265285D02*
X157911905Y-126265285D01*
X157911905Y-126265285D02*
X157959524Y-126289095D01*
X157959524Y-126289095D02*
X157983333Y-126312904D01*
X157983333Y-126312904D02*
X158007143Y-126360523D01*
X158007143Y-126360523D02*
X158007143Y-126479571D01*
X158007143Y-126479571D02*
X157983333Y-126527190D01*
X157983333Y-126527190D02*
X157959524Y-126551000D01*
X157959524Y-126551000D02*
X157911905Y-126574809D01*
X157911905Y-126574809D02*
X157792857Y-126574809D01*
X157792857Y-126574809D02*
X157745238Y-126551000D01*
X157745238Y-126551000D02*
X157721429Y-126527190D01*
X158316666Y-126074809D02*
X158364285Y-126074809D01*
X158364285Y-126074809D02*
X158411904Y-126098619D01*
X158411904Y-126098619D02*
X158435714Y-126122428D01*
X158435714Y-126122428D02*
X158459523Y-126170047D01*
X158459523Y-126170047D02*
X158483333Y-126265285D01*
X158483333Y-126265285D02*
X158483333Y-126384333D01*
X158483333Y-126384333D02*
X158459523Y-126479571D01*
X158459523Y-126479571D02*
X158435714Y-126527190D01*
X158435714Y-126527190D02*
X158411904Y-126551000D01*
X158411904Y-126551000D02*
X158364285Y-126574809D01*
X158364285Y-126574809D02*
X158316666Y-126574809D01*
X158316666Y-126574809D02*
X158269047Y-126551000D01*
X158269047Y-126551000D02*
X158245238Y-126527190D01*
X158245238Y-126527190D02*
X158221428Y-126479571D01*
X158221428Y-126479571D02*
X158197619Y-126384333D01*
X158197619Y-126384333D02*
X158197619Y-126265285D01*
X158197619Y-126265285D02*
X158221428Y-126170047D01*
X158221428Y-126170047D02*
X158245238Y-126122428D01*
X158245238Y-126122428D02*
X158269047Y-126098619D01*
X158269047Y-126098619D02*
X158316666Y-126074809D01*
X158935713Y-126074809D02*
X158697618Y-126074809D01*
X158697618Y-126074809D02*
X158673809Y-126312904D01*
X158673809Y-126312904D02*
X158697618Y-126289095D01*
X158697618Y-126289095D02*
X158745237Y-126265285D01*
X158745237Y-126265285D02*
X158864285Y-126265285D01*
X158864285Y-126265285D02*
X158911904Y-126289095D01*
X158911904Y-126289095D02*
X158935713Y-126312904D01*
X158935713Y-126312904D02*
X158959523Y-126360523D01*
X158959523Y-126360523D02*
X158959523Y-126479571D01*
X158959523Y-126479571D02*
X158935713Y-126527190D01*
X158935713Y-126527190D02*
X158911904Y-126551000D01*
X158911904Y-126551000D02*
X158864285Y-126574809D01*
X158864285Y-126574809D02*
X158745237Y-126574809D01*
X158745237Y-126574809D02*
X158697618Y-126551000D01*
X158697618Y-126551000D02*
X158673809Y-126527190D01*
X192874809Y-101992856D02*
X193231952Y-101992856D01*
X193231952Y-101992856D02*
X193303380Y-102016665D01*
X193303380Y-102016665D02*
X193351000Y-102064284D01*
X193351000Y-102064284D02*
X193374809Y-102135713D01*
X193374809Y-102135713D02*
X193374809Y-102183332D01*
X192874809Y-101802380D02*
X192874809Y-101492856D01*
X192874809Y-101492856D02*
X193065285Y-101659523D01*
X193065285Y-101659523D02*
X193065285Y-101588094D01*
X193065285Y-101588094D02*
X193089095Y-101540475D01*
X193089095Y-101540475D02*
X193112904Y-101516666D01*
X193112904Y-101516666D02*
X193160523Y-101492856D01*
X193160523Y-101492856D02*
X193279571Y-101492856D01*
X193279571Y-101492856D02*
X193327190Y-101516666D01*
X193327190Y-101516666D02*
X193351000Y-101540475D01*
X193351000Y-101540475D02*
X193374809Y-101588094D01*
X193374809Y-101588094D02*
X193374809Y-101730951D01*
X193374809Y-101730951D02*
X193351000Y-101778570D01*
X193351000Y-101778570D02*
X193327190Y-101802380D01*
X192874809Y-101183333D02*
X192874809Y-101135714D01*
X192874809Y-101135714D02*
X192898619Y-101088095D01*
X192898619Y-101088095D02*
X192922428Y-101064285D01*
X192922428Y-101064285D02*
X192970047Y-101040476D01*
X192970047Y-101040476D02*
X193065285Y-101016666D01*
X193065285Y-101016666D02*
X193184333Y-101016666D01*
X193184333Y-101016666D02*
X193279571Y-101040476D01*
X193279571Y-101040476D02*
X193327190Y-101064285D01*
X193327190Y-101064285D02*
X193351000Y-101088095D01*
X193351000Y-101088095D02*
X193374809Y-101135714D01*
X193374809Y-101135714D02*
X193374809Y-101183333D01*
X193374809Y-101183333D02*
X193351000Y-101230952D01*
X193351000Y-101230952D02*
X193327190Y-101254761D01*
X193327190Y-101254761D02*
X193279571Y-101278571D01*
X193279571Y-101278571D02*
X193184333Y-101302380D01*
X193184333Y-101302380D02*
X193065285Y-101302380D01*
X193065285Y-101302380D02*
X192970047Y-101278571D01*
X192970047Y-101278571D02*
X192922428Y-101254761D01*
X192922428Y-101254761D02*
X192898619Y-101230952D01*
X192898619Y-101230952D02*
X192874809Y-101183333D01*
X193374809Y-100540476D02*
X193374809Y-100826190D01*
X193374809Y-100683333D02*
X192874809Y-100683333D01*
X192874809Y-100683333D02*
X192946238Y-100730952D01*
X192946238Y-100730952D02*
X192993857Y-100778571D01*
X192993857Y-100778571D02*
X193017666Y-100826190D01*
X157507143Y-76074809D02*
X157507143Y-76431952D01*
X157507143Y-76431952D02*
X157483334Y-76503380D01*
X157483334Y-76503380D02*
X157435715Y-76551000D01*
X157435715Y-76551000D02*
X157364286Y-76574809D01*
X157364286Y-76574809D02*
X157316667Y-76574809D01*
X157983333Y-76074809D02*
X157745238Y-76074809D01*
X157745238Y-76074809D02*
X157721429Y-76312904D01*
X157721429Y-76312904D02*
X157745238Y-76289095D01*
X157745238Y-76289095D02*
X157792857Y-76265285D01*
X157792857Y-76265285D02*
X157911905Y-76265285D01*
X157911905Y-76265285D02*
X157959524Y-76289095D01*
X157959524Y-76289095D02*
X157983333Y-76312904D01*
X157983333Y-76312904D02*
X158007143Y-76360523D01*
X158007143Y-76360523D02*
X158007143Y-76479571D01*
X158007143Y-76479571D02*
X157983333Y-76527190D01*
X157983333Y-76527190D02*
X157959524Y-76551000D01*
X157959524Y-76551000D02*
X157911905Y-76574809D01*
X157911905Y-76574809D02*
X157792857Y-76574809D01*
X157792857Y-76574809D02*
X157745238Y-76551000D01*
X157745238Y-76551000D02*
X157721429Y-76527190D01*
X158316666Y-76074809D02*
X158364285Y-76074809D01*
X158364285Y-76074809D02*
X158411904Y-76098619D01*
X158411904Y-76098619D02*
X158435714Y-76122428D01*
X158435714Y-76122428D02*
X158459523Y-76170047D01*
X158459523Y-76170047D02*
X158483333Y-76265285D01*
X158483333Y-76265285D02*
X158483333Y-76384333D01*
X158483333Y-76384333D02*
X158459523Y-76479571D01*
X158459523Y-76479571D02*
X158435714Y-76527190D01*
X158435714Y-76527190D02*
X158411904Y-76551000D01*
X158411904Y-76551000D02*
X158364285Y-76574809D01*
X158364285Y-76574809D02*
X158316666Y-76574809D01*
X158316666Y-76574809D02*
X158269047Y-76551000D01*
X158269047Y-76551000D02*
X158245238Y-76527190D01*
X158245238Y-76527190D02*
X158221428Y-76479571D01*
X158221428Y-76479571D02*
X158197619Y-76384333D01*
X158197619Y-76384333D02*
X158197619Y-76265285D01*
X158197619Y-76265285D02*
X158221428Y-76170047D01*
X158221428Y-76170047D02*
X158245238Y-76122428D01*
X158245238Y-76122428D02*
X158269047Y-76098619D01*
X158269047Y-76098619D02*
X158316666Y-76074809D01*
X158673809Y-76122428D02*
X158697618Y-76098619D01*
X158697618Y-76098619D02*
X158745237Y-76074809D01*
X158745237Y-76074809D02*
X158864285Y-76074809D01*
X158864285Y-76074809D02*
X158911904Y-76098619D01*
X158911904Y-76098619D02*
X158935713Y-76122428D01*
X158935713Y-76122428D02*
X158959523Y-76170047D01*
X158959523Y-76170047D02*
X158959523Y-76217666D01*
X158959523Y-76217666D02*
X158935713Y-76289095D01*
X158935713Y-76289095D02*
X158649999Y-76574809D01*
X158649999Y-76574809D02*
X158959523Y-76574809D01*
X124607144Y-114801000D02*
X124678572Y-114824809D01*
X124678572Y-114824809D02*
X124797620Y-114824809D01*
X124797620Y-114824809D02*
X124845239Y-114801000D01*
X124845239Y-114801000D02*
X124869048Y-114777190D01*
X124869048Y-114777190D02*
X124892858Y-114729571D01*
X124892858Y-114729571D02*
X124892858Y-114681952D01*
X124892858Y-114681952D02*
X124869048Y-114634333D01*
X124869048Y-114634333D02*
X124845239Y-114610523D01*
X124845239Y-114610523D02*
X124797620Y-114586714D01*
X124797620Y-114586714D02*
X124702382Y-114562904D01*
X124702382Y-114562904D02*
X124654763Y-114539095D01*
X124654763Y-114539095D02*
X124630953Y-114515285D01*
X124630953Y-114515285D02*
X124607144Y-114467666D01*
X124607144Y-114467666D02*
X124607144Y-114420047D01*
X124607144Y-114420047D02*
X124630953Y-114372428D01*
X124630953Y-114372428D02*
X124654763Y-114348619D01*
X124654763Y-114348619D02*
X124702382Y-114324809D01*
X124702382Y-114324809D02*
X124821429Y-114324809D01*
X124821429Y-114324809D02*
X124892858Y-114348619D01*
X125059524Y-114324809D02*
X125178572Y-114824809D01*
X125178572Y-114824809D02*
X125273810Y-114467666D01*
X125273810Y-114467666D02*
X125369048Y-114824809D01*
X125369048Y-114824809D02*
X125488096Y-114324809D01*
X125892858Y-114491476D02*
X125892858Y-114824809D01*
X125773810Y-114301000D02*
X125654763Y-114658142D01*
X125654763Y-114658142D02*
X125964286Y-114658142D01*
X126250000Y-114324809D02*
X126297619Y-114324809D01*
X126297619Y-114324809D02*
X126345238Y-114348619D01*
X126345238Y-114348619D02*
X126369048Y-114372428D01*
X126369048Y-114372428D02*
X126392857Y-114420047D01*
X126392857Y-114420047D02*
X126416667Y-114515285D01*
X126416667Y-114515285D02*
X126416667Y-114634333D01*
X126416667Y-114634333D02*
X126392857Y-114729571D01*
X126392857Y-114729571D02*
X126369048Y-114777190D01*
X126369048Y-114777190D02*
X126345238Y-114801000D01*
X126345238Y-114801000D02*
X126297619Y-114824809D01*
X126297619Y-114824809D02*
X126250000Y-114824809D01*
X126250000Y-114824809D02*
X126202381Y-114801000D01*
X126202381Y-114801000D02*
X126178572Y-114777190D01*
X126178572Y-114777190D02*
X126154762Y-114729571D01*
X126154762Y-114729571D02*
X126130953Y-114634333D01*
X126130953Y-114634333D02*
X126130953Y-114515285D01*
X126130953Y-114515285D02*
X126154762Y-114420047D01*
X126154762Y-114420047D02*
X126178572Y-114372428D01*
X126178572Y-114372428D02*
X126202381Y-114348619D01*
X126202381Y-114348619D02*
X126250000Y-114324809D01*
X126892857Y-114824809D02*
X126607143Y-114824809D01*
X126750000Y-114824809D02*
X126750000Y-114324809D01*
X126750000Y-114324809D02*
X126702381Y-114396238D01*
X126702381Y-114396238D02*
X126654762Y-114443857D01*
X126654762Y-114443857D02*
X126607143Y-114467666D01*
D12*
X170610000Y-103600000D02*
X170610000Y-99100000D01*
X174110000Y-99100000D02*
X170610000Y-99100000D01*
X174110000Y-103600000D02*
X170610000Y-103600000D01*
X174110000Y-103600000D02*
X174110000Y-99100000D01*
D13*
X169960000Y-99350000D02*
G75*
G03*
X169760000Y-99350000I-100000J0D01*
G01*
X169760000Y-99350000D02*
G75*
G03*
X169960000Y-99350000I100000J0D01*
G01*
D14*
X185650000Y-131100000D02*
X185650000Y-122100000D01*
X185650000Y-122100000D02*
X181650000Y-122100000D01*
X181650000Y-122100000D02*
X181650000Y-118350000D01*
X181650000Y-118350000D02*
X174650000Y-118350000D01*
X174650000Y-122100000D02*
X170650000Y-122100000D01*
X174650000Y-118350000D02*
X174650000Y-122100000D01*
X170650000Y-131100000D02*
X185650000Y-131100000D01*
X170650000Y-122100000D02*
X170650000Y-131100000D01*
D15*
X173925000Y-121100000D02*
G75*
G03*
X173375000Y-121100000I-275000J0D01*
G01*
X173375000Y-121100000D02*
G75*
G03*
X173925000Y-121100000I275000J0D01*
G01*
D16*
X117750000Y-92460000D02*
X117750000Y-99064000D01*
X117750000Y-99064000D02*
X118258000Y-99572000D01*
X117750000Y-103636000D02*
X117750000Y-110240000D01*
X118258000Y-99572000D02*
X118258000Y-103128000D01*
X118258000Y-103128000D02*
X117750000Y-103636000D01*
X120290000Y-112780000D02*
X166010000Y-112780000D01*
D17*
X124545000Y-90476000D02*
X132545000Y-90476000D01*
X124545000Y-97976000D02*
X124545000Y-90476000D01*
X125345000Y-95476000D02*
X125345000Y-97976000D01*
X125345000Y-97976000D02*
X124545000Y-97976000D01*
X131745000Y-95476000D02*
X125345000Y-95476000D01*
X131745000Y-97976000D02*
X131745000Y-95476000D01*
X132545000Y-90476000D02*
X132545000Y-97976000D01*
X132545000Y-97976000D02*
X131745000Y-97976000D01*
D16*
X166010000Y-89920000D02*
X120290000Y-89920000D01*
X168550000Y-110240000D02*
X168550000Y-92460000D01*
X120290000Y-89920000D02*
G75*
G03*
X117750000Y-92460000I1J-2540001D01*
G01*
X117750000Y-110240000D02*
G75*
G03*
X120290000Y-112780000I2540001J1D01*
G01*
X168550000Y-92460000D02*
G75*
G03*
X166010000Y-89920000I-2540000J0D01*
G01*
X166010000Y-112780000D02*
G75*
G03*
X168550000Y-110240000I0J2540000D01*
G01*
X124750000Y-76350000D02*
G75*
G03*
X121550000Y-76350000I-1600000J0D01*
G01*
X121550000Y-76350000D02*
G75*
G03*
X124750000Y-76350000I1600000J0D01*
G01*
X120550000Y-81030000D02*
G75*
G03*
X119550000Y-81030000I-500000J0D01*
G01*
X119550000Y-81030000D02*
G75*
G03*
X120550000Y-81030000I500000J0D01*
G01*
X194750000Y-76350000D02*
G75*
G03*
X191550000Y-76350000I-1600000J0D01*
G01*
X191550000Y-76350000D02*
G75*
G03*
X194750000Y-76350000I1600000J0D01*
G01*
X174400000Y-97850000D02*
X175400000Y-97850000D01*
X174400000Y-98350000D02*
X174400000Y-97850000D01*
X175400000Y-97850000D02*
X175400000Y-98350000D01*
X175400000Y-98350000D02*
X174400000Y-98350000D01*
D14*
X130650000Y-71600000D02*
X130650000Y-80600000D01*
X130650000Y-80600000D02*
X134650000Y-80600000D01*
X134650000Y-80600000D02*
X134650000Y-84350000D01*
X134650000Y-84350000D02*
X141650000Y-84350000D01*
X141650000Y-80600000D02*
X145650000Y-80600000D01*
X141650000Y-84350000D02*
X141650000Y-80600000D01*
X145650000Y-71600000D02*
X130650000Y-71600000D01*
X145650000Y-80600000D02*
X145650000Y-71600000D01*
D15*
X142925000Y-81600000D02*
G75*
G03*
X142375000Y-81600000I-275000J0D01*
G01*
X142375000Y-81600000D02*
G75*
G03*
X142925000Y-81600000I275000J0D01*
G01*
D16*
X196750000Y-121670000D02*
G75*
G03*
X195750000Y-121670000I-500000J0D01*
G01*
X195750000Y-121670000D02*
G75*
G03*
X196750000Y-121670000I500000J0D01*
G01*
X194750000Y-126350000D02*
G75*
G03*
X191550000Y-126350000I-1600000J0D01*
G01*
X191550000Y-126350000D02*
G75*
G03*
X194750000Y-126350000I1600000J0D01*
G01*
X124750000Y-126350000D02*
G75*
G03*
X121550000Y-126350000I-1600000J0D01*
G01*
X121550000Y-126350000D02*
G75*
G03*
X124750000Y-126350000I1600000J0D01*
G01*
D14*
X170650000Y-71600000D02*
X170650000Y-80600000D01*
X170650000Y-80600000D02*
X174650000Y-80600000D01*
X174650000Y-80600000D02*
X174650000Y-84350000D01*
X174650000Y-84350000D02*
X181650000Y-84350000D01*
X181650000Y-80600000D02*
X185650000Y-80600000D01*
X181650000Y-84350000D02*
X181650000Y-80600000D01*
X185650000Y-71600000D02*
X170650000Y-71600000D01*
X185650000Y-80600000D02*
X185650000Y-71600000D01*
D15*
X182925000Y-81600000D02*
G75*
G03*
X182375000Y-81600000I-275000J0D01*
G01*
X182375000Y-81600000D02*
G75*
G03*
X182925000Y-81600000I275000J0D01*
G01*
D14*
X145650000Y-131100000D02*
X145650000Y-122100000D01*
X145650000Y-122100000D02*
X141650000Y-122100000D01*
X141650000Y-122100000D02*
X141650000Y-118350000D01*
X141650000Y-118350000D02*
X134650000Y-118350000D01*
X134650000Y-122100000D02*
X130650000Y-122100000D01*
X134650000Y-118350000D02*
X134650000Y-122100000D01*
X130650000Y-131100000D02*
X145650000Y-131100000D01*
X130650000Y-122100000D02*
X130650000Y-131100000D01*
D15*
X133925000Y-121100000D02*
G75*
G03*
X133375000Y-121100000I-275000J0D01*
G01*
X133375000Y-121100000D02*
G75*
G03*
X133925000Y-121100000I275000J0D01*
G01*
D16*
X170650000Y-104850000D02*
X169650000Y-104850000D01*
X170650000Y-104350000D02*
X170650000Y-104850000D01*
X169650000Y-104850000D02*
X169650000Y-104350000D01*
X169650000Y-104350000D02*
X170650000Y-104350000D01*
D14*
X165650000Y-131100000D02*
X165650000Y-122100000D01*
X165650000Y-122100000D02*
X161650000Y-122100000D01*
X161650000Y-122100000D02*
X161650000Y-118350000D01*
X161650000Y-118350000D02*
X154650000Y-118350000D01*
X154650000Y-122100000D02*
X150650000Y-122100000D01*
X154650000Y-118350000D02*
X154650000Y-122100000D01*
X150650000Y-131100000D02*
X165650000Y-131100000D01*
X150650000Y-122100000D02*
X150650000Y-131100000D01*
D15*
X153925000Y-121100000D02*
G75*
G03*
X153375000Y-121100000I-275000J0D01*
G01*
X153375000Y-121100000D02*
G75*
G03*
X153925000Y-121100000I275000J0D01*
G01*
D14*
X197900000Y-93850000D02*
X188900000Y-93850000D01*
X188900000Y-93850000D02*
X188900000Y-97850000D01*
X188900000Y-97850000D02*
X185150000Y-97850000D01*
X185150000Y-97850000D02*
X185150000Y-104850000D01*
X188900000Y-104850000D02*
X188900000Y-108850000D01*
X185150000Y-104850000D02*
X188900000Y-104850000D01*
X197900000Y-108850000D02*
X197900000Y-93850000D01*
X188900000Y-108850000D02*
X197900000Y-108850000D01*
D15*
X188175000Y-105850000D02*
G75*
G03*
X187625000Y-105850000I-275000J0D01*
G01*
X187625000Y-105850000D02*
G75*
G03*
X188175000Y-105850000I275000J0D01*
G01*
D14*
X150650000Y-71600000D02*
X150650000Y-80600000D01*
X150650000Y-80600000D02*
X154650000Y-80600000D01*
X154650000Y-80600000D02*
X154650000Y-84350000D01*
X154650000Y-84350000D02*
X161650000Y-84350000D01*
X161650000Y-80600000D02*
X165650000Y-80600000D01*
X161650000Y-84350000D02*
X161650000Y-80600000D01*
X165650000Y-71600000D02*
X150650000Y-71600000D01*
X165650000Y-80600000D02*
X165650000Y-71600000D01*
D15*
X162925000Y-81600000D02*
G75*
G03*
X162375000Y-81600000I-275000J0D01*
G01*
X162375000Y-81600000D02*
G75*
G03*
X162925000Y-81600000I275000J0D01*
G01*
D16*
X124350000Y-115650000D02*
X127150000Y-115650000D01*
X124350000Y-117050000D02*
X124350000Y-115650000D01*
X127150000Y-115650000D02*
X127150000Y-117050000D01*
X127150000Y-117050000D02*
X124350000Y-117050000D01*
D13*
X122600000Y-115080000D02*
X128900000Y-115080000D01*
X128900000Y-115080000D02*
X128900000Y-117620000D01*
X128900000Y-117620000D02*
X122600000Y-117620000D01*
X122600000Y-117620000D02*
X122600000Y-115080000D01*
M02*
