G04 #@! TF.GenerationSoftware,KiCad,Pcbnew,7.0.11*
G04 #@! TF.CreationDate,2025-02-19T11:42:19-05:00*
G04 #@! TF.ProjectId,thruster-pcb,74687275-7374-4657-922d-7063622e6b69,1.0*
G04 #@! TF.SameCoordinates,Original*
G04 #@! TF.FileFunction,Legend,Top*
G04 #@! TF.FilePolarity,Positive*
%FSLAX46Y46*%
G04 Gerber Fmt 4.6, Leading zero omitted, Abs format (unit mm)*
G04 Created by KiCad (PCBNEW 7.0.11) date 2025-02-19 11:42:19*
%MOMM*%
%LPD*%
G01*
G04 APERTURE LIST*
G04 Aperture macros list*
%AMRoundRect*
0 Rectangle with rounded corners*
0 $1 Rounding radius*
0 $2 $3 $4 $5 $6 $7 $8 $9 X,Y pos of 4 corners*
0 Add a 4 corners polygon primitive as box body*
4,1,4,$2,$3,$4,$5,$6,$7,$8,$9,$2,$3,0*
0 Add four circle primitives for the rounded corners*
1,1,$1+$1,$2,$3*
1,1,$1+$1,$4,$5*
1,1,$1+$1,$6,$7*
1,1,$1+$1,$8,$9*
0 Add four rect primitives between the rounded corners*
20,1,$1+$1,$2,$3,$4,$5,0*
20,1,$1+$1,$4,$5,$6,$7,0*
20,1,$1+$1,$6,$7,$8,$9,0*
20,1,$1+$1,$8,$9,$2,$3,0*%
G04 Aperture macros list end*
%ADD10C,0.375000*%
%ADD11C,0.200000*%
%ADD12C,0.187500*%
%ADD13C,0.250000*%
%ADD14C,0.125000*%
%ADD15C,0.317500*%
%ADD16C,0.127000*%
%ADD17C,0.400000*%
%ADD18C,0.100000*%
%ADD19C,0.550000*%
%ADD20C,0.150000*%
%ADD21RoundRect,0.048000X-0.072000X-0.252000X0.072000X-0.252000X0.072000X0.252000X-0.072000X0.252000X0*%
%ADD22RoundRect,0.048000X-0.252000X-0.072000X0.252000X-0.072000X0.252000X0.072000X-0.252000X0.072000X0*%
%ADD23R,2.050000X3.050000*%
%ADD24RoundRect,0.487500X0.487500X0.862500X-0.487500X0.862500X-0.487500X-0.862500X0.487500X-0.862500X0*%
%ADD25C,1.600000*%
%ADD26RoundRect,0.255000X0.255000X1.345000X-0.255000X1.345000X-0.255000X-1.345000X0.255000X-1.345000X0*%
%ADD27C,1.879600*%
%ADD28C,6.400000*%
%ADD29C,1.000000*%
%ADD30RoundRect,0.140000X-0.140000X-0.170000X0.140000X-0.170000X0.140000X0.170000X-0.140000X0.170000X0*%
%ADD31RoundRect,0.487500X-0.487500X-0.862500X0.487500X-0.862500X0.487500X0.862500X-0.487500X0.862500X0*%
%ADD32RoundRect,0.255000X-0.255000X-1.345000X0.255000X-1.345000X0.255000X1.345000X-0.255000X1.345000X0*%
%ADD33RoundRect,0.140000X0.140000X0.170000X-0.140000X0.170000X-0.140000X-0.170000X0.140000X-0.170000X0*%
%ADD34RoundRect,0.487500X-0.862500X0.487500X-0.862500X-0.487500X0.862500X-0.487500X0.862500X0.487500X0*%
%ADD35RoundRect,0.255000X-1.345000X0.255000X-1.345000X-0.255000X1.345000X-0.255000X1.345000X0.255000X0*%
%ADD36R,2.200000X1.000000*%
G04 APERTURE END LIST*
D10*
X172221429Y-106109428D02*
X172792857Y-106109428D01*
X172435714Y-105609428D02*
X172435714Y-106895142D01*
X172435714Y-106895142D02*
X172507143Y-107038000D01*
X172507143Y-107038000D02*
X172650000Y-107109428D01*
X172650000Y-107109428D02*
X172792857Y-107109428D01*
X173292857Y-107109428D02*
X173292857Y-105609428D01*
X173935715Y-107109428D02*
X173935715Y-106323714D01*
X173935715Y-106323714D02*
X173864286Y-106180857D01*
X173864286Y-106180857D02*
X173721429Y-106109428D01*
X173721429Y-106109428D02*
X173507143Y-106109428D01*
X173507143Y-106109428D02*
X173364286Y-106180857D01*
X173364286Y-106180857D02*
X173292857Y-106252285D01*
X174650000Y-107109428D02*
X174650000Y-106109428D01*
X174650000Y-106395142D02*
X174721429Y-106252285D01*
X174721429Y-106252285D02*
X174792858Y-106180857D01*
X174792858Y-106180857D02*
X174935715Y-106109428D01*
X174935715Y-106109428D02*
X175078572Y-106109428D01*
X176221429Y-106109428D02*
X176221429Y-107109428D01*
X175578571Y-106109428D02*
X175578571Y-106895142D01*
X175578571Y-106895142D02*
X175650000Y-107038000D01*
X175650000Y-107038000D02*
X175792857Y-107109428D01*
X175792857Y-107109428D02*
X176007143Y-107109428D01*
X176007143Y-107109428D02*
X176150000Y-107038000D01*
X176150000Y-107038000D02*
X176221429Y-106966571D01*
X176864286Y-107038000D02*
X177007143Y-107109428D01*
X177007143Y-107109428D02*
X177292857Y-107109428D01*
X177292857Y-107109428D02*
X177435714Y-107038000D01*
X177435714Y-107038000D02*
X177507143Y-106895142D01*
X177507143Y-106895142D02*
X177507143Y-106823714D01*
X177507143Y-106823714D02*
X177435714Y-106680857D01*
X177435714Y-106680857D02*
X177292857Y-106609428D01*
X177292857Y-106609428D02*
X177078572Y-106609428D01*
X177078572Y-106609428D02*
X176935714Y-106538000D01*
X176935714Y-106538000D02*
X176864286Y-106395142D01*
X176864286Y-106395142D02*
X176864286Y-106323714D01*
X176864286Y-106323714D02*
X176935714Y-106180857D01*
X176935714Y-106180857D02*
X177078572Y-106109428D01*
X177078572Y-106109428D02*
X177292857Y-106109428D01*
X177292857Y-106109428D02*
X177435714Y-106180857D01*
X177935715Y-106109428D02*
X178507143Y-106109428D01*
X178150000Y-105609428D02*
X178150000Y-106895142D01*
X178150000Y-106895142D02*
X178221429Y-107038000D01*
X178221429Y-107038000D02*
X178364286Y-107109428D01*
X178364286Y-107109428D02*
X178507143Y-107109428D01*
X179578572Y-107038000D02*
X179435715Y-107109428D01*
X179435715Y-107109428D02*
X179150001Y-107109428D01*
X179150001Y-107109428D02*
X179007143Y-107038000D01*
X179007143Y-107038000D02*
X178935715Y-106895142D01*
X178935715Y-106895142D02*
X178935715Y-106323714D01*
X178935715Y-106323714D02*
X179007143Y-106180857D01*
X179007143Y-106180857D02*
X179150001Y-106109428D01*
X179150001Y-106109428D02*
X179435715Y-106109428D01*
X179435715Y-106109428D02*
X179578572Y-106180857D01*
X179578572Y-106180857D02*
X179650001Y-106323714D01*
X179650001Y-106323714D02*
X179650001Y-106466571D01*
X179650001Y-106466571D02*
X178935715Y-106609428D01*
X180292857Y-107109428D02*
X180292857Y-106109428D01*
X180292857Y-106395142D02*
X180364286Y-106252285D01*
X180364286Y-106252285D02*
X180435715Y-106180857D01*
X180435715Y-106180857D02*
X180578572Y-106109428D01*
X180578572Y-106109428D02*
X180721429Y-106109428D01*
X181221428Y-106538000D02*
X182364286Y-106538000D01*
X183078571Y-106109428D02*
X183078571Y-107609428D01*
X183078571Y-106180857D02*
X183221429Y-106109428D01*
X183221429Y-106109428D02*
X183507143Y-106109428D01*
X183507143Y-106109428D02*
X183650000Y-106180857D01*
X183650000Y-106180857D02*
X183721429Y-106252285D01*
X183721429Y-106252285D02*
X183792857Y-106395142D01*
X183792857Y-106395142D02*
X183792857Y-106823714D01*
X183792857Y-106823714D02*
X183721429Y-106966571D01*
X183721429Y-106966571D02*
X183650000Y-107038000D01*
X183650000Y-107038000D02*
X183507143Y-107109428D01*
X183507143Y-107109428D02*
X183221429Y-107109428D01*
X183221429Y-107109428D02*
X183078571Y-107038000D01*
X185078572Y-107038000D02*
X184935714Y-107109428D01*
X184935714Y-107109428D02*
X184650000Y-107109428D01*
X184650000Y-107109428D02*
X184507143Y-107038000D01*
X184507143Y-107038000D02*
X184435714Y-106966571D01*
X184435714Y-106966571D02*
X184364286Y-106823714D01*
X184364286Y-106823714D02*
X184364286Y-106395142D01*
X184364286Y-106395142D02*
X184435714Y-106252285D01*
X184435714Y-106252285D02*
X184507143Y-106180857D01*
X184507143Y-106180857D02*
X184650000Y-106109428D01*
X184650000Y-106109428D02*
X184935714Y-106109428D01*
X184935714Y-106109428D02*
X185078572Y-106180857D01*
X185721428Y-107109428D02*
X185721428Y-105609428D01*
X185721428Y-106180857D02*
X185864286Y-106109428D01*
X185864286Y-106109428D02*
X186150000Y-106109428D01*
X186150000Y-106109428D02*
X186292857Y-106180857D01*
X186292857Y-106180857D02*
X186364286Y-106252285D01*
X186364286Y-106252285D02*
X186435714Y-106395142D01*
X186435714Y-106395142D02*
X186435714Y-106823714D01*
X186435714Y-106823714D02*
X186364286Y-106966571D01*
X186364286Y-106966571D02*
X186292857Y-107038000D01*
X186292857Y-107038000D02*
X186150000Y-107109428D01*
X186150000Y-107109428D02*
X185864286Y-107109428D01*
X185864286Y-107109428D02*
X185721428Y-107038000D01*
X171614287Y-108524428D02*
X171971430Y-109524428D01*
X171971430Y-109524428D02*
X172328573Y-108524428D01*
X173685716Y-109524428D02*
X172828573Y-109524428D01*
X173257144Y-109524428D02*
X173257144Y-108024428D01*
X173257144Y-108024428D02*
X173114287Y-108238714D01*
X173114287Y-108238714D02*
X172971430Y-108381571D01*
X172971430Y-108381571D02*
X172828573Y-108453000D01*
X174328572Y-109381571D02*
X174400001Y-109453000D01*
X174400001Y-109453000D02*
X174328572Y-109524428D01*
X174328572Y-109524428D02*
X174257144Y-109453000D01*
X174257144Y-109453000D02*
X174328572Y-109381571D01*
X174328572Y-109381571D02*
X174328572Y-109524428D01*
X175328573Y-108024428D02*
X175471430Y-108024428D01*
X175471430Y-108024428D02*
X175614287Y-108095857D01*
X175614287Y-108095857D02*
X175685716Y-108167285D01*
X175685716Y-108167285D02*
X175757144Y-108310142D01*
X175757144Y-108310142D02*
X175828573Y-108595857D01*
X175828573Y-108595857D02*
X175828573Y-108953000D01*
X175828573Y-108953000D02*
X175757144Y-109238714D01*
X175757144Y-109238714D02*
X175685716Y-109381571D01*
X175685716Y-109381571D02*
X175614287Y-109453000D01*
X175614287Y-109453000D02*
X175471430Y-109524428D01*
X175471430Y-109524428D02*
X175328573Y-109524428D01*
X175328573Y-109524428D02*
X175185716Y-109453000D01*
X175185716Y-109453000D02*
X175114287Y-109381571D01*
X175114287Y-109381571D02*
X175042858Y-109238714D01*
X175042858Y-109238714D02*
X174971430Y-108953000D01*
X174971430Y-108953000D02*
X174971430Y-108595857D01*
X174971430Y-108595857D02*
X175042858Y-108310142D01*
X175042858Y-108310142D02*
X175114287Y-108167285D01*
X175114287Y-108167285D02*
X175185716Y-108095857D01*
X175185716Y-108095857D02*
X175328573Y-108024428D01*
X177542858Y-108167285D02*
X177614286Y-108095857D01*
X177614286Y-108095857D02*
X177757144Y-108024428D01*
X177757144Y-108024428D02*
X178114286Y-108024428D01*
X178114286Y-108024428D02*
X178257144Y-108095857D01*
X178257144Y-108095857D02*
X178328572Y-108167285D01*
X178328572Y-108167285D02*
X178400001Y-108310142D01*
X178400001Y-108310142D02*
X178400001Y-108453000D01*
X178400001Y-108453000D02*
X178328572Y-108667285D01*
X178328572Y-108667285D02*
X177471429Y-109524428D01*
X177471429Y-109524428D02*
X178400001Y-109524428D01*
X179328572Y-108024428D02*
X179471429Y-108024428D01*
X179471429Y-108024428D02*
X179614286Y-108095857D01*
X179614286Y-108095857D02*
X179685715Y-108167285D01*
X179685715Y-108167285D02*
X179757143Y-108310142D01*
X179757143Y-108310142D02*
X179828572Y-108595857D01*
X179828572Y-108595857D02*
X179828572Y-108953000D01*
X179828572Y-108953000D02*
X179757143Y-109238714D01*
X179757143Y-109238714D02*
X179685715Y-109381571D01*
X179685715Y-109381571D02*
X179614286Y-109453000D01*
X179614286Y-109453000D02*
X179471429Y-109524428D01*
X179471429Y-109524428D02*
X179328572Y-109524428D01*
X179328572Y-109524428D02*
X179185715Y-109453000D01*
X179185715Y-109453000D02*
X179114286Y-109381571D01*
X179114286Y-109381571D02*
X179042857Y-109238714D01*
X179042857Y-109238714D02*
X178971429Y-108953000D01*
X178971429Y-108953000D02*
X178971429Y-108595857D01*
X178971429Y-108595857D02*
X179042857Y-108310142D01*
X179042857Y-108310142D02*
X179114286Y-108167285D01*
X179114286Y-108167285D02*
X179185715Y-108095857D01*
X179185715Y-108095857D02*
X179328572Y-108024428D01*
X180400000Y-108167285D02*
X180471428Y-108095857D01*
X180471428Y-108095857D02*
X180614286Y-108024428D01*
X180614286Y-108024428D02*
X180971428Y-108024428D01*
X180971428Y-108024428D02*
X181114286Y-108095857D01*
X181114286Y-108095857D02*
X181185714Y-108167285D01*
X181185714Y-108167285D02*
X181257143Y-108310142D01*
X181257143Y-108310142D02*
X181257143Y-108453000D01*
X181257143Y-108453000D02*
X181185714Y-108667285D01*
X181185714Y-108667285D02*
X180328571Y-109524428D01*
X180328571Y-109524428D02*
X181257143Y-109524428D01*
X182614285Y-108024428D02*
X181899999Y-108024428D01*
X181899999Y-108024428D02*
X181828571Y-108738714D01*
X181828571Y-108738714D02*
X181899999Y-108667285D01*
X181899999Y-108667285D02*
X182042857Y-108595857D01*
X182042857Y-108595857D02*
X182399999Y-108595857D01*
X182399999Y-108595857D02*
X182542857Y-108667285D01*
X182542857Y-108667285D02*
X182614285Y-108738714D01*
X182614285Y-108738714D02*
X182685714Y-108881571D01*
X182685714Y-108881571D02*
X182685714Y-109238714D01*
X182685714Y-109238714D02*
X182614285Y-109381571D01*
X182614285Y-109381571D02*
X182542857Y-109453000D01*
X182542857Y-109453000D02*
X182399999Y-109524428D01*
X182399999Y-109524428D02*
X182042857Y-109524428D01*
X182042857Y-109524428D02*
X181899999Y-109453000D01*
X181899999Y-109453000D02*
X181828571Y-109381571D01*
X184399999Y-107953000D02*
X183114285Y-109881571D01*
X185185714Y-108024428D02*
X185328571Y-108024428D01*
X185328571Y-108024428D02*
X185471428Y-108095857D01*
X185471428Y-108095857D02*
X185542857Y-108167285D01*
X185542857Y-108167285D02*
X185614285Y-108310142D01*
X185614285Y-108310142D02*
X185685714Y-108595857D01*
X185685714Y-108595857D02*
X185685714Y-108953000D01*
X185685714Y-108953000D02*
X185614285Y-109238714D01*
X185614285Y-109238714D02*
X185542857Y-109381571D01*
X185542857Y-109381571D02*
X185471428Y-109453000D01*
X185471428Y-109453000D02*
X185328571Y-109524428D01*
X185328571Y-109524428D02*
X185185714Y-109524428D01*
X185185714Y-109524428D02*
X185042857Y-109453000D01*
X185042857Y-109453000D02*
X184971428Y-109381571D01*
X184971428Y-109381571D02*
X184899999Y-109238714D01*
X184899999Y-109238714D02*
X184828571Y-108953000D01*
X184828571Y-108953000D02*
X184828571Y-108595857D01*
X184828571Y-108595857D02*
X184899999Y-108310142D01*
X184899999Y-108310142D02*
X184971428Y-108167285D01*
X184971428Y-108167285D02*
X185042857Y-108095857D01*
X185042857Y-108095857D02*
X185185714Y-108024428D01*
X186257142Y-108167285D02*
X186328570Y-108095857D01*
X186328570Y-108095857D02*
X186471428Y-108024428D01*
X186471428Y-108024428D02*
X186828570Y-108024428D01*
X186828570Y-108024428D02*
X186971428Y-108095857D01*
X186971428Y-108095857D02*
X187042856Y-108167285D01*
X187042856Y-108167285D02*
X187114285Y-108310142D01*
X187114285Y-108310142D02*
X187114285Y-108453000D01*
X187114285Y-108453000D02*
X187042856Y-108667285D01*
X187042856Y-108667285D02*
X186185713Y-109524428D01*
X186185713Y-109524428D02*
X187114285Y-109524428D01*
X169221428Y-111939428D02*
X169221428Y-110439428D01*
X169221428Y-110439428D02*
X169721428Y-111510857D01*
X169721428Y-111510857D02*
X170221428Y-110439428D01*
X170221428Y-110439428D02*
X170221428Y-111939428D01*
X171507143Y-111868000D02*
X171364286Y-111939428D01*
X171364286Y-111939428D02*
X171078572Y-111939428D01*
X171078572Y-111939428D02*
X170935714Y-111868000D01*
X170935714Y-111868000D02*
X170864286Y-111725142D01*
X170864286Y-111725142D02*
X170864286Y-111153714D01*
X170864286Y-111153714D02*
X170935714Y-111010857D01*
X170935714Y-111010857D02*
X171078572Y-110939428D01*
X171078572Y-110939428D02*
X171364286Y-110939428D01*
X171364286Y-110939428D02*
X171507143Y-111010857D01*
X171507143Y-111010857D02*
X171578572Y-111153714D01*
X171578572Y-111153714D02*
X171578572Y-111296571D01*
X171578572Y-111296571D02*
X170864286Y-111439428D01*
X172864286Y-111868000D02*
X172721428Y-111939428D01*
X172721428Y-111939428D02*
X172435714Y-111939428D01*
X172435714Y-111939428D02*
X172292857Y-111868000D01*
X172292857Y-111868000D02*
X172221428Y-111796571D01*
X172221428Y-111796571D02*
X172150000Y-111653714D01*
X172150000Y-111653714D02*
X172150000Y-111225142D01*
X172150000Y-111225142D02*
X172221428Y-111082285D01*
X172221428Y-111082285D02*
X172292857Y-111010857D01*
X172292857Y-111010857D02*
X172435714Y-110939428D01*
X172435714Y-110939428D02*
X172721428Y-110939428D01*
X172721428Y-110939428D02*
X172864286Y-111010857D01*
X173507142Y-111939428D02*
X173507142Y-110439428D01*
X174150000Y-111939428D02*
X174150000Y-111153714D01*
X174150000Y-111153714D02*
X174078571Y-111010857D01*
X174078571Y-111010857D02*
X173935714Y-110939428D01*
X173935714Y-110939428D02*
X173721428Y-110939428D01*
X173721428Y-110939428D02*
X173578571Y-111010857D01*
X173578571Y-111010857D02*
X173507142Y-111082285D01*
X175507143Y-111939428D02*
X175507143Y-111153714D01*
X175507143Y-111153714D02*
X175435714Y-111010857D01*
X175435714Y-111010857D02*
X175292857Y-110939428D01*
X175292857Y-110939428D02*
X175007143Y-110939428D01*
X175007143Y-110939428D02*
X174864285Y-111010857D01*
X175507143Y-111868000D02*
X175364285Y-111939428D01*
X175364285Y-111939428D02*
X175007143Y-111939428D01*
X175007143Y-111939428D02*
X174864285Y-111868000D01*
X174864285Y-111868000D02*
X174792857Y-111725142D01*
X174792857Y-111725142D02*
X174792857Y-111582285D01*
X174792857Y-111582285D02*
X174864285Y-111439428D01*
X174864285Y-111439428D02*
X175007143Y-111368000D01*
X175007143Y-111368000D02*
X175364285Y-111368000D01*
X175364285Y-111368000D02*
X175507143Y-111296571D01*
X176007143Y-110939428D02*
X176578571Y-110939428D01*
X176221428Y-110439428D02*
X176221428Y-111725142D01*
X176221428Y-111725142D02*
X176292857Y-111868000D01*
X176292857Y-111868000D02*
X176435714Y-111939428D01*
X176435714Y-111939428D02*
X176578571Y-111939428D01*
X177078571Y-111939428D02*
X177078571Y-110939428D01*
X177078571Y-111225142D02*
X177150000Y-111082285D01*
X177150000Y-111082285D02*
X177221429Y-111010857D01*
X177221429Y-111010857D02*
X177364286Y-110939428D01*
X177364286Y-110939428D02*
X177507143Y-110939428D01*
X178221428Y-111939428D02*
X178078571Y-111868000D01*
X178078571Y-111868000D02*
X178007142Y-111796571D01*
X178007142Y-111796571D02*
X177935714Y-111653714D01*
X177935714Y-111653714D02*
X177935714Y-111225142D01*
X177935714Y-111225142D02*
X178007142Y-111082285D01*
X178007142Y-111082285D02*
X178078571Y-111010857D01*
X178078571Y-111010857D02*
X178221428Y-110939428D01*
X178221428Y-110939428D02*
X178435714Y-110939428D01*
X178435714Y-110939428D02*
X178578571Y-111010857D01*
X178578571Y-111010857D02*
X178650000Y-111082285D01*
X178650000Y-111082285D02*
X178721428Y-111225142D01*
X178721428Y-111225142D02*
X178721428Y-111653714D01*
X178721428Y-111653714D02*
X178650000Y-111796571D01*
X178650000Y-111796571D02*
X178578571Y-111868000D01*
X178578571Y-111868000D02*
X178435714Y-111939428D01*
X178435714Y-111939428D02*
X178221428Y-111939428D01*
X179364285Y-110939428D02*
X179364285Y-111939428D01*
X179364285Y-111082285D02*
X179435714Y-111010857D01*
X179435714Y-111010857D02*
X179578571Y-110939428D01*
X179578571Y-110939428D02*
X179792857Y-110939428D01*
X179792857Y-110939428D02*
X179935714Y-111010857D01*
X179935714Y-111010857D02*
X180007143Y-111153714D01*
X180007143Y-111153714D02*
X180007143Y-111939428D01*
X180721428Y-111939428D02*
X180721428Y-110939428D01*
X180721428Y-110439428D02*
X180650000Y-110510857D01*
X180650000Y-110510857D02*
X180721428Y-110582285D01*
X180721428Y-110582285D02*
X180792857Y-110510857D01*
X180792857Y-110510857D02*
X180721428Y-110439428D01*
X180721428Y-110439428D02*
X180721428Y-110582285D01*
X182078572Y-111868000D02*
X181935714Y-111939428D01*
X181935714Y-111939428D02*
X181650000Y-111939428D01*
X181650000Y-111939428D02*
X181507143Y-111868000D01*
X181507143Y-111868000D02*
X181435714Y-111796571D01*
X181435714Y-111796571D02*
X181364286Y-111653714D01*
X181364286Y-111653714D02*
X181364286Y-111225142D01*
X181364286Y-111225142D02*
X181435714Y-111082285D01*
X181435714Y-111082285D02*
X181507143Y-111010857D01*
X181507143Y-111010857D02*
X181650000Y-110939428D01*
X181650000Y-110939428D02*
X181935714Y-110939428D01*
X181935714Y-110939428D02*
X182078572Y-111010857D01*
X183864285Y-111939428D02*
X183864285Y-110439428D01*
X183864285Y-110439428D02*
X184364285Y-111510857D01*
X184364285Y-111510857D02*
X184864285Y-110439428D01*
X184864285Y-110439428D02*
X184864285Y-111939428D01*
X186221429Y-111939428D02*
X186221429Y-111153714D01*
X186221429Y-111153714D02*
X186150000Y-111010857D01*
X186150000Y-111010857D02*
X186007143Y-110939428D01*
X186007143Y-110939428D02*
X185721429Y-110939428D01*
X185721429Y-110939428D02*
X185578571Y-111010857D01*
X186221429Y-111868000D02*
X186078571Y-111939428D01*
X186078571Y-111939428D02*
X185721429Y-111939428D01*
X185721429Y-111939428D02*
X185578571Y-111868000D01*
X185578571Y-111868000D02*
X185507143Y-111725142D01*
X185507143Y-111725142D02*
X185507143Y-111582285D01*
X185507143Y-111582285D02*
X185578571Y-111439428D01*
X185578571Y-111439428D02*
X185721429Y-111368000D01*
X185721429Y-111368000D02*
X186078571Y-111368000D01*
X186078571Y-111368000D02*
X186221429Y-111296571D01*
X187578572Y-110939428D02*
X187578572Y-112153714D01*
X187578572Y-112153714D02*
X187507143Y-112296571D01*
X187507143Y-112296571D02*
X187435714Y-112368000D01*
X187435714Y-112368000D02*
X187292857Y-112439428D01*
X187292857Y-112439428D02*
X187078572Y-112439428D01*
X187078572Y-112439428D02*
X186935714Y-112368000D01*
X187578572Y-111868000D02*
X187435714Y-111939428D01*
X187435714Y-111939428D02*
X187150000Y-111939428D01*
X187150000Y-111939428D02*
X187007143Y-111868000D01*
X187007143Y-111868000D02*
X186935714Y-111796571D01*
X186935714Y-111796571D02*
X186864286Y-111653714D01*
X186864286Y-111653714D02*
X186864286Y-111225142D01*
X186864286Y-111225142D02*
X186935714Y-111082285D01*
X186935714Y-111082285D02*
X187007143Y-111010857D01*
X187007143Y-111010857D02*
X187150000Y-110939428D01*
X187150000Y-110939428D02*
X187435714Y-110939428D01*
X187435714Y-110939428D02*
X187578572Y-111010857D01*
X188292857Y-111939428D02*
X188292857Y-110939428D01*
X188292857Y-110439428D02*
X188221429Y-110510857D01*
X188221429Y-110510857D02*
X188292857Y-110582285D01*
X188292857Y-110582285D02*
X188364286Y-110510857D01*
X188364286Y-110510857D02*
X188292857Y-110439428D01*
X188292857Y-110439428D02*
X188292857Y-110582285D01*
X189650001Y-111868000D02*
X189507143Y-111939428D01*
X189507143Y-111939428D02*
X189221429Y-111939428D01*
X189221429Y-111939428D02*
X189078572Y-111868000D01*
X189078572Y-111868000D02*
X189007143Y-111796571D01*
X189007143Y-111796571D02*
X188935715Y-111653714D01*
X188935715Y-111653714D02*
X188935715Y-111225142D01*
X188935715Y-111225142D02*
X189007143Y-111082285D01*
X189007143Y-111082285D02*
X189078572Y-111010857D01*
X189078572Y-111010857D02*
X189221429Y-110939428D01*
X189221429Y-110939428D02*
X189507143Y-110939428D01*
X189507143Y-110939428D02*
X189650001Y-111010857D01*
D11*
X158150000Y-100350000D02*
X158150000Y-102350000D01*
X157150000Y-101350000D02*
X159150000Y-101350000D01*
D12*
X158767143Y-88951500D02*
X158874286Y-88987214D01*
X158874286Y-88987214D02*
X159052857Y-88987214D01*
X159052857Y-88987214D02*
X159124286Y-88951500D01*
X159124286Y-88951500D02*
X159160000Y-88915785D01*
X159160000Y-88915785D02*
X159195714Y-88844357D01*
X159195714Y-88844357D02*
X159195714Y-88772928D01*
X159195714Y-88772928D02*
X159160000Y-88701500D01*
X159160000Y-88701500D02*
X159124286Y-88665785D01*
X159124286Y-88665785D02*
X159052857Y-88630071D01*
X159052857Y-88630071D02*
X158910000Y-88594357D01*
X158910000Y-88594357D02*
X158838571Y-88558642D01*
X158838571Y-88558642D02*
X158802857Y-88522928D01*
X158802857Y-88522928D02*
X158767143Y-88451500D01*
X158767143Y-88451500D02*
X158767143Y-88380071D01*
X158767143Y-88380071D02*
X158802857Y-88308642D01*
X158802857Y-88308642D02*
X158838571Y-88272928D01*
X158838571Y-88272928D02*
X158910000Y-88237214D01*
X158910000Y-88237214D02*
X159088571Y-88237214D01*
X159088571Y-88237214D02*
X159195714Y-88272928D01*
X159945714Y-88915785D02*
X159910000Y-88951500D01*
X159910000Y-88951500D02*
X159802857Y-88987214D01*
X159802857Y-88987214D02*
X159731429Y-88987214D01*
X159731429Y-88987214D02*
X159624286Y-88951500D01*
X159624286Y-88951500D02*
X159552857Y-88880071D01*
X159552857Y-88880071D02*
X159517143Y-88808642D01*
X159517143Y-88808642D02*
X159481429Y-88665785D01*
X159481429Y-88665785D02*
X159481429Y-88558642D01*
X159481429Y-88558642D02*
X159517143Y-88415785D01*
X159517143Y-88415785D02*
X159552857Y-88344357D01*
X159552857Y-88344357D02*
X159624286Y-88272928D01*
X159624286Y-88272928D02*
X159731429Y-88237214D01*
X159731429Y-88237214D02*
X159802857Y-88237214D01*
X159802857Y-88237214D02*
X159910000Y-88272928D01*
X159910000Y-88272928D02*
X159945714Y-88308642D01*
X160624286Y-88987214D02*
X160267143Y-88987214D01*
X160267143Y-88987214D02*
X160267143Y-88237214D01*
X161289286Y-88951500D02*
X161396429Y-88987214D01*
X161396429Y-88987214D02*
X161575000Y-88987214D01*
X161575000Y-88987214D02*
X161646429Y-88951500D01*
X161646429Y-88951500D02*
X161682143Y-88915785D01*
X161682143Y-88915785D02*
X161717857Y-88844357D01*
X161717857Y-88844357D02*
X161717857Y-88772928D01*
X161717857Y-88772928D02*
X161682143Y-88701500D01*
X161682143Y-88701500D02*
X161646429Y-88665785D01*
X161646429Y-88665785D02*
X161575000Y-88630071D01*
X161575000Y-88630071D02*
X161432143Y-88594357D01*
X161432143Y-88594357D02*
X161360714Y-88558642D01*
X161360714Y-88558642D02*
X161325000Y-88522928D01*
X161325000Y-88522928D02*
X161289286Y-88451500D01*
X161289286Y-88451500D02*
X161289286Y-88380071D01*
X161289286Y-88380071D02*
X161325000Y-88308642D01*
X161325000Y-88308642D02*
X161360714Y-88272928D01*
X161360714Y-88272928D02*
X161432143Y-88237214D01*
X161432143Y-88237214D02*
X161610714Y-88237214D01*
X161610714Y-88237214D02*
X161717857Y-88272928D01*
X162039286Y-88987214D02*
X162039286Y-88237214D01*
X162039286Y-88237214D02*
X162217857Y-88237214D01*
X162217857Y-88237214D02*
X162325000Y-88272928D01*
X162325000Y-88272928D02*
X162396429Y-88344357D01*
X162396429Y-88344357D02*
X162432143Y-88415785D01*
X162432143Y-88415785D02*
X162467857Y-88558642D01*
X162467857Y-88558642D02*
X162467857Y-88665785D01*
X162467857Y-88665785D02*
X162432143Y-88808642D01*
X162432143Y-88808642D02*
X162396429Y-88880071D01*
X162396429Y-88880071D02*
X162325000Y-88951500D01*
X162325000Y-88951500D02*
X162217857Y-88987214D01*
X162217857Y-88987214D02*
X162039286Y-88987214D01*
X162753572Y-88772928D02*
X163110715Y-88772928D01*
X162682143Y-88987214D02*
X162932143Y-88237214D01*
X162932143Y-88237214D02*
X163182143Y-88987214D01*
D13*
X122507142Y-119549619D02*
X122173809Y-119073428D01*
X121935714Y-119549619D02*
X121935714Y-118549619D01*
X121935714Y-118549619D02*
X122316666Y-118549619D01*
X122316666Y-118549619D02*
X122411904Y-118597238D01*
X122411904Y-118597238D02*
X122459523Y-118644857D01*
X122459523Y-118644857D02*
X122507142Y-118740095D01*
X122507142Y-118740095D02*
X122507142Y-118882952D01*
X122507142Y-118882952D02*
X122459523Y-118978190D01*
X122459523Y-118978190D02*
X122411904Y-119025809D01*
X122411904Y-119025809D02*
X122316666Y-119073428D01*
X122316666Y-119073428D02*
X121935714Y-119073428D01*
X122935714Y-118549619D02*
X122935714Y-119359142D01*
X122935714Y-119359142D02*
X122983333Y-119454380D01*
X122983333Y-119454380D02*
X123030952Y-119502000D01*
X123030952Y-119502000D02*
X123126190Y-119549619D01*
X123126190Y-119549619D02*
X123316666Y-119549619D01*
X123316666Y-119549619D02*
X123411904Y-119502000D01*
X123411904Y-119502000D02*
X123459523Y-119454380D01*
X123459523Y-119454380D02*
X123507142Y-119359142D01*
X123507142Y-119359142D02*
X123507142Y-118549619D01*
X123983333Y-119549619D02*
X123983333Y-118549619D01*
X123983333Y-118549619D02*
X124554761Y-119549619D01*
X124554761Y-119549619D02*
X124554761Y-118549619D01*
X125745237Y-118502000D02*
X124888095Y-119787714D01*
X126030952Y-119502000D02*
X126173809Y-119549619D01*
X126173809Y-119549619D02*
X126411904Y-119549619D01*
X126411904Y-119549619D02*
X126507142Y-119502000D01*
X126507142Y-119502000D02*
X126554761Y-119454380D01*
X126554761Y-119454380D02*
X126602380Y-119359142D01*
X126602380Y-119359142D02*
X126602380Y-119263904D01*
X126602380Y-119263904D02*
X126554761Y-119168666D01*
X126554761Y-119168666D02*
X126507142Y-119121047D01*
X126507142Y-119121047D02*
X126411904Y-119073428D01*
X126411904Y-119073428D02*
X126221428Y-119025809D01*
X126221428Y-119025809D02*
X126126190Y-118978190D01*
X126126190Y-118978190D02*
X126078571Y-118930571D01*
X126078571Y-118930571D02*
X126030952Y-118835333D01*
X126030952Y-118835333D02*
X126030952Y-118740095D01*
X126030952Y-118740095D02*
X126078571Y-118644857D01*
X126078571Y-118644857D02*
X126126190Y-118597238D01*
X126126190Y-118597238D02*
X126221428Y-118549619D01*
X126221428Y-118549619D02*
X126459523Y-118549619D01*
X126459523Y-118549619D02*
X126602380Y-118597238D01*
X126888095Y-118549619D02*
X127459523Y-118549619D01*
X127173809Y-119549619D02*
X127173809Y-118549619D01*
X127983333Y-118549619D02*
X128173809Y-118549619D01*
X128173809Y-118549619D02*
X128269047Y-118597238D01*
X128269047Y-118597238D02*
X128364285Y-118692476D01*
X128364285Y-118692476D02*
X128411904Y-118882952D01*
X128411904Y-118882952D02*
X128411904Y-119216285D01*
X128411904Y-119216285D02*
X128364285Y-119406761D01*
X128364285Y-119406761D02*
X128269047Y-119502000D01*
X128269047Y-119502000D02*
X128173809Y-119549619D01*
X128173809Y-119549619D02*
X127983333Y-119549619D01*
X127983333Y-119549619D02*
X127888095Y-119502000D01*
X127888095Y-119502000D02*
X127792857Y-119406761D01*
X127792857Y-119406761D02*
X127745238Y-119216285D01*
X127745238Y-119216285D02*
X127745238Y-118882952D01*
X127745238Y-118882952D02*
X127792857Y-118692476D01*
X127792857Y-118692476D02*
X127888095Y-118597238D01*
X127888095Y-118597238D02*
X127983333Y-118549619D01*
X128840476Y-119549619D02*
X128840476Y-118549619D01*
X128840476Y-118549619D02*
X129221428Y-118549619D01*
X129221428Y-118549619D02*
X129316666Y-118597238D01*
X129316666Y-118597238D02*
X129364285Y-118644857D01*
X129364285Y-118644857D02*
X129411904Y-118740095D01*
X129411904Y-118740095D02*
X129411904Y-118882952D01*
X129411904Y-118882952D02*
X129364285Y-118978190D01*
X129364285Y-118978190D02*
X129316666Y-119025809D01*
X129316666Y-119025809D02*
X129221428Y-119073428D01*
X129221428Y-119073428D02*
X128840476Y-119073428D01*
D14*
X171502857Y-98074809D02*
X171502857Y-98479571D01*
X171502857Y-98479571D02*
X171526667Y-98527190D01*
X171526667Y-98527190D02*
X171550476Y-98551000D01*
X171550476Y-98551000D02*
X171598095Y-98574809D01*
X171598095Y-98574809D02*
X171693333Y-98574809D01*
X171693333Y-98574809D02*
X171740952Y-98551000D01*
X171740952Y-98551000D02*
X171764762Y-98527190D01*
X171764762Y-98527190D02*
X171788571Y-98479571D01*
X171788571Y-98479571D02*
X171788571Y-98074809D01*
X172264762Y-98074809D02*
X172026667Y-98074809D01*
X172026667Y-98074809D02*
X172002858Y-98312904D01*
X172002858Y-98312904D02*
X172026667Y-98289095D01*
X172026667Y-98289095D02*
X172074286Y-98265285D01*
X172074286Y-98265285D02*
X172193334Y-98265285D01*
X172193334Y-98265285D02*
X172240953Y-98289095D01*
X172240953Y-98289095D02*
X172264762Y-98312904D01*
X172264762Y-98312904D02*
X172288572Y-98360523D01*
X172288572Y-98360523D02*
X172288572Y-98479571D01*
X172288572Y-98479571D02*
X172264762Y-98527190D01*
X172264762Y-98527190D02*
X172240953Y-98551000D01*
X172240953Y-98551000D02*
X172193334Y-98574809D01*
X172193334Y-98574809D02*
X172074286Y-98574809D01*
X172074286Y-98574809D02*
X172026667Y-98551000D01*
X172026667Y-98551000D02*
X172002858Y-98527190D01*
X172598095Y-98074809D02*
X172645714Y-98074809D01*
X172645714Y-98074809D02*
X172693333Y-98098619D01*
X172693333Y-98098619D02*
X172717143Y-98122428D01*
X172717143Y-98122428D02*
X172740952Y-98170047D01*
X172740952Y-98170047D02*
X172764762Y-98265285D01*
X172764762Y-98265285D02*
X172764762Y-98384333D01*
X172764762Y-98384333D02*
X172740952Y-98479571D01*
X172740952Y-98479571D02*
X172717143Y-98527190D01*
X172717143Y-98527190D02*
X172693333Y-98551000D01*
X172693333Y-98551000D02*
X172645714Y-98574809D01*
X172645714Y-98574809D02*
X172598095Y-98574809D01*
X172598095Y-98574809D02*
X172550476Y-98551000D01*
X172550476Y-98551000D02*
X172526667Y-98527190D01*
X172526667Y-98527190D02*
X172502857Y-98479571D01*
X172502857Y-98479571D02*
X172479048Y-98384333D01*
X172479048Y-98384333D02*
X172479048Y-98265285D01*
X172479048Y-98265285D02*
X172502857Y-98170047D01*
X172502857Y-98170047D02*
X172526667Y-98122428D01*
X172526667Y-98122428D02*
X172550476Y-98098619D01*
X172550476Y-98098619D02*
X172598095Y-98074809D01*
X172955238Y-98122428D02*
X172979047Y-98098619D01*
X172979047Y-98098619D02*
X173026666Y-98074809D01*
X173026666Y-98074809D02*
X173145714Y-98074809D01*
X173145714Y-98074809D02*
X173193333Y-98098619D01*
X173193333Y-98098619D02*
X173217142Y-98122428D01*
X173217142Y-98122428D02*
X173240952Y-98170047D01*
X173240952Y-98170047D02*
X173240952Y-98217666D01*
X173240952Y-98217666D02*
X173217142Y-98289095D01*
X173217142Y-98289095D02*
X172931428Y-98574809D01*
X172931428Y-98574809D02*
X173240952Y-98574809D01*
X170507143Y-121074809D02*
X170507143Y-121431952D01*
X170507143Y-121431952D02*
X170483334Y-121503380D01*
X170483334Y-121503380D02*
X170435715Y-121551000D01*
X170435715Y-121551000D02*
X170364286Y-121574809D01*
X170364286Y-121574809D02*
X170316667Y-121574809D01*
X170983333Y-121074809D02*
X170745238Y-121074809D01*
X170745238Y-121074809D02*
X170721429Y-121312904D01*
X170721429Y-121312904D02*
X170745238Y-121289095D01*
X170745238Y-121289095D02*
X170792857Y-121265285D01*
X170792857Y-121265285D02*
X170911905Y-121265285D01*
X170911905Y-121265285D02*
X170959524Y-121289095D01*
X170959524Y-121289095D02*
X170983333Y-121312904D01*
X170983333Y-121312904D02*
X171007143Y-121360523D01*
X171007143Y-121360523D02*
X171007143Y-121479571D01*
X171007143Y-121479571D02*
X170983333Y-121527190D01*
X170983333Y-121527190D02*
X170959524Y-121551000D01*
X170959524Y-121551000D02*
X170911905Y-121574809D01*
X170911905Y-121574809D02*
X170792857Y-121574809D01*
X170792857Y-121574809D02*
X170745238Y-121551000D01*
X170745238Y-121551000D02*
X170721429Y-121527190D01*
X171316666Y-121074809D02*
X171364285Y-121074809D01*
X171364285Y-121074809D02*
X171411904Y-121098619D01*
X171411904Y-121098619D02*
X171435714Y-121122428D01*
X171435714Y-121122428D02*
X171459523Y-121170047D01*
X171459523Y-121170047D02*
X171483333Y-121265285D01*
X171483333Y-121265285D02*
X171483333Y-121384333D01*
X171483333Y-121384333D02*
X171459523Y-121479571D01*
X171459523Y-121479571D02*
X171435714Y-121527190D01*
X171435714Y-121527190D02*
X171411904Y-121551000D01*
X171411904Y-121551000D02*
X171364285Y-121574809D01*
X171364285Y-121574809D02*
X171316666Y-121574809D01*
X171316666Y-121574809D02*
X171269047Y-121551000D01*
X171269047Y-121551000D02*
X171245238Y-121527190D01*
X171245238Y-121527190D02*
X171221428Y-121479571D01*
X171221428Y-121479571D02*
X171197619Y-121384333D01*
X171197619Y-121384333D02*
X171197619Y-121265285D01*
X171197619Y-121265285D02*
X171221428Y-121170047D01*
X171221428Y-121170047D02*
X171245238Y-121122428D01*
X171245238Y-121122428D02*
X171269047Y-121098619D01*
X171269047Y-121098619D02*
X171316666Y-121074809D01*
X171911904Y-121241476D02*
X171911904Y-121574809D01*
X171792856Y-121051000D02*
X171673809Y-121408142D01*
X171673809Y-121408142D02*
X171983332Y-121408142D01*
D13*
X183221428Y-119275809D02*
X183364285Y-119323428D01*
X183364285Y-119323428D02*
X183411904Y-119371047D01*
X183411904Y-119371047D02*
X183459523Y-119466285D01*
X183459523Y-119466285D02*
X183459523Y-119609142D01*
X183459523Y-119609142D02*
X183411904Y-119704380D01*
X183411904Y-119704380D02*
X183364285Y-119752000D01*
X183364285Y-119752000D02*
X183269047Y-119799619D01*
X183269047Y-119799619D02*
X182888095Y-119799619D01*
X182888095Y-119799619D02*
X182888095Y-118799619D01*
X182888095Y-118799619D02*
X183221428Y-118799619D01*
X183221428Y-118799619D02*
X183316666Y-118847238D01*
X183316666Y-118847238D02*
X183364285Y-118894857D01*
X183364285Y-118894857D02*
X183411904Y-118990095D01*
X183411904Y-118990095D02*
X183411904Y-119085333D01*
X183411904Y-119085333D02*
X183364285Y-119180571D01*
X183364285Y-119180571D02*
X183316666Y-119228190D01*
X183316666Y-119228190D02*
X183221428Y-119275809D01*
X183221428Y-119275809D02*
X182888095Y-119275809D01*
X175535809Y-117364098D02*
X175583428Y-117221241D01*
X175583428Y-117221241D02*
X175631047Y-117173622D01*
X175631047Y-117173622D02*
X175726285Y-117126003D01*
X175726285Y-117126003D02*
X175869142Y-117126003D01*
X175869142Y-117126003D02*
X175964380Y-117173622D01*
X175964380Y-117173622D02*
X176012000Y-117221241D01*
X176012000Y-117221241D02*
X176059619Y-117316479D01*
X176059619Y-117316479D02*
X176059619Y-117697431D01*
X176059619Y-117697431D02*
X175059619Y-117697431D01*
X175059619Y-117697431D02*
X175059619Y-117364098D01*
X175059619Y-117364098D02*
X175107238Y-117268860D01*
X175107238Y-117268860D02*
X175154857Y-117221241D01*
X175154857Y-117221241D02*
X175250095Y-117173622D01*
X175250095Y-117173622D02*
X175345333Y-117173622D01*
X175345333Y-117173622D02*
X175440571Y-117221241D01*
X175440571Y-117221241D02*
X175488190Y-117268860D01*
X175488190Y-117268860D02*
X175535809Y-117364098D01*
X175535809Y-117364098D02*
X175535809Y-117697431D01*
X176059619Y-116126003D02*
X175583428Y-116459336D01*
X176059619Y-116697431D02*
X175059619Y-116697431D01*
X175059619Y-116697431D02*
X175059619Y-116316479D01*
X175059619Y-116316479D02*
X175107238Y-116221241D01*
X175107238Y-116221241D02*
X175154857Y-116173622D01*
X175154857Y-116173622D02*
X175250095Y-116126003D01*
X175250095Y-116126003D02*
X175392952Y-116126003D01*
X175392952Y-116126003D02*
X175488190Y-116173622D01*
X175488190Y-116173622D02*
X175535809Y-116221241D01*
X175535809Y-116221241D02*
X175583428Y-116316479D01*
X175583428Y-116316479D02*
X175583428Y-116697431D01*
X176059619Y-115697431D02*
X175059619Y-115697431D01*
X175059619Y-115697431D02*
X176059619Y-115126003D01*
X176059619Y-115126003D02*
X175059619Y-115126003D01*
X172816667Y-118799619D02*
X173435714Y-118799619D01*
X173435714Y-118799619D02*
X173102381Y-119180571D01*
X173102381Y-119180571D02*
X173245238Y-119180571D01*
X173245238Y-119180571D02*
X173340476Y-119228190D01*
X173340476Y-119228190D02*
X173388095Y-119275809D01*
X173388095Y-119275809D02*
X173435714Y-119371047D01*
X173435714Y-119371047D02*
X173435714Y-119609142D01*
X173435714Y-119609142D02*
X173388095Y-119704380D01*
X173388095Y-119704380D02*
X173340476Y-119752000D01*
X173340476Y-119752000D02*
X173245238Y-119799619D01*
X173245238Y-119799619D02*
X172959524Y-119799619D01*
X172959524Y-119799619D02*
X172864286Y-119752000D01*
X172864286Y-119752000D02*
X172816667Y-119704380D01*
X178599619Y-117126003D02*
X178123428Y-117459336D01*
X178599619Y-117697431D02*
X177599619Y-117697431D01*
X177599619Y-117697431D02*
X177599619Y-117316479D01*
X177599619Y-117316479D02*
X177647238Y-117221241D01*
X177647238Y-117221241D02*
X177694857Y-117173622D01*
X177694857Y-117173622D02*
X177790095Y-117126003D01*
X177790095Y-117126003D02*
X177932952Y-117126003D01*
X177932952Y-117126003D02*
X178028190Y-117173622D01*
X178028190Y-117173622D02*
X178075809Y-117221241D01*
X178075809Y-117221241D02*
X178123428Y-117316479D01*
X178123428Y-117316479D02*
X178123428Y-117697431D01*
X178075809Y-116697431D02*
X178075809Y-116364098D01*
X178599619Y-116221241D02*
X178599619Y-116697431D01*
X178599619Y-116697431D02*
X177599619Y-116697431D01*
X177599619Y-116697431D02*
X177599619Y-116221241D01*
X178599619Y-115792669D02*
X177599619Y-115792669D01*
X177599619Y-115792669D02*
X177599619Y-115554574D01*
X177599619Y-115554574D02*
X177647238Y-115411717D01*
X177647238Y-115411717D02*
X177742476Y-115316479D01*
X177742476Y-115316479D02*
X177837714Y-115268860D01*
X177837714Y-115268860D02*
X178028190Y-115221241D01*
X178028190Y-115221241D02*
X178171047Y-115221241D01*
X178171047Y-115221241D02*
X178361523Y-115268860D01*
X178361523Y-115268860D02*
X178456761Y-115316479D01*
X178456761Y-115316479D02*
X178552000Y-115411717D01*
X178552000Y-115411717D02*
X178599619Y-115554574D01*
X178599619Y-115554574D02*
X178599619Y-115792669D01*
X180139619Y-117506955D02*
X180139619Y-117316479D01*
X180139619Y-117316479D02*
X180187238Y-117221241D01*
X180187238Y-117221241D02*
X180282476Y-117126003D01*
X180282476Y-117126003D02*
X180472952Y-117078384D01*
X180472952Y-117078384D02*
X180806285Y-117078384D01*
X180806285Y-117078384D02*
X180996761Y-117126003D01*
X180996761Y-117126003D02*
X181092000Y-117221241D01*
X181092000Y-117221241D02*
X181139619Y-117316479D01*
X181139619Y-117316479D02*
X181139619Y-117506955D01*
X181139619Y-117506955D02*
X181092000Y-117602193D01*
X181092000Y-117602193D02*
X180996761Y-117697431D01*
X180996761Y-117697431D02*
X180806285Y-117745050D01*
X180806285Y-117745050D02*
X180472952Y-117745050D01*
X180472952Y-117745050D02*
X180282476Y-117697431D01*
X180282476Y-117697431D02*
X180187238Y-117602193D01*
X180187238Y-117602193D02*
X180139619Y-117506955D01*
X181139619Y-116078384D02*
X180663428Y-116411717D01*
X181139619Y-116649812D02*
X180139619Y-116649812D01*
X180139619Y-116649812D02*
X180139619Y-116268860D01*
X180139619Y-116268860D02*
X180187238Y-116173622D01*
X180187238Y-116173622D02*
X180234857Y-116126003D01*
X180234857Y-116126003D02*
X180330095Y-116078384D01*
X180330095Y-116078384D02*
X180472952Y-116078384D01*
X180472952Y-116078384D02*
X180568190Y-116126003D01*
X180568190Y-116126003D02*
X180615809Y-116173622D01*
X180615809Y-116173622D02*
X180663428Y-116268860D01*
X180663428Y-116268860D02*
X180663428Y-116649812D01*
X180187238Y-115126003D02*
X180139619Y-115221241D01*
X180139619Y-115221241D02*
X180139619Y-115364098D01*
X180139619Y-115364098D02*
X180187238Y-115506955D01*
X180187238Y-115506955D02*
X180282476Y-115602193D01*
X180282476Y-115602193D02*
X180377714Y-115649812D01*
X180377714Y-115649812D02*
X180568190Y-115697431D01*
X180568190Y-115697431D02*
X180711047Y-115697431D01*
X180711047Y-115697431D02*
X180901523Y-115649812D01*
X180901523Y-115649812D02*
X180996761Y-115602193D01*
X180996761Y-115602193D02*
X181092000Y-115506955D01*
X181092000Y-115506955D02*
X181139619Y-115364098D01*
X181139619Y-115364098D02*
X181139619Y-115268860D01*
X181139619Y-115268860D02*
X181092000Y-115126003D01*
X181092000Y-115126003D02*
X181044380Y-115078384D01*
X181044380Y-115078384D02*
X180711047Y-115078384D01*
X180711047Y-115078384D02*
X180711047Y-115268860D01*
D15*
X121791428Y-88255778D02*
X121368094Y-88255778D01*
X121368094Y-88921016D02*
X121368094Y-87651016D01*
X121368094Y-87651016D02*
X121972856Y-87651016D01*
X122335713Y-87651016D02*
X122638094Y-88921016D01*
X122638094Y-88921016D02*
X122879999Y-88013873D01*
X122879999Y-88013873D02*
X123121904Y-88921016D01*
X123121904Y-88921016D02*
X123424285Y-87651016D01*
X124452380Y-88074349D02*
X124452380Y-88921016D01*
X124149999Y-87590540D02*
X123847618Y-88497682D01*
X123847618Y-88497682D02*
X124633809Y-88497682D01*
X125359523Y-87651016D02*
X125480476Y-87651016D01*
X125480476Y-87651016D02*
X125601428Y-87711492D01*
X125601428Y-87711492D02*
X125661904Y-87771968D01*
X125661904Y-87771968D02*
X125722380Y-87892920D01*
X125722380Y-87892920D02*
X125782857Y-88134825D01*
X125782857Y-88134825D02*
X125782857Y-88437206D01*
X125782857Y-88437206D02*
X125722380Y-88679111D01*
X125722380Y-88679111D02*
X125661904Y-88800063D01*
X125661904Y-88800063D02*
X125601428Y-88860540D01*
X125601428Y-88860540D02*
X125480476Y-88921016D01*
X125480476Y-88921016D02*
X125359523Y-88921016D01*
X125359523Y-88921016D02*
X125238571Y-88860540D01*
X125238571Y-88860540D02*
X125178095Y-88800063D01*
X125178095Y-88800063D02*
X125117618Y-88679111D01*
X125117618Y-88679111D02*
X125057142Y-88437206D01*
X125057142Y-88437206D02*
X125057142Y-88134825D01*
X125057142Y-88134825D02*
X125117618Y-87892920D01*
X125117618Y-87892920D02*
X125178095Y-87771968D01*
X125178095Y-87771968D02*
X125238571Y-87711492D01*
X125238571Y-87711492D02*
X125359523Y-87651016D01*
X126992381Y-88921016D02*
X126266666Y-88921016D01*
X126629523Y-88921016D02*
X126629523Y-87651016D01*
X126629523Y-87651016D02*
X126508571Y-87832444D01*
X126508571Y-87832444D02*
X126387619Y-87953397D01*
X126387619Y-87953397D02*
X126266666Y-88013873D01*
D14*
X174340476Y-97527190D02*
X174316667Y-97551000D01*
X174316667Y-97551000D02*
X174245238Y-97574809D01*
X174245238Y-97574809D02*
X174197619Y-97574809D01*
X174197619Y-97574809D02*
X174126191Y-97551000D01*
X174126191Y-97551000D02*
X174078572Y-97503380D01*
X174078572Y-97503380D02*
X174054762Y-97455761D01*
X174054762Y-97455761D02*
X174030953Y-97360523D01*
X174030953Y-97360523D02*
X174030953Y-97289095D01*
X174030953Y-97289095D02*
X174054762Y-97193857D01*
X174054762Y-97193857D02*
X174078572Y-97146238D01*
X174078572Y-97146238D02*
X174126191Y-97098619D01*
X174126191Y-97098619D02*
X174197619Y-97074809D01*
X174197619Y-97074809D02*
X174245238Y-97074809D01*
X174245238Y-97074809D02*
X174316667Y-97098619D01*
X174316667Y-97098619D02*
X174340476Y-97122428D01*
X174792857Y-97074809D02*
X174554762Y-97074809D01*
X174554762Y-97074809D02*
X174530953Y-97312904D01*
X174530953Y-97312904D02*
X174554762Y-97289095D01*
X174554762Y-97289095D02*
X174602381Y-97265285D01*
X174602381Y-97265285D02*
X174721429Y-97265285D01*
X174721429Y-97265285D02*
X174769048Y-97289095D01*
X174769048Y-97289095D02*
X174792857Y-97312904D01*
X174792857Y-97312904D02*
X174816667Y-97360523D01*
X174816667Y-97360523D02*
X174816667Y-97479571D01*
X174816667Y-97479571D02*
X174792857Y-97527190D01*
X174792857Y-97527190D02*
X174769048Y-97551000D01*
X174769048Y-97551000D02*
X174721429Y-97574809D01*
X174721429Y-97574809D02*
X174602381Y-97574809D01*
X174602381Y-97574809D02*
X174554762Y-97551000D01*
X174554762Y-97551000D02*
X174530953Y-97527190D01*
X175126190Y-97074809D02*
X175173809Y-97074809D01*
X175173809Y-97074809D02*
X175221428Y-97098619D01*
X175221428Y-97098619D02*
X175245238Y-97122428D01*
X175245238Y-97122428D02*
X175269047Y-97170047D01*
X175269047Y-97170047D02*
X175292857Y-97265285D01*
X175292857Y-97265285D02*
X175292857Y-97384333D01*
X175292857Y-97384333D02*
X175269047Y-97479571D01*
X175269047Y-97479571D02*
X175245238Y-97527190D01*
X175245238Y-97527190D02*
X175221428Y-97551000D01*
X175221428Y-97551000D02*
X175173809Y-97574809D01*
X175173809Y-97574809D02*
X175126190Y-97574809D01*
X175126190Y-97574809D02*
X175078571Y-97551000D01*
X175078571Y-97551000D02*
X175054762Y-97527190D01*
X175054762Y-97527190D02*
X175030952Y-97479571D01*
X175030952Y-97479571D02*
X175007143Y-97384333D01*
X175007143Y-97384333D02*
X175007143Y-97265285D01*
X175007143Y-97265285D02*
X175030952Y-97170047D01*
X175030952Y-97170047D02*
X175054762Y-97122428D01*
X175054762Y-97122428D02*
X175078571Y-97098619D01*
X175078571Y-97098619D02*
X175126190Y-97074809D01*
X175459523Y-97074809D02*
X175769047Y-97074809D01*
X175769047Y-97074809D02*
X175602380Y-97265285D01*
X175602380Y-97265285D02*
X175673809Y-97265285D01*
X175673809Y-97265285D02*
X175721428Y-97289095D01*
X175721428Y-97289095D02*
X175745237Y-97312904D01*
X175745237Y-97312904D02*
X175769047Y-97360523D01*
X175769047Y-97360523D02*
X175769047Y-97479571D01*
X175769047Y-97479571D02*
X175745237Y-97527190D01*
X175745237Y-97527190D02*
X175721428Y-97551000D01*
X175721428Y-97551000D02*
X175673809Y-97574809D01*
X175673809Y-97574809D02*
X175530952Y-97574809D01*
X175530952Y-97574809D02*
X175483333Y-97551000D01*
X175483333Y-97551000D02*
X175459523Y-97527190D01*
X144507143Y-81074809D02*
X144507143Y-81431952D01*
X144507143Y-81431952D02*
X144483334Y-81503380D01*
X144483334Y-81503380D02*
X144435715Y-81551000D01*
X144435715Y-81551000D02*
X144364286Y-81574809D01*
X144364286Y-81574809D02*
X144316667Y-81574809D01*
X144983333Y-81074809D02*
X144745238Y-81074809D01*
X144745238Y-81074809D02*
X144721429Y-81312904D01*
X144721429Y-81312904D02*
X144745238Y-81289095D01*
X144745238Y-81289095D02*
X144792857Y-81265285D01*
X144792857Y-81265285D02*
X144911905Y-81265285D01*
X144911905Y-81265285D02*
X144959524Y-81289095D01*
X144959524Y-81289095D02*
X144983333Y-81312904D01*
X144983333Y-81312904D02*
X145007143Y-81360523D01*
X145007143Y-81360523D02*
X145007143Y-81479571D01*
X145007143Y-81479571D02*
X144983333Y-81527190D01*
X144983333Y-81527190D02*
X144959524Y-81551000D01*
X144959524Y-81551000D02*
X144911905Y-81574809D01*
X144911905Y-81574809D02*
X144792857Y-81574809D01*
X144792857Y-81574809D02*
X144745238Y-81551000D01*
X144745238Y-81551000D02*
X144721429Y-81527190D01*
X145316666Y-81074809D02*
X145364285Y-81074809D01*
X145364285Y-81074809D02*
X145411904Y-81098619D01*
X145411904Y-81098619D02*
X145435714Y-81122428D01*
X145435714Y-81122428D02*
X145459523Y-81170047D01*
X145459523Y-81170047D02*
X145483333Y-81265285D01*
X145483333Y-81265285D02*
X145483333Y-81384333D01*
X145483333Y-81384333D02*
X145459523Y-81479571D01*
X145459523Y-81479571D02*
X145435714Y-81527190D01*
X145435714Y-81527190D02*
X145411904Y-81551000D01*
X145411904Y-81551000D02*
X145364285Y-81574809D01*
X145364285Y-81574809D02*
X145316666Y-81574809D01*
X145316666Y-81574809D02*
X145269047Y-81551000D01*
X145269047Y-81551000D02*
X145245238Y-81527190D01*
X145245238Y-81527190D02*
X145221428Y-81479571D01*
X145221428Y-81479571D02*
X145197619Y-81384333D01*
X145197619Y-81384333D02*
X145197619Y-81265285D01*
X145197619Y-81265285D02*
X145221428Y-81170047D01*
X145221428Y-81170047D02*
X145245238Y-81122428D01*
X145245238Y-81122428D02*
X145269047Y-81098619D01*
X145269047Y-81098619D02*
X145316666Y-81074809D01*
X145959523Y-81574809D02*
X145673809Y-81574809D01*
X145816666Y-81574809D02*
X145816666Y-81074809D01*
X145816666Y-81074809D02*
X145769047Y-81146238D01*
X145769047Y-81146238D02*
X145721428Y-81193857D01*
X145721428Y-81193857D02*
X145673809Y-81217666D01*
D13*
X132911905Y-83513904D02*
X133388095Y-83513904D01*
X132816667Y-83799619D02*
X133150000Y-82799619D01*
X133150000Y-82799619D02*
X133483333Y-83799619D01*
X140764190Y-85335901D02*
X140716571Y-85478758D01*
X140716571Y-85478758D02*
X140668952Y-85526377D01*
X140668952Y-85526377D02*
X140573714Y-85573996D01*
X140573714Y-85573996D02*
X140430857Y-85573996D01*
X140430857Y-85573996D02*
X140335619Y-85526377D01*
X140335619Y-85526377D02*
X140288000Y-85478758D01*
X140288000Y-85478758D02*
X140240380Y-85383520D01*
X140240380Y-85383520D02*
X140240380Y-85002568D01*
X140240380Y-85002568D02*
X141240380Y-85002568D01*
X141240380Y-85002568D02*
X141240380Y-85335901D01*
X141240380Y-85335901D02*
X141192761Y-85431139D01*
X141192761Y-85431139D02*
X141145142Y-85478758D01*
X141145142Y-85478758D02*
X141049904Y-85526377D01*
X141049904Y-85526377D02*
X140954666Y-85526377D01*
X140954666Y-85526377D02*
X140859428Y-85478758D01*
X140859428Y-85478758D02*
X140811809Y-85431139D01*
X140811809Y-85431139D02*
X140764190Y-85335901D01*
X140764190Y-85335901D02*
X140764190Y-85002568D01*
X140240380Y-86573996D02*
X140716571Y-86240663D01*
X140240380Y-86002568D02*
X141240380Y-86002568D01*
X141240380Y-86002568D02*
X141240380Y-86383520D01*
X141240380Y-86383520D02*
X141192761Y-86478758D01*
X141192761Y-86478758D02*
X141145142Y-86526377D01*
X141145142Y-86526377D02*
X141049904Y-86573996D01*
X141049904Y-86573996D02*
X140907047Y-86573996D01*
X140907047Y-86573996D02*
X140811809Y-86526377D01*
X140811809Y-86526377D02*
X140764190Y-86478758D01*
X140764190Y-86478758D02*
X140716571Y-86383520D01*
X140716571Y-86383520D02*
X140716571Y-86002568D01*
X140240380Y-87002568D02*
X141240380Y-87002568D01*
X141240380Y-87002568D02*
X140240380Y-87573996D01*
X140240380Y-87573996D02*
X141240380Y-87573996D01*
X137700380Y-85573996D02*
X138176571Y-85240663D01*
X137700380Y-85002568D02*
X138700380Y-85002568D01*
X138700380Y-85002568D02*
X138700380Y-85383520D01*
X138700380Y-85383520D02*
X138652761Y-85478758D01*
X138652761Y-85478758D02*
X138605142Y-85526377D01*
X138605142Y-85526377D02*
X138509904Y-85573996D01*
X138509904Y-85573996D02*
X138367047Y-85573996D01*
X138367047Y-85573996D02*
X138271809Y-85526377D01*
X138271809Y-85526377D02*
X138224190Y-85478758D01*
X138224190Y-85478758D02*
X138176571Y-85383520D01*
X138176571Y-85383520D02*
X138176571Y-85002568D01*
X138224190Y-86002568D02*
X138224190Y-86335901D01*
X137700380Y-86478758D02*
X137700380Y-86002568D01*
X137700380Y-86002568D02*
X138700380Y-86002568D01*
X138700380Y-86002568D02*
X138700380Y-86478758D01*
X137700380Y-86907330D02*
X138700380Y-86907330D01*
X138700380Y-86907330D02*
X138700380Y-87145425D01*
X138700380Y-87145425D02*
X138652761Y-87288282D01*
X138652761Y-87288282D02*
X138557523Y-87383520D01*
X138557523Y-87383520D02*
X138462285Y-87431139D01*
X138462285Y-87431139D02*
X138271809Y-87478758D01*
X138271809Y-87478758D02*
X138128952Y-87478758D01*
X138128952Y-87478758D02*
X137938476Y-87431139D01*
X137938476Y-87431139D02*
X137843238Y-87383520D01*
X137843238Y-87383520D02*
X137748000Y-87288282D01*
X137748000Y-87288282D02*
X137700380Y-87145425D01*
X137700380Y-87145425D02*
X137700380Y-86907330D01*
X136160380Y-85193044D02*
X136160380Y-85383520D01*
X136160380Y-85383520D02*
X136112761Y-85478758D01*
X136112761Y-85478758D02*
X136017523Y-85573996D01*
X136017523Y-85573996D02*
X135827047Y-85621615D01*
X135827047Y-85621615D02*
X135493714Y-85621615D01*
X135493714Y-85621615D02*
X135303238Y-85573996D01*
X135303238Y-85573996D02*
X135208000Y-85478758D01*
X135208000Y-85478758D02*
X135160380Y-85383520D01*
X135160380Y-85383520D02*
X135160380Y-85193044D01*
X135160380Y-85193044D02*
X135208000Y-85097806D01*
X135208000Y-85097806D02*
X135303238Y-85002568D01*
X135303238Y-85002568D02*
X135493714Y-84954949D01*
X135493714Y-84954949D02*
X135827047Y-84954949D01*
X135827047Y-84954949D02*
X136017523Y-85002568D01*
X136017523Y-85002568D02*
X136112761Y-85097806D01*
X136112761Y-85097806D02*
X136160380Y-85193044D01*
X135160380Y-86621615D02*
X135636571Y-86288282D01*
X135160380Y-86050187D02*
X136160380Y-86050187D01*
X136160380Y-86050187D02*
X136160380Y-86431139D01*
X136160380Y-86431139D02*
X136112761Y-86526377D01*
X136112761Y-86526377D02*
X136065142Y-86573996D01*
X136065142Y-86573996D02*
X135969904Y-86621615D01*
X135969904Y-86621615D02*
X135827047Y-86621615D01*
X135827047Y-86621615D02*
X135731809Y-86573996D01*
X135731809Y-86573996D02*
X135684190Y-86526377D01*
X135684190Y-86526377D02*
X135636571Y-86431139D01*
X135636571Y-86431139D02*
X135636571Y-86050187D01*
X136112761Y-87573996D02*
X136160380Y-87478758D01*
X136160380Y-87478758D02*
X136160380Y-87335901D01*
X136160380Y-87335901D02*
X136112761Y-87193044D01*
X136112761Y-87193044D02*
X136017523Y-87097806D01*
X136017523Y-87097806D02*
X135922285Y-87050187D01*
X135922285Y-87050187D02*
X135731809Y-87002568D01*
X135731809Y-87002568D02*
X135588952Y-87002568D01*
X135588952Y-87002568D02*
X135398476Y-87050187D01*
X135398476Y-87050187D02*
X135303238Y-87097806D01*
X135303238Y-87097806D02*
X135208000Y-87193044D01*
X135208000Y-87193044D02*
X135160380Y-87335901D01*
X135160380Y-87335901D02*
X135160380Y-87431139D01*
X135160380Y-87431139D02*
X135208000Y-87573996D01*
X135208000Y-87573996D02*
X135255619Y-87621615D01*
X135255619Y-87621615D02*
X135588952Y-87621615D01*
X135588952Y-87621615D02*
X135588952Y-87431139D01*
X143102381Y-82799619D02*
X143197619Y-82799619D01*
X143197619Y-82799619D02*
X143292857Y-82847238D01*
X143292857Y-82847238D02*
X143340476Y-82894857D01*
X143340476Y-82894857D02*
X143388095Y-82990095D01*
X143388095Y-82990095D02*
X143435714Y-83180571D01*
X143435714Y-83180571D02*
X143435714Y-83418666D01*
X143435714Y-83418666D02*
X143388095Y-83609142D01*
X143388095Y-83609142D02*
X143340476Y-83704380D01*
X143340476Y-83704380D02*
X143292857Y-83752000D01*
X143292857Y-83752000D02*
X143197619Y-83799619D01*
X143197619Y-83799619D02*
X143102381Y-83799619D01*
X143102381Y-83799619D02*
X143007143Y-83752000D01*
X143007143Y-83752000D02*
X142959524Y-83704380D01*
X142959524Y-83704380D02*
X142911905Y-83609142D01*
X142911905Y-83609142D02*
X142864286Y-83418666D01*
X142864286Y-83418666D02*
X142864286Y-83180571D01*
X142864286Y-83180571D02*
X142911905Y-82990095D01*
X142911905Y-82990095D02*
X142959524Y-82894857D01*
X142959524Y-82894857D02*
X143007143Y-82847238D01*
X143007143Y-82847238D02*
X143102381Y-82799619D01*
D14*
X184507143Y-81074809D02*
X184507143Y-81431952D01*
X184507143Y-81431952D02*
X184483334Y-81503380D01*
X184483334Y-81503380D02*
X184435715Y-81551000D01*
X184435715Y-81551000D02*
X184364286Y-81574809D01*
X184364286Y-81574809D02*
X184316667Y-81574809D01*
X184983333Y-81074809D02*
X184745238Y-81074809D01*
X184745238Y-81074809D02*
X184721429Y-81312904D01*
X184721429Y-81312904D02*
X184745238Y-81289095D01*
X184745238Y-81289095D02*
X184792857Y-81265285D01*
X184792857Y-81265285D02*
X184911905Y-81265285D01*
X184911905Y-81265285D02*
X184959524Y-81289095D01*
X184959524Y-81289095D02*
X184983333Y-81312904D01*
X184983333Y-81312904D02*
X185007143Y-81360523D01*
X185007143Y-81360523D02*
X185007143Y-81479571D01*
X185007143Y-81479571D02*
X184983333Y-81527190D01*
X184983333Y-81527190D02*
X184959524Y-81551000D01*
X184959524Y-81551000D02*
X184911905Y-81574809D01*
X184911905Y-81574809D02*
X184792857Y-81574809D01*
X184792857Y-81574809D02*
X184745238Y-81551000D01*
X184745238Y-81551000D02*
X184721429Y-81527190D01*
X185316666Y-81074809D02*
X185364285Y-81074809D01*
X185364285Y-81074809D02*
X185411904Y-81098619D01*
X185411904Y-81098619D02*
X185435714Y-81122428D01*
X185435714Y-81122428D02*
X185459523Y-81170047D01*
X185459523Y-81170047D02*
X185483333Y-81265285D01*
X185483333Y-81265285D02*
X185483333Y-81384333D01*
X185483333Y-81384333D02*
X185459523Y-81479571D01*
X185459523Y-81479571D02*
X185435714Y-81527190D01*
X185435714Y-81527190D02*
X185411904Y-81551000D01*
X185411904Y-81551000D02*
X185364285Y-81574809D01*
X185364285Y-81574809D02*
X185316666Y-81574809D01*
X185316666Y-81574809D02*
X185269047Y-81551000D01*
X185269047Y-81551000D02*
X185245238Y-81527190D01*
X185245238Y-81527190D02*
X185221428Y-81479571D01*
X185221428Y-81479571D02*
X185197619Y-81384333D01*
X185197619Y-81384333D02*
X185197619Y-81265285D01*
X185197619Y-81265285D02*
X185221428Y-81170047D01*
X185221428Y-81170047D02*
X185245238Y-81122428D01*
X185245238Y-81122428D02*
X185269047Y-81098619D01*
X185269047Y-81098619D02*
X185316666Y-81074809D01*
X185649999Y-81074809D02*
X185959523Y-81074809D01*
X185959523Y-81074809D02*
X185792856Y-81265285D01*
X185792856Y-81265285D02*
X185864285Y-81265285D01*
X185864285Y-81265285D02*
X185911904Y-81289095D01*
X185911904Y-81289095D02*
X185935713Y-81312904D01*
X185935713Y-81312904D02*
X185959523Y-81360523D01*
X185959523Y-81360523D02*
X185959523Y-81479571D01*
X185959523Y-81479571D02*
X185935713Y-81527190D01*
X185935713Y-81527190D02*
X185911904Y-81551000D01*
X185911904Y-81551000D02*
X185864285Y-81574809D01*
X185864285Y-81574809D02*
X185721428Y-81574809D01*
X185721428Y-81574809D02*
X185673809Y-81551000D01*
X185673809Y-81551000D02*
X185649999Y-81527190D01*
D13*
X172911905Y-83513904D02*
X173388095Y-83513904D01*
X172816667Y-83799619D02*
X173150000Y-82799619D01*
X173150000Y-82799619D02*
X173483333Y-83799619D01*
X177700380Y-85573996D02*
X178176571Y-85240663D01*
X177700380Y-85002568D02*
X178700380Y-85002568D01*
X178700380Y-85002568D02*
X178700380Y-85383520D01*
X178700380Y-85383520D02*
X178652761Y-85478758D01*
X178652761Y-85478758D02*
X178605142Y-85526377D01*
X178605142Y-85526377D02*
X178509904Y-85573996D01*
X178509904Y-85573996D02*
X178367047Y-85573996D01*
X178367047Y-85573996D02*
X178271809Y-85526377D01*
X178271809Y-85526377D02*
X178224190Y-85478758D01*
X178224190Y-85478758D02*
X178176571Y-85383520D01*
X178176571Y-85383520D02*
X178176571Y-85002568D01*
X178224190Y-86002568D02*
X178224190Y-86335901D01*
X177700380Y-86478758D02*
X177700380Y-86002568D01*
X177700380Y-86002568D02*
X178700380Y-86002568D01*
X178700380Y-86002568D02*
X178700380Y-86478758D01*
X177700380Y-86907330D02*
X178700380Y-86907330D01*
X178700380Y-86907330D02*
X178700380Y-87145425D01*
X178700380Y-87145425D02*
X178652761Y-87288282D01*
X178652761Y-87288282D02*
X178557523Y-87383520D01*
X178557523Y-87383520D02*
X178462285Y-87431139D01*
X178462285Y-87431139D02*
X178271809Y-87478758D01*
X178271809Y-87478758D02*
X178128952Y-87478758D01*
X178128952Y-87478758D02*
X177938476Y-87431139D01*
X177938476Y-87431139D02*
X177843238Y-87383520D01*
X177843238Y-87383520D02*
X177748000Y-87288282D01*
X177748000Y-87288282D02*
X177700380Y-87145425D01*
X177700380Y-87145425D02*
X177700380Y-86907330D01*
X180764190Y-85335901D02*
X180716571Y-85478758D01*
X180716571Y-85478758D02*
X180668952Y-85526377D01*
X180668952Y-85526377D02*
X180573714Y-85573996D01*
X180573714Y-85573996D02*
X180430857Y-85573996D01*
X180430857Y-85573996D02*
X180335619Y-85526377D01*
X180335619Y-85526377D02*
X180288000Y-85478758D01*
X180288000Y-85478758D02*
X180240380Y-85383520D01*
X180240380Y-85383520D02*
X180240380Y-85002568D01*
X180240380Y-85002568D02*
X181240380Y-85002568D01*
X181240380Y-85002568D02*
X181240380Y-85335901D01*
X181240380Y-85335901D02*
X181192761Y-85431139D01*
X181192761Y-85431139D02*
X181145142Y-85478758D01*
X181145142Y-85478758D02*
X181049904Y-85526377D01*
X181049904Y-85526377D02*
X180954666Y-85526377D01*
X180954666Y-85526377D02*
X180859428Y-85478758D01*
X180859428Y-85478758D02*
X180811809Y-85431139D01*
X180811809Y-85431139D02*
X180764190Y-85335901D01*
X180764190Y-85335901D02*
X180764190Y-85002568D01*
X180240380Y-86573996D02*
X180716571Y-86240663D01*
X180240380Y-86002568D02*
X181240380Y-86002568D01*
X181240380Y-86002568D02*
X181240380Y-86383520D01*
X181240380Y-86383520D02*
X181192761Y-86478758D01*
X181192761Y-86478758D02*
X181145142Y-86526377D01*
X181145142Y-86526377D02*
X181049904Y-86573996D01*
X181049904Y-86573996D02*
X180907047Y-86573996D01*
X180907047Y-86573996D02*
X180811809Y-86526377D01*
X180811809Y-86526377D02*
X180764190Y-86478758D01*
X180764190Y-86478758D02*
X180716571Y-86383520D01*
X180716571Y-86383520D02*
X180716571Y-86002568D01*
X180240380Y-87002568D02*
X181240380Y-87002568D01*
X181240380Y-87002568D02*
X180240380Y-87573996D01*
X180240380Y-87573996D02*
X181240380Y-87573996D01*
X182864286Y-82894857D02*
X182911905Y-82847238D01*
X182911905Y-82847238D02*
X183007143Y-82799619D01*
X183007143Y-82799619D02*
X183245238Y-82799619D01*
X183245238Y-82799619D02*
X183340476Y-82847238D01*
X183340476Y-82847238D02*
X183388095Y-82894857D01*
X183388095Y-82894857D02*
X183435714Y-82990095D01*
X183435714Y-82990095D02*
X183435714Y-83085333D01*
X183435714Y-83085333D02*
X183388095Y-83228190D01*
X183388095Y-83228190D02*
X182816667Y-83799619D01*
X182816667Y-83799619D02*
X183435714Y-83799619D01*
X176160380Y-85193044D02*
X176160380Y-85383520D01*
X176160380Y-85383520D02*
X176112761Y-85478758D01*
X176112761Y-85478758D02*
X176017523Y-85573996D01*
X176017523Y-85573996D02*
X175827047Y-85621615D01*
X175827047Y-85621615D02*
X175493714Y-85621615D01*
X175493714Y-85621615D02*
X175303238Y-85573996D01*
X175303238Y-85573996D02*
X175208000Y-85478758D01*
X175208000Y-85478758D02*
X175160380Y-85383520D01*
X175160380Y-85383520D02*
X175160380Y-85193044D01*
X175160380Y-85193044D02*
X175208000Y-85097806D01*
X175208000Y-85097806D02*
X175303238Y-85002568D01*
X175303238Y-85002568D02*
X175493714Y-84954949D01*
X175493714Y-84954949D02*
X175827047Y-84954949D01*
X175827047Y-84954949D02*
X176017523Y-85002568D01*
X176017523Y-85002568D02*
X176112761Y-85097806D01*
X176112761Y-85097806D02*
X176160380Y-85193044D01*
X175160380Y-86621615D02*
X175636571Y-86288282D01*
X175160380Y-86050187D02*
X176160380Y-86050187D01*
X176160380Y-86050187D02*
X176160380Y-86431139D01*
X176160380Y-86431139D02*
X176112761Y-86526377D01*
X176112761Y-86526377D02*
X176065142Y-86573996D01*
X176065142Y-86573996D02*
X175969904Y-86621615D01*
X175969904Y-86621615D02*
X175827047Y-86621615D01*
X175827047Y-86621615D02*
X175731809Y-86573996D01*
X175731809Y-86573996D02*
X175684190Y-86526377D01*
X175684190Y-86526377D02*
X175636571Y-86431139D01*
X175636571Y-86431139D02*
X175636571Y-86050187D01*
X176112761Y-87573996D02*
X176160380Y-87478758D01*
X176160380Y-87478758D02*
X176160380Y-87335901D01*
X176160380Y-87335901D02*
X176112761Y-87193044D01*
X176112761Y-87193044D02*
X176017523Y-87097806D01*
X176017523Y-87097806D02*
X175922285Y-87050187D01*
X175922285Y-87050187D02*
X175731809Y-87002568D01*
X175731809Y-87002568D02*
X175588952Y-87002568D01*
X175588952Y-87002568D02*
X175398476Y-87050187D01*
X175398476Y-87050187D02*
X175303238Y-87097806D01*
X175303238Y-87097806D02*
X175208000Y-87193044D01*
X175208000Y-87193044D02*
X175160380Y-87335901D01*
X175160380Y-87335901D02*
X175160380Y-87431139D01*
X175160380Y-87431139D02*
X175208000Y-87573996D01*
X175208000Y-87573996D02*
X175255619Y-87621615D01*
X175255619Y-87621615D02*
X175588952Y-87621615D01*
X175588952Y-87621615D02*
X175588952Y-87431139D01*
D14*
X130507143Y-121074809D02*
X130507143Y-121431952D01*
X130507143Y-121431952D02*
X130483334Y-121503380D01*
X130483334Y-121503380D02*
X130435715Y-121551000D01*
X130435715Y-121551000D02*
X130364286Y-121574809D01*
X130364286Y-121574809D02*
X130316667Y-121574809D01*
X130983333Y-121074809D02*
X130745238Y-121074809D01*
X130745238Y-121074809D02*
X130721429Y-121312904D01*
X130721429Y-121312904D02*
X130745238Y-121289095D01*
X130745238Y-121289095D02*
X130792857Y-121265285D01*
X130792857Y-121265285D02*
X130911905Y-121265285D01*
X130911905Y-121265285D02*
X130959524Y-121289095D01*
X130959524Y-121289095D02*
X130983333Y-121312904D01*
X130983333Y-121312904D02*
X131007143Y-121360523D01*
X131007143Y-121360523D02*
X131007143Y-121479571D01*
X131007143Y-121479571D02*
X130983333Y-121527190D01*
X130983333Y-121527190D02*
X130959524Y-121551000D01*
X130959524Y-121551000D02*
X130911905Y-121574809D01*
X130911905Y-121574809D02*
X130792857Y-121574809D01*
X130792857Y-121574809D02*
X130745238Y-121551000D01*
X130745238Y-121551000D02*
X130721429Y-121527190D01*
X131316666Y-121074809D02*
X131364285Y-121074809D01*
X131364285Y-121074809D02*
X131411904Y-121098619D01*
X131411904Y-121098619D02*
X131435714Y-121122428D01*
X131435714Y-121122428D02*
X131459523Y-121170047D01*
X131459523Y-121170047D02*
X131483333Y-121265285D01*
X131483333Y-121265285D02*
X131483333Y-121384333D01*
X131483333Y-121384333D02*
X131459523Y-121479571D01*
X131459523Y-121479571D02*
X131435714Y-121527190D01*
X131435714Y-121527190D02*
X131411904Y-121551000D01*
X131411904Y-121551000D02*
X131364285Y-121574809D01*
X131364285Y-121574809D02*
X131316666Y-121574809D01*
X131316666Y-121574809D02*
X131269047Y-121551000D01*
X131269047Y-121551000D02*
X131245238Y-121527190D01*
X131245238Y-121527190D02*
X131221428Y-121479571D01*
X131221428Y-121479571D02*
X131197619Y-121384333D01*
X131197619Y-121384333D02*
X131197619Y-121265285D01*
X131197619Y-121265285D02*
X131221428Y-121170047D01*
X131221428Y-121170047D02*
X131245238Y-121122428D01*
X131245238Y-121122428D02*
X131269047Y-121098619D01*
X131269047Y-121098619D02*
X131316666Y-121074809D01*
X131911904Y-121074809D02*
X131816666Y-121074809D01*
X131816666Y-121074809D02*
X131769047Y-121098619D01*
X131769047Y-121098619D02*
X131745237Y-121122428D01*
X131745237Y-121122428D02*
X131697618Y-121193857D01*
X131697618Y-121193857D02*
X131673809Y-121289095D01*
X131673809Y-121289095D02*
X131673809Y-121479571D01*
X131673809Y-121479571D02*
X131697618Y-121527190D01*
X131697618Y-121527190D02*
X131721428Y-121551000D01*
X131721428Y-121551000D02*
X131769047Y-121574809D01*
X131769047Y-121574809D02*
X131864285Y-121574809D01*
X131864285Y-121574809D02*
X131911904Y-121551000D01*
X131911904Y-121551000D02*
X131935713Y-121527190D01*
X131935713Y-121527190D02*
X131959523Y-121479571D01*
X131959523Y-121479571D02*
X131959523Y-121360523D01*
X131959523Y-121360523D02*
X131935713Y-121312904D01*
X131935713Y-121312904D02*
X131911904Y-121289095D01*
X131911904Y-121289095D02*
X131864285Y-121265285D01*
X131864285Y-121265285D02*
X131769047Y-121265285D01*
X131769047Y-121265285D02*
X131721428Y-121289095D01*
X131721428Y-121289095D02*
X131697618Y-121312904D01*
X131697618Y-121312904D02*
X131673809Y-121360523D01*
D13*
X140139619Y-117506955D02*
X140139619Y-117316479D01*
X140139619Y-117316479D02*
X140187238Y-117221241D01*
X140187238Y-117221241D02*
X140282476Y-117126003D01*
X140282476Y-117126003D02*
X140472952Y-117078384D01*
X140472952Y-117078384D02*
X140806285Y-117078384D01*
X140806285Y-117078384D02*
X140996761Y-117126003D01*
X140996761Y-117126003D02*
X141092000Y-117221241D01*
X141092000Y-117221241D02*
X141139619Y-117316479D01*
X141139619Y-117316479D02*
X141139619Y-117506955D01*
X141139619Y-117506955D02*
X141092000Y-117602193D01*
X141092000Y-117602193D02*
X140996761Y-117697431D01*
X140996761Y-117697431D02*
X140806285Y-117745050D01*
X140806285Y-117745050D02*
X140472952Y-117745050D01*
X140472952Y-117745050D02*
X140282476Y-117697431D01*
X140282476Y-117697431D02*
X140187238Y-117602193D01*
X140187238Y-117602193D02*
X140139619Y-117506955D01*
X141139619Y-116078384D02*
X140663428Y-116411717D01*
X141139619Y-116649812D02*
X140139619Y-116649812D01*
X140139619Y-116649812D02*
X140139619Y-116268860D01*
X140139619Y-116268860D02*
X140187238Y-116173622D01*
X140187238Y-116173622D02*
X140234857Y-116126003D01*
X140234857Y-116126003D02*
X140330095Y-116078384D01*
X140330095Y-116078384D02*
X140472952Y-116078384D01*
X140472952Y-116078384D02*
X140568190Y-116126003D01*
X140568190Y-116126003D02*
X140615809Y-116173622D01*
X140615809Y-116173622D02*
X140663428Y-116268860D01*
X140663428Y-116268860D02*
X140663428Y-116649812D01*
X140187238Y-115126003D02*
X140139619Y-115221241D01*
X140139619Y-115221241D02*
X140139619Y-115364098D01*
X140139619Y-115364098D02*
X140187238Y-115506955D01*
X140187238Y-115506955D02*
X140282476Y-115602193D01*
X140282476Y-115602193D02*
X140377714Y-115649812D01*
X140377714Y-115649812D02*
X140568190Y-115697431D01*
X140568190Y-115697431D02*
X140711047Y-115697431D01*
X140711047Y-115697431D02*
X140901523Y-115649812D01*
X140901523Y-115649812D02*
X140996761Y-115602193D01*
X140996761Y-115602193D02*
X141092000Y-115506955D01*
X141092000Y-115506955D02*
X141139619Y-115364098D01*
X141139619Y-115364098D02*
X141139619Y-115268860D01*
X141139619Y-115268860D02*
X141092000Y-115126003D01*
X141092000Y-115126003D02*
X141044380Y-115078384D01*
X141044380Y-115078384D02*
X140711047Y-115078384D01*
X140711047Y-115078384D02*
X140711047Y-115268860D01*
X133388095Y-118799619D02*
X132911905Y-118799619D01*
X132911905Y-118799619D02*
X132864286Y-119275809D01*
X132864286Y-119275809D02*
X132911905Y-119228190D01*
X132911905Y-119228190D02*
X133007143Y-119180571D01*
X133007143Y-119180571D02*
X133245238Y-119180571D01*
X133245238Y-119180571D02*
X133340476Y-119228190D01*
X133340476Y-119228190D02*
X133388095Y-119275809D01*
X133388095Y-119275809D02*
X133435714Y-119371047D01*
X133435714Y-119371047D02*
X133435714Y-119609142D01*
X133435714Y-119609142D02*
X133388095Y-119704380D01*
X133388095Y-119704380D02*
X133340476Y-119752000D01*
X133340476Y-119752000D02*
X133245238Y-119799619D01*
X133245238Y-119799619D02*
X133007143Y-119799619D01*
X133007143Y-119799619D02*
X132911905Y-119752000D01*
X132911905Y-119752000D02*
X132864286Y-119704380D01*
X143221428Y-119275809D02*
X143364285Y-119323428D01*
X143364285Y-119323428D02*
X143411904Y-119371047D01*
X143411904Y-119371047D02*
X143459523Y-119466285D01*
X143459523Y-119466285D02*
X143459523Y-119609142D01*
X143459523Y-119609142D02*
X143411904Y-119704380D01*
X143411904Y-119704380D02*
X143364285Y-119752000D01*
X143364285Y-119752000D02*
X143269047Y-119799619D01*
X143269047Y-119799619D02*
X142888095Y-119799619D01*
X142888095Y-119799619D02*
X142888095Y-118799619D01*
X142888095Y-118799619D02*
X143221428Y-118799619D01*
X143221428Y-118799619D02*
X143316666Y-118847238D01*
X143316666Y-118847238D02*
X143364285Y-118894857D01*
X143364285Y-118894857D02*
X143411904Y-118990095D01*
X143411904Y-118990095D02*
X143411904Y-119085333D01*
X143411904Y-119085333D02*
X143364285Y-119180571D01*
X143364285Y-119180571D02*
X143316666Y-119228190D01*
X143316666Y-119228190D02*
X143221428Y-119275809D01*
X143221428Y-119275809D02*
X142888095Y-119275809D01*
X138599619Y-117126003D02*
X138123428Y-117459336D01*
X138599619Y-117697431D02*
X137599619Y-117697431D01*
X137599619Y-117697431D02*
X137599619Y-117316479D01*
X137599619Y-117316479D02*
X137647238Y-117221241D01*
X137647238Y-117221241D02*
X137694857Y-117173622D01*
X137694857Y-117173622D02*
X137790095Y-117126003D01*
X137790095Y-117126003D02*
X137932952Y-117126003D01*
X137932952Y-117126003D02*
X138028190Y-117173622D01*
X138028190Y-117173622D02*
X138075809Y-117221241D01*
X138075809Y-117221241D02*
X138123428Y-117316479D01*
X138123428Y-117316479D02*
X138123428Y-117697431D01*
X138075809Y-116697431D02*
X138075809Y-116364098D01*
X138599619Y-116221241D02*
X138599619Y-116697431D01*
X138599619Y-116697431D02*
X137599619Y-116697431D01*
X137599619Y-116697431D02*
X137599619Y-116221241D01*
X138599619Y-115792669D02*
X137599619Y-115792669D01*
X137599619Y-115792669D02*
X137599619Y-115554574D01*
X137599619Y-115554574D02*
X137647238Y-115411717D01*
X137647238Y-115411717D02*
X137742476Y-115316479D01*
X137742476Y-115316479D02*
X137837714Y-115268860D01*
X137837714Y-115268860D02*
X138028190Y-115221241D01*
X138028190Y-115221241D02*
X138171047Y-115221241D01*
X138171047Y-115221241D02*
X138361523Y-115268860D01*
X138361523Y-115268860D02*
X138456761Y-115316479D01*
X138456761Y-115316479D02*
X138552000Y-115411717D01*
X138552000Y-115411717D02*
X138599619Y-115554574D01*
X138599619Y-115554574D02*
X138599619Y-115792669D01*
X135535809Y-117364098D02*
X135583428Y-117221241D01*
X135583428Y-117221241D02*
X135631047Y-117173622D01*
X135631047Y-117173622D02*
X135726285Y-117126003D01*
X135726285Y-117126003D02*
X135869142Y-117126003D01*
X135869142Y-117126003D02*
X135964380Y-117173622D01*
X135964380Y-117173622D02*
X136012000Y-117221241D01*
X136012000Y-117221241D02*
X136059619Y-117316479D01*
X136059619Y-117316479D02*
X136059619Y-117697431D01*
X136059619Y-117697431D02*
X135059619Y-117697431D01*
X135059619Y-117697431D02*
X135059619Y-117364098D01*
X135059619Y-117364098D02*
X135107238Y-117268860D01*
X135107238Y-117268860D02*
X135154857Y-117221241D01*
X135154857Y-117221241D02*
X135250095Y-117173622D01*
X135250095Y-117173622D02*
X135345333Y-117173622D01*
X135345333Y-117173622D02*
X135440571Y-117221241D01*
X135440571Y-117221241D02*
X135488190Y-117268860D01*
X135488190Y-117268860D02*
X135535809Y-117364098D01*
X135535809Y-117364098D02*
X135535809Y-117697431D01*
X136059619Y-116126003D02*
X135583428Y-116459336D01*
X136059619Y-116697431D02*
X135059619Y-116697431D01*
X135059619Y-116697431D02*
X135059619Y-116316479D01*
X135059619Y-116316479D02*
X135107238Y-116221241D01*
X135107238Y-116221241D02*
X135154857Y-116173622D01*
X135154857Y-116173622D02*
X135250095Y-116126003D01*
X135250095Y-116126003D02*
X135392952Y-116126003D01*
X135392952Y-116126003D02*
X135488190Y-116173622D01*
X135488190Y-116173622D02*
X135535809Y-116221241D01*
X135535809Y-116221241D02*
X135583428Y-116316479D01*
X135583428Y-116316479D02*
X135583428Y-116697431D01*
X136059619Y-115697431D02*
X135059619Y-115697431D01*
X135059619Y-115697431D02*
X136059619Y-115126003D01*
X136059619Y-115126003D02*
X135059619Y-115126003D01*
D14*
X169590476Y-105527190D02*
X169566667Y-105551000D01*
X169566667Y-105551000D02*
X169495238Y-105574809D01*
X169495238Y-105574809D02*
X169447619Y-105574809D01*
X169447619Y-105574809D02*
X169376191Y-105551000D01*
X169376191Y-105551000D02*
X169328572Y-105503380D01*
X169328572Y-105503380D02*
X169304762Y-105455761D01*
X169304762Y-105455761D02*
X169280953Y-105360523D01*
X169280953Y-105360523D02*
X169280953Y-105289095D01*
X169280953Y-105289095D02*
X169304762Y-105193857D01*
X169304762Y-105193857D02*
X169328572Y-105146238D01*
X169328572Y-105146238D02*
X169376191Y-105098619D01*
X169376191Y-105098619D02*
X169447619Y-105074809D01*
X169447619Y-105074809D02*
X169495238Y-105074809D01*
X169495238Y-105074809D02*
X169566667Y-105098619D01*
X169566667Y-105098619D02*
X169590476Y-105122428D01*
X170042857Y-105074809D02*
X169804762Y-105074809D01*
X169804762Y-105074809D02*
X169780953Y-105312904D01*
X169780953Y-105312904D02*
X169804762Y-105289095D01*
X169804762Y-105289095D02*
X169852381Y-105265285D01*
X169852381Y-105265285D02*
X169971429Y-105265285D01*
X169971429Y-105265285D02*
X170019048Y-105289095D01*
X170019048Y-105289095D02*
X170042857Y-105312904D01*
X170042857Y-105312904D02*
X170066667Y-105360523D01*
X170066667Y-105360523D02*
X170066667Y-105479571D01*
X170066667Y-105479571D02*
X170042857Y-105527190D01*
X170042857Y-105527190D02*
X170019048Y-105551000D01*
X170019048Y-105551000D02*
X169971429Y-105574809D01*
X169971429Y-105574809D02*
X169852381Y-105574809D01*
X169852381Y-105574809D02*
X169804762Y-105551000D01*
X169804762Y-105551000D02*
X169780953Y-105527190D01*
X170376190Y-105074809D02*
X170423809Y-105074809D01*
X170423809Y-105074809D02*
X170471428Y-105098619D01*
X170471428Y-105098619D02*
X170495238Y-105122428D01*
X170495238Y-105122428D02*
X170519047Y-105170047D01*
X170519047Y-105170047D02*
X170542857Y-105265285D01*
X170542857Y-105265285D02*
X170542857Y-105384333D01*
X170542857Y-105384333D02*
X170519047Y-105479571D01*
X170519047Y-105479571D02*
X170495238Y-105527190D01*
X170495238Y-105527190D02*
X170471428Y-105551000D01*
X170471428Y-105551000D02*
X170423809Y-105574809D01*
X170423809Y-105574809D02*
X170376190Y-105574809D01*
X170376190Y-105574809D02*
X170328571Y-105551000D01*
X170328571Y-105551000D02*
X170304762Y-105527190D01*
X170304762Y-105527190D02*
X170280952Y-105479571D01*
X170280952Y-105479571D02*
X170257143Y-105384333D01*
X170257143Y-105384333D02*
X170257143Y-105265285D01*
X170257143Y-105265285D02*
X170280952Y-105170047D01*
X170280952Y-105170047D02*
X170304762Y-105122428D01*
X170304762Y-105122428D02*
X170328571Y-105098619D01*
X170328571Y-105098619D02*
X170376190Y-105074809D01*
X170733333Y-105122428D02*
X170757142Y-105098619D01*
X170757142Y-105098619D02*
X170804761Y-105074809D01*
X170804761Y-105074809D02*
X170923809Y-105074809D01*
X170923809Y-105074809D02*
X170971428Y-105098619D01*
X170971428Y-105098619D02*
X170995237Y-105122428D01*
X170995237Y-105122428D02*
X171019047Y-105170047D01*
X171019047Y-105170047D02*
X171019047Y-105217666D01*
X171019047Y-105217666D02*
X170995237Y-105289095D01*
X170995237Y-105289095D02*
X170709523Y-105574809D01*
X170709523Y-105574809D02*
X171019047Y-105574809D01*
X150507143Y-121074809D02*
X150507143Y-121431952D01*
X150507143Y-121431952D02*
X150483334Y-121503380D01*
X150483334Y-121503380D02*
X150435715Y-121551000D01*
X150435715Y-121551000D02*
X150364286Y-121574809D01*
X150364286Y-121574809D02*
X150316667Y-121574809D01*
X150983333Y-121074809D02*
X150745238Y-121074809D01*
X150745238Y-121074809D02*
X150721429Y-121312904D01*
X150721429Y-121312904D02*
X150745238Y-121289095D01*
X150745238Y-121289095D02*
X150792857Y-121265285D01*
X150792857Y-121265285D02*
X150911905Y-121265285D01*
X150911905Y-121265285D02*
X150959524Y-121289095D01*
X150959524Y-121289095D02*
X150983333Y-121312904D01*
X150983333Y-121312904D02*
X151007143Y-121360523D01*
X151007143Y-121360523D02*
X151007143Y-121479571D01*
X151007143Y-121479571D02*
X150983333Y-121527190D01*
X150983333Y-121527190D02*
X150959524Y-121551000D01*
X150959524Y-121551000D02*
X150911905Y-121574809D01*
X150911905Y-121574809D02*
X150792857Y-121574809D01*
X150792857Y-121574809D02*
X150745238Y-121551000D01*
X150745238Y-121551000D02*
X150721429Y-121527190D01*
X151316666Y-121074809D02*
X151364285Y-121074809D01*
X151364285Y-121074809D02*
X151411904Y-121098619D01*
X151411904Y-121098619D02*
X151435714Y-121122428D01*
X151435714Y-121122428D02*
X151459523Y-121170047D01*
X151459523Y-121170047D02*
X151483333Y-121265285D01*
X151483333Y-121265285D02*
X151483333Y-121384333D01*
X151483333Y-121384333D02*
X151459523Y-121479571D01*
X151459523Y-121479571D02*
X151435714Y-121527190D01*
X151435714Y-121527190D02*
X151411904Y-121551000D01*
X151411904Y-121551000D02*
X151364285Y-121574809D01*
X151364285Y-121574809D02*
X151316666Y-121574809D01*
X151316666Y-121574809D02*
X151269047Y-121551000D01*
X151269047Y-121551000D02*
X151245238Y-121527190D01*
X151245238Y-121527190D02*
X151221428Y-121479571D01*
X151221428Y-121479571D02*
X151197619Y-121384333D01*
X151197619Y-121384333D02*
X151197619Y-121265285D01*
X151197619Y-121265285D02*
X151221428Y-121170047D01*
X151221428Y-121170047D02*
X151245238Y-121122428D01*
X151245238Y-121122428D02*
X151269047Y-121098619D01*
X151269047Y-121098619D02*
X151316666Y-121074809D01*
X151935713Y-121074809D02*
X151697618Y-121074809D01*
X151697618Y-121074809D02*
X151673809Y-121312904D01*
X151673809Y-121312904D02*
X151697618Y-121289095D01*
X151697618Y-121289095D02*
X151745237Y-121265285D01*
X151745237Y-121265285D02*
X151864285Y-121265285D01*
X151864285Y-121265285D02*
X151911904Y-121289095D01*
X151911904Y-121289095D02*
X151935713Y-121312904D01*
X151935713Y-121312904D02*
X151959523Y-121360523D01*
X151959523Y-121360523D02*
X151959523Y-121479571D01*
X151959523Y-121479571D02*
X151935713Y-121527190D01*
X151935713Y-121527190D02*
X151911904Y-121551000D01*
X151911904Y-121551000D02*
X151864285Y-121574809D01*
X151864285Y-121574809D02*
X151745237Y-121574809D01*
X151745237Y-121574809D02*
X151697618Y-121551000D01*
X151697618Y-121551000D02*
X151673809Y-121527190D01*
D13*
X153340476Y-119132952D02*
X153340476Y-119799619D01*
X153102381Y-118752000D02*
X152864286Y-119466285D01*
X152864286Y-119466285D02*
X153483333Y-119466285D01*
X155535809Y-117364098D02*
X155583428Y-117221241D01*
X155583428Y-117221241D02*
X155631047Y-117173622D01*
X155631047Y-117173622D02*
X155726285Y-117126003D01*
X155726285Y-117126003D02*
X155869142Y-117126003D01*
X155869142Y-117126003D02*
X155964380Y-117173622D01*
X155964380Y-117173622D02*
X156012000Y-117221241D01*
X156012000Y-117221241D02*
X156059619Y-117316479D01*
X156059619Y-117316479D02*
X156059619Y-117697431D01*
X156059619Y-117697431D02*
X155059619Y-117697431D01*
X155059619Y-117697431D02*
X155059619Y-117364098D01*
X155059619Y-117364098D02*
X155107238Y-117268860D01*
X155107238Y-117268860D02*
X155154857Y-117221241D01*
X155154857Y-117221241D02*
X155250095Y-117173622D01*
X155250095Y-117173622D02*
X155345333Y-117173622D01*
X155345333Y-117173622D02*
X155440571Y-117221241D01*
X155440571Y-117221241D02*
X155488190Y-117268860D01*
X155488190Y-117268860D02*
X155535809Y-117364098D01*
X155535809Y-117364098D02*
X155535809Y-117697431D01*
X156059619Y-116126003D02*
X155583428Y-116459336D01*
X156059619Y-116697431D02*
X155059619Y-116697431D01*
X155059619Y-116697431D02*
X155059619Y-116316479D01*
X155059619Y-116316479D02*
X155107238Y-116221241D01*
X155107238Y-116221241D02*
X155154857Y-116173622D01*
X155154857Y-116173622D02*
X155250095Y-116126003D01*
X155250095Y-116126003D02*
X155392952Y-116126003D01*
X155392952Y-116126003D02*
X155488190Y-116173622D01*
X155488190Y-116173622D02*
X155535809Y-116221241D01*
X155535809Y-116221241D02*
X155583428Y-116316479D01*
X155583428Y-116316479D02*
X155583428Y-116697431D01*
X156059619Y-115697431D02*
X155059619Y-115697431D01*
X155059619Y-115697431D02*
X156059619Y-115126003D01*
X156059619Y-115126003D02*
X155059619Y-115126003D01*
X162911905Y-119513904D02*
X163388095Y-119513904D01*
X162816667Y-119799619D02*
X163150000Y-118799619D01*
X163150000Y-118799619D02*
X163483333Y-119799619D01*
X160139619Y-117506955D02*
X160139619Y-117316479D01*
X160139619Y-117316479D02*
X160187238Y-117221241D01*
X160187238Y-117221241D02*
X160282476Y-117126003D01*
X160282476Y-117126003D02*
X160472952Y-117078384D01*
X160472952Y-117078384D02*
X160806285Y-117078384D01*
X160806285Y-117078384D02*
X160996761Y-117126003D01*
X160996761Y-117126003D02*
X161092000Y-117221241D01*
X161092000Y-117221241D02*
X161139619Y-117316479D01*
X161139619Y-117316479D02*
X161139619Y-117506955D01*
X161139619Y-117506955D02*
X161092000Y-117602193D01*
X161092000Y-117602193D02*
X160996761Y-117697431D01*
X160996761Y-117697431D02*
X160806285Y-117745050D01*
X160806285Y-117745050D02*
X160472952Y-117745050D01*
X160472952Y-117745050D02*
X160282476Y-117697431D01*
X160282476Y-117697431D02*
X160187238Y-117602193D01*
X160187238Y-117602193D02*
X160139619Y-117506955D01*
X161139619Y-116078384D02*
X160663428Y-116411717D01*
X161139619Y-116649812D02*
X160139619Y-116649812D01*
X160139619Y-116649812D02*
X160139619Y-116268860D01*
X160139619Y-116268860D02*
X160187238Y-116173622D01*
X160187238Y-116173622D02*
X160234857Y-116126003D01*
X160234857Y-116126003D02*
X160330095Y-116078384D01*
X160330095Y-116078384D02*
X160472952Y-116078384D01*
X160472952Y-116078384D02*
X160568190Y-116126003D01*
X160568190Y-116126003D02*
X160615809Y-116173622D01*
X160615809Y-116173622D02*
X160663428Y-116268860D01*
X160663428Y-116268860D02*
X160663428Y-116649812D01*
X160187238Y-115126003D02*
X160139619Y-115221241D01*
X160139619Y-115221241D02*
X160139619Y-115364098D01*
X160139619Y-115364098D02*
X160187238Y-115506955D01*
X160187238Y-115506955D02*
X160282476Y-115602193D01*
X160282476Y-115602193D02*
X160377714Y-115649812D01*
X160377714Y-115649812D02*
X160568190Y-115697431D01*
X160568190Y-115697431D02*
X160711047Y-115697431D01*
X160711047Y-115697431D02*
X160901523Y-115649812D01*
X160901523Y-115649812D02*
X160996761Y-115602193D01*
X160996761Y-115602193D02*
X161092000Y-115506955D01*
X161092000Y-115506955D02*
X161139619Y-115364098D01*
X161139619Y-115364098D02*
X161139619Y-115268860D01*
X161139619Y-115268860D02*
X161092000Y-115126003D01*
X161092000Y-115126003D02*
X161044380Y-115078384D01*
X161044380Y-115078384D02*
X160711047Y-115078384D01*
X160711047Y-115078384D02*
X160711047Y-115268860D01*
X158599619Y-117126003D02*
X158123428Y-117459336D01*
X158599619Y-117697431D02*
X157599619Y-117697431D01*
X157599619Y-117697431D02*
X157599619Y-117316479D01*
X157599619Y-117316479D02*
X157647238Y-117221241D01*
X157647238Y-117221241D02*
X157694857Y-117173622D01*
X157694857Y-117173622D02*
X157790095Y-117126003D01*
X157790095Y-117126003D02*
X157932952Y-117126003D01*
X157932952Y-117126003D02*
X158028190Y-117173622D01*
X158028190Y-117173622D02*
X158075809Y-117221241D01*
X158075809Y-117221241D02*
X158123428Y-117316479D01*
X158123428Y-117316479D02*
X158123428Y-117697431D01*
X158075809Y-116697431D02*
X158075809Y-116364098D01*
X158599619Y-116221241D02*
X158599619Y-116697431D01*
X158599619Y-116697431D02*
X157599619Y-116697431D01*
X157599619Y-116697431D02*
X157599619Y-116221241D01*
X158599619Y-115792669D02*
X157599619Y-115792669D01*
X157599619Y-115792669D02*
X157599619Y-115554574D01*
X157599619Y-115554574D02*
X157647238Y-115411717D01*
X157647238Y-115411717D02*
X157742476Y-115316479D01*
X157742476Y-115316479D02*
X157837714Y-115268860D01*
X157837714Y-115268860D02*
X158028190Y-115221241D01*
X158028190Y-115221241D02*
X158171047Y-115221241D01*
X158171047Y-115221241D02*
X158361523Y-115268860D01*
X158361523Y-115268860D02*
X158456761Y-115316479D01*
X158456761Y-115316479D02*
X158552000Y-115411717D01*
X158552000Y-115411717D02*
X158599619Y-115554574D01*
X158599619Y-115554574D02*
X158599619Y-115792669D01*
D14*
X187874809Y-108992856D02*
X188231952Y-108992856D01*
X188231952Y-108992856D02*
X188303380Y-109016665D01*
X188303380Y-109016665D02*
X188351000Y-109064284D01*
X188351000Y-109064284D02*
X188374809Y-109135713D01*
X188374809Y-109135713D02*
X188374809Y-109183332D01*
X187874809Y-108802380D02*
X187874809Y-108492856D01*
X187874809Y-108492856D02*
X188065285Y-108659523D01*
X188065285Y-108659523D02*
X188065285Y-108588094D01*
X188065285Y-108588094D02*
X188089095Y-108540475D01*
X188089095Y-108540475D02*
X188112904Y-108516666D01*
X188112904Y-108516666D02*
X188160523Y-108492856D01*
X188160523Y-108492856D02*
X188279571Y-108492856D01*
X188279571Y-108492856D02*
X188327190Y-108516666D01*
X188327190Y-108516666D02*
X188351000Y-108540475D01*
X188351000Y-108540475D02*
X188374809Y-108588094D01*
X188374809Y-108588094D02*
X188374809Y-108730951D01*
X188374809Y-108730951D02*
X188351000Y-108778570D01*
X188351000Y-108778570D02*
X188327190Y-108802380D01*
X187874809Y-108183333D02*
X187874809Y-108135714D01*
X187874809Y-108135714D02*
X187898619Y-108088095D01*
X187898619Y-108088095D02*
X187922428Y-108064285D01*
X187922428Y-108064285D02*
X187970047Y-108040476D01*
X187970047Y-108040476D02*
X188065285Y-108016666D01*
X188065285Y-108016666D02*
X188184333Y-108016666D01*
X188184333Y-108016666D02*
X188279571Y-108040476D01*
X188279571Y-108040476D02*
X188327190Y-108064285D01*
X188327190Y-108064285D02*
X188351000Y-108088095D01*
X188351000Y-108088095D02*
X188374809Y-108135714D01*
X188374809Y-108135714D02*
X188374809Y-108183333D01*
X188374809Y-108183333D02*
X188351000Y-108230952D01*
X188351000Y-108230952D02*
X188327190Y-108254761D01*
X188327190Y-108254761D02*
X188279571Y-108278571D01*
X188279571Y-108278571D02*
X188184333Y-108302380D01*
X188184333Y-108302380D02*
X188065285Y-108302380D01*
X188065285Y-108302380D02*
X187970047Y-108278571D01*
X187970047Y-108278571D02*
X187922428Y-108254761D01*
X187922428Y-108254761D02*
X187898619Y-108230952D01*
X187898619Y-108230952D02*
X187874809Y-108183333D01*
X188374809Y-107540476D02*
X188374809Y-107826190D01*
X188374809Y-107683333D02*
X187874809Y-107683333D01*
X187874809Y-107683333D02*
X187946238Y-107730952D01*
X187946238Y-107730952D02*
X187993857Y-107778571D01*
X187993857Y-107778571D02*
X188017666Y-107826190D01*
D13*
X187271240Y-92418666D02*
X188033145Y-92418666D01*
X187652192Y-92799619D02*
X187652192Y-92037714D01*
X188937906Y-91799619D02*
X188747430Y-91799619D01*
X188747430Y-91799619D02*
X188652192Y-91847238D01*
X188652192Y-91847238D02*
X188604573Y-91894857D01*
X188604573Y-91894857D02*
X188509335Y-92037714D01*
X188509335Y-92037714D02*
X188461716Y-92228190D01*
X188461716Y-92228190D02*
X188461716Y-92609142D01*
X188461716Y-92609142D02*
X188509335Y-92704380D01*
X188509335Y-92704380D02*
X188556954Y-92752000D01*
X188556954Y-92752000D02*
X188652192Y-92799619D01*
X188652192Y-92799619D02*
X188842668Y-92799619D01*
X188842668Y-92799619D02*
X188937906Y-92752000D01*
X188937906Y-92752000D02*
X188985525Y-92704380D01*
X188985525Y-92704380D02*
X189033144Y-92609142D01*
X189033144Y-92609142D02*
X189033144Y-92371047D01*
X189033144Y-92371047D02*
X188985525Y-92275809D01*
X188985525Y-92275809D02*
X188937906Y-92228190D01*
X188937906Y-92228190D02*
X188842668Y-92180571D01*
X188842668Y-92180571D02*
X188652192Y-92180571D01*
X188652192Y-92180571D02*
X188556954Y-92228190D01*
X188556954Y-92228190D02*
X188509335Y-92275809D01*
X188509335Y-92275809D02*
X188461716Y-92371047D01*
X189318859Y-91799619D02*
X189652192Y-92799619D01*
X189652192Y-92799619D02*
X189985525Y-91799619D01*
X191414097Y-92275809D02*
X191556954Y-92323428D01*
X191556954Y-92323428D02*
X191604573Y-92371047D01*
X191604573Y-92371047D02*
X191652192Y-92466285D01*
X191652192Y-92466285D02*
X191652192Y-92609142D01*
X191652192Y-92609142D02*
X191604573Y-92704380D01*
X191604573Y-92704380D02*
X191556954Y-92752000D01*
X191556954Y-92752000D02*
X191461716Y-92799619D01*
X191461716Y-92799619D02*
X191080764Y-92799619D01*
X191080764Y-92799619D02*
X191080764Y-91799619D01*
X191080764Y-91799619D02*
X191414097Y-91799619D01*
X191414097Y-91799619D02*
X191509335Y-91847238D01*
X191509335Y-91847238D02*
X191556954Y-91894857D01*
X191556954Y-91894857D02*
X191604573Y-91990095D01*
X191604573Y-91990095D02*
X191604573Y-92085333D01*
X191604573Y-92085333D02*
X191556954Y-92180571D01*
X191556954Y-92180571D02*
X191509335Y-92228190D01*
X191509335Y-92228190D02*
X191414097Y-92275809D01*
X191414097Y-92275809D02*
X191080764Y-92275809D01*
X192033145Y-92513904D02*
X192509335Y-92513904D01*
X191937907Y-92799619D02*
X192271240Y-91799619D01*
X192271240Y-91799619D02*
X192604573Y-92799619D01*
X192795050Y-91799619D02*
X193366478Y-91799619D01*
X193080764Y-92799619D02*
X193080764Y-91799619D01*
X193556955Y-91799619D02*
X194128383Y-91799619D01*
X193842669Y-92799619D02*
X193842669Y-91799619D01*
X194461717Y-92275809D02*
X194795050Y-92275809D01*
X194937907Y-92799619D02*
X194461717Y-92799619D01*
X194461717Y-92799619D02*
X194461717Y-91799619D01*
X194461717Y-91799619D02*
X194937907Y-91799619D01*
X195937907Y-92799619D02*
X195604574Y-92323428D01*
X195366479Y-92799619D02*
X195366479Y-91799619D01*
X195366479Y-91799619D02*
X195747431Y-91799619D01*
X195747431Y-91799619D02*
X195842669Y-91847238D01*
X195842669Y-91847238D02*
X195890288Y-91894857D01*
X195890288Y-91894857D02*
X195937907Y-91990095D01*
X195937907Y-91990095D02*
X195937907Y-92132952D01*
X195937907Y-92132952D02*
X195890288Y-92228190D01*
X195890288Y-92228190D02*
X195842669Y-92275809D01*
X195842669Y-92275809D02*
X195747431Y-92323428D01*
X195747431Y-92323428D02*
X195366479Y-92323428D01*
X196556955Y-92323428D02*
X196556955Y-92799619D01*
X196223622Y-91799619D02*
X196556955Y-92323428D01*
X196556955Y-92323428D02*
X196890288Y-91799619D01*
X182640288Y-101799619D02*
X182306955Y-101323428D01*
X182068860Y-101799619D02*
X182068860Y-100799619D01*
X182068860Y-100799619D02*
X182449812Y-100799619D01*
X182449812Y-100799619D02*
X182545050Y-100847238D01*
X182545050Y-100847238D02*
X182592669Y-100894857D01*
X182592669Y-100894857D02*
X182640288Y-100990095D01*
X182640288Y-100990095D02*
X182640288Y-101132952D01*
X182640288Y-101132952D02*
X182592669Y-101228190D01*
X182592669Y-101228190D02*
X182545050Y-101275809D01*
X182545050Y-101275809D02*
X182449812Y-101323428D01*
X182449812Y-101323428D02*
X182068860Y-101323428D01*
X183068860Y-101275809D02*
X183402193Y-101275809D01*
X183545050Y-101799619D02*
X183068860Y-101799619D01*
X183068860Y-101799619D02*
X183068860Y-100799619D01*
X183068860Y-100799619D02*
X183545050Y-100799619D01*
X183973622Y-101799619D02*
X183973622Y-100799619D01*
X183973622Y-100799619D02*
X184211717Y-100799619D01*
X184211717Y-100799619D02*
X184354574Y-100847238D01*
X184354574Y-100847238D02*
X184449812Y-100942476D01*
X184449812Y-100942476D02*
X184497431Y-101037714D01*
X184497431Y-101037714D02*
X184545050Y-101228190D01*
X184545050Y-101228190D02*
X184545050Y-101371047D01*
X184545050Y-101371047D02*
X184497431Y-101561523D01*
X184497431Y-101561523D02*
X184449812Y-101656761D01*
X184449812Y-101656761D02*
X184354574Y-101752000D01*
X184354574Y-101752000D02*
X184211717Y-101799619D01*
X184211717Y-101799619D02*
X183973622Y-101799619D01*
X182497431Y-103815809D02*
X182640288Y-103863428D01*
X182640288Y-103863428D02*
X182687907Y-103911047D01*
X182687907Y-103911047D02*
X182735526Y-104006285D01*
X182735526Y-104006285D02*
X182735526Y-104149142D01*
X182735526Y-104149142D02*
X182687907Y-104244380D01*
X182687907Y-104244380D02*
X182640288Y-104292000D01*
X182640288Y-104292000D02*
X182545050Y-104339619D01*
X182545050Y-104339619D02*
X182164098Y-104339619D01*
X182164098Y-104339619D02*
X182164098Y-103339619D01*
X182164098Y-103339619D02*
X182497431Y-103339619D01*
X182497431Y-103339619D02*
X182592669Y-103387238D01*
X182592669Y-103387238D02*
X182640288Y-103434857D01*
X182640288Y-103434857D02*
X182687907Y-103530095D01*
X182687907Y-103530095D02*
X182687907Y-103625333D01*
X182687907Y-103625333D02*
X182640288Y-103720571D01*
X182640288Y-103720571D02*
X182592669Y-103768190D01*
X182592669Y-103768190D02*
X182497431Y-103815809D01*
X182497431Y-103815809D02*
X182164098Y-103815809D01*
X183640288Y-104339619D02*
X183164098Y-104339619D01*
X183164098Y-104339619D02*
X183164098Y-103339619D01*
X183973622Y-104339619D02*
X183973622Y-103339619D01*
X184545050Y-104339619D02*
X184116479Y-103768190D01*
X184545050Y-103339619D02*
X183973622Y-103911047D01*
D14*
X164507143Y-81074809D02*
X164507143Y-81431952D01*
X164507143Y-81431952D02*
X164483334Y-81503380D01*
X164483334Y-81503380D02*
X164435715Y-81551000D01*
X164435715Y-81551000D02*
X164364286Y-81574809D01*
X164364286Y-81574809D02*
X164316667Y-81574809D01*
X164983333Y-81074809D02*
X164745238Y-81074809D01*
X164745238Y-81074809D02*
X164721429Y-81312904D01*
X164721429Y-81312904D02*
X164745238Y-81289095D01*
X164745238Y-81289095D02*
X164792857Y-81265285D01*
X164792857Y-81265285D02*
X164911905Y-81265285D01*
X164911905Y-81265285D02*
X164959524Y-81289095D01*
X164959524Y-81289095D02*
X164983333Y-81312904D01*
X164983333Y-81312904D02*
X165007143Y-81360523D01*
X165007143Y-81360523D02*
X165007143Y-81479571D01*
X165007143Y-81479571D02*
X164983333Y-81527190D01*
X164983333Y-81527190D02*
X164959524Y-81551000D01*
X164959524Y-81551000D02*
X164911905Y-81574809D01*
X164911905Y-81574809D02*
X164792857Y-81574809D01*
X164792857Y-81574809D02*
X164745238Y-81551000D01*
X164745238Y-81551000D02*
X164721429Y-81527190D01*
X165316666Y-81074809D02*
X165364285Y-81074809D01*
X165364285Y-81074809D02*
X165411904Y-81098619D01*
X165411904Y-81098619D02*
X165435714Y-81122428D01*
X165435714Y-81122428D02*
X165459523Y-81170047D01*
X165459523Y-81170047D02*
X165483333Y-81265285D01*
X165483333Y-81265285D02*
X165483333Y-81384333D01*
X165483333Y-81384333D02*
X165459523Y-81479571D01*
X165459523Y-81479571D02*
X165435714Y-81527190D01*
X165435714Y-81527190D02*
X165411904Y-81551000D01*
X165411904Y-81551000D02*
X165364285Y-81574809D01*
X165364285Y-81574809D02*
X165316666Y-81574809D01*
X165316666Y-81574809D02*
X165269047Y-81551000D01*
X165269047Y-81551000D02*
X165245238Y-81527190D01*
X165245238Y-81527190D02*
X165221428Y-81479571D01*
X165221428Y-81479571D02*
X165197619Y-81384333D01*
X165197619Y-81384333D02*
X165197619Y-81265285D01*
X165197619Y-81265285D02*
X165221428Y-81170047D01*
X165221428Y-81170047D02*
X165245238Y-81122428D01*
X165245238Y-81122428D02*
X165269047Y-81098619D01*
X165269047Y-81098619D02*
X165316666Y-81074809D01*
X165673809Y-81122428D02*
X165697618Y-81098619D01*
X165697618Y-81098619D02*
X165745237Y-81074809D01*
X165745237Y-81074809D02*
X165864285Y-81074809D01*
X165864285Y-81074809D02*
X165911904Y-81098619D01*
X165911904Y-81098619D02*
X165935713Y-81122428D01*
X165935713Y-81122428D02*
X165959523Y-81170047D01*
X165959523Y-81170047D02*
X165959523Y-81217666D01*
X165959523Y-81217666D02*
X165935713Y-81289095D01*
X165935713Y-81289095D02*
X165649999Y-81574809D01*
X165649999Y-81574809D02*
X165959523Y-81574809D01*
D13*
X163435714Y-83799619D02*
X162864286Y-83799619D01*
X163150000Y-83799619D02*
X163150000Y-82799619D01*
X163150000Y-82799619D02*
X163054762Y-82942476D01*
X163054762Y-82942476D02*
X162959524Y-83037714D01*
X162959524Y-83037714D02*
X162864286Y-83085333D01*
X160764190Y-85335901D02*
X160716571Y-85478758D01*
X160716571Y-85478758D02*
X160668952Y-85526377D01*
X160668952Y-85526377D02*
X160573714Y-85573996D01*
X160573714Y-85573996D02*
X160430857Y-85573996D01*
X160430857Y-85573996D02*
X160335619Y-85526377D01*
X160335619Y-85526377D02*
X160288000Y-85478758D01*
X160288000Y-85478758D02*
X160240380Y-85383520D01*
X160240380Y-85383520D02*
X160240380Y-85002568D01*
X160240380Y-85002568D02*
X161240380Y-85002568D01*
X161240380Y-85002568D02*
X161240380Y-85335901D01*
X161240380Y-85335901D02*
X161192761Y-85431139D01*
X161192761Y-85431139D02*
X161145142Y-85478758D01*
X161145142Y-85478758D02*
X161049904Y-85526377D01*
X161049904Y-85526377D02*
X160954666Y-85526377D01*
X160954666Y-85526377D02*
X160859428Y-85478758D01*
X160859428Y-85478758D02*
X160811809Y-85431139D01*
X160811809Y-85431139D02*
X160764190Y-85335901D01*
X160764190Y-85335901D02*
X160764190Y-85002568D01*
X160240380Y-86573996D02*
X160716571Y-86240663D01*
X160240380Y-86002568D02*
X161240380Y-86002568D01*
X161240380Y-86002568D02*
X161240380Y-86383520D01*
X161240380Y-86383520D02*
X161192761Y-86478758D01*
X161192761Y-86478758D02*
X161145142Y-86526377D01*
X161145142Y-86526377D02*
X161049904Y-86573996D01*
X161049904Y-86573996D02*
X160907047Y-86573996D01*
X160907047Y-86573996D02*
X160811809Y-86526377D01*
X160811809Y-86526377D02*
X160764190Y-86478758D01*
X160764190Y-86478758D02*
X160716571Y-86383520D01*
X160716571Y-86383520D02*
X160716571Y-86002568D01*
X160240380Y-87002568D02*
X161240380Y-87002568D01*
X161240380Y-87002568D02*
X160240380Y-87573996D01*
X160240380Y-87573996D02*
X161240380Y-87573996D01*
X157700380Y-85573996D02*
X158176571Y-85240663D01*
X157700380Y-85002568D02*
X158700380Y-85002568D01*
X158700380Y-85002568D02*
X158700380Y-85383520D01*
X158700380Y-85383520D02*
X158652761Y-85478758D01*
X158652761Y-85478758D02*
X158605142Y-85526377D01*
X158605142Y-85526377D02*
X158509904Y-85573996D01*
X158509904Y-85573996D02*
X158367047Y-85573996D01*
X158367047Y-85573996D02*
X158271809Y-85526377D01*
X158271809Y-85526377D02*
X158224190Y-85478758D01*
X158224190Y-85478758D02*
X158176571Y-85383520D01*
X158176571Y-85383520D02*
X158176571Y-85002568D01*
X158224190Y-86002568D02*
X158224190Y-86335901D01*
X157700380Y-86478758D02*
X157700380Y-86002568D01*
X157700380Y-86002568D02*
X158700380Y-86002568D01*
X158700380Y-86002568D02*
X158700380Y-86478758D01*
X157700380Y-86907330D02*
X158700380Y-86907330D01*
X158700380Y-86907330D02*
X158700380Y-87145425D01*
X158700380Y-87145425D02*
X158652761Y-87288282D01*
X158652761Y-87288282D02*
X158557523Y-87383520D01*
X158557523Y-87383520D02*
X158462285Y-87431139D01*
X158462285Y-87431139D02*
X158271809Y-87478758D01*
X158271809Y-87478758D02*
X158128952Y-87478758D01*
X158128952Y-87478758D02*
X157938476Y-87431139D01*
X157938476Y-87431139D02*
X157843238Y-87383520D01*
X157843238Y-87383520D02*
X157748000Y-87288282D01*
X157748000Y-87288282D02*
X157700380Y-87145425D01*
X157700380Y-87145425D02*
X157700380Y-86907330D01*
X153221428Y-83275809D02*
X153364285Y-83323428D01*
X153364285Y-83323428D02*
X153411904Y-83371047D01*
X153411904Y-83371047D02*
X153459523Y-83466285D01*
X153459523Y-83466285D02*
X153459523Y-83609142D01*
X153459523Y-83609142D02*
X153411904Y-83704380D01*
X153411904Y-83704380D02*
X153364285Y-83752000D01*
X153364285Y-83752000D02*
X153269047Y-83799619D01*
X153269047Y-83799619D02*
X152888095Y-83799619D01*
X152888095Y-83799619D02*
X152888095Y-82799619D01*
X152888095Y-82799619D02*
X153221428Y-82799619D01*
X153221428Y-82799619D02*
X153316666Y-82847238D01*
X153316666Y-82847238D02*
X153364285Y-82894857D01*
X153364285Y-82894857D02*
X153411904Y-82990095D01*
X153411904Y-82990095D02*
X153411904Y-83085333D01*
X153411904Y-83085333D02*
X153364285Y-83180571D01*
X153364285Y-83180571D02*
X153316666Y-83228190D01*
X153316666Y-83228190D02*
X153221428Y-83275809D01*
X153221428Y-83275809D02*
X152888095Y-83275809D01*
X156160380Y-85193044D02*
X156160380Y-85383520D01*
X156160380Y-85383520D02*
X156112761Y-85478758D01*
X156112761Y-85478758D02*
X156017523Y-85573996D01*
X156017523Y-85573996D02*
X155827047Y-85621615D01*
X155827047Y-85621615D02*
X155493714Y-85621615D01*
X155493714Y-85621615D02*
X155303238Y-85573996D01*
X155303238Y-85573996D02*
X155208000Y-85478758D01*
X155208000Y-85478758D02*
X155160380Y-85383520D01*
X155160380Y-85383520D02*
X155160380Y-85193044D01*
X155160380Y-85193044D02*
X155208000Y-85097806D01*
X155208000Y-85097806D02*
X155303238Y-85002568D01*
X155303238Y-85002568D02*
X155493714Y-84954949D01*
X155493714Y-84954949D02*
X155827047Y-84954949D01*
X155827047Y-84954949D02*
X156017523Y-85002568D01*
X156017523Y-85002568D02*
X156112761Y-85097806D01*
X156112761Y-85097806D02*
X156160380Y-85193044D01*
X155160380Y-86621615D02*
X155636571Y-86288282D01*
X155160380Y-86050187D02*
X156160380Y-86050187D01*
X156160380Y-86050187D02*
X156160380Y-86431139D01*
X156160380Y-86431139D02*
X156112761Y-86526377D01*
X156112761Y-86526377D02*
X156065142Y-86573996D01*
X156065142Y-86573996D02*
X155969904Y-86621615D01*
X155969904Y-86621615D02*
X155827047Y-86621615D01*
X155827047Y-86621615D02*
X155731809Y-86573996D01*
X155731809Y-86573996D02*
X155684190Y-86526377D01*
X155684190Y-86526377D02*
X155636571Y-86431139D01*
X155636571Y-86431139D02*
X155636571Y-86050187D01*
X156112761Y-87573996D02*
X156160380Y-87478758D01*
X156160380Y-87478758D02*
X156160380Y-87335901D01*
X156160380Y-87335901D02*
X156112761Y-87193044D01*
X156112761Y-87193044D02*
X156017523Y-87097806D01*
X156017523Y-87097806D02*
X155922285Y-87050187D01*
X155922285Y-87050187D02*
X155731809Y-87002568D01*
X155731809Y-87002568D02*
X155588952Y-87002568D01*
X155588952Y-87002568D02*
X155398476Y-87050187D01*
X155398476Y-87050187D02*
X155303238Y-87097806D01*
X155303238Y-87097806D02*
X155208000Y-87193044D01*
X155208000Y-87193044D02*
X155160380Y-87335901D01*
X155160380Y-87335901D02*
X155160380Y-87431139D01*
X155160380Y-87431139D02*
X155208000Y-87573996D01*
X155208000Y-87573996D02*
X155255619Y-87621615D01*
X155255619Y-87621615D02*
X155588952Y-87621615D01*
X155588952Y-87621615D02*
X155588952Y-87431139D01*
D14*
X124607144Y-114301000D02*
X124678572Y-114324809D01*
X124678572Y-114324809D02*
X124797620Y-114324809D01*
X124797620Y-114324809D02*
X124845239Y-114301000D01*
X124845239Y-114301000D02*
X124869048Y-114277190D01*
X124869048Y-114277190D02*
X124892858Y-114229571D01*
X124892858Y-114229571D02*
X124892858Y-114181952D01*
X124892858Y-114181952D02*
X124869048Y-114134333D01*
X124869048Y-114134333D02*
X124845239Y-114110523D01*
X124845239Y-114110523D02*
X124797620Y-114086714D01*
X124797620Y-114086714D02*
X124702382Y-114062904D01*
X124702382Y-114062904D02*
X124654763Y-114039095D01*
X124654763Y-114039095D02*
X124630953Y-114015285D01*
X124630953Y-114015285D02*
X124607144Y-113967666D01*
X124607144Y-113967666D02*
X124607144Y-113920047D01*
X124607144Y-113920047D02*
X124630953Y-113872428D01*
X124630953Y-113872428D02*
X124654763Y-113848619D01*
X124654763Y-113848619D02*
X124702382Y-113824809D01*
X124702382Y-113824809D02*
X124821429Y-113824809D01*
X124821429Y-113824809D02*
X124892858Y-113848619D01*
X125059524Y-113824809D02*
X125178572Y-114324809D01*
X125178572Y-114324809D02*
X125273810Y-113967666D01*
X125273810Y-113967666D02*
X125369048Y-114324809D01*
X125369048Y-114324809D02*
X125488096Y-113824809D01*
X125892858Y-113991476D02*
X125892858Y-114324809D01*
X125773810Y-113801000D02*
X125654763Y-114158142D01*
X125654763Y-114158142D02*
X125964286Y-114158142D01*
X126250000Y-113824809D02*
X126297619Y-113824809D01*
X126297619Y-113824809D02*
X126345238Y-113848619D01*
X126345238Y-113848619D02*
X126369048Y-113872428D01*
X126369048Y-113872428D02*
X126392857Y-113920047D01*
X126392857Y-113920047D02*
X126416667Y-114015285D01*
X126416667Y-114015285D02*
X126416667Y-114134333D01*
X126416667Y-114134333D02*
X126392857Y-114229571D01*
X126392857Y-114229571D02*
X126369048Y-114277190D01*
X126369048Y-114277190D02*
X126345238Y-114301000D01*
X126345238Y-114301000D02*
X126297619Y-114324809D01*
X126297619Y-114324809D02*
X126250000Y-114324809D01*
X126250000Y-114324809D02*
X126202381Y-114301000D01*
X126202381Y-114301000D02*
X126178572Y-114277190D01*
X126178572Y-114277190D02*
X126154762Y-114229571D01*
X126154762Y-114229571D02*
X126130953Y-114134333D01*
X126130953Y-114134333D02*
X126130953Y-114015285D01*
X126130953Y-114015285D02*
X126154762Y-113920047D01*
X126154762Y-113920047D02*
X126178572Y-113872428D01*
X126178572Y-113872428D02*
X126202381Y-113848619D01*
X126202381Y-113848619D02*
X126250000Y-113824809D01*
X126892857Y-114324809D02*
X126607143Y-114324809D01*
X126750000Y-114324809D02*
X126750000Y-113824809D01*
X126750000Y-113824809D02*
X126702381Y-113896238D01*
X126702381Y-113896238D02*
X126654762Y-113943857D01*
X126654762Y-113943857D02*
X126607143Y-113967666D01*
G36*
X190265716Y-115954135D02*
G01*
X190362086Y-115970349D01*
X190456251Y-115997695D01*
X190547188Y-116036051D01*
X190633877Y-116085294D01*
X190715294Y-116145301D01*
X190730093Y-116157918D01*
X190799943Y-116227092D01*
X190861264Y-116305087D01*
X190913657Y-116391221D01*
X190956723Y-116484815D01*
X190990061Y-116585190D01*
X190997088Y-116612319D01*
X191002884Y-116644637D01*
X191007198Y-116686121D01*
X191009963Y-116733515D01*
X191011111Y-116783560D01*
X191010576Y-116833001D01*
X191008291Y-116878581D01*
X191004188Y-116917043D01*
X191003451Y-116921755D01*
X190983666Y-117009684D01*
X190953836Y-117096798D01*
X190915158Y-117180591D01*
X190868827Y-117258556D01*
X190816042Y-117328188D01*
X190801661Y-117344343D01*
X190767892Y-117379963D01*
X190736766Y-117410146D01*
X190705518Y-117437142D01*
X190671379Y-117463200D01*
X190631582Y-117490571D01*
X190585020Y-117520463D01*
X190509718Y-117570672D01*
X190443286Y-117621529D01*
X190382262Y-117675749D01*
X190362976Y-117694588D01*
X190285456Y-117780684D01*
X190218019Y-117873786D01*
X190161007Y-117973063D01*
X190114760Y-118077685D01*
X190079618Y-118186822D01*
X190055922Y-118299644D01*
X190044012Y-118415319D01*
X190042588Y-118475556D01*
X190048488Y-118593789D01*
X190065582Y-118706898D01*
X190094100Y-118815771D01*
X190134270Y-118921295D01*
X190183481Y-119019329D01*
X190195804Y-119041766D01*
X190205105Y-119059714D01*
X190210135Y-119070707D01*
X190210610Y-119072916D01*
X190204783Y-119070765D01*
X190190549Y-119063439D01*
X190170235Y-119052177D01*
X190152651Y-119042036D01*
X190022282Y-118958516D01*
X189899298Y-118865053D01*
X189784147Y-118762109D01*
X189677280Y-118650145D01*
X189579147Y-118529621D01*
X189490197Y-118401000D01*
X189431556Y-118302678D01*
X189367960Y-118177197D01*
X189312635Y-118043643D01*
X189266189Y-117903824D01*
X189229230Y-117759549D01*
X189204735Y-117628390D01*
X189199287Y-117584431D01*
X189194782Y-117531009D01*
X189191301Y-117471136D01*
X189188921Y-117407823D01*
X189187720Y-117344081D01*
X189187777Y-117282920D01*
X189189171Y-117227351D01*
X189191980Y-117180386D01*
X189192829Y-117171164D01*
X189214504Y-117013558D01*
X189247568Y-116860114D01*
X189291852Y-116711410D01*
X189347184Y-116568023D01*
X189409817Y-116437276D01*
X189464922Y-116342922D01*
X189525030Y-116259629D01*
X189590764Y-116186745D01*
X189662748Y-116123619D01*
X189741607Y-116069601D01*
X189786553Y-116044363D01*
X189878621Y-116003068D01*
X189973593Y-115973521D01*
X190070448Y-115955598D01*
X190168163Y-115949177D01*
X190265716Y-115954135D01*
G37*
G36*
X193110687Y-117421893D02*
G01*
X193103878Y-117545706D01*
X193089529Y-117663870D01*
X193066971Y-117780189D01*
X193035537Y-117898467D01*
X193016284Y-117959525D01*
X192967964Y-118091903D01*
X192912874Y-118216108D01*
X192849637Y-118334713D01*
X192776882Y-118450286D01*
X192693232Y-118565399D01*
X192690486Y-118568942D01*
X192658557Y-118607826D01*
X192619395Y-118651992D01*
X192575358Y-118699048D01*
X192528804Y-118746603D01*
X192482091Y-118792265D01*
X192437578Y-118833642D01*
X192397622Y-118868343D01*
X192385851Y-118877911D01*
X192257060Y-118972635D01*
X192122923Y-119056059D01*
X191983486Y-119128162D01*
X191838797Y-119188923D01*
X191688906Y-119238322D01*
X191533858Y-119276337D01*
X191428390Y-119295232D01*
X191387042Y-119300447D01*
X191338558Y-119304691D01*
X191285413Y-119307915D01*
X191230080Y-119310070D01*
X191175032Y-119311107D01*
X191122744Y-119310977D01*
X191075690Y-119309632D01*
X191036341Y-119307023D01*
X191009341Y-119303512D01*
X190910129Y-119279186D01*
X190815433Y-119243750D01*
X190726152Y-119197870D01*
X190643182Y-119142214D01*
X190567423Y-119077448D01*
X190499772Y-119004239D01*
X190441128Y-118923254D01*
X190400266Y-118851266D01*
X190360463Y-118758314D01*
X190332502Y-118661479D01*
X190316472Y-118561145D01*
X190312294Y-118475277D01*
X190318344Y-118372362D01*
X190336321Y-118272855D01*
X190365970Y-118177359D01*
X190407033Y-118086479D01*
X190459254Y-118000818D01*
X190522377Y-117920980D01*
X190568123Y-117873464D01*
X190645408Y-117806680D01*
X190727207Y-117751255D01*
X190814346Y-117706777D01*
X190907652Y-117672836D01*
X191007953Y-117649018D01*
X191024895Y-117646088D01*
X191077538Y-117640246D01*
X191137501Y-117638241D01*
X191200440Y-117639898D01*
X191262009Y-117645047D01*
X191317864Y-117653515D01*
X191341117Y-117658645D01*
X191376511Y-117667918D01*
X191408341Y-117677448D01*
X191439067Y-117688225D01*
X191471150Y-117701241D01*
X191507051Y-117717485D01*
X191549230Y-117737949D01*
X191593859Y-117760421D01*
X191671850Y-117797947D01*
X191744235Y-117827970D01*
X191814367Y-117851707D01*
X191885601Y-117870373D01*
X191913635Y-117876386D01*
X191938827Y-117881203D01*
X191962018Y-117884817D01*
X191985667Y-117887390D01*
X192012232Y-117889085D01*
X192044172Y-117890062D01*
X192083946Y-117890484D01*
X192128366Y-117890523D01*
X192177360Y-117890298D01*
X192216237Y-117889693D01*
X192247380Y-117888546D01*
X192273174Y-117886695D01*
X192296002Y-117883977D01*
X192318249Y-117880230D01*
X192337792Y-117876263D01*
X192454394Y-117845787D01*
X192563291Y-117805672D01*
X192665196Y-117755523D01*
X192760823Y-117694947D01*
X192850885Y-117623549D01*
X192927151Y-117550361D01*
X192954077Y-117521361D01*
X192979042Y-117492303D01*
X193003577Y-117461134D01*
X193029214Y-117425801D01*
X193057485Y-117384249D01*
X193089923Y-117334426D01*
X193099942Y-117318742D01*
X193113875Y-117296862D01*
X193110687Y-117421893D01*
G37*
G36*
X191193168Y-115388539D02*
G01*
X191256845Y-115390656D01*
X191317770Y-115393893D01*
X191372934Y-115398170D01*
X191419324Y-115403409D01*
X191428390Y-115404735D01*
X191573503Y-115432377D01*
X191716126Y-115469925D01*
X191854324Y-115516730D01*
X191986159Y-115572138D01*
X192102678Y-115631556D01*
X192226339Y-115706277D01*
X192341048Y-115787585D01*
X192449499Y-115877523D01*
X192538038Y-115961542D01*
X192602106Y-116028073D01*
X192658364Y-116091499D01*
X192709644Y-116155277D01*
X192758781Y-116222862D01*
X192789603Y-116268484D01*
X192841494Y-116352240D01*
X192883270Y-116431341D01*
X192915507Y-116507623D01*
X192938776Y-116582919D01*
X192953652Y-116659063D01*
X192960710Y-116737890D01*
X192960748Y-116815494D01*
X192958759Y-116853270D01*
X192955737Y-116891085D01*
X192952057Y-116925073D01*
X192948093Y-116951365D01*
X192947130Y-116956153D01*
X192919306Y-117056175D01*
X192880448Y-117150683D01*
X192830862Y-117239099D01*
X192770850Y-117320846D01*
X192733861Y-117362385D01*
X192660962Y-117431460D01*
X192583940Y-117489366D01*
X192501367Y-117536939D01*
X192411815Y-117575015D01*
X192325334Y-117601528D01*
X192296586Y-117608627D01*
X192271591Y-117613781D01*
X192247099Y-117617364D01*
X192219863Y-117619751D01*
X192186632Y-117621318D01*
X192144159Y-117622437D01*
X192143995Y-117622441D01*
X192090680Y-117622987D01*
X192047612Y-117622056D01*
X192012611Y-117619556D01*
X191984580Y-117615592D01*
X191888555Y-117592174D01*
X191795530Y-117558043D01*
X191707423Y-117514122D01*
X191626157Y-117461332D01*
X191571759Y-117417286D01*
X191508442Y-117355773D01*
X191454796Y-117291828D01*
X191408057Y-117221865D01*
X191375452Y-117162454D01*
X191352480Y-117113937D01*
X191333553Y-117066138D01*
X191318200Y-117016949D01*
X191305951Y-116964261D01*
X191296333Y-116905966D01*
X191288876Y-116839955D01*
X191283109Y-116764120D01*
X191281889Y-116743601D01*
X191278578Y-116696070D01*
X191274219Y-116649549D01*
X191269195Y-116607524D01*
X191263889Y-116573480D01*
X191262317Y-116565432D01*
X191232625Y-116452664D01*
X191191813Y-116344729D01*
X191140507Y-116242331D01*
X191079333Y-116146177D01*
X191008918Y-116056972D01*
X190929887Y-115975420D01*
X190842866Y-115902226D01*
X190748482Y-115838097D01*
X190647360Y-115783738D01*
X190540126Y-115739852D01*
X190524846Y-115734646D01*
X190460999Y-115715068D01*
X190401792Y-115700821D01*
X190342649Y-115691101D01*
X190278997Y-115685104D01*
X190229461Y-115682695D01*
X190194864Y-115681295D01*
X190165090Y-115679678D01*
X190142182Y-115677989D01*
X190128184Y-115676372D01*
X190124761Y-115675286D01*
X190129962Y-115671129D01*
X190144292Y-115662193D01*
X190165854Y-115649599D01*
X190192752Y-115634468D01*
X190208328Y-115625909D01*
X190348534Y-115556400D01*
X190492728Y-115498627D01*
X190641214Y-115452497D01*
X190794292Y-115417918D01*
X190952265Y-115394798D01*
X190971164Y-115392829D01*
X191015737Y-115389686D01*
X191069603Y-115387975D01*
X191129750Y-115387619D01*
X191193168Y-115388539D01*
G37*
G36*
X192815162Y-114493047D02*
G01*
X192818935Y-114499757D01*
X192828700Y-114516839D01*
X192844195Y-114543840D01*
X192865158Y-114580306D01*
X192891328Y-114625783D01*
X192922442Y-114679817D01*
X192958240Y-114741954D01*
X192998459Y-114811740D01*
X193042837Y-114888721D01*
X193091113Y-114972443D01*
X193143024Y-115062452D01*
X193198310Y-115158295D01*
X193256709Y-115259516D01*
X193317958Y-115365663D01*
X193381796Y-115476281D01*
X193447961Y-115590916D01*
X193516191Y-115709115D01*
X193586226Y-115830423D01*
X193643332Y-115929327D01*
X194463641Y-117349978D01*
X193636161Y-118783154D01*
X192808681Y-120216330D01*
X191151471Y-120217905D01*
X189494262Y-120219479D01*
X189472677Y-120183521D01*
X189467685Y-120174998D01*
X189456713Y-120156113D01*
X189440031Y-120127331D01*
X189417908Y-120089120D01*
X189390615Y-120041945D01*
X189358420Y-119986275D01*
X189321594Y-119922575D01*
X189280406Y-119851312D01*
X189235125Y-119772952D01*
X189186022Y-119687963D01*
X189133365Y-119596811D01*
X189077424Y-119499962D01*
X189018470Y-119397882D01*
X188956771Y-119291040D01*
X188892597Y-119179901D01*
X188826217Y-119064931D01*
X188757902Y-118946599D01*
X188687921Y-118825369D01*
X188643713Y-118748780D01*
X187853222Y-117379254D01*
X188884254Y-117379254D01*
X188892385Y-117542221D01*
X188912204Y-117703971D01*
X188943579Y-117863867D01*
X188986377Y-118021273D01*
X189040468Y-118175552D01*
X189105719Y-118326066D01*
X189181997Y-118472180D01*
X189269172Y-118613256D01*
X189367112Y-118748658D01*
X189397807Y-118787138D01*
X189431293Y-118826283D01*
X189472106Y-118870930D01*
X189517864Y-118918704D01*
X189566184Y-118967229D01*
X189614685Y-119014130D01*
X189660982Y-119057031D01*
X189702695Y-119093558D01*
X189717038Y-119105427D01*
X189852744Y-119207573D01*
X189994077Y-119298670D01*
X190140544Y-119378570D01*
X190291655Y-119447127D01*
X190446916Y-119504194D01*
X190605835Y-119549626D01*
X190767921Y-119583275D01*
X190932681Y-119604995D01*
X191099624Y-119614639D01*
X191268256Y-119612061D01*
X191387559Y-119602853D01*
X191551594Y-119579795D01*
X191712589Y-119544844D01*
X191869951Y-119498371D01*
X192023086Y-119440745D01*
X192171401Y-119372335D01*
X192314303Y-119293510D01*
X192451199Y-119204640D01*
X192581496Y-119106094D01*
X192704601Y-118998241D01*
X192819920Y-118881451D01*
X192926861Y-118756093D01*
X193024830Y-118622537D01*
X193067916Y-118556547D01*
X193152377Y-118410502D01*
X193225270Y-118259713D01*
X193286598Y-118104177D01*
X193336360Y-117943891D01*
X193374558Y-117778854D01*
X193401192Y-117609061D01*
X193403702Y-117587559D01*
X193411146Y-117496902D01*
X193414375Y-117398094D01*
X193413514Y-117294709D01*
X193408689Y-117190320D01*
X193400027Y-117088502D01*
X193387653Y-116992828D01*
X193381421Y-116955570D01*
X193345646Y-116791313D01*
X193298522Y-116631694D01*
X193240457Y-116477179D01*
X193171856Y-116328233D01*
X193093127Y-116185321D01*
X193004674Y-116048908D01*
X192906906Y-115919461D01*
X192800228Y-115797444D01*
X192685047Y-115683323D01*
X192561769Y-115577564D01*
X192430800Y-115480631D01*
X192292547Y-115392990D01*
X192147417Y-115315106D01*
X191995815Y-115247446D01*
X191840795Y-115191324D01*
X191683919Y-115147340D01*
X191522937Y-115114967D01*
X191358624Y-115094304D01*
X191191755Y-115085451D01*
X191036065Y-115087851D01*
X190870669Y-115101904D01*
X190708438Y-115127780D01*
X190549863Y-115165090D01*
X190395435Y-115213442D01*
X190245647Y-115272447D01*
X190100989Y-115341714D01*
X189961953Y-115420853D01*
X189829031Y-115509473D01*
X189702714Y-115607183D01*
X189583493Y-115713594D01*
X189471860Y-115828316D01*
X189368307Y-115950957D01*
X189273325Y-116081127D01*
X189187405Y-116218437D01*
X189111039Y-116362495D01*
X189044718Y-116512911D01*
X188988934Y-116669295D01*
X188971245Y-116727956D01*
X188931306Y-116889422D01*
X188903583Y-117052218D01*
X188887943Y-117215707D01*
X188884254Y-117379254D01*
X187853222Y-117379254D01*
X187836334Y-117349996D01*
X188663792Y-115916833D01*
X189491250Y-114483670D01*
X191149276Y-114480544D01*
X192807302Y-114477418D01*
X192815162Y-114493047D01*
G37*
G36*
X191354764Y-112352942D02*
G01*
X191594525Y-112368491D01*
X191833459Y-112395556D01*
X192071139Y-112434133D01*
X192307137Y-112484219D01*
X192541026Y-112545810D01*
X192772379Y-112618902D01*
X193000767Y-112703493D01*
X193225765Y-112799577D01*
X193446944Y-112907153D01*
X193663877Y-113026215D01*
X193802012Y-113109519D01*
X194009644Y-113246669D01*
X194209936Y-113393870D01*
X194402566Y-113550825D01*
X194587212Y-113717235D01*
X194763550Y-113892803D01*
X194931257Y-114077232D01*
X195090012Y-114270224D01*
X195160309Y-114362283D01*
X195303752Y-114564983D01*
X195436318Y-114773532D01*
X195557920Y-114987485D01*
X195668468Y-115206402D01*
X195767876Y-115429839D01*
X195856055Y-115657356D01*
X195932917Y-115888509D01*
X195998375Y-116122857D01*
X196052341Y-116359957D01*
X196094726Y-116599368D01*
X196125443Y-116840647D01*
X196144404Y-117083352D01*
X196151521Y-117327041D01*
X196146706Y-117571273D01*
X196129871Y-117815604D01*
X196100928Y-118059593D01*
X196059789Y-118302797D01*
X196006367Y-118544775D01*
X195998359Y-118576736D01*
X195930671Y-118818663D01*
X195852003Y-119054776D01*
X195762278Y-119285217D01*
X195661421Y-119510129D01*
X195549357Y-119729654D01*
X195426010Y-119943935D01*
X195291304Y-120153115D01*
X195145163Y-120357337D01*
X194987513Y-120556742D01*
X194885888Y-120675818D01*
X194829301Y-120738297D01*
X194764748Y-120806133D01*
X194694345Y-120877292D01*
X194620209Y-120949739D01*
X194544458Y-121021441D01*
X194469209Y-121090363D01*
X194396578Y-121154469D01*
X194328683Y-121211726D01*
X194325782Y-121214102D01*
X194126768Y-121368882D01*
X193921615Y-121512860D01*
X193710650Y-121645908D01*
X193494197Y-121767900D01*
X193272581Y-121878712D01*
X193046127Y-121978215D01*
X192815161Y-122066285D01*
X192580009Y-122142795D01*
X192340994Y-122207619D01*
X192098443Y-122260632D01*
X191852681Y-122301706D01*
X191604033Y-122330715D01*
X191409439Y-122344826D01*
X191352604Y-122347201D01*
X191286442Y-122348868D01*
X191214105Y-122349831D01*
X191138749Y-122350093D01*
X191063529Y-122349654D01*
X190991599Y-122348518D01*
X190926113Y-122346687D01*
X190874932Y-122344427D01*
X190627953Y-122324662D01*
X190382613Y-122292604D01*
X190139367Y-122248406D01*
X189898671Y-122192220D01*
X189660980Y-122124199D01*
X189426749Y-122044497D01*
X189196434Y-121953268D01*
X188970490Y-121850663D01*
X188749372Y-121736836D01*
X188533537Y-121611941D01*
X188353392Y-121496402D01*
X188170929Y-121367230D01*
X187991523Y-121227087D01*
X187816762Y-121077421D01*
X187648236Y-120919678D01*
X187487535Y-120755305D01*
X187336247Y-120585747D01*
X187283523Y-120522656D01*
X187130649Y-120326609D01*
X186988329Y-120124107D01*
X186856688Y-119915587D01*
X186735849Y-119701486D01*
X186625933Y-119482239D01*
X186527063Y-119258283D01*
X186439364Y-119030055D01*
X186362956Y-118797990D01*
X186297964Y-118562526D01*
X186244509Y-118324098D01*
X186202716Y-118083143D01*
X186172705Y-117840098D01*
X186154601Y-117595398D01*
X186148540Y-117350000D01*
X186754564Y-117350000D01*
X186760532Y-117457188D01*
X186778311Y-117560477D01*
X186807709Y-117659431D01*
X186848536Y-117753614D01*
X186900601Y-117842588D01*
X186963715Y-117925918D01*
X187037686Y-118003168D01*
X187041076Y-118006318D01*
X187096196Y-118053596D01*
X187153304Y-118094794D01*
X187214300Y-118130865D01*
X187281084Y-118162767D01*
X187355554Y-118191453D01*
X187439610Y-118217880D01*
X187487965Y-118231105D01*
X187612438Y-118270072D01*
X187733077Y-118320471D01*
X187849073Y-118381603D01*
X187959618Y-118452769D01*
X188063903Y-118533269D01*
X188161120Y-118622404D01*
X188250460Y-118719474D01*
X188331115Y-118823781D01*
X188402277Y-118934625D01*
X188463135Y-119051307D01*
X188480041Y-119089155D01*
X188528262Y-119215205D01*
X188564473Y-119341186D01*
X188588969Y-119468657D01*
X188602043Y-119599178D01*
X188603990Y-119734306D01*
X188603706Y-119744339D01*
X188598784Y-119835170D01*
X188589550Y-119918677D01*
X188575345Y-119999495D01*
X188555598Y-120081922D01*
X188541718Y-120134340D01*
X188530913Y-120177249D01*
X188522799Y-120213154D01*
X188516992Y-120244560D01*
X188513108Y-120273973D01*
X188510763Y-120303899D01*
X188509573Y-120336843D01*
X188509154Y-120375312D01*
X188509126Y-120385122D01*
X188509473Y-120435181D01*
X188510842Y-120475400D01*
X188513404Y-120508412D01*
X188517333Y-120536851D01*
X188519990Y-120550788D01*
X188545112Y-120646354D01*
X188579702Y-120739480D01*
X188622488Y-120827127D01*
X188663316Y-120893536D01*
X188694276Y-120934247D01*
X188733225Y-120978382D01*
X188777301Y-121023157D01*
X188823639Y-121065787D01*
X188869377Y-121103490D01*
X188907062Y-121130516D01*
X188999048Y-121183387D01*
X189096192Y-121225061D01*
X189197426Y-121255118D01*
X189252658Y-121266243D01*
X189291843Y-121271016D01*
X189339354Y-121273948D01*
X189391148Y-121275034D01*
X189443185Y-121274264D01*
X189491420Y-121271633D01*
X189531814Y-121267132D01*
X189534164Y-121266760D01*
X189623023Y-121248453D01*
X189705687Y-121222946D01*
X189783850Y-121189343D01*
X189859206Y-121146748D01*
X189933448Y-121094264D01*
X190008271Y-121030994D01*
X190045088Y-120996338D01*
X190119522Y-120926411D01*
X190189538Y-120865701D01*
X190257153Y-120812705D01*
X190324383Y-120765919D01*
X190393245Y-120723841D01*
X190456725Y-120689548D01*
X190581160Y-120632785D01*
X190708630Y-120587819D01*
X190838372Y-120554573D01*
X190969621Y-120532973D01*
X191101612Y-120522943D01*
X191233583Y-120524407D01*
X191364769Y-120537290D01*
X191494406Y-120561516D01*
X191621729Y-120597010D01*
X191745976Y-120643696D01*
X191866381Y-120701499D01*
X191982181Y-120770343D01*
X192092611Y-120850152D01*
X192094183Y-120851401D01*
X192117508Y-120870784D01*
X192147196Y-120896711D01*
X192180735Y-120926918D01*
X192215614Y-120959140D01*
X192249323Y-120991113D01*
X192252396Y-120994077D01*
X192298419Y-121037535D01*
X192338396Y-121072977D01*
X192374252Y-121102019D01*
X192407912Y-121126277D01*
X192416856Y-121132206D01*
X192508442Y-121184803D01*
X192603236Y-121225365D01*
X192701596Y-121253997D01*
X192803878Y-121270804D01*
X192903557Y-121275916D01*
X193009932Y-121270072D01*
X193112050Y-121252490D01*
X193210155Y-121223098D01*
X193304492Y-121181824D01*
X193392938Y-121130161D01*
X193477165Y-121067211D01*
X193552477Y-120995647D01*
X193618578Y-120915913D01*
X193675171Y-120828452D01*
X193721962Y-120733706D01*
X193758654Y-120632120D01*
X193779566Y-120550788D01*
X193784283Y-120525086D01*
X193787568Y-120497226D01*
X193789607Y-120464483D01*
X193790581Y-120424133D01*
X193790720Y-120385122D01*
X193790404Y-120345208D01*
X193789421Y-120311373D01*
X193787387Y-120281121D01*
X193783920Y-120251957D01*
X193778637Y-120221384D01*
X193771157Y-120186906D01*
X193761096Y-120146029D01*
X193748073Y-120096255D01*
X193744283Y-120082027D01*
X193729895Y-120025483D01*
X193718695Y-119974472D01*
X193710322Y-119925994D01*
X193704412Y-119877051D01*
X193700603Y-119824643D01*
X193698534Y-119765772D01*
X193697842Y-119697453D01*
X193698132Y-119634651D01*
X193699426Y-119581432D01*
X193702013Y-119534896D01*
X193706182Y-119492145D01*
X193712224Y-119450277D01*
X193720426Y-119406393D01*
X193731080Y-119357594D01*
X193732307Y-119352267D01*
X193768702Y-119222197D01*
X193816504Y-119096451D01*
X193875144Y-118975754D01*
X193944055Y-118860835D01*
X194022669Y-118752421D01*
X194110416Y-118651239D01*
X194206729Y-118558018D01*
X194311040Y-118473484D01*
X194422781Y-118398365D01*
X194519579Y-118344290D01*
X194584070Y-118312839D01*
X194645575Y-118286192D01*
X194708066Y-118262853D01*
X194775516Y-118241325D01*
X194842840Y-118222503D01*
X194924112Y-118198785D01*
X194995661Y-118172990D01*
X195060240Y-118143855D01*
X195120603Y-118110116D01*
X195179503Y-118070510D01*
X195188494Y-118063903D01*
X195268695Y-117996666D01*
X195339866Y-117921107D01*
X195401504Y-117838040D01*
X195453113Y-117748283D01*
X195494190Y-117652652D01*
X195524238Y-117551963D01*
X195535505Y-117496911D01*
X195540854Y-117454315D01*
X195544044Y-117403541D01*
X195545074Y-117348725D01*
X195543945Y-117294004D01*
X195540656Y-117243515D01*
X195535505Y-117203089D01*
X195511445Y-117099465D01*
X195476396Y-117001222D01*
X195430936Y-116908997D01*
X195375643Y-116823427D01*
X195311097Y-116745149D01*
X195237876Y-116674800D01*
X195156558Y-116613017D01*
X195067723Y-116560437D01*
X194971948Y-116517697D01*
X194887991Y-116490260D01*
X194819828Y-116471063D01*
X194761620Y-116453717D01*
X194711102Y-116437407D01*
X194666015Y-116421317D01*
X194624096Y-116404630D01*
X194583083Y-116386532D01*
X194540714Y-116366207D01*
X194532082Y-116361905D01*
X194412325Y-116295015D01*
X194299949Y-116218269D01*
X194195456Y-116132251D01*
X194099344Y-116037543D01*
X194012115Y-115934728D01*
X193934266Y-115824388D01*
X193866299Y-115707107D01*
X193808712Y-115583468D01*
X193766946Y-115469638D01*
X193745709Y-115400201D01*
X193729010Y-115336437D01*
X193716397Y-115275302D01*
X193707419Y-115213753D01*
X193701627Y-115148747D01*
X193698569Y-115077240D01*
X193697783Y-115002547D01*
X193698417Y-114934603D01*
X193700420Y-114876111D01*
X193704158Y-114824059D01*
X193709994Y-114775437D01*
X193718292Y-114727233D01*
X193729417Y-114676438D01*
X193743732Y-114620039D01*
X193744283Y-114617973D01*
X193758112Y-114565567D01*
X193768882Y-114522684D01*
X193776976Y-114486831D01*
X193782776Y-114455510D01*
X193786664Y-114426226D01*
X193789023Y-114396483D01*
X193790235Y-114363785D01*
X193790682Y-114325637D01*
X193790720Y-114314878D01*
X193790455Y-114266600D01*
X193789272Y-114228079D01*
X193786986Y-114196591D01*
X193783414Y-114169412D01*
X193779566Y-114149213D01*
X193752353Y-114047519D01*
X193715811Y-113950815D01*
X193670766Y-113861077D01*
X193635929Y-113805378D01*
X193607482Y-113767949D01*
X193571206Y-113726603D01*
X193529873Y-113684050D01*
X193486258Y-113642999D01*
X193443135Y-113606159D01*
X193403276Y-113576240D01*
X193397047Y-113572052D01*
X193306101Y-113519379D01*
X193210734Y-113477986D01*
X193111978Y-113448024D01*
X193010861Y-113429642D01*
X192908414Y-113422990D01*
X192805667Y-113428219D01*
X192703649Y-113445477D01*
X192641698Y-113462136D01*
X192573243Y-113485826D01*
X192510144Y-113513488D01*
X192450244Y-113546469D01*
X192391387Y-113586117D01*
X192331416Y-113633783D01*
X192268175Y-113690814D01*
X192253294Y-113705056D01*
X192181275Y-113772609D01*
X192114061Y-113831171D01*
X192049645Y-113882234D01*
X191986021Y-113927294D01*
X191921184Y-113967843D01*
X191853128Y-114005377D01*
X191843275Y-114010452D01*
X191718737Y-114067259D01*
X191591184Y-114112242D01*
X191461373Y-114145479D01*
X191330064Y-114167049D01*
X191198016Y-114177030D01*
X191065988Y-114175500D01*
X190934739Y-114162538D01*
X190805026Y-114138222D01*
X190677610Y-114102631D01*
X190553249Y-114055842D01*
X190432702Y-113997934D01*
X190316727Y-113928986D01*
X190206085Y-113849075D01*
X190195165Y-113840340D01*
X190174504Y-113822899D01*
X190147295Y-113798816D01*
X190115888Y-113770230D01*
X190082633Y-113739283D01*
X190049878Y-113708116D01*
X190046706Y-113705056D01*
X189982433Y-113645735D01*
X189921916Y-113596082D01*
X189862996Y-113554749D01*
X189803518Y-113520387D01*
X189741325Y-113491648D01*
X189674262Y-113467183D01*
X189658302Y-113462136D01*
X189560075Y-113438229D01*
X189458620Y-113425675D01*
X189355948Y-113424474D01*
X189254068Y-113434627D01*
X189154990Y-113456133D01*
X189134586Y-113462136D01*
X189041050Y-113496333D01*
X188955145Y-113539246D01*
X188875101Y-113591954D01*
X188799152Y-113655533D01*
X188768074Y-113685712D01*
X188720720Y-113735876D01*
X188681589Y-113782884D01*
X188648232Y-113830090D01*
X188618198Y-113880850D01*
X188600029Y-113915866D01*
X188567602Y-113987819D01*
X188542482Y-114059612D01*
X188522944Y-114135374D01*
X188517762Y-114161226D01*
X188514050Y-114186432D01*
X188511584Y-114213912D01*
X188510139Y-114246585D01*
X188509491Y-114287372D01*
X188509396Y-114311753D01*
X188509543Y-114352247D01*
X188510345Y-114386376D01*
X188512178Y-114416631D01*
X188515419Y-114445504D01*
X188520443Y-114475488D01*
X188527627Y-114509075D01*
X188537345Y-114548756D01*
X188549974Y-114597025D01*
X188555598Y-114618078D01*
X188575412Y-114700825D01*
X188589596Y-114781644D01*
X188598811Y-114865171D01*
X188603706Y-114955661D01*
X188602555Y-115091184D01*
X188590299Y-115221987D01*
X188566643Y-115349627D01*
X188531292Y-115475664D01*
X188483953Y-115601657D01*
X188480041Y-115610846D01*
X188422864Y-115728678D01*
X188355142Y-115841041D01*
X188277707Y-115947208D01*
X188191386Y-116046449D01*
X188097008Y-116138038D01*
X187995404Y-116221246D01*
X187887401Y-116295345D01*
X187773830Y-116359608D01*
X187655519Y-116413305D01*
X187533297Y-116455710D01*
X187510299Y-116462266D01*
X187427237Y-116486186D01*
X187354875Y-116509528D01*
X187291498Y-116533187D01*
X187235391Y-116558062D01*
X187184838Y-116585048D01*
X187138124Y-116615041D01*
X187093533Y-116648939D01*
X187049351Y-116687637D01*
X187014343Y-116721456D01*
X186942821Y-116801245D01*
X186882726Y-116886101D01*
X186834098Y-116975925D01*
X186796979Y-117070617D01*
X186771409Y-117170080D01*
X186757431Y-117274214D01*
X186754564Y-117350000D01*
X186148540Y-117350000D01*
X186148527Y-117349480D01*
X186154603Y-117102781D01*
X186172954Y-116855737D01*
X186196408Y-116659205D01*
X186236944Y-116413603D01*
X186289547Y-116170873D01*
X186354020Y-115931463D01*
X186430168Y-115695821D01*
X186517794Y-115464396D01*
X186616701Y-115237636D01*
X186726693Y-115015988D01*
X186847575Y-114799901D01*
X186979149Y-114589824D01*
X187121219Y-114386203D01*
X187273590Y-114189488D01*
X187283523Y-114177344D01*
X187420285Y-114018238D01*
X187567562Y-113861134D01*
X187723368Y-113708029D01*
X187885714Y-113560920D01*
X187961716Y-113496086D01*
X188030373Y-113440391D01*
X188107604Y-113380796D01*
X188190856Y-113319109D01*
X188277579Y-113257140D01*
X188365222Y-113196695D01*
X188451233Y-113139583D01*
X188533062Y-113087613D01*
X188568689Y-113065876D01*
X188785039Y-112942958D01*
X189005690Y-112831599D01*
X189230216Y-112731795D01*
X189458188Y-112643542D01*
X189689180Y-112566837D01*
X189922764Y-112501676D01*
X190158512Y-112448056D01*
X190395997Y-112405973D01*
X190634793Y-112375424D01*
X190874470Y-112356405D01*
X191114603Y-112348912D01*
X191354764Y-112352942D01*
G37*
D16*
X170610000Y-99100000D02*
X170610000Y-99150000D01*
X170610000Y-99100000D02*
X171170000Y-99100000D01*
X170610000Y-103600000D02*
X170610000Y-103550000D01*
X170610000Y-103600000D02*
X171170000Y-103600000D01*
X174110000Y-99100000D02*
X173550000Y-99100000D01*
X174110000Y-99100000D02*
X174110000Y-99150000D01*
X174110000Y-103600000D02*
X173550000Y-103600000D01*
X174110000Y-103600000D02*
X174110000Y-103550000D01*
D11*
X169960000Y-99350000D02*
G75*
G03*
X169760000Y-99350000I-100000J0D01*
G01*
X169760000Y-99350000D02*
G75*
G03*
X169960000Y-99350000I100000J0D01*
G01*
D17*
X185650000Y-131100000D02*
X185650000Y-122100000D01*
X185650000Y-122100000D02*
X181650000Y-122100000D01*
X181650000Y-122100000D02*
X181650000Y-118350000D01*
X181650000Y-118350000D02*
X174650000Y-118350000D01*
D18*
X179150000Y-126350000D02*
X177150000Y-126350000D01*
X178150000Y-127350000D02*
X178150000Y-125350000D01*
D17*
X174650000Y-122100000D02*
X170650000Y-122100000D01*
X174650000Y-118350000D02*
X174650000Y-122100000D01*
X170650000Y-131100000D02*
X185650000Y-131100000D01*
X170650000Y-122100000D02*
X170650000Y-131100000D01*
D19*
X173925000Y-121100000D02*
G75*
G03*
X173375000Y-121100000I-275000J0D01*
G01*
X173375000Y-121100000D02*
G75*
G03*
X173925000Y-121100000I275000J0D01*
G01*
D18*
X142150000Y-101350000D02*
X144150000Y-101350000D01*
X143150000Y-100350000D02*
X143150000Y-102350000D01*
D20*
X174792164Y-97850000D02*
X175007836Y-97850000D01*
X174792164Y-98350000D02*
X175007836Y-98350000D01*
D17*
X130650000Y-71600000D02*
X130650000Y-80600000D01*
X130650000Y-80600000D02*
X134650000Y-80600000D01*
X134650000Y-80600000D02*
X134650000Y-84350000D01*
X134650000Y-84350000D02*
X141650000Y-84350000D01*
D18*
X137150000Y-76350000D02*
X139150000Y-76350000D01*
X138150000Y-75350000D02*
X138150000Y-77350000D01*
D17*
X141650000Y-80600000D02*
X145650000Y-80600000D01*
X141650000Y-84350000D02*
X141650000Y-80600000D01*
X145650000Y-71600000D02*
X130650000Y-71600000D01*
X145650000Y-80600000D02*
X145650000Y-71600000D01*
D19*
X142925000Y-81600000D02*
G75*
G03*
X142375000Y-81600000I-275000J0D01*
G01*
X142375000Y-81600000D02*
G75*
G03*
X142925000Y-81600000I275000J0D01*
G01*
D17*
X170650000Y-71600000D02*
X170650000Y-80600000D01*
X170650000Y-80600000D02*
X174650000Y-80600000D01*
X174650000Y-80600000D02*
X174650000Y-84350000D01*
X174650000Y-84350000D02*
X181650000Y-84350000D01*
D18*
X177150000Y-76350000D02*
X179150000Y-76350000D01*
X178150000Y-75350000D02*
X178150000Y-77350000D01*
D17*
X181650000Y-80600000D02*
X185650000Y-80600000D01*
X181650000Y-84350000D02*
X181650000Y-80600000D01*
X185650000Y-71600000D02*
X170650000Y-71600000D01*
X185650000Y-80600000D02*
X185650000Y-71600000D01*
D19*
X182925000Y-81600000D02*
G75*
G03*
X182375000Y-81600000I-275000J0D01*
G01*
X182375000Y-81600000D02*
G75*
G03*
X182925000Y-81600000I275000J0D01*
G01*
D17*
X145650000Y-131100000D02*
X145650000Y-122100000D01*
X145650000Y-122100000D02*
X141650000Y-122100000D01*
X141650000Y-122100000D02*
X141650000Y-118350000D01*
X141650000Y-118350000D02*
X134650000Y-118350000D01*
D18*
X139150000Y-126350000D02*
X137150000Y-126350000D01*
X138150000Y-127350000D02*
X138150000Y-125350000D01*
D17*
X134650000Y-122100000D02*
X130650000Y-122100000D01*
X134650000Y-118350000D02*
X134650000Y-122100000D01*
X130650000Y-131100000D02*
X145650000Y-131100000D01*
X130650000Y-122100000D02*
X130650000Y-131100000D01*
D19*
X133925000Y-121100000D02*
G75*
G03*
X133375000Y-121100000I-275000J0D01*
G01*
X133375000Y-121100000D02*
G75*
G03*
X133925000Y-121100000I275000J0D01*
G01*
D20*
X170257836Y-104850000D02*
X170042164Y-104850000D01*
X170257836Y-104350000D02*
X170042164Y-104350000D01*
D17*
X165650000Y-131100000D02*
X165650000Y-122100000D01*
X165650000Y-122100000D02*
X161650000Y-122100000D01*
X161650000Y-122100000D02*
X161650000Y-118350000D01*
X161650000Y-118350000D02*
X154650000Y-118350000D01*
D18*
X159150000Y-126350000D02*
X157150000Y-126350000D01*
X158150000Y-127350000D02*
X158150000Y-125350000D01*
D17*
X154650000Y-122100000D02*
X150650000Y-122100000D01*
X154650000Y-118350000D02*
X154650000Y-122100000D01*
X150650000Y-131100000D02*
X165650000Y-131100000D01*
X150650000Y-122100000D02*
X150650000Y-131100000D01*
D19*
X153925000Y-121100000D02*
G75*
G03*
X153375000Y-121100000I-275000J0D01*
G01*
X153375000Y-121100000D02*
G75*
G03*
X153925000Y-121100000I275000J0D01*
G01*
D17*
X197900000Y-93850000D02*
X188900000Y-93850000D01*
X188900000Y-93850000D02*
X188900000Y-97850000D01*
X188900000Y-97850000D02*
X185150000Y-97850000D01*
X185150000Y-97850000D02*
X185150000Y-104850000D01*
D18*
X193150000Y-100350000D02*
X193150000Y-102350000D01*
X194150000Y-101350000D02*
X192150000Y-101350000D01*
D17*
X188900000Y-104850000D02*
X188900000Y-108850000D01*
X185150000Y-104850000D02*
X188900000Y-104850000D01*
X197900000Y-108850000D02*
X197900000Y-93850000D01*
X188900000Y-108850000D02*
X197900000Y-108850000D01*
D19*
X188175000Y-105850000D02*
G75*
G03*
X187625000Y-105850000I-275000J0D01*
G01*
X187625000Y-105850000D02*
G75*
G03*
X188175000Y-105850000I275000J0D01*
G01*
D17*
X150650000Y-71600000D02*
X150650000Y-80600000D01*
X150650000Y-80600000D02*
X154650000Y-80600000D01*
X154650000Y-80600000D02*
X154650000Y-84350000D01*
X154650000Y-84350000D02*
X161650000Y-84350000D01*
D18*
X157150000Y-76350000D02*
X159150000Y-76350000D01*
X158150000Y-75350000D02*
X158150000Y-77350000D01*
D17*
X161650000Y-80600000D02*
X165650000Y-80600000D01*
X161650000Y-84350000D02*
X161650000Y-80600000D01*
X165650000Y-71600000D02*
X150650000Y-71600000D01*
X165650000Y-80600000D02*
X165650000Y-71600000D01*
D19*
X162925000Y-81600000D02*
G75*
G03*
X162375000Y-81600000I-275000J0D01*
G01*
X162375000Y-81600000D02*
G75*
G03*
X162925000Y-81600000I275000J0D01*
G01*
D11*
X122600000Y-115080000D02*
X128900000Y-115080000D01*
X128900000Y-115080000D02*
X128900000Y-117620000D01*
X128900000Y-117620000D02*
X122600000Y-117620000D01*
X122600000Y-117620000D02*
X122600000Y-115080000D01*
%LPC*%
D21*
X171610000Y-99200000D03*
D22*
X170710000Y-99600000D03*
X170710000Y-100100000D03*
X170710000Y-100600000D03*
X170710000Y-101100000D03*
X170710000Y-101600000D03*
X170710000Y-102100000D03*
X170710000Y-102600000D03*
X170710000Y-103100000D03*
D21*
X171610000Y-103500000D03*
X173110000Y-103500000D03*
D22*
X174010000Y-103100000D03*
X174010000Y-102600000D03*
X174010000Y-102100000D03*
X174010000Y-101600000D03*
X174010000Y-101100000D03*
X174010000Y-100600000D03*
X174010000Y-100100000D03*
X174010000Y-99600000D03*
D21*
X173110000Y-99200000D03*
D23*
X172360000Y-101350000D03*
D24*
X184415000Y-128800000D03*
X184415000Y-123900000D03*
D25*
X183840000Y-126350000D03*
X172460000Y-126350000D03*
D24*
X171885000Y-128800000D03*
X171885000Y-123900000D03*
D26*
X175610000Y-120450000D03*
X178150000Y-120450000D03*
X180690000Y-120450000D03*
D27*
X124100000Y-111510000D03*
X126640000Y-111510000D03*
X129180000Y-111510000D03*
X131720000Y-111510000D03*
X134260000Y-111510000D03*
X136800000Y-111510000D03*
X139340000Y-111510000D03*
X141880000Y-111510000D03*
X144420000Y-111510000D03*
X146960000Y-111510000D03*
X149500000Y-111510000D03*
X152040000Y-111510000D03*
X154580000Y-111510000D03*
X157120000Y-111510000D03*
X159660000Y-111510000D03*
X162200000Y-111510000D03*
X162200000Y-91190000D03*
X159660000Y-91190000D03*
X157120000Y-91190000D03*
X154580000Y-91190000D03*
X152040000Y-91190000D03*
X149500000Y-91190000D03*
X146960000Y-91190000D03*
X144420000Y-91190000D03*
X141880000Y-91190000D03*
X139340000Y-91190000D03*
X136800000Y-91190000D03*
X134260000Y-91190000D03*
D28*
X123150000Y-76350000D03*
D29*
X120050000Y-81030000D03*
D28*
X193150000Y-76350000D03*
D30*
X174420000Y-98100000D03*
X175380000Y-98100000D03*
D31*
X131885000Y-73900000D03*
X131885000Y-78800000D03*
D25*
X132460000Y-76350000D03*
X143840000Y-76350000D03*
D31*
X144415000Y-73900000D03*
X144415000Y-78800000D03*
D32*
X140690000Y-82250000D03*
X138150000Y-82250000D03*
X135610000Y-82250000D03*
D29*
X196250000Y-121670000D03*
D28*
X193150000Y-126350000D03*
X123150000Y-126350000D03*
D31*
X171885000Y-73900000D03*
X171885000Y-78800000D03*
D25*
X172460000Y-76350000D03*
X183840000Y-76350000D03*
D31*
X184415000Y-73900000D03*
X184415000Y-78800000D03*
D32*
X180690000Y-82250000D03*
X178150000Y-82250000D03*
X175610000Y-82250000D03*
D24*
X144415000Y-128800000D03*
X144415000Y-123900000D03*
D25*
X143840000Y-126350000D03*
X132460000Y-126350000D03*
D24*
X131885000Y-128800000D03*
X131885000Y-123900000D03*
D26*
X135610000Y-120450000D03*
X138150000Y-120450000D03*
X140690000Y-120450000D03*
D33*
X170630000Y-104600000D03*
X169670000Y-104600000D03*
D24*
X164415000Y-128800000D03*
X164415000Y-123900000D03*
D25*
X163840000Y-126350000D03*
X152460000Y-126350000D03*
D24*
X151885000Y-128800000D03*
X151885000Y-123900000D03*
D26*
X155610000Y-120450000D03*
X158150000Y-120450000D03*
X160690000Y-120450000D03*
D34*
X195600000Y-95085000D03*
X190700000Y-95085000D03*
D25*
X193150000Y-95660000D03*
X193150000Y-107040000D03*
D34*
X195600000Y-107615000D03*
X190700000Y-107615000D03*
D35*
X187250000Y-103890000D03*
X187250000Y-101350000D03*
X187250000Y-98810000D03*
D31*
X151885000Y-73900000D03*
X151885000Y-78800000D03*
D25*
X152460000Y-76350000D03*
X163840000Y-76350000D03*
D31*
X164415000Y-73900000D03*
X164415000Y-78800000D03*
D32*
X160690000Y-82250000D03*
X158150000Y-82250000D03*
X155610000Y-82250000D03*
D36*
X121350000Y-116350000D03*
X130150000Y-116350000D03*
%LPD*%
M02*
