%TF.GenerationSoftware,KiCad,Pcbnew,7.0.11*%
%TF.CreationDate,2025-02-19T11:42:59-05:00*%
%TF.ProjectId,thruster-pcb,74687275-7374-4657-922d-7063622e6b69,1.0*%
%TF.SameCoordinates,Original*%
%TF.FileFunction,Drillmap*%
%TF.FilePolarity,Positive*%
%FSLAX45Y45*%
G04 Gerber Fmt 4.5, Leading zero omitted, Abs format (unit mm)*
G04 Created by KiCad (PCBNEW 7.0.11) date 2025-02-19 11:42:59*
%MOMM*%
%LPD*%
G01*
G04 APERTURE LIST*
%ADD10C,0.400000*%
%ADD11C,0.200000*%
%ADD12C,0.160000*%
G04 APERTURE END LIST*
D10*
X11815000Y-12635000D02*
X11815000Y-7635000D01*
X19315000Y-13135000D02*
X12315000Y-13135000D01*
X19815000Y-7635000D02*
X19815000Y-12635000D01*
X12315000Y-7135000D02*
G75*
G03*
X11815000Y-7635000I0J-500000D01*
G01*
X19815000Y-7635000D02*
G75*
G03*
X19315000Y-7135000I-500000J0D01*
G01*
X19315000Y-13135000D02*
G75*
G03*
X19815000Y-12635000I0J500000D01*
G01*
X12315000Y-7135000D02*
X19315000Y-7135000D01*
X11815000Y-12635000D02*
G75*
G03*
X12315000Y-13135000I500000J0D01*
G01*
D11*
D12*
X13166000Y-7555000D02*
X13326000Y-7715000D01*
X13326000Y-7555000D02*
X13166000Y-7715000D01*
X13166000Y-12555000D02*
X13326000Y-12715000D01*
X13326000Y-12555000D02*
X13166000Y-12715000D01*
X14304000Y-7555000D02*
X14464000Y-7715000D01*
X14464000Y-7555000D02*
X14304000Y-7715000D01*
X14304000Y-12555000D02*
X14464000Y-12715000D01*
X14464000Y-12555000D02*
X14304000Y-12715000D01*
X15166000Y-7555000D02*
X15326000Y-7715000D01*
X15326000Y-7555000D02*
X15166000Y-7715000D01*
X15166000Y-12555000D02*
X15326000Y-12715000D01*
X15326000Y-12555000D02*
X15166000Y-12715000D01*
X16304000Y-7555000D02*
X16464000Y-7715000D01*
X16464000Y-7555000D02*
X16304000Y-7715000D01*
X16304000Y-12555000D02*
X16464000Y-12715000D01*
X16464000Y-12555000D02*
X16304000Y-12715000D01*
X17166000Y-7555000D02*
X17326000Y-7715000D01*
X17326000Y-7555000D02*
X17166000Y-7715000D01*
X17166000Y-12555000D02*
X17326000Y-12715000D01*
X17326000Y-12555000D02*
X17166000Y-12715000D01*
X18304000Y-7555000D02*
X18464000Y-7715000D01*
X18464000Y-7555000D02*
X18304000Y-7715000D01*
X18304000Y-12555000D02*
X18464000Y-12715000D01*
X18464000Y-12555000D02*
X18304000Y-12715000D01*
X19235000Y-9486000D02*
X19395000Y-9646000D01*
X19395000Y-9486000D02*
X19235000Y-9646000D01*
X19235000Y-10624000D02*
X19395000Y-10784000D01*
X19395000Y-10624000D02*
X19235000Y-10784000D01*
D11*
X12055777Y-13466484D02*
X12055777Y-13266484D01*
X12055777Y-13266484D02*
X12103396Y-13266484D01*
X12103396Y-13266484D02*
X12131967Y-13276008D01*
X12131967Y-13276008D02*
X12151015Y-13295055D01*
X12151015Y-13295055D02*
X12160539Y-13314103D01*
X12160539Y-13314103D02*
X12170062Y-13352198D01*
X12170062Y-13352198D02*
X12170062Y-13380769D01*
X12170062Y-13380769D02*
X12160539Y-13418865D01*
X12160539Y-13418865D02*
X12151015Y-13437912D01*
X12151015Y-13437912D02*
X12131967Y-13456960D01*
X12131967Y-13456960D02*
X12103396Y-13466484D01*
X12103396Y-13466484D02*
X12055777Y-13466484D01*
X12255777Y-13466484D02*
X12255777Y-13333150D01*
X12255777Y-13371246D02*
X12265301Y-13352198D01*
X12265301Y-13352198D02*
X12274824Y-13342674D01*
X12274824Y-13342674D02*
X12293872Y-13333150D01*
X12293872Y-13333150D02*
X12312920Y-13333150D01*
X12379586Y-13466484D02*
X12379586Y-13333150D01*
X12379586Y-13266484D02*
X12370062Y-13276008D01*
X12370062Y-13276008D02*
X12379586Y-13285531D01*
X12379586Y-13285531D02*
X12389110Y-13276008D01*
X12389110Y-13276008D02*
X12379586Y-13266484D01*
X12379586Y-13266484D02*
X12379586Y-13285531D01*
X12503396Y-13466484D02*
X12484348Y-13456960D01*
X12484348Y-13456960D02*
X12474824Y-13437912D01*
X12474824Y-13437912D02*
X12474824Y-13266484D01*
X12608158Y-13466484D02*
X12589110Y-13456960D01*
X12589110Y-13456960D02*
X12579586Y-13437912D01*
X12579586Y-13437912D02*
X12579586Y-13266484D01*
X12836729Y-13466484D02*
X12836729Y-13266484D01*
X12836729Y-13266484D02*
X12903396Y-13409341D01*
X12903396Y-13409341D02*
X12970062Y-13266484D01*
X12970062Y-13266484D02*
X12970062Y-13466484D01*
X13151015Y-13466484D02*
X13151015Y-13361722D01*
X13151015Y-13361722D02*
X13141491Y-13342674D01*
X13141491Y-13342674D02*
X13122443Y-13333150D01*
X13122443Y-13333150D02*
X13084348Y-13333150D01*
X13084348Y-13333150D02*
X13065301Y-13342674D01*
X13151015Y-13456960D02*
X13131967Y-13466484D01*
X13131967Y-13466484D02*
X13084348Y-13466484D01*
X13084348Y-13466484D02*
X13065301Y-13456960D01*
X13065301Y-13456960D02*
X13055777Y-13437912D01*
X13055777Y-13437912D02*
X13055777Y-13418865D01*
X13055777Y-13418865D02*
X13065301Y-13399817D01*
X13065301Y-13399817D02*
X13084348Y-13390293D01*
X13084348Y-13390293D02*
X13131967Y-13390293D01*
X13131967Y-13390293D02*
X13151015Y-13380769D01*
X13246253Y-13333150D02*
X13246253Y-13533150D01*
X13246253Y-13342674D02*
X13265301Y-13333150D01*
X13265301Y-13333150D02*
X13303396Y-13333150D01*
X13303396Y-13333150D02*
X13322443Y-13342674D01*
X13322443Y-13342674D02*
X13331967Y-13352198D01*
X13331967Y-13352198D02*
X13341491Y-13371246D01*
X13341491Y-13371246D02*
X13341491Y-13428388D01*
X13341491Y-13428388D02*
X13331967Y-13447436D01*
X13331967Y-13447436D02*
X13322443Y-13456960D01*
X13322443Y-13456960D02*
X13303396Y-13466484D01*
X13303396Y-13466484D02*
X13265301Y-13466484D01*
X13265301Y-13466484D02*
X13246253Y-13456960D01*
X13427205Y-13447436D02*
X13436729Y-13456960D01*
X13436729Y-13456960D02*
X13427205Y-13466484D01*
X13427205Y-13466484D02*
X13417682Y-13456960D01*
X13417682Y-13456960D02*
X13427205Y-13447436D01*
X13427205Y-13447436D02*
X13427205Y-13466484D01*
X13427205Y-13342674D02*
X13436729Y-13352198D01*
X13436729Y-13352198D02*
X13427205Y-13361722D01*
X13427205Y-13361722D02*
X13417682Y-13352198D01*
X13417682Y-13352198D02*
X13427205Y-13342674D01*
X13427205Y-13342674D02*
X13427205Y-13361722D01*
D12*
X11635000Y-13715000D02*
X11795000Y-13875000D01*
X11795000Y-13715000D02*
X11635000Y-13875000D01*
D11*
X12160539Y-13886484D02*
X12046253Y-13886484D01*
X12103396Y-13886484D02*
X12103396Y-13686484D01*
X12103396Y-13686484D02*
X12084348Y-13715055D01*
X12084348Y-13715055D02*
X12065301Y-13734103D01*
X12065301Y-13734103D02*
X12046253Y-13743627D01*
X12246253Y-13867436D02*
X12255777Y-13876960D01*
X12255777Y-13876960D02*
X12246253Y-13886484D01*
X12246253Y-13886484D02*
X12236729Y-13876960D01*
X12236729Y-13876960D02*
X12246253Y-13867436D01*
X12246253Y-13867436D02*
X12246253Y-13886484D01*
X12427205Y-13686484D02*
X12389110Y-13686484D01*
X12389110Y-13686484D02*
X12370062Y-13696008D01*
X12370062Y-13696008D02*
X12360539Y-13705531D01*
X12360539Y-13705531D02*
X12341491Y-13734103D01*
X12341491Y-13734103D02*
X12331967Y-13772198D01*
X12331967Y-13772198D02*
X12331967Y-13848388D01*
X12331967Y-13848388D02*
X12341491Y-13867436D01*
X12341491Y-13867436D02*
X12351015Y-13876960D01*
X12351015Y-13876960D02*
X12370062Y-13886484D01*
X12370062Y-13886484D02*
X12408158Y-13886484D01*
X12408158Y-13886484D02*
X12427205Y-13876960D01*
X12427205Y-13876960D02*
X12436729Y-13867436D01*
X12436729Y-13867436D02*
X12446253Y-13848388D01*
X12446253Y-13848388D02*
X12446253Y-13800769D01*
X12446253Y-13800769D02*
X12436729Y-13781722D01*
X12436729Y-13781722D02*
X12427205Y-13772198D01*
X12427205Y-13772198D02*
X12408158Y-13762674D01*
X12408158Y-13762674D02*
X12370062Y-13762674D01*
X12370062Y-13762674D02*
X12351015Y-13772198D01*
X12351015Y-13772198D02*
X12341491Y-13781722D01*
X12341491Y-13781722D02*
X12331967Y-13800769D01*
X12570062Y-13686484D02*
X12589110Y-13686484D01*
X12589110Y-13686484D02*
X12608158Y-13696008D01*
X12608158Y-13696008D02*
X12617682Y-13705531D01*
X12617682Y-13705531D02*
X12627205Y-13724579D01*
X12627205Y-13724579D02*
X12636729Y-13762674D01*
X12636729Y-13762674D02*
X12636729Y-13810293D01*
X12636729Y-13810293D02*
X12627205Y-13848388D01*
X12627205Y-13848388D02*
X12617682Y-13867436D01*
X12617682Y-13867436D02*
X12608158Y-13876960D01*
X12608158Y-13876960D02*
X12589110Y-13886484D01*
X12589110Y-13886484D02*
X12570062Y-13886484D01*
X12570062Y-13886484D02*
X12551015Y-13876960D01*
X12551015Y-13876960D02*
X12541491Y-13867436D01*
X12541491Y-13867436D02*
X12531967Y-13848388D01*
X12531967Y-13848388D02*
X12522443Y-13810293D01*
X12522443Y-13810293D02*
X12522443Y-13762674D01*
X12522443Y-13762674D02*
X12531967Y-13724579D01*
X12531967Y-13724579D02*
X12541491Y-13705531D01*
X12541491Y-13705531D02*
X12551015Y-13696008D01*
X12551015Y-13696008D02*
X12570062Y-13686484D01*
X12760539Y-13686484D02*
X12779586Y-13686484D01*
X12779586Y-13686484D02*
X12798634Y-13696008D01*
X12798634Y-13696008D02*
X12808158Y-13705531D01*
X12808158Y-13705531D02*
X12817682Y-13724579D01*
X12817682Y-13724579D02*
X12827205Y-13762674D01*
X12827205Y-13762674D02*
X12827205Y-13810293D01*
X12827205Y-13810293D02*
X12817682Y-13848388D01*
X12817682Y-13848388D02*
X12808158Y-13867436D01*
X12808158Y-13867436D02*
X12798634Y-13876960D01*
X12798634Y-13876960D02*
X12779586Y-13886484D01*
X12779586Y-13886484D02*
X12760539Y-13886484D01*
X12760539Y-13886484D02*
X12741491Y-13876960D01*
X12741491Y-13876960D02*
X12731967Y-13867436D01*
X12731967Y-13867436D02*
X12722443Y-13848388D01*
X12722443Y-13848388D02*
X12712920Y-13810293D01*
X12712920Y-13810293D02*
X12712920Y-13762674D01*
X12712920Y-13762674D02*
X12722443Y-13724579D01*
X12722443Y-13724579D02*
X12731967Y-13705531D01*
X12731967Y-13705531D02*
X12741491Y-13696008D01*
X12741491Y-13696008D02*
X12760539Y-13686484D01*
X12912920Y-13886484D02*
X12912920Y-13753150D01*
X12912920Y-13772198D02*
X12922443Y-13762674D01*
X12922443Y-13762674D02*
X12941491Y-13753150D01*
X12941491Y-13753150D02*
X12970063Y-13753150D01*
X12970063Y-13753150D02*
X12989110Y-13762674D01*
X12989110Y-13762674D02*
X12998634Y-13781722D01*
X12998634Y-13781722D02*
X12998634Y-13886484D01*
X12998634Y-13781722D02*
X13008158Y-13762674D01*
X13008158Y-13762674D02*
X13027205Y-13753150D01*
X13027205Y-13753150D02*
X13055777Y-13753150D01*
X13055777Y-13753150D02*
X13074824Y-13762674D01*
X13074824Y-13762674D02*
X13084348Y-13781722D01*
X13084348Y-13781722D02*
X13084348Y-13886484D01*
X13179586Y-13886484D02*
X13179586Y-13753150D01*
X13179586Y-13772198D02*
X13189110Y-13762674D01*
X13189110Y-13762674D02*
X13208158Y-13753150D01*
X13208158Y-13753150D02*
X13236729Y-13753150D01*
X13236729Y-13753150D02*
X13255777Y-13762674D01*
X13255777Y-13762674D02*
X13265301Y-13781722D01*
X13265301Y-13781722D02*
X13265301Y-13886484D01*
X13265301Y-13781722D02*
X13274824Y-13762674D01*
X13274824Y-13762674D02*
X13293872Y-13753150D01*
X13293872Y-13753150D02*
X13322443Y-13753150D01*
X13322443Y-13753150D02*
X13341491Y-13762674D01*
X13341491Y-13762674D02*
X13351015Y-13781722D01*
X13351015Y-13781722D02*
X13351015Y-13886484D01*
X13741491Y-13676960D02*
X13570063Y-13934103D01*
X13998634Y-13686484D02*
X14017682Y-13686484D01*
X14017682Y-13686484D02*
X14036729Y-13696008D01*
X14036729Y-13696008D02*
X14046253Y-13705531D01*
X14046253Y-13705531D02*
X14055777Y-13724579D01*
X14055777Y-13724579D02*
X14065301Y-13762674D01*
X14065301Y-13762674D02*
X14065301Y-13810293D01*
X14065301Y-13810293D02*
X14055777Y-13848388D01*
X14055777Y-13848388D02*
X14046253Y-13867436D01*
X14046253Y-13867436D02*
X14036729Y-13876960D01*
X14036729Y-13876960D02*
X14017682Y-13886484D01*
X14017682Y-13886484D02*
X13998634Y-13886484D01*
X13998634Y-13886484D02*
X13979586Y-13876960D01*
X13979586Y-13876960D02*
X13970063Y-13867436D01*
X13970063Y-13867436D02*
X13960539Y-13848388D01*
X13960539Y-13848388D02*
X13951015Y-13810293D01*
X13951015Y-13810293D02*
X13951015Y-13762674D01*
X13951015Y-13762674D02*
X13960539Y-13724579D01*
X13960539Y-13724579D02*
X13970063Y-13705531D01*
X13970063Y-13705531D02*
X13979586Y-13696008D01*
X13979586Y-13696008D02*
X13998634Y-13686484D01*
X14151015Y-13867436D02*
X14160539Y-13876960D01*
X14160539Y-13876960D02*
X14151015Y-13886484D01*
X14151015Y-13886484D02*
X14141491Y-13876960D01*
X14141491Y-13876960D02*
X14151015Y-13867436D01*
X14151015Y-13867436D02*
X14151015Y-13886484D01*
X14284348Y-13686484D02*
X14303396Y-13686484D01*
X14303396Y-13686484D02*
X14322444Y-13696008D01*
X14322444Y-13696008D02*
X14331967Y-13705531D01*
X14331967Y-13705531D02*
X14341491Y-13724579D01*
X14341491Y-13724579D02*
X14351015Y-13762674D01*
X14351015Y-13762674D02*
X14351015Y-13810293D01*
X14351015Y-13810293D02*
X14341491Y-13848388D01*
X14341491Y-13848388D02*
X14331967Y-13867436D01*
X14331967Y-13867436D02*
X14322444Y-13876960D01*
X14322444Y-13876960D02*
X14303396Y-13886484D01*
X14303396Y-13886484D02*
X14284348Y-13886484D01*
X14284348Y-13886484D02*
X14265301Y-13876960D01*
X14265301Y-13876960D02*
X14255777Y-13867436D01*
X14255777Y-13867436D02*
X14246253Y-13848388D01*
X14246253Y-13848388D02*
X14236729Y-13810293D01*
X14236729Y-13810293D02*
X14236729Y-13762674D01*
X14236729Y-13762674D02*
X14246253Y-13724579D01*
X14246253Y-13724579D02*
X14255777Y-13705531D01*
X14255777Y-13705531D02*
X14265301Y-13696008D01*
X14265301Y-13696008D02*
X14284348Y-13686484D01*
X14522444Y-13686484D02*
X14484348Y-13686484D01*
X14484348Y-13686484D02*
X14465301Y-13696008D01*
X14465301Y-13696008D02*
X14455777Y-13705531D01*
X14455777Y-13705531D02*
X14436729Y-13734103D01*
X14436729Y-13734103D02*
X14427206Y-13772198D01*
X14427206Y-13772198D02*
X14427206Y-13848388D01*
X14427206Y-13848388D02*
X14436729Y-13867436D01*
X14436729Y-13867436D02*
X14446253Y-13876960D01*
X14446253Y-13876960D02*
X14465301Y-13886484D01*
X14465301Y-13886484D02*
X14503396Y-13886484D01*
X14503396Y-13886484D02*
X14522444Y-13876960D01*
X14522444Y-13876960D02*
X14531967Y-13867436D01*
X14531967Y-13867436D02*
X14541491Y-13848388D01*
X14541491Y-13848388D02*
X14541491Y-13800769D01*
X14541491Y-13800769D02*
X14531967Y-13781722D01*
X14531967Y-13781722D02*
X14522444Y-13772198D01*
X14522444Y-13772198D02*
X14503396Y-13762674D01*
X14503396Y-13762674D02*
X14465301Y-13762674D01*
X14465301Y-13762674D02*
X14446253Y-13772198D01*
X14446253Y-13772198D02*
X14436729Y-13781722D01*
X14436729Y-13781722D02*
X14427206Y-13800769D01*
X14608158Y-13686484D02*
X14731967Y-13686484D01*
X14731967Y-13686484D02*
X14665301Y-13762674D01*
X14665301Y-13762674D02*
X14693872Y-13762674D01*
X14693872Y-13762674D02*
X14712920Y-13772198D01*
X14712920Y-13772198D02*
X14722444Y-13781722D01*
X14722444Y-13781722D02*
X14731967Y-13800769D01*
X14731967Y-13800769D02*
X14731967Y-13848388D01*
X14731967Y-13848388D02*
X14722444Y-13867436D01*
X14722444Y-13867436D02*
X14712920Y-13876960D01*
X14712920Y-13876960D02*
X14693872Y-13886484D01*
X14693872Y-13886484D02*
X14636729Y-13886484D01*
X14636729Y-13886484D02*
X14617682Y-13876960D01*
X14617682Y-13876960D02*
X14608158Y-13867436D01*
X14855777Y-13686484D02*
X14874825Y-13686484D01*
X14874825Y-13686484D02*
X14893872Y-13696008D01*
X14893872Y-13696008D02*
X14903396Y-13705531D01*
X14903396Y-13705531D02*
X14912920Y-13724579D01*
X14912920Y-13724579D02*
X14922444Y-13762674D01*
X14922444Y-13762674D02*
X14922444Y-13810293D01*
X14922444Y-13810293D02*
X14912920Y-13848388D01*
X14912920Y-13848388D02*
X14903396Y-13867436D01*
X14903396Y-13867436D02*
X14893872Y-13876960D01*
X14893872Y-13876960D02*
X14874825Y-13886484D01*
X14874825Y-13886484D02*
X14855777Y-13886484D01*
X14855777Y-13886484D02*
X14836729Y-13876960D01*
X14836729Y-13876960D02*
X14827206Y-13867436D01*
X14827206Y-13867436D02*
X14817682Y-13848388D01*
X14817682Y-13848388D02*
X14808158Y-13810293D01*
X14808158Y-13810293D02*
X14808158Y-13762674D01*
X14808158Y-13762674D02*
X14817682Y-13724579D01*
X14817682Y-13724579D02*
X14827206Y-13705531D01*
X14827206Y-13705531D02*
X14836729Y-13696008D01*
X14836729Y-13696008D02*
X14855777Y-13686484D01*
X14998634Y-13686484D02*
X14998634Y-13724579D01*
X15074825Y-13686484D02*
X15074825Y-13724579D01*
X15370063Y-13962674D02*
X15360539Y-13953150D01*
X15360539Y-13953150D02*
X15341491Y-13924579D01*
X15341491Y-13924579D02*
X15331968Y-13905531D01*
X15331968Y-13905531D02*
X15322444Y-13876960D01*
X15322444Y-13876960D02*
X15312920Y-13829341D01*
X15312920Y-13829341D02*
X15312920Y-13791246D01*
X15312920Y-13791246D02*
X15322444Y-13743627D01*
X15322444Y-13743627D02*
X15331968Y-13715055D01*
X15331968Y-13715055D02*
X15341491Y-13696008D01*
X15341491Y-13696008D02*
X15360539Y-13667436D01*
X15360539Y-13667436D02*
X15370063Y-13657912D01*
X15551015Y-13886484D02*
X15436729Y-13886484D01*
X15493872Y-13886484D02*
X15493872Y-13686484D01*
X15493872Y-13686484D02*
X15474825Y-13715055D01*
X15474825Y-13715055D02*
X15455777Y-13734103D01*
X15455777Y-13734103D02*
X15436729Y-13743627D01*
X15722444Y-13753150D02*
X15722444Y-13886484D01*
X15674825Y-13676960D02*
X15627206Y-13819817D01*
X15627206Y-13819817D02*
X15751015Y-13819817D01*
X15979587Y-13886484D02*
X15979587Y-13686484D01*
X16065301Y-13886484D02*
X16065301Y-13781722D01*
X16065301Y-13781722D02*
X16055777Y-13762674D01*
X16055777Y-13762674D02*
X16036730Y-13753150D01*
X16036730Y-13753150D02*
X16008158Y-13753150D01*
X16008158Y-13753150D02*
X15989110Y-13762674D01*
X15989110Y-13762674D02*
X15979587Y-13772198D01*
X16189110Y-13886484D02*
X16170063Y-13876960D01*
X16170063Y-13876960D02*
X16160539Y-13867436D01*
X16160539Y-13867436D02*
X16151015Y-13848388D01*
X16151015Y-13848388D02*
X16151015Y-13791246D01*
X16151015Y-13791246D02*
X16160539Y-13772198D01*
X16160539Y-13772198D02*
X16170063Y-13762674D01*
X16170063Y-13762674D02*
X16189110Y-13753150D01*
X16189110Y-13753150D02*
X16217682Y-13753150D01*
X16217682Y-13753150D02*
X16236730Y-13762674D01*
X16236730Y-13762674D02*
X16246253Y-13772198D01*
X16246253Y-13772198D02*
X16255777Y-13791246D01*
X16255777Y-13791246D02*
X16255777Y-13848388D01*
X16255777Y-13848388D02*
X16246253Y-13867436D01*
X16246253Y-13867436D02*
X16236730Y-13876960D01*
X16236730Y-13876960D02*
X16217682Y-13886484D01*
X16217682Y-13886484D02*
X16189110Y-13886484D01*
X16370063Y-13886484D02*
X16351015Y-13876960D01*
X16351015Y-13876960D02*
X16341491Y-13857912D01*
X16341491Y-13857912D02*
X16341491Y-13686484D01*
X16522444Y-13876960D02*
X16503396Y-13886484D01*
X16503396Y-13886484D02*
X16465301Y-13886484D01*
X16465301Y-13886484D02*
X16446253Y-13876960D01*
X16446253Y-13876960D02*
X16436730Y-13857912D01*
X16436730Y-13857912D02*
X16436730Y-13781722D01*
X16436730Y-13781722D02*
X16446253Y-13762674D01*
X16446253Y-13762674D02*
X16465301Y-13753150D01*
X16465301Y-13753150D02*
X16503396Y-13753150D01*
X16503396Y-13753150D02*
X16522444Y-13762674D01*
X16522444Y-13762674D02*
X16531968Y-13781722D01*
X16531968Y-13781722D02*
X16531968Y-13800769D01*
X16531968Y-13800769D02*
X16436730Y-13819817D01*
X16608158Y-13876960D02*
X16627206Y-13886484D01*
X16627206Y-13886484D02*
X16665301Y-13886484D01*
X16665301Y-13886484D02*
X16684349Y-13876960D01*
X16684349Y-13876960D02*
X16693872Y-13857912D01*
X16693872Y-13857912D02*
X16693872Y-13848388D01*
X16693872Y-13848388D02*
X16684349Y-13829341D01*
X16684349Y-13829341D02*
X16665301Y-13819817D01*
X16665301Y-13819817D02*
X16636730Y-13819817D01*
X16636730Y-13819817D02*
X16617682Y-13810293D01*
X16617682Y-13810293D02*
X16608158Y-13791246D01*
X16608158Y-13791246D02*
X16608158Y-13781722D01*
X16608158Y-13781722D02*
X16617682Y-13762674D01*
X16617682Y-13762674D02*
X16636730Y-13753150D01*
X16636730Y-13753150D02*
X16665301Y-13753150D01*
X16665301Y-13753150D02*
X16684349Y-13762674D01*
X16760539Y-13962674D02*
X16770063Y-13953150D01*
X16770063Y-13953150D02*
X16789111Y-13924579D01*
X16789111Y-13924579D02*
X16798634Y-13905531D01*
X16798634Y-13905531D02*
X16808158Y-13876960D01*
X16808158Y-13876960D02*
X16817682Y-13829341D01*
X16817682Y-13829341D02*
X16817682Y-13791246D01*
X16817682Y-13791246D02*
X16808158Y-13743627D01*
X16808158Y-13743627D02*
X16798634Y-13715055D01*
X16798634Y-13715055D02*
X16789111Y-13696008D01*
X16789111Y-13696008D02*
X16770063Y-13667436D01*
X16770063Y-13667436D02*
X16760539Y-13657912D01*
X17122444Y-13962674D02*
X17112920Y-13953150D01*
X17112920Y-13953150D02*
X17093873Y-13924579D01*
X17093873Y-13924579D02*
X17084349Y-13905531D01*
X17084349Y-13905531D02*
X17074825Y-13876960D01*
X17074825Y-13876960D02*
X17065301Y-13829341D01*
X17065301Y-13829341D02*
X17065301Y-13791246D01*
X17065301Y-13791246D02*
X17074825Y-13743627D01*
X17074825Y-13743627D02*
X17084349Y-13715055D01*
X17084349Y-13715055D02*
X17093873Y-13696008D01*
X17093873Y-13696008D02*
X17112920Y-13667436D01*
X17112920Y-13667436D02*
X17122444Y-13657912D01*
X17198634Y-13753150D02*
X17198634Y-13886484D01*
X17198634Y-13772198D02*
X17208158Y-13762674D01*
X17208158Y-13762674D02*
X17227206Y-13753150D01*
X17227206Y-13753150D02*
X17255777Y-13753150D01*
X17255777Y-13753150D02*
X17274825Y-13762674D01*
X17274825Y-13762674D02*
X17284349Y-13781722D01*
X17284349Y-13781722D02*
X17284349Y-13886484D01*
X17408158Y-13886484D02*
X17389111Y-13876960D01*
X17389111Y-13876960D02*
X17379587Y-13867436D01*
X17379587Y-13867436D02*
X17370063Y-13848388D01*
X17370063Y-13848388D02*
X17370063Y-13791246D01*
X17370063Y-13791246D02*
X17379587Y-13772198D01*
X17379587Y-13772198D02*
X17389111Y-13762674D01*
X17389111Y-13762674D02*
X17408158Y-13753150D01*
X17408158Y-13753150D02*
X17436730Y-13753150D01*
X17436730Y-13753150D02*
X17455777Y-13762674D01*
X17455777Y-13762674D02*
X17465301Y-13772198D01*
X17465301Y-13772198D02*
X17474825Y-13791246D01*
X17474825Y-13791246D02*
X17474825Y-13848388D01*
X17474825Y-13848388D02*
X17465301Y-13867436D01*
X17465301Y-13867436D02*
X17455777Y-13876960D01*
X17455777Y-13876960D02*
X17436730Y-13886484D01*
X17436730Y-13886484D02*
X17408158Y-13886484D01*
X17531968Y-13753150D02*
X17608158Y-13753150D01*
X17560539Y-13686484D02*
X17560539Y-13857912D01*
X17560539Y-13857912D02*
X17570063Y-13876960D01*
X17570063Y-13876960D02*
X17589111Y-13886484D01*
X17589111Y-13886484D02*
X17608158Y-13886484D01*
X17827206Y-13753150D02*
X17827206Y-13953150D01*
X17827206Y-13762674D02*
X17846254Y-13753150D01*
X17846254Y-13753150D02*
X17884349Y-13753150D01*
X17884349Y-13753150D02*
X17903396Y-13762674D01*
X17903396Y-13762674D02*
X17912920Y-13772198D01*
X17912920Y-13772198D02*
X17922444Y-13791246D01*
X17922444Y-13791246D02*
X17922444Y-13848388D01*
X17922444Y-13848388D02*
X17912920Y-13867436D01*
X17912920Y-13867436D02*
X17903396Y-13876960D01*
X17903396Y-13876960D02*
X17884349Y-13886484D01*
X17884349Y-13886484D02*
X17846254Y-13886484D01*
X17846254Y-13886484D02*
X17827206Y-13876960D01*
X18036730Y-13886484D02*
X18017682Y-13876960D01*
X18017682Y-13876960D02*
X18008158Y-13857912D01*
X18008158Y-13857912D02*
X18008158Y-13686484D01*
X18198635Y-13886484D02*
X18198635Y-13781722D01*
X18198635Y-13781722D02*
X18189111Y-13762674D01*
X18189111Y-13762674D02*
X18170063Y-13753150D01*
X18170063Y-13753150D02*
X18131968Y-13753150D01*
X18131968Y-13753150D02*
X18112920Y-13762674D01*
X18198635Y-13876960D02*
X18179587Y-13886484D01*
X18179587Y-13886484D02*
X18131968Y-13886484D01*
X18131968Y-13886484D02*
X18112920Y-13876960D01*
X18112920Y-13876960D02*
X18103396Y-13857912D01*
X18103396Y-13857912D02*
X18103396Y-13838865D01*
X18103396Y-13838865D02*
X18112920Y-13819817D01*
X18112920Y-13819817D02*
X18131968Y-13810293D01*
X18131968Y-13810293D02*
X18179587Y-13810293D01*
X18179587Y-13810293D02*
X18198635Y-13800769D01*
X18265301Y-13753150D02*
X18341492Y-13753150D01*
X18293873Y-13686484D02*
X18293873Y-13857912D01*
X18293873Y-13857912D02*
X18303396Y-13876960D01*
X18303396Y-13876960D02*
X18322444Y-13886484D01*
X18322444Y-13886484D02*
X18341492Y-13886484D01*
X18484349Y-13876960D02*
X18465301Y-13886484D01*
X18465301Y-13886484D02*
X18427206Y-13886484D01*
X18427206Y-13886484D02*
X18408158Y-13876960D01*
X18408158Y-13876960D02*
X18398635Y-13857912D01*
X18398635Y-13857912D02*
X18398635Y-13781722D01*
X18398635Y-13781722D02*
X18408158Y-13762674D01*
X18408158Y-13762674D02*
X18427206Y-13753150D01*
X18427206Y-13753150D02*
X18465301Y-13753150D01*
X18465301Y-13753150D02*
X18484349Y-13762674D01*
X18484349Y-13762674D02*
X18493873Y-13781722D01*
X18493873Y-13781722D02*
X18493873Y-13800769D01*
X18493873Y-13800769D02*
X18398635Y-13819817D01*
X18665301Y-13886484D02*
X18665301Y-13686484D01*
X18665301Y-13876960D02*
X18646254Y-13886484D01*
X18646254Y-13886484D02*
X18608158Y-13886484D01*
X18608158Y-13886484D02*
X18589111Y-13876960D01*
X18589111Y-13876960D02*
X18579587Y-13867436D01*
X18579587Y-13867436D02*
X18570063Y-13848388D01*
X18570063Y-13848388D02*
X18570063Y-13791246D01*
X18570063Y-13791246D02*
X18579587Y-13772198D01*
X18579587Y-13772198D02*
X18589111Y-13762674D01*
X18589111Y-13762674D02*
X18608158Y-13753150D01*
X18608158Y-13753150D02*
X18646254Y-13753150D01*
X18646254Y-13753150D02*
X18665301Y-13762674D01*
X18741492Y-13962674D02*
X18751016Y-13953150D01*
X18751016Y-13953150D02*
X18770063Y-13924579D01*
X18770063Y-13924579D02*
X18779587Y-13905531D01*
X18779587Y-13905531D02*
X18789111Y-13876960D01*
X18789111Y-13876960D02*
X18798635Y-13829341D01*
X18798635Y-13829341D02*
X18798635Y-13791246D01*
X18798635Y-13791246D02*
X18789111Y-13743627D01*
X18789111Y-13743627D02*
X18779587Y-13715055D01*
X18779587Y-13715055D02*
X18770063Y-13696008D01*
X18770063Y-13696008D02*
X18751016Y-13667436D01*
X18751016Y-13667436D02*
X18741492Y-13657912D01*
M02*
